<?xml version="1.0" encoding="utf-8"?>
<!-- Generator: Adobe Illustrator 16.0.0, SVG Export Plug-In . SVG Version: 6.00 Build 0)  -->
<!DOCTYPE svg PUBLIC "-//W3C//DTD SVG 1.1//EN" "http://www.w3.org/Graphics/SVG/1.1/DTD/svg11.dtd">
<svg version="1.1" id="Layer_1" xmlns="http://www.w3.org/2000/svg" xmlns:xlink="http://www.w3.org/1999/xlink" x="0px" y="0px"
	 width="135px" height="135px" viewBox="0 0 135 135" style="enable-background:new 0 0 135 135;" xml:space="preserve">
<style type="text/css">
<![CDATA[
	.st0{fill:#465652;}
	.st1{fill:#AAB9BA;}
	.st2{fill:#47C67B;}
	.st3{fill:#AAC8D1;}
	.st4{fill:none;stroke:#E83834;stroke-width:6;stroke-linecap:round;stroke-linejoin:round;stroke-miterlimit:10;}
	.st5{fill:#7BC67B;}
	.st6{fill:#7BC7FF;}
	.st7{fill:#7C34C1;}
	.st8{fill:#7C8D96;}
	.st9{fill:#AD2707;}
	.st10{fill:#ADB8BC;}
	.st11{fill:#107510;}
	.st12{fill:#7FE5D8;}
	.st13{fill:#AF4AD1;}
	.st14{fill:#E02B7E;}
	.st15{fill:#E04038;}
	.st16{fill:#AFD7DD;}
	.st17{fill:#E0A010;}
	.st18{fill:#E0D5A4;}
	.st19{fill:#12B2B2;}
	.st20{fill:#12D66B;}
	.st21{fill:#E1A9FF;}
	.st22{fill:#1362A8;}
	.st23{fill:#E2378D;}
	.st24{fill:#E29C37;}
	.st25{fill:#E2B90E;}
	.st26{fill:#E2BF91;}
	.st27{fill:#E2CBAA;}
	.st28{fill:#14A594;}
	.st29{fill:#E4E9ED;}
	.st30{fill:#4A5D60;}
	.st31{fill:#E5B076;}
	.st32{fill:#E5B1C4;}
	.st33{fill:#E5E4C3;}
	.st34{fill:#4B6466;}
	.st35{fill:#E6FF2E;}
	.st36{fill:#18AA67;}
	.st37{fill:#E86207;}
	.st38{fill:#E8A113;}
	.st39{fill:#E8B5A6;}
	.st40{fill:#E8E8ED;}
	.st41{fill:#4E5154;}
	.st42{fill:#E9F1F4;}
	.st43{fill:#4F4B48;}
	.st44{fill:#4F74E8;}
	.st45{fill:#808E93;}
	.st46{fill:#80949B;}
	.st47{fill:#80EDAC;}
	.st48{fill:#B122E0;}
	.st49{fill:#B2C4CC;}
	.st50{fill:#83D839;}
	.st51{fill:#B3C6C6;}
	.st52{fill:none;stroke:#33363A;stroke-width:3;stroke-linecap:round;stroke-linejoin:round;stroke-miterlimit:10;}
	.st53{fill:#1A8E1C;}
	.st54{fill:#1A93D6;}
	.st55{fill:#B50B0B;}
	.st56{fill:#1AD88F;}
	.st57{fill:#B5DAF4;}
	.st58{fill:#EA7B1F;}
	.st59{fill:#EA81BD;}
	.st60{fill:#87B8D6;}
	.st61{fill:#87C3F4;}
	.st62{fill:#EAC79D;}
	.st63{fill:#EADF11;}
	.st64{fill:#EAE4C5;}
	.st65{fill:#B78094;}
	.st66{fill:#8844D8;}
	.st67{fill:#EBF4F7;}
	.st68{fill:#893015;}
	.st69{fill:#89410B;}
	.st70{fill:#899BA3;}
	.st71{fill:#EDE3B9;}
	.st72{enable-background:new    ;}
	.st73{fill:#50FF9F;}
	.st74{fill:#EEDCF4;}
	.st75{fill:#EFA37D;}
	.st76{fill:#EFA3CC;}
	.st77{fill:#EFC99A;}
	.st78{fill:#54AF79;}
	.st79{fill:#BA503A;}
	.st80{fill:#BA8663;}
	.st81{fill:#8B4FE0;}
	.st82{fill:#58ED9B;}
	.st83{fill:#BC7DFF;}
	.st84{fill:#8D9AA3;}
	.st85{fill:#BCCAD3;}
	.st86{fill:#8DE4FF;}
	.st87{fill:#20B518;}
	.st88{fill:#BF44F2;}
	.st89{fill:#21CEA1;}
	.st90{fill:#BFDAE0;}
	.st91{fill:#F0FBFC;}
	.st92{fill:#F2D9A7;}
	.st93{fill:#F2EAC9;}
	.st94{fill:#24D1AF;}
	.st95{fill:#25931C;}
	.st96{fill:#F4C4B3;}
	.st97{fill:#F4D3A2;}
	.st98{fill:#F4D647;}
	.st99{fill:#F4D7B8;}
	.st100{fill:#F4EC8E;}
	.st101{fill:#5B524D;}
	.st102{fill:#F77819;}
	.st103{fill:#F79AE1;}
	.st104{fill:#5E707A;}
	.st105{fill:#F93585;}
	.st106{fill:#F95D5D;}
	.st107{fill:#F9C19B;}
	.st108{fill:#F9CB58;}
	.st109{fill:#F9D2B2;}
	.st110{fill:#F9F07D;}
	.st111{fill:#F9F1D2;}
	.st112{fill:#F9F4B7;}
	.st113{fill:#F9F9E4;}
	.st114{fill:#5F1DAA;}
	.st115{fill:#5F9AD6;}
	.st116{fill:#C0C0C4;}
	.st117{fill:#91EA57;}
	.st118{fill:#C12727;}
	.st119{fill:#C191A0;}
	.st120{fill:#923BB7;}
	.st121{fill:#93A0A3;}
	.st122{fill:#93F9EA;}
	.st123{fill:#93FF5A;}
	.st124{fill:#C4833D;}
	.st125{fill:#95A2A5;}
	.st126{fill:#965514;}
	.st127{fill:#96562C;}
	.st128{fill:#2AF42F;}
	.st129{fill:#C5D7DD;}
	.st130{fill:#C68510;}
	.st131{fill:#C6A86D;}
	.st132{fill:#C6BB8D;}
	.st133{fill:#2C9DCE;}
	.st134{fill:#FBFCF2;}
	.st135{fill:#FC70B0;}
	.st136{fill:#FCE6C8;}
	.st137{fill:#FCF7E3;}
	.st138{fill:#C90D6B;}
	.st139{fill:#FDFEFF;}
	.st140{fill:#FDFFDC;}
	.st141{fill:#FF1A1A;}
	.st142{fill:#FF5252;}
	.st143{fill:#FF5B00;}
	.st144{fill:#FF6155;}
	.st145{fill:#FF630D;}
	.st146{fill:#FF6666;}
	.st147{fill:#FF7676;}
	.st148{fill:#FF7900;}
	.st149{fill:#FF860D;}
	.st150{fill:#FF8B00;}
	.st151{fill:#FF8F8F;}
	.st152{fill:#FF900B;}
	.st153{fill:#FF908A;}
	.st154{fill:#FF960B;}
	.st155{fill:#FF9C0D;}
	.st156{fill:#FFA9D4;}
	.st157{fill:#FFAA00;}
	.st158{fill:#FFAD40;}
	.st159{fill:#FFAF10;}
	.st160{fill:#FFB000;}
	.st161{fill:#FFBE08;}
	.st162{fill:#FFBF31;}
	.st163{fill:#FFC200;}
	.st164{fill:#FFCAE8;}
	.st165{fill:#FFCCF5;}
	.st166{fill:#FFD00B;}
	.st167{fill:#FFD039;}
	.st168{fill:#FFD400;}
	.st169{fill:#FFD833;}
	.st170{fill:#FFDB80;}
	.st171{fill:#FFDDD2;}
	.st172{fill:#FFE6D4;}
	.st173{fill:#FFE6EB;}
	.st174{fill:#FFE98D;}
	.st175{fill:#FFECD2;}
	.st176{fill:#FFF1D9;}
	.st177{fill:#FFF24D;}
	.st178{fill:#FFF3C2;}
	.st179{fill:#FFF4C7;}
	.st180{fill:#FFF800;}
	.st181{fill:#FFF80D;}
	.st182{fill:#FFF9DE;}
	.st183{fill:#FFFBD7;}
	.st184{fill:#FFFBEB;}
	.st185{fill:#FFFCC0;}
	.st186{fill:#FFFCDC;}
	.st187{fill:#FFFFFA;}
	.st188{fill:#FFFFFF;}
	.st189{fill:#63797F;}
	.st190{fill:#65E529;}
	.st191{fill:#66310E;}
	.st192{fill:#663C17;}
	.st193{fill:#9A5AE5;}
	.st194{fill:#CA30EF;}
	.st195{fill:#6892FC;}
	.st196{fill:#9CFFC4;}
	.st197{fill:#CC4306;}
	.st198{fill:#CC549E;}
	.st199{fill:#9E3256;}
	.st200{fill:#CDFFBB;}
	.st201{fill:#CE86AF;}
	.st202{fill:#CED9DD;}
	
		.st203{fill:none;stroke:#33363A;stroke-width:3;stroke-linecap:round;stroke-linejoin:round;stroke-miterlimit:10;stroke-dasharray:6;}
	.st204{fill:#CFE1E2;}
	.st205{fill:#33363A;}
	.st206{fill:#34C166;}
	.st207{fill:#364B5B;}
	.st208{fill:#3662CE;}
	.st209{fill:#36C6FF;}
	.st210{fill:#6ADB9A;}
	.st211{fill:#6D5C4D;}
	.st212{fill:#6EBDF9;}
	.st213{fill:#0031FF;}
	.st214{fill:#0062FF;}
	.st215{fill:#0068FF;}
	.st216{fill:#0086FF;}
	.st217{fill:#009BE8;}
	.st218{fill:#00AAFF;}
	.st219{fill:#D271FF;}
	.st220{fill:#D363A9;}
	.st221{fill:#D3964C;}
	.st222{fill:#D3DFE2;}
	.st223{fill:#D3E0E2;}
	.st224{fill:#D3EFF4;}
	.st225{fill:#063B66;}
	.st226{fill:#D60909;}
	.st227{fill:#D61D1D;}
	.st228{fill:#D7F0FF;}
	.st229{fill:#09B285;}
	.st230{fill:#D8D593;}
	.st231{fill:#D8E2EA;}
	.st232{fill:#D8E5EA;}
	.st233{fill:#3E5054;}
	.st234{fill:#D988FF;}
	.st235{fill:#D9E7E8;}
	.st236{fill:#702252;}
	.st237{fill:#70D3E0;}
	.st238{fill:#A02FF2;}
	.st239{fill:#A2F255;}
	.st240{fill:#A35616;}
	.st241{fill:#A3CCCC;}
	.st242{fill:#0A6ADD;}
	.st243{fill:#A5145D;}
	.st244{fill:#A57555;}
	.st245{fill:#77D6FC;}
	.st246{fill:#7815CE;}
	.st247{fill:#A7BBC1;}
	.st248{fill:#DBD279;}
	.st249{fill:#0D5C9E;}
	.st250{fill:#A83C11;}
	.st251{fill:#A8633D;}
	.st252{fill:#A8A3E5;}
	.st253{fill:#DCE6EA;}
	.st254{fill:#DCE7EA;}
	.st255{fill:#A962E8;}
	.st256{fill:#DD2466;}
	.st257{fill:#DDC38A;}
	.st258{fill:#DDD2B1;}
	.st259{fill:#DFE7E8;}
	.st260{fill:#42B1E8;}
	.st261{fill:#436377;}
	.st262{fill:#43B530;}
]]>
</style>
<g>
	<g>
		<path class="st6" d="M87.086,116.475c-19.654-11.375-7.225-28.067-7.225-35.3H67.57h-0.139H55.139
			c0,7.232,12.432,23.925-7.225,35.3c-3.682,3.605-3.34,8.218-2.822,13.39H89.91C90.426,124.692,90.768,120.08,87.086,116.475z"/>
	</g>
	<g>
		<path class="st216" d="M79.115,116.475c-11.656-11.375-4.285-28.067-4.285-35.3h-7.289h-0.082H60.17
			c0,7.232,7.371,23.925-4.283,35.3c-2.184,3.605-1.98,8.218-1.674,13.39h26.576C81.094,124.692,81.297,120.08,79.115,116.475z"/>
	</g>
	<g>
		<path class="st242" d="M67.57,81.175h-0.139H55.139c0,2.918,2.023,7.377,3.146,12.404l9.215,7.959l-0.715-3.74l0.715,2.055
			l0.713-2.049l-0.713,3.734l9.215-7.959c1.123-5.027,3.146-9.486,3.146-12.404H67.57z"/>
	</g>
	<g>
		<path class="st205" d="M89.912,131.364c-0.05,0-0.101-0.002-0.15-0.008c-0.825-0.082-1.427-0.816-1.344-1.641
			c0.531-5.337,0.661-9.079-2.254-12.042c-15.824-9.265-11.865-21.969-9.243-30.386c0.542-1.74,1.033-3.314,1.277-4.613H56.802
			c0.245,1.299,0.735,2.873,1.277,4.613c2.623,8.417,6.582,21.121-9.243,30.386c-2.917,2.965-2.785,6.705-2.252,12.041
			c0.083,0.824-0.519,1.56-1.343,1.642c-0.83,0.095-1.56-0.519-1.642-1.343c-0.488-4.872-1.041-10.395,3.265-14.61
			c0.09-0.088,0.19-0.164,0.299-0.227c13.948-8.072,10.679-18.565,8.052-26.996c-0.846-2.715-1.576-5.06-1.576-7.006
			c0-0.828,0.672-1.5,1.5-1.5h24.723c0.828,0,1.5,0.672,1.5,1.5c0,1.946-0.73,4.291-1.576,7.005
			c-2.626,8.432-5.896,18.925,8.052,26.997c0.108,0.062,0.209,0.139,0.299,0.227c4.304,4.214,3.753,9.737,3.267,14.609
			C91.325,130.787,90.674,131.364,89.912,131.364z"/>
	</g>
	<g>
		<g>
			<g>
				<g>
					<polygon class="st6" points="60.1,54.792 67.5,93.538 37.646,67.755 30.246,29.011 					"/>
				</g>
				<g>
					<polygon class="st216" points="44.709,73.855 67.5,93.538 61.85,63.962 39.062,44.282 					"/>
				</g>
				<g>
					<path class="st205" d="M67.5,95.038c-0.352,0-0.701-0.124-0.98-0.365L36.666,68.89c-0.256-0.221-0.43-0.521-0.493-0.854
						l-7.4-38.744c-0.119-0.627,0.171-1.261,0.724-1.58c0.552-0.32,1.246-0.255,1.73,0.164L61.08,53.657
						c0.256,0.221,0.43,0.522,0.493,0.854l7.354,38.51c0.06,0.161,0.092,0.336,0.092,0.518c0,0.828-0.671,1.5-1.5,1.5
						C67.514,95.038,67.508,95.038,67.5,95.038z M39.021,66.961l26.196,22.624l-6.493-33.999L32.528,32.963L39.021,66.961z"/>
				</g>
			</g>
			<g>
				<g>
					<polygon class="st6" points="74.9,54.792 67.5,93.538 97.354,67.755 104.754,29.011 					"/>
				</g>
				<g>
					<polygon class="st216" points="90.291,73.855 67.5,93.538 73.15,63.962 95.938,44.282 					"/>
				</g>
				<g>
					<path class="st205" d="M67.5,95.038c-0.258,0-0.517-0.066-0.75-0.201c-0.553-0.319-0.843-0.953-0.724-1.58l7.4-38.746
						c0.063-0.332,0.237-0.633,0.493-0.854l29.854-25.781c0.484-0.418,1.179-0.483,1.73-0.164c0.553,0.319,0.843,0.953,0.724,1.58
						l-7.4,38.744c-0.063,0.332-0.237,0.633-0.493,0.854L68.48,94.673C68.201,94.914,67.852,95.038,67.5,95.038z M76.275,55.586
						l-6.493,33.999l26.196-22.624l6.493-33.998L76.275,55.586z"/>
				</g>
			</g>
		</g>
		<g>
			<g>
				<polygon class="st6" points="82.588,48.493 67.5,91.853 52.412,48.493 67.5,5.136 				"/>
			</g>
			<g>
				<polygon class="st216" points="55.982,58.754 67.5,91.853 79.018,58.754 67.5,25.657 				"/>
			</g>
			<g>
				<path class="st205" d="M67.5,93.353c-0.639,0-1.207-0.404-1.417-1.007L50.995,48.986c-0.11-0.319-0.11-0.667,0-0.986
					L66.083,4.643c0.21-0.603,0.778-1.007,1.417-1.007s1.207,0.404,1.417,1.007L84.005,48c0.11,0.319,0.11,0.667,0,0.986
					L68.917,92.346C68.707,92.948,68.139,93.353,67.5,93.353z M54,48.493l13.5,38.795L81,48.493L67.5,9.7L54,48.493z"/>
			</g>
		</g>
	</g>
	<g>
		<polygon class="st6" points="71.016,99.637 67.5,103.8 63.986,99.637 67.5,96.862 		"/>
	</g>
	<g>
		<path class="st205" d="M67.5,105.3L67.5,105.3c-0.442,0-0.861-0.195-1.146-0.532l-3.514-4.163
			c-0.262-0.311-0.387-0.714-0.346-1.118s0.244-0.775,0.562-1.027l3.514-2.774c0.545-0.43,1.314-0.43,1.859,0l3.516,2.774
			c0.318,0.252,0.521,0.622,0.562,1.027c0.041,0.404-0.084,0.808-0.346,1.118l-3.516,4.163C68.361,105.105,67.941,105.3,67.5,105.3z
			 M66.132,99.854l1.368,1.621l1.369-1.621l-1.369-1.08L66.132,99.854z"/>
	</g>
</g>
</svg>
