<?xml version="1.0" encoding="utf-8"?>
<!-- Generator: Adobe Illustrator 16.0.0, SVG Export Plug-In . SVG Version: 6.00 Build 0)  -->
<!DOCTYPE svg PUBLIC "-//W3C//DTD SVG 1.1//EN" "http://www.w3.org/Graphics/SVG/1.1/DTD/svg11.dtd">
<svg version="1.1" id="Layer_1" xmlns="http://www.w3.org/2000/svg" xmlns:xlink="http://www.w3.org/1999/xlink" x="0px" y="0px"
	 width="135px" height="135px" viewBox="0 0 135 135" style="enable-background:new 0 0 135 135;" xml:space="preserve">
<style type="text/css">
<![CDATA[
	.st0{fill:#465652;}
	.st1{fill:#AAB9BA;}
	.st2{fill:#47C67B;}
	.st3{fill:#AAC8D1;}
	.st4{fill:none;stroke:#E83834;stroke-width:6;stroke-linecap:round;stroke-linejoin:round;stroke-miterlimit:10;}
	.st5{fill:#7BC67B;}
	.st6{fill:#7BC7FF;}
	.st7{fill:#7C34C1;}
	.st8{fill:#7C8D96;}
	.st9{fill:#AD2707;}
	.st10{fill:#ADB8BC;}
	.st11{fill:#107510;}
	.st12{fill:#7FE5D8;}
	.st13{fill:#AF4AD1;}
	.st14{fill:#E02B7E;}
	.st15{fill:#E04038;}
	.st16{fill:#AFD7DD;}
	.st17{fill:#E0A010;}
	.st18{fill:#E0D5A4;}
	.st19{fill:#12B2B2;}
	.st20{fill:#12D66B;}
	.st21{fill:#E1A9FF;}
	.st22{fill:#1362A8;}
	.st23{fill:#E2378D;}
	.st24{fill:#E29C37;}
	.st25{fill:#E2B90E;}
	.st26{fill:#E2BF91;}
	.st27{fill:#E2CBAA;}
	.st28{fill:#14A594;}
	.st29{fill:#E4E9ED;}
	.st30{fill:#4A5D60;}
	.st31{fill:#E5B076;}
	.st32{fill:#E5B1C4;}
	.st33{fill:#E5E4C3;}
	.st34{fill:#4B6466;}
	.st35{fill:#E6FF2E;}
	.st36{fill:#18AA67;}
	.st37{fill:#E86207;}
	.st38{fill:#E8A113;}
	.st39{fill:#E8B5A6;}
	.st40{fill:#E8E8ED;}
	.st41{fill:#4E5154;}
	.st42{fill:#E9F1F4;}
	.st43{fill:#4F4B48;}
	.st44{fill:#4F74E8;}
	.st45{fill:#808E93;}
	.st46{fill:#80949B;}
	.st47{fill:#80EDAC;}
	.st48{fill:#B122E0;}
	.st49{fill:#B2C4CC;}
	.st50{fill:#83D839;}
	.st51{fill:#B3C6C6;}
	.st52{fill:none;stroke:#33363A;stroke-width:3;stroke-linecap:round;stroke-linejoin:round;stroke-miterlimit:10;}
	.st53{fill:#1A8E1C;}
	.st54{fill:#1A93D6;}
	.st55{fill:#B50B0B;}
	.st56{fill:#1AD88F;}
	.st57{fill:#B5DAF4;}
	.st58{fill:#EA7B1F;}
	.st59{fill:#EA81BD;}
	.st60{fill:#87B8D6;}
	.st61{fill:#87C3F4;}
	.st62{fill:#EAC79D;}
	.st63{fill:#EADF11;}
	.st64{fill:#EAE4C5;}
	.st65{fill:#B78094;}
	.st66{fill:#8844D8;}
	.st67{fill:#EBF4F7;}
	.st68{fill:#893015;}
	.st69{fill:#89410B;}
	.st70{fill:#899BA3;}
	.st71{fill:#EDE3B9;}
	.st72{enable-background:new    ;}
	.st73{fill:#50FF9F;}
	.st74{fill:#EEDCF4;}
	.st75{fill:#EFA37D;}
	.st76{fill:#EFA3CC;}
	.st77{fill:#EFC99A;}
	.st78{fill:#54AF79;}
	.st79{fill:#BA503A;}
	.st80{fill:#BA8663;}
	.st81{fill:#8B4FE0;}
	.st82{fill:#58ED9B;}
	.st83{fill:#BC7DFF;}
	.st84{fill:#8D9AA3;}
	.st85{fill:#BCCAD3;}
	.st86{fill:#8DE4FF;}
	.st87{fill:#20B518;}
	.st88{fill:#BF44F2;}
	.st89{fill:#21CEA1;}
	.st90{fill:#BFDAE0;}
	.st91{fill:#F0FBFC;}
	.st92{fill:#F2D9A7;}
	.st93{fill:#F2EAC9;}
	.st94{fill:#24D1AF;}
	.st95{fill:#25931C;}
	.st96{fill:#F4C4B3;}
	.st97{fill:#F4D3A2;}
	.st98{fill:#F4D647;}
	.st99{fill:#F4D7B8;}
	.st100{fill:#F4EC8E;}
	.st101{fill:#5B524D;}
	.st102{fill:#F77819;}
	.st103{fill:#F79AE1;}
	.st104{fill:#5E707A;}
	.st105{fill:#F93585;}
	.st106{fill:#F95D5D;}
	.st107{fill:#F9C19B;}
	.st108{fill:#F9CB58;}
	.st109{fill:#F9D2B2;}
	.st110{fill:#F9F07D;}
	.st111{fill:#F9F1D2;}
	.st112{fill:#F9F4B7;}
	.st113{fill:#F9F9E4;}
	.st114{fill:#5F1DAA;}
	.st115{fill:#5F9AD6;}
	.st116{fill:#C0C0C4;}
	.st117{fill:#91EA57;}
	.st118{fill:#C12727;}
	.st119{fill:#C191A0;}
	.st120{fill:#923BB7;}
	.st121{fill:#93A0A3;}
	.st122{fill:#93F9EA;}
	.st123{fill:#93FF5A;}
	.st124{fill:#C4833D;}
	.st125{fill:#95A2A5;}
	.st126{fill:#965514;}
	.st127{fill:#96562C;}
	.st128{fill:#2AF42F;}
	.st129{fill:#C5D7DD;}
	.st130{fill:#C68510;}
	.st131{fill:#C6A86D;}
	.st132{fill:#C6BB8D;}
	.st133{fill:#2C9DCE;}
	.st134{fill:#FBFCF2;}
	.st135{fill:#FC70B0;}
	.st136{fill:#FCE6C8;}
	.st137{fill:#FCF7E3;}
	.st138{fill:#C90D6B;}
	.st139{fill:#FDFEFF;}
	.st140{fill:#FDFFDC;}
	.st141{fill:#FF1A1A;}
	.st142{fill:#FF5252;}
	.st143{fill:#FF5B00;}
	.st144{fill:#FF6155;}
	.st145{fill:#FF630D;}
	.st146{fill:#FF6666;}
	.st147{fill:#FF7676;}
	.st148{fill:#FF7900;}
	.st149{fill:#FF860D;}
	.st150{fill:#FF8B00;}
	.st151{fill:#FF8F8F;}
	.st152{fill:#FF900B;}
	.st153{fill:#FF908A;}
	.st154{fill:#FF960B;}
	.st155{fill:#FF9C0D;}
	.st156{fill:#FFA9D4;}
	.st157{fill:#FFAA00;}
	.st158{fill:#FFAD40;}
	.st159{fill:#FFAF10;}
	.st160{fill:#FFB000;}
	.st161{fill:#FFBE08;}
	.st162{fill:#FFBF31;}
	.st163{fill:#FFC200;}
	.st164{fill:#FFCAE8;}
	.st165{fill:#FFCCF5;}
	.st166{fill:#FFD00B;}
	.st167{fill:#FFD039;}
	.st168{fill:#FFD400;}
	.st169{fill:#FFD833;}
	.st170{fill:#FFDB80;}
	.st171{fill:#FFDDD2;}
	.st172{fill:#FFE6D4;}
	.st173{fill:#FFE6EB;}
	.st174{fill:#FFE98D;}
	.st175{fill:#FFECD2;}
	.st176{fill:#FFF1D9;}
	.st177{fill:#FFF24D;}
	.st178{fill:#FFF3C2;}
	.st179{fill:#FFF4C7;}
	.st180{fill:#FFF800;}
	.st181{fill:#FFF80D;}
	.st182{fill:#FFF9DE;}
	.st183{fill:#FFFBD7;}
	.st184{fill:#FFFBEB;}
	.st185{fill:#FFFCC0;}
	.st186{fill:#FFFCDC;}
	.st187{fill:#FFFFFA;}
	.st188{fill:#FFFFFF;}
	.st189{fill:#63797F;}
	.st190{fill:#65E529;}
	.st191{fill:#66310E;}
	.st192{fill:#663C17;}
	.st193{fill:#9A5AE5;}
	.st194{fill:#CA30EF;}
	.st195{fill:#6892FC;}
	.st196{fill:#9CFFC4;}
	.st197{fill:#CC4306;}
	.st198{fill:#CC549E;}
	.st199{fill:#9E3256;}
	.st200{fill:#CDFFBB;}
	.st201{fill:#CE86AF;}
	.st202{fill:#CED9DD;}
	
		.st203{fill:none;stroke:#33363A;stroke-width:3;stroke-linecap:round;stroke-linejoin:round;stroke-miterlimit:10;stroke-dasharray:6;}
	.st204{fill:#CFE1E2;}
	.st205{fill:#33363A;}
	.st206{fill:#34C166;}
	.st207{fill:#364B5B;}
	.st208{fill:#3662CE;}
	.st209{fill:#36C6FF;}
	.st210{fill:#6ADB9A;}
	.st211{fill:#6D5C4D;}
	.st212{fill:#6EBDF9;}
	.st213{fill:#0031FF;}
	.st214{fill:#0062FF;}
	.st215{fill:#0068FF;}
	.st216{fill:#0086FF;}
	.st217{fill:#009BE8;}
	.st218{fill:#00AAFF;}
	.st219{fill:#D271FF;}
	.st220{fill:#D363A9;}
	.st221{fill:#D3964C;}
	.st222{fill:#D3DFE2;}
	.st223{fill:#D3E0E2;}
	.st224{fill:#D3EFF4;}
	.st225{fill:#063B66;}
	.st226{fill:#D60909;}
	.st227{fill:#D61D1D;}
	.st228{fill:#D7F0FF;}
	.st229{fill:#09B285;}
	.st230{fill:#D8D593;}
	.st231{fill:#D8E2EA;}
	.st232{fill:#D8E5EA;}
	.st233{fill:#3E5054;}
	.st234{fill:#D988FF;}
	.st235{fill:#D9E7E8;}
	.st236{fill:#702252;}
	.st237{fill:#70D3E0;}
	.st238{fill:#A02FF2;}
	.st239{fill:#A2F255;}
	.st240{fill:#A35616;}
	.st241{fill:#A3CCCC;}
	.st242{fill:#0A6ADD;}
	.st243{fill:#A5145D;}
	.st244{fill:#A57555;}
	.st245{fill:#77D6FC;}
	.st246{fill:#7815CE;}
	.st247{fill:#A7BBC1;}
	.st248{fill:#DBD279;}
	.st249{fill:#0D5C9E;}
	.st250{fill:#A83C11;}
	.st251{fill:#A8633D;}
	.st252{fill:#A8A3E5;}
	.st253{fill:#DCE6EA;}
	.st254{fill:#DCE7EA;}
	.st255{fill:#A962E8;}
	.st256{fill:#DD2466;}
	.st257{fill:#DDC38A;}
	.st258{fill:#DDD2B1;}
	.st259{fill:#DFE7E8;}
	.st260{fill:#42B1E8;}
	.st261{fill:#436377;}
	.st262{fill:#43B530;}
]]>
</style>
<g>
	<g>
		<g>
			<path class="st128" d="M67.505,129.869c-34.431-0.02-62.362-27.951-62.374-62.373C5.139,33.045,33.06,5.131,67.499,5.131
				c34.451-0.012,62.367,27.928,62.369,62.369C129.87,101.939,101.952,129.855,67.505,129.869z"/>
		</g>
		<g>
			<path class="st56" d="M67.499,5.131c34.451-0.012,62.367,27.928,62.369,62.369c0.002,34.439-27.916,62.355-62.363,62.369"/>
		</g>
		<g>
			<path class="st140" d="M12.146,38.775h110.71c-1.764-3.391-3.826-6.596-6.158-9.586H18.304
				C15.973,32.18,13.908,35.385,12.146,38.775z"/>
		</g>
		<g>
			<path class="st35" d="M67.501,38.775h55.355c-0.002-0.002-0.002-0.004-0.004-0.006c-0.434-0.834-0.887-1.656-1.355-2.469
				c-0.012-0.02-0.023-0.037-0.033-0.057c-0.469-0.807-0.953-1.602-1.455-2.383c-0.012-0.018-0.023-0.037-0.035-0.055
				c-0.506-0.785-1.029-1.561-1.568-2.32c-0.006-0.01-0.014-0.02-0.021-0.029c-0.545-0.77-1.105-1.525-1.686-2.268H67.499
				L67.501,38.775z"/>
		</g>
		<g>
			<path class="st140" d="M5.131,67.496c0.002,6.678,1.066,13.105,3.014,19.139h118.722c1.941-6.031,3.002-12.457,3.002-19.135
				c0-6.676-1.061-13.104-3.004-19.135H8.136C6.193,54.395,5.133,60.82,5.131,67.496z"/>
		</g>
		<g>
			<path class="st35" d="M129.737,63.635c-0.039-0.629-0.086-1.254-0.143-1.877c-0.035-0.387-0.072-0.775-0.115-1.16
				c-0.061-0.557-0.135-1.107-0.211-1.656c-0.057-0.408-0.105-0.816-0.17-1.221c-0.127-0.811-0.271-1.617-0.432-2.418
				c-0.113-0.566-0.242-1.129-0.371-1.691c-0.068-0.303-0.135-0.605-0.209-0.906c-0.143-0.59-0.297-1.174-0.457-1.758
				c-0.066-0.24-0.135-0.48-0.205-0.723c-0.18-0.623-0.361-1.244-0.561-1.859H67.501l0.002,38.27h59.363
				c0.197-0.617,0.381-1.24,0.561-1.863c0.068-0.24,0.139-0.479,0.205-0.719c0.16-0.584,0.312-1.17,0.457-1.762
				c0.072-0.297,0.139-0.596,0.207-0.895c0.129-0.566,0.26-1.133,0.373-1.705c0.158-0.797,0.303-1.602,0.432-2.41
				c0.064-0.408,0.113-0.82,0.17-1.23c0.076-0.547,0.148-1.094,0.209-1.646c0.043-0.387,0.08-0.775,0.115-1.166
				c0.057-0.621,0.105-1.246,0.143-1.873c0.021-0.324,0.043-0.648,0.059-0.975c0.043-0.959,0.072-1.922,0.072-2.891
				c0-0.971-0.029-1.934-0.072-2.891C129.78,64.283,129.757,63.959,129.737,63.635z"/>
		</g>
		<g>
			<path class="st140" d="M18.328,105.811h98.366c2.332-2.99,4.396-6.195,6.16-9.586H12.162
				C13.928,99.615,15.994,102.82,18.328,105.811z"/>
		</g>
		<g>
			<path class="st35" d="M67.503,96.225v9.586h49.191c0.58-0.744,1.143-1.5,1.689-2.27c0.006-0.008,0.012-0.018,0.018-0.025
				c0.541-0.764,1.066-1.539,1.572-2.328c0.01-0.014,0.02-0.029,0.029-0.043c0.504-0.787,0.992-1.586,1.463-2.395
				c0.008-0.014,0.016-0.029,0.023-0.043c0.473-0.814,0.928-1.641,1.363-2.48l0.002-0.002H67.503z"/>
		</g>
		<g>
			<path class="st205" d="M122.856,40.275H12.146c-0.524,0-1.01-0.273-1.282-0.721c-0.271-0.448-0.29-1.005-0.049-1.47
				c1.787-3.439,3.908-6.742,6.306-9.817c0.284-0.364,0.721-0.578,1.183-0.578h98.395c0.462,0,0.898,0.213,1.183,0.578
				c2.392,3.066,4.513,6.369,6.307,9.816c0.241,0.465,0.224,1.022-0.049,1.471S123.381,40.275,122.856,40.275z M14.675,37.275
				h105.652c-1.311-2.285-2.773-4.491-4.367-6.586H19.042C17.445,32.789,15.982,34.995,14.675,37.275z"/>
		</g>
		<g>
			<path class="st205" d="M126.866,88.135H8.145c-0.651,0-1.228-0.42-1.428-1.039c-2.046-6.339-3.084-12.933-3.086-19.599
				c0.002-6.668,1.037-13.259,3.077-19.591c0.199-0.62,0.776-1.04,1.428-1.04h118.729c0.651,0,1.228,0.42,1.428,1.04
				c2.041,6.335,3.076,12.927,3.076,19.595c0,6.665-1.034,13.258-3.074,19.595C128.095,87.715,127.518,88.135,126.866,88.135z
				 M9.247,85.135h116.516c1.729-5.719,2.605-11.646,2.605-17.635c0-5.99-0.877-11.917-2.606-17.635H9.238
				C7.51,55.58,6.633,61.506,6.631,67.497C6.633,73.485,7.512,79.414,9.247,85.135z"/>
		</g>
		<g>
			<path class="st205" d="M116.694,107.311H18.328c-0.462,0-0.898-0.213-1.183-0.577c-2.396-3.071-4.521-6.373-6.313-9.816
				c-0.242-0.465-0.225-1.022,0.048-1.471c0.271-0.448,0.758-0.722,1.282-0.722h110.692c0.524,0,1.01,0.273,1.282,0.722
				s0.29,1.006,0.049,1.471c-1.791,3.442-3.913,6.745-6.309,9.816C117.593,107.098,117.156,107.311,116.694,107.311z
				 M19.065,104.311h96.891c1.596-2.098,3.059-4.304,4.369-6.586H14.692C16.004,100.007,17.469,102.213,19.065,104.311z"/>
		</g>
		<g>
			<path class="st205" d="M67.506,131.369c-0.001,0-0.001,0-0.002,0c-35.208-0.02-63.861-28.673-63.873-63.873
				C3.639,32.281,32.29,3.631,67.499,3.631c35.226,0,63.867,28.651,63.869,63.869C131.37,102.703,102.722,131.355,67.506,131.369z
				 M67.521,6.631c-33.577,0-60.882,27.304-60.89,60.866c0.012,33.545,27.319,60.854,60.875,60.873
				c33.561-0.014,60.864-27.319,60.862-60.869C128.366,33.937,101.07,6.631,67.521,6.631z"/>
		</g>
	</g>
	<g>
		<path class="st200" d="M32.548,24.568c-0.43,0-0.855-0.183-1.152-0.538c-0.531-0.636-0.446-1.582,0.189-2.113
			c5.855-4.891,12.49-8.49,19.721-10.697c0.785-0.241,1.63,0.204,1.872,0.997c0.242,0.792-0.204,1.631-0.997,1.873
			c-6.845,2.09-13.127,5.498-18.672,10.131C33.228,24.454,32.887,24.568,32.548,24.568z"/>
	</g>
	<g>
		<path class="st200" d="M56.74,12.94c-0.4,0-0.78-0.16-1.061-0.44c-0.28-0.28-0.439-0.66-0.439-1.06s0.159-0.78,0.439-1.06
			c0.55-0.56,1.561-0.56,2.12,0c0.28,0.28,0.44,0.67,0.44,1.06c0,0.39-0.16,0.78-0.44,1.06C57.52,12.78,57.13,12.94,56.74,12.94z"/>
	</g>
</g>
</svg>
