<?xml version="1.0" encoding="utf-8"?>
<!-- Generator: Adobe Illustrator 16.0.0, SVG Export Plug-In . SVG Version: 6.00 Build 0)  -->
<!DOCTYPE svg PUBLIC "-//W3C//DTD SVG 1.1//EN" "http://www.w3.org/Graphics/SVG/1.1/DTD/svg11.dtd">
<svg version="1.1" id="Layer_1" xmlns="http://www.w3.org/2000/svg" xmlns:xlink="http://www.w3.org/1999/xlink" x="0px" y="0px"
	 width="135px" height="135px" viewBox="0 0 135 135" style="enable-background:new 0 0 135 135;" xml:space="preserve">
<style type="text/css">
<![CDATA[
	.st0{fill:#465652;}
	.st1{fill:#AAB9BA;}
	.st2{fill:#47C67B;}
	.st3{fill:#AAC8D1;}
	.st4{fill:none;stroke:#E83834;stroke-width:6;stroke-linecap:round;stroke-linejoin:round;stroke-miterlimit:10;}
	.st5{fill:#7BC67B;}
	.st6{fill:#7BC7FF;}
	.st7{fill:#7C34C1;}
	.st8{fill:#7C8D96;}
	.st9{fill:#AD2707;}
	.st10{fill:#ADB8BC;}
	.st11{fill:#107510;}
	.st12{fill:#7FE5D8;}
	.st13{fill:#AF4AD1;}
	.st14{fill:#E02B7E;}
	.st15{fill:#E04038;}
	.st16{fill:#AFD7DD;}
	.st17{fill:#E0A010;}
	.st18{fill:#E0D5A4;}
	.st19{fill:#12B2B2;}
	.st20{fill:#12D66B;}
	.st21{fill:#E1A9FF;}
	.st22{fill:#1362A8;}
	.st23{fill:#E2378D;}
	.st24{fill:#E29C37;}
	.st25{fill:#E2B90E;}
	.st26{fill:#E2BF91;}
	.st27{fill:#E2CBAA;}
	.st28{fill:#14A594;}
	.st29{fill:#E4E9ED;}
	.st30{fill:#4A5D60;}
	.st31{fill:#E5B076;}
	.st32{fill:#E5B1C4;}
	.st33{fill:#E5E4C3;}
	.st34{fill:#4B6466;}
	.st35{fill:#E6FF2E;}
	.st36{fill:#18AA67;}
	.st37{fill:#E86207;}
	.st38{fill:#E8A113;}
	.st39{fill:#E8B5A6;}
	.st40{fill:#E8E8ED;}
	.st41{fill:#4E5154;}
	.st42{fill:#E9F1F4;}
	.st43{fill:#4F4B48;}
	.st44{fill:#4F74E8;}
	.st45{fill:#808E93;}
	.st46{fill:#80949B;}
	.st47{fill:#80EDAC;}
	.st48{fill:#B122E0;}
	.st49{fill:#B2C4CC;}
	.st50{fill:#83D839;}
	.st51{fill:#B3C6C6;}
	.st52{fill:none;stroke:#33363A;stroke-width:3;stroke-linecap:round;stroke-linejoin:round;stroke-miterlimit:10;}
	.st53{fill:#1A8E1C;}
	.st54{fill:#1A93D6;}
	.st55{fill:#B50B0B;}
	.st56{fill:#1AD88F;}
	.st57{fill:#B5DAF4;}
	.st58{fill:#EA7B1F;}
	.st59{fill:#EA81BD;}
	.st60{fill:#87B8D6;}
	.st61{fill:#87C3F4;}
	.st62{fill:#EAC79D;}
	.st63{fill:#EADF11;}
	.st64{fill:#EAE4C5;}
	.st65{fill:#B78094;}
	.st66{fill:#8844D8;}
	.st67{fill:#EBF4F7;}
	.st68{fill:#893015;}
	.st69{fill:#89410B;}
	.st70{fill:#899BA3;}
	.st71{fill:#EDE3B9;}
	.st72{enable-background:new    ;}
	.st73{fill:#50FF9F;}
	.st74{fill:#EEDCF4;}
	.st75{fill:#EFA37D;}
	.st76{fill:#EFA3CC;}
	.st77{fill:#EFC99A;}
	.st78{fill:#54AF79;}
	.st79{fill:#BA503A;}
	.st80{fill:#BA8663;}
	.st81{fill:#8B4FE0;}
	.st82{fill:#58ED9B;}
	.st83{fill:#BC7DFF;}
	.st84{fill:#8D9AA3;}
	.st85{fill:#BCCAD3;}
	.st86{fill:#8DE4FF;}
	.st87{fill:#20B518;}
	.st88{fill:#BF44F2;}
	.st89{fill:#21CEA1;}
	.st90{fill:#BFDAE0;}
	.st91{fill:#F0FBFC;}
	.st92{fill:#F2D9A7;}
	.st93{fill:#F2EAC9;}
	.st94{fill:#24D1AF;}
	.st95{fill:#25931C;}
	.st96{fill:#F4C4B3;}
	.st97{fill:#F4D3A2;}
	.st98{fill:#F4D647;}
	.st99{fill:#F4D7B8;}
	.st100{fill:#F4EC8E;}
	.st101{fill:#5B524D;}
	.st102{fill:#F77819;}
	.st103{fill:#F79AE1;}
	.st104{fill:#5E707A;}
	.st105{fill:#F93585;}
	.st106{fill:#F95D5D;}
	.st107{fill:#F9C19B;}
	.st108{fill:#F9CB58;}
	.st109{fill:#F9D2B2;}
	.st110{fill:#F9F07D;}
	.st111{fill:#F9F1D2;}
	.st112{fill:#F9F4B7;}
	.st113{fill:#F9F9E4;}
	.st114{fill:#5F1DAA;}
	.st115{fill:#5F9AD6;}
	.st116{fill:#C0C0C4;}
	.st117{fill:#91EA57;}
	.st118{fill:#C12727;}
	.st119{fill:#C191A0;}
	.st120{fill:#923BB7;}
	.st121{fill:#93A0A3;}
	.st122{fill:#93F9EA;}
	.st123{fill:#93FF5A;}
	.st124{fill:#C4833D;}
	.st125{fill:#95A2A5;}
	.st126{fill:#965514;}
	.st127{fill:#96562C;}
	.st128{fill:#2AF42F;}
	.st129{fill:#C5D7DD;}
	.st130{fill:#C68510;}
	.st131{fill:#C6A86D;}
	.st132{fill:#C6BB8D;}
	.st133{fill:#2C9DCE;}
	.st134{fill:#FBFCF2;}
	.st135{fill:#FC70B0;}
	.st136{fill:#FCE6C8;}
	.st137{fill:#FCF7E3;}
	.st138{fill:#C90D6B;}
	.st139{fill:#FDFEFF;}
	.st140{fill:#FDFFDC;}
	.st141{fill:#FF1A1A;}
	.st142{fill:#FF5252;}
	.st143{fill:#FF5B00;}
	.st144{fill:#FF6155;}
	.st145{fill:#FF630D;}
	.st146{fill:#FF6666;}
	.st147{fill:#FF7676;}
	.st148{fill:#FF7900;}
	.st149{fill:#FF860D;}
	.st150{fill:#FF8B00;}
	.st151{fill:#FF8F8F;}
	.st152{fill:#FF900B;}
	.st153{fill:#FF908A;}
	.st154{fill:#FF960B;}
	.st155{fill:#FF9C0D;}
	.st156{fill:#FFA9D4;}
	.st157{fill:#FFAA00;}
	.st158{fill:#FFAD40;}
	.st159{fill:#FFAF10;}
	.st160{fill:#FFB000;}
	.st161{fill:#FFBE08;}
	.st162{fill:#FFBF31;}
	.st163{fill:#FFC200;}
	.st164{fill:#FFCAE8;}
	.st165{fill:#FFCCF5;}
	.st166{fill:#FFD00B;}
	.st167{fill:#FFD039;}
	.st168{fill:#FFD400;}
	.st169{fill:#FFD833;}
	.st170{fill:#FFDB80;}
	.st171{fill:#FFDDD2;}
	.st172{fill:#FFE6D4;}
	.st173{fill:#FFE6EB;}
	.st174{fill:#FFE98D;}
	.st175{fill:#FFECD2;}
	.st176{fill:#FFF1D9;}
	.st177{fill:#FFF24D;}
	.st178{fill:#FFF3C2;}
	.st179{fill:#FFF4C7;}
	.st180{fill:#FFF800;}
	.st181{fill:#FFF80D;}
	.st182{fill:#FFF9DE;}
	.st183{fill:#FFFBD7;}
	.st184{fill:#FFFBEB;}
	.st185{fill:#FFFCC0;}
	.st186{fill:#FFFCDC;}
	.st187{fill:#FFFFFA;}
	.st188{fill:#FFFFFF;}
	.st189{fill:#63797F;}
	.st190{fill:#65E529;}
	.st191{fill:#66310E;}
	.st192{fill:#663C17;}
	.st193{fill:#9A5AE5;}
	.st194{fill:#CA30EF;}
	.st195{fill:#6892FC;}
	.st196{fill:#9CFFC4;}
	.st197{fill:#CC4306;}
	.st198{fill:#CC549E;}
	.st199{fill:#9E3256;}
	.st200{fill:#CDFFBB;}
	.st201{fill:#CE86AF;}
	.st202{fill:#CED9DD;}
	
		.st203{fill:none;stroke:#33363A;stroke-width:3;stroke-linecap:round;stroke-linejoin:round;stroke-miterlimit:10;stroke-dasharray:6;}
	.st204{fill:#CFE1E2;}
	.st205{fill:#33363A;}
	.st206{fill:#34C166;}
	.st207{fill:#364B5B;}
	.st208{fill:#3662CE;}
	.st209{fill:#36C6FF;}
	.st210{fill:#6ADB9A;}
	.st211{fill:#6D5C4D;}
	.st212{fill:#6EBDF9;}
	.st213{fill:#0031FF;}
	.st214{fill:#0062FF;}
	.st215{fill:#0068FF;}
	.st216{fill:#0086FF;}
	.st217{fill:#009BE8;}
	.st218{fill:#00AAFF;}
	.st219{fill:#D271FF;}
	.st220{fill:#D363A9;}
	.st221{fill:#D3964C;}
	.st222{fill:#D3DFE2;}
	.st223{fill:#D3E0E2;}
	.st224{fill:#D3EFF4;}
	.st225{fill:#063B66;}
	.st226{fill:#D60909;}
	.st227{fill:#D61D1D;}
	.st228{fill:#D7F0FF;}
	.st229{fill:#09B285;}
	.st230{fill:#D8D593;}
	.st231{fill:#D8E2EA;}
	.st232{fill:#D8E5EA;}
	.st233{fill:#3E5054;}
	.st234{fill:#D988FF;}
	.st235{fill:#D9E7E8;}
	.st236{fill:#702252;}
	.st237{fill:#70D3E0;}
	.st238{fill:#A02FF2;}
	.st239{fill:#A2F255;}
	.st240{fill:#A35616;}
	.st241{fill:#A3CCCC;}
	.st242{fill:#0A6ADD;}
	.st243{fill:#A5145D;}
	.st244{fill:#A57555;}
	.st245{fill:#77D6FC;}
	.st246{fill:#7815CE;}
	.st247{fill:#A7BBC1;}
	.st248{fill:#DBD279;}
	.st249{fill:#0D5C9E;}
	.st250{fill:#A83C11;}
	.st251{fill:#A8633D;}
	.st252{fill:#A8A3E5;}
	.st253{fill:#DCE6EA;}
	.st254{fill:#DCE7EA;}
	.st255{fill:#A962E8;}
	.st256{fill:#DD2466;}
	.st257{fill:#DDC38A;}
	.st258{fill:#DDD2B1;}
	.st259{fill:#DFE7E8;}
	.st260{fill:#42B1E8;}
	.st261{fill:#436377;}
	.st262{fill:#43B530;}
]]>
</style>
<g>
	<g>
		<g>
			<g>
				<g>
					<g>
						<circle class="st14" cx="67.5" cy="113.584" r="16.384"/>
					</g>
					<g>
						<path class="st105" d="M67.501,97.199c-8.07,0-14.762,5.839-16.117,13.521c1.355,7.68,8.047,13.52,16.117,13.52
							s14.762-5.84,16.117-13.52C82.263,103.038,75.571,97.199,67.501,97.199z"/>
					</g>
					<g>
						<path class="st14" d="M67.501,97.199c9.049,0,16.383,7.336,16.383,16.385c0,9.047-7.334,16.383-16.383,16.383"/>
					</g>
					<g>
						<path class="st138" d="M83.81,112.111c-0.047-0.469-0.111-0.934-0.191-1.391c-1.355,7.68-8.047,13.52-16.117,13.52v5.727
							c9.049,0,16.383-7.336,16.383-16.383C83.884,113.086,83.853,112.596,83.81,112.111z"/>
					</g>
					<g>
						<path class="st205" d="M67.501,131.467c-9.862,0-17.885-8.022-17.885-17.883c0-9.861,8.023-17.885,17.885-17.885
							c9.861,0,17.883,8.023,17.883,17.885C85.384,123.444,77.362,131.467,67.501,131.467z M67.501,98.699
							c-8.208,0-14.885,6.678-14.885,14.885c0,8.206,6.677,14.883,14.885,14.883c8.207,0,14.883-6.677,14.883-14.883
							C82.384,105.377,75.708,98.699,67.501,98.699z"/>
					</g>
					<g>
						<path class="st205" d="M51.116,115.084c-0.829,0-1.5-0.672-1.5-1.5c0-9.861,8.023-17.885,17.885-17.885
							c0.829,0,1.5,0.672,1.5,1.5s-0.671,1.5-1.5,1.5c-8.208,0-14.885,6.678-14.885,14.885
							C52.616,114.412,51.945,115.084,51.116,115.084z"/>
					</g>
				</g>
				<g>
					<path class="st173" d="M55.837,115.189c-0.829,0-1.5-0.672-1.5-1.5c0-7.259,5.905-13.164,13.164-13.164
						c0.829,0,1.5,0.672,1.5,1.5s-0.671,1.5-1.5,1.5c-5.604,0-10.164,4.56-10.164,10.164
						C57.337,114.518,56.666,115.189,55.837,115.189z"/>
				</g>
				<g>
					<path class="st173" d="M57.29,119.21c-0.39,0-0.78-0.16-1.06-0.44c-0.28-0.279-0.44-0.66-0.44-1.06
						c0-0.391,0.16-0.78,0.44-1.061c0.56-0.56,1.56-0.56,2.12,0c0.28,0.28,0.44,0.67,0.44,1.061c0,0.39-0.16,0.78-0.44,1.06
						C58.07,119.05,57.68,119.21,57.29,119.21z"/>
				</g>
			</g>
		</g>
		<g>
			<g>
				<g>
					<g>
						<circle class="st14" cx="51.117" cy="89.209" r="16.384"/>
					</g>
					<g>
						<path class="st105" d="M51.116,72.826c-8.068,0-14.76,5.84-16.117,13.521c1.357,7.68,8.049,13.52,16.117,13.52
							c8.07,0,14.762-5.84,16.117-13.52C65.878,78.666,59.187,72.826,51.116,72.826z"/>
					</g>
					<g>
						<path class="st14" d="M51.116,72.826c9.049,0,16.385,7.336,16.385,16.383c0,9.049-7.336,16.385-16.385,16.385"/>
					</g>
					<g>
						<path class="st138" d="M67.427,87.738c-0.047-0.471-0.111-0.933-0.193-1.391c-1.355,7.68-8.047,13.52-16.117,13.52v5.727
							c9.049,0,16.385-7.336,16.385-16.385C67.501,88.714,67.47,88.225,67.427,87.738z"/>
					</g>
					<g>
						<path class="st205" d="M51.116,107.094c-9.861,0-17.883-8.023-17.883-17.885c0-9.86,8.022-17.883,17.883-17.883
							c9.862,0,17.885,8.022,17.885,17.883C69.001,99.07,60.978,107.094,51.116,107.094z M51.116,74.326
							c-8.207,0-14.883,6.677-14.883,14.883c0,8.207,6.676,14.885,14.883,14.885c8.208,0,14.885-6.678,14.885-14.885
							C66.001,81.003,59.324,74.326,51.116,74.326z"/>
					</g>
					<g>
						<path class="st205" d="M34.733,90.709c-0.829,0-1.5-0.672-1.5-1.5c0-9.86,8.022-17.883,17.883-17.883
							c0.829,0,1.5,0.672,1.5,1.5s-0.671,1.5-1.5,1.5c-8.207,0-14.883,6.677-14.883,14.883
							C36.233,90.037,35.562,90.709,34.733,90.709z"/>
					</g>
				</g>
				<g>
					<path class="st173" d="M39.452,90.815c-0.829,0-1.5-0.672-1.5-1.5c0-7.258,5.905-13.163,13.164-13.163
						c0.829,0,1.5,0.672,1.5,1.5s-0.671,1.5-1.5,1.5c-5.604,0-10.164,4.56-10.164,10.163C40.952,90.144,40.281,90.815,39.452,90.815
						z"/>
				</g>
				<g>
					<path class="st173" d="M40.9,94.84c-0.39,0-0.78-0.16-1.05-0.44c-0.28-0.279-0.45-0.67-0.45-1.06s0.17-0.78,0.45-1.06
						c0.55-0.561,1.56-0.561,2.12,0c0.28,0.279,0.43,0.67,0.43,1.06s-0.15,0.78-0.43,1.06C41.69,94.68,41.3,94.84,40.9,94.84z"/>
				</g>
			</g>
			<g>
				<g>
					<g>
						<circle class="st14" cx="83.885" cy="89.209" r="16.384"/>
					</g>
					<g>
						<path class="st105" d="M83.884,72.826c-8.07,0-14.762,5.84-16.117,13.521c1.355,7.68,8.047,13.52,16.117,13.52
							s14.762-5.84,16.119-13.52C98.646,78.666,91.954,72.826,83.884,72.826z"/>
					</g>
					<g>
						<path class="st14" d="M83.884,72.826c9.049,0,16.385,7.336,16.385,16.383c0,9.049-7.336,16.385-16.385,16.385"/>
					</g>
					<g>
						<path class="st138" d="M100.194,87.738c-0.047-0.471-0.111-0.933-0.191-1.391c-1.357,7.68-8.049,13.52-16.119,13.52v5.727
							c9.049,0,16.385-7.336,16.385-16.385C100.269,88.714,100.235,88.225,100.194,87.738z"/>
					</g>
					<g>
						<path class="st205" d="M83.884,107.094c-9.861,0-17.883-8.023-17.883-17.885c0-9.86,8.022-17.883,17.883-17.883
							c9.862,0,17.885,8.022,17.885,17.883C101.769,99.07,93.746,107.094,83.884,107.094z M83.884,74.326
							c-8.207,0-14.883,6.677-14.883,14.883c0,8.207,6.676,14.885,14.883,14.885c8.208,0,14.885-6.678,14.885-14.885
							C98.769,81.003,92.091,74.326,83.884,74.326z"/>
					</g>
					<g>
						<path class="st205" d="M67.501,90.709c-0.829,0-1.5-0.672-1.5-1.5c0-9.86,8.022-17.883,17.883-17.883
							c0.829,0,1.5,0.672,1.5,1.5s-0.671,1.5-1.5,1.5c-8.207,0-14.883,6.677-14.883,14.883
							C69.001,90.037,68.33,90.709,67.501,90.709z"/>
					</g>
				</g>
				<g>
					<path class="st173" d="M72.22,90.815c-0.829,0-1.5-0.672-1.5-1.5c0-7.258,5.905-13.163,13.164-13.163
						c0.829,0,1.5,0.672,1.5,1.5s-0.671,1.5-1.5,1.5c-5.604,0-10.164,4.56-10.164,10.163C73.72,90.144,73.048,90.815,72.22,90.815z"
						/>
				</g>
				<g>
					<path class="st173" d="M73.67,94.84c-0.39,0-0.78-0.16-1.06-0.44c-0.28-0.279-0.44-0.67-0.44-1.06s0.16-0.78,0.44-1.06
						c0.56-0.561,1.57-0.561,2.12,0c0.28,0.279,0.44,0.67,0.44,1.06s-0.16,0.78-0.44,1.06C74.45,94.68,74.07,94.84,73.67,94.84z"/>
				</g>
			</g>
		</g>
		<g>
			<g>
				<g>
					<g>
						<circle class="st14" cx="51.117" cy="51.566" r="16.384"/>
					</g>
					<g>
						<path class="st105" d="M51.116,35.184c-8.068,0-14.76,5.839-16.117,13.52c1.357,7.682,8.049,13.521,16.117,13.521
							c8.07,0,14.762-5.839,16.117-13.521C65.878,41.022,59.187,35.184,51.116,35.184z"/>
					</g>
					<g>
						<path class="st14" d="M51.116,35.184c9.049,0,16.385,7.335,16.385,16.383c0,9.049-7.336,16.385-16.385,16.385"/>
					</g>
					<g>
						<path class="st138" d="M67.427,50.095c-0.047-0.468-0.111-0.933-0.193-1.392c-1.355,7.682-8.047,13.521-16.117,13.521v5.728
							c9.049,0,16.385-7.336,16.385-16.385C67.501,51.07,67.47,50.58,67.427,50.095z"/>
					</g>
					<g>
						<path class="st205" d="M51.116,69.451c-9.861,0-17.883-8.023-17.883-17.885c0-9.861,8.022-17.883,17.883-17.883
							c9.862,0,17.885,8.022,17.885,17.883C69.001,61.428,60.978,69.451,51.116,69.451z M51.116,36.684
							c-8.207,0-14.883,6.676-14.883,14.883c0,8.208,6.676,14.885,14.883,14.885c8.208,0,14.885-6.677,14.885-14.885
							C66.001,43.36,59.324,36.684,51.116,36.684z"/>
					</g>
					<g>
						<path class="st205" d="M34.733,53.066c-0.829,0-1.5-0.671-1.5-1.5c0-9.861,8.022-17.883,17.883-17.883
							c0.829,0,1.5,0.671,1.5,1.5s-0.671,1.5-1.5,1.5c-8.207,0-14.883,6.676-14.883,14.883
							C36.233,52.395,35.562,53.066,34.733,53.066z"/>
					</g>
				</g>
				<g>
					<path class="st173" d="M39.452,53.174c-0.829,0-1.5-0.671-1.5-1.5c0-7.259,5.905-13.164,13.164-13.164
						c0.829,0,1.5,0.671,1.5,1.5s-0.671,1.5-1.5,1.5c-5.604,0-10.164,4.56-10.164,10.164C40.952,52.502,40.281,53.174,39.452,53.174
						z"/>
				</g>
				<g>
					<path class="st173" d="M40.91,57.2c-0.4,0-0.79-0.16-1.07-0.44c-0.27-0.28-0.43-0.67-0.43-1.06c0-0.4,0.15-0.78,0.43-1.06
						c0.57-0.56,1.57-0.56,2.13,0c0.28,0.28,0.44,0.66,0.44,1.06c0,0.39-0.16,0.78-0.45,1.06C41.69,57.04,41.3,57.2,40.91,57.2z"/>
				</g>
			</g>
			<g>
				<g>
					<g>
						<circle class="st14" cx="83.885" cy="51.566" r="16.384"/>
					</g>
					<g>
						<path class="st105" d="M83.884,35.184c-8.07,0-14.762,5.839-16.117,13.52c1.355,7.682,8.047,13.521,16.117,13.521
							s14.762-5.839,16.119-13.521C98.646,41.022,91.954,35.184,83.884,35.184z"/>
					</g>
					<g>
						<path class="st14" d="M83.884,35.184c9.049,0,16.385,7.335,16.385,16.383c0,9.049-7.336,16.385-16.385,16.385"/>
					</g>
					<g>
						<path class="st138" d="M100.194,50.095c-0.047-0.468-0.111-0.933-0.191-1.392c-1.357,7.682-8.049,13.521-16.119,13.521v5.728
							c9.049,0,16.385-7.336,16.385-16.385C100.269,51.07,100.235,50.58,100.194,50.095z"/>
					</g>
					<g>
						<path class="st205" d="M83.884,69.451c-9.861,0-17.883-8.023-17.883-17.885c0-9.861,8.022-17.883,17.883-17.883
							c9.862,0,17.885,8.022,17.885,17.883C101.769,61.428,93.746,69.451,83.884,69.451z M83.884,36.684
							c-8.207,0-14.883,6.676-14.883,14.883c0,8.208,6.676,14.885,14.883,14.885c8.208,0,14.885-6.677,14.885-14.885
							C98.769,43.36,92.091,36.684,83.884,36.684z"/>
					</g>
					<g>
						<path class="st205" d="M67.501,53.066c-0.829,0-1.5-0.671-1.5-1.5c0-9.861,8.022-17.883,17.883-17.883
							c0.829,0,1.5,0.671,1.5,1.5s-0.671,1.5-1.5,1.5c-8.207,0-14.883,6.676-14.883,14.883
							C69.001,52.395,68.33,53.066,67.501,53.066z"/>
					</g>
				</g>
				<g>
					<path class="st173" d="M72.22,53.174c-0.829,0-1.5-0.671-1.5-1.5c0-7.259,5.905-13.164,13.164-13.164
						c0.829,0,1.5,0.671,1.5,1.5s-0.671,1.5-1.5,1.5c-5.604,0-10.164,4.56-10.164,10.164C73.72,52.502,73.048,53.174,72.22,53.174z"
						/>
				</g>
				<g>
					<path class="st173" d="M73.67,57.2c-0.39,0-0.78-0.16-1.06-0.44c-0.28-0.28-0.44-0.67-0.44-1.06c0-0.4,0.16-0.78,0.44-1.06
						c0.56-0.56,1.57-0.56,2.12,0c0.28,0.28,0.44,0.66,0.44,1.06c0,0.39-0.16,0.78-0.44,1.06C74.46,57.04,74.07,57.2,73.67,57.2z"/>
				</g>
			</g>
		</g>
		<g>
			<g>
				<g>
					<g>
						<circle class="st14" cx="34.732" cy="66.064" r="16.384"/>
					</g>
					<g>
						<path class="st105" d="M34.733,49.683c-8.07,0-14.762,5.839-16.117,13.521c1.355,7.679,8.047,13.52,16.117,13.52
							s14.762-5.841,16.117-13.52C49.495,55.521,42.804,49.683,34.733,49.683z"/>
					</g>
					<g>
						<path class="st14" d="M34.733,49.683c9.049,0,16.383,7.333,16.383,16.382s-7.334,16.385-16.383,16.385"/>
					</g>
					<g>
						<path class="st138" d="M51.042,64.594c-0.047-0.47-0.111-0.934-0.191-1.391c-1.355,7.679-8.047,13.52-16.117,13.52v5.727
							c9.049,0,16.383-7.336,16.383-16.385C51.116,65.568,51.085,65.079,51.042,64.594z"/>
					</g>
					<g>
						<path class="st205" d="M34.733,83.949c-9.862,0-17.885-8.023-17.885-17.885c0-9.86,8.023-17.882,17.885-17.882
							c9.861,0,17.883,8.022,17.883,17.882C52.616,75.926,44.594,83.949,34.733,83.949z M34.733,51.183
							c-8.208,0-14.885,6.676-14.885,14.882c0,8.207,6.677,14.885,14.885,14.885c8.207,0,14.883-6.678,14.883-14.885
							C49.616,57.858,42.94,51.183,34.733,51.183z"/>
					</g>
					<g>
						<path class="st205" d="M18.349,67.564c-0.829,0-1.5-0.671-1.5-1.5c0-9.86,8.023-17.882,17.885-17.882
							c0.829,0,1.5,0.671,1.5,1.5s-0.671,1.5-1.5,1.5c-8.208,0-14.885,6.676-14.885,14.882
							C19.849,66.893,19.177,67.564,18.349,67.564z"/>
					</g>
				</g>
				<g>
					<path class="st173" d="M23.067,67.672c-0.829,0-1.5-0.671-1.5-1.5c0-7.26,5.906-13.166,13.166-13.166
						c0.829,0,1.5,0.671,1.5,1.5s-0.671,1.5-1.5,1.5c-5.605,0-10.166,4.561-10.166,10.166C24.567,67,23.896,67.672,23.067,67.672z"
						/>
				</g>
				<g>
					<path class="st173" d="M24.52,71.7c-0.39,0-0.78-0.16-1.06-0.44c-0.28-0.29-0.44-0.67-0.44-1.06c0-0.4,0.16-0.79,0.44-1.07
						c0.56-0.55,1.56-0.561,2.12,0c0.28,0.28,0.44,0.67,0.44,1.07c0,0.39-0.16,0.77-0.44,1.06C25.3,71.54,24.92,71.7,24.52,71.7z"/>
				</g>
			</g>
			<g>
				<g>
					<g>
						<circle class="st14" cx="67.5" cy="66.064" r="16.384"/>
					</g>
					<g>
						<path class="st105" d="M67.501,49.683c-8.07,0-14.762,5.839-16.117,13.521c1.355,7.679,8.047,13.52,16.117,13.52
							s14.762-5.841,16.117-13.52C82.263,55.521,75.571,49.683,67.501,49.683z"/>
					</g>
					<g>
						<path class="st14" d="M67.501,49.683c9.049,0,16.383,7.333,16.383,16.382S76.55,82.449,67.501,82.449"/>
					</g>
					<g>
						<path class="st138" d="M83.81,64.594c-0.047-0.47-0.111-0.934-0.191-1.391c-1.355,7.679-8.047,13.52-16.117,13.52v5.727
							c9.049,0,16.383-7.336,16.383-16.385C83.884,65.568,83.853,65.079,83.81,64.594z"/>
					</g>
					<g>
						<path class="st205" d="M67.501,83.949c-9.862,0-17.885-8.023-17.885-17.885c0-9.86,8.023-17.882,17.885-17.882
							c9.861,0,17.883,8.022,17.883,17.882C85.384,75.926,77.362,83.949,67.501,83.949z M67.501,51.183
							c-8.208,0-14.885,6.676-14.885,14.882c0,8.207,6.677,14.885,14.885,14.885c8.207,0,14.883-6.678,14.883-14.885
							C82.384,57.858,75.708,51.183,67.501,51.183z"/>
					</g>
					<g>
						<path class="st205" d="M51.116,67.564c-0.829,0-1.5-0.671-1.5-1.5c0-9.86,8.023-17.882,17.885-17.882
							c0.829,0,1.5,0.671,1.5,1.5s-0.671,1.5-1.5,1.5c-8.208,0-14.885,6.676-14.885,14.882
							C52.616,66.893,51.945,67.564,51.116,67.564z"/>
					</g>
				</g>
				<g>
					<path class="st173" d="M55.837,67.672c-0.829,0-1.5-0.671-1.5-1.5c0-7.26,5.905-13.166,13.164-13.166
						c0.829,0,1.5,0.671,1.5,1.5s-0.671,1.5-1.5,1.5c-5.604,0-10.164,4.561-10.164,10.166C57.337,67,56.666,67.672,55.837,67.672z"
						/>
				</g>
				<g>
					<path class="st173" d="M57.29,71.7c-0.39,0-0.78-0.16-1.06-0.44c-0.28-0.28-0.44-0.67-0.44-1.06c0-0.4,0.16-0.79,0.44-1.07
						c0.56-0.55,1.56-0.55,2.12,0c0.28,0.28,0.44,0.67,0.44,1.07c0,0.39-0.16,0.77-0.44,1.06C58.07,71.54,57.68,71.7,57.29,71.7z"/>
				</g>
			</g>
			<g>
				<g>
					<g>
						<circle class="st14" cx="100.268" cy="66.064" r="16.384"/>
					</g>
					<g>
						<path class="st105" d="M100.269,49.683c-8.07,0-14.762,5.839-16.119,13.521c1.357,7.679,8.049,13.52,16.119,13.52
							s14.76-5.841,16.117-13.52C115.028,55.521,108.339,49.683,100.269,49.683z"/>
					</g>
					<g>
						<path class="st14" d="M100.269,49.683c9.049,0,16.383,7.333,16.383,16.382s-7.334,16.385-16.383,16.385"/>
					</g>
					<g>
						<path class="st138" d="M116.577,64.594c-0.047-0.47-0.111-0.934-0.191-1.391c-1.357,7.679-8.047,13.52-16.117,13.52v5.727
							c9.049,0,16.383-7.336,16.383-16.385C116.651,65.568,116.62,65.079,116.577,64.594z"/>
					</g>
					<g>
						<path class="st205" d="M100.269,83.949c-9.862,0-17.885-8.023-17.885-17.885c0-9.86,8.023-17.882,17.885-17.882
							c9.861,0,17.883,8.022,17.883,17.882C118.151,75.926,110.129,83.949,100.269,83.949z M100.269,51.183
							c-8.208,0-14.885,6.676-14.885,14.882c0,8.207,6.677,14.885,14.885,14.885c8.207,0,14.883-6.678,14.883-14.885
							C115.151,57.858,108.475,51.183,100.269,51.183z"/>
					</g>
					<g>
						<path class="st205" d="M83.884,67.564c-0.829,0-1.5-0.671-1.5-1.5c0-9.86,8.023-17.882,17.885-17.882
							c0.829,0,1.5,0.671,1.5,1.5s-0.671,1.5-1.5,1.5c-8.208,0-14.885,6.676-14.885,14.882
							C85.384,66.893,84.712,67.564,83.884,67.564z"/>
					</g>
				</g>
				<g>
					<path class="st173" d="M88.603,67.672c-0.829,0-1.5-0.671-1.5-1.5c0-7.26,5.906-13.166,13.166-13.166
						c0.829,0,1.5,0.671,1.5,1.5s-0.671,1.5-1.5,1.5c-5.605,0-10.166,4.561-10.166,10.166C90.103,67,89.431,67.672,88.603,67.672z"
						/>
				</g>
				<g>
					<path class="st173" d="M90.06,71.7c-0.4,0-0.79-0.16-1.06-0.44c-0.28-0.29-0.44-0.67-0.44-1.06c0-0.4,0.16-0.79,0.44-1.07
						c0.55-0.55,1.55-0.561,2.12,0c0.28,0.28,0.44,0.67,0.44,1.07c0,0.39-0.16,0.77-0.44,1.06C90.84,71.54,90.45,71.7,90.06,71.7z"
						/>
				</g>
			</g>
		</g>
	</g>
	<g>
		<g>
			<g>
				<g>
					<path class="st36" d="M79.335,29.896c0,10.036-4.615,12.913-11.83,18.79c-7.223-5.877-11.84-8.756-11.84-18.789
						c0-10.035,4.615-18.988,11.836-24.863C74.716,10.909,79.335,19.859,79.335,29.896z"/>
				</g>
				<g>
					<path class="st190" d="M67.501,5.033l0.004,43.652c-7.223-5.877-11.84-8.756-11.84-18.789
						C55.665,19.861,60.28,10.908,67.501,5.033z"/>
				</g>
				<g>
					<path class="st205" d="M67.505,50.186c-0.335,0-0.671-0.112-0.947-0.336c-0.552-0.449-1.088-0.88-1.609-1.299
						c-6.261-5.034-10.784-8.672-10.784-18.654c0-10.134,4.516-19.621,12.389-26.027c0.552-0.449,1.342-0.449,1.894,0
						c7.872,6.411,12.387,15.897,12.387,26.025c0,9.981-4.517,13.617-10.77,18.649c-0.521,0.42-1.06,0.853-1.613,1.304
						C68.176,50.073,67.841,50.186,67.505,50.186z M67.5,6.999c-6.583,5.809-10.335,14.084-10.335,22.897
						c0,8.545,3.433,11.305,9.665,16.316c0.222,0.178,0.447,0.359,0.675,0.543c0.229-0.185,0.457-0.368,0.68-0.548
						c6.223-5.008,9.65-7.767,9.65-16.312C77.835,21.087,74.084,12.812,67.5,6.999z"/>
				</g>
			</g>
		</g>
		<g>
			<g>
				<g>
					<g>
						<path class="st36" d="M84.72,45.379c-5.461,5.458-9.533,4.512-16.654,3.785c-0.732-7.125-1.678-11.201,3.781-16.66
							c5.455-5.457,12.836-7.815,19.959-7.084C92.534,32.541,90.177,39.92,84.72,45.379z"/>
					</g>
					<g>
						<path class="st190" d="M91.806,25.42l-23.74,23.744c-0.732-7.125-1.678-11.201,3.781-16.66
							C77.302,27.047,84.683,24.688,91.806,25.42z"/>
					</g>
					<g>
						<path class="st205" d="M74.877,51.226c-1.664,0-3.383-0.186-5.374-0.401l-1.59-0.168c-0.708-0.072-1.267-0.631-1.34-1.339
							l-0.168-1.578c-0.678-6.239-1.167-10.747,4.381-16.296c4.933-4.935,11.498-7.653,18.483-7.653c0.895,0,1.8,0.046,2.689,0.138
							c0.708,0.073,1.267,0.632,1.339,1.339c0.805,7.871-1.935,15.588-7.517,21.172C82.379,49.839,79.22,51.226,74.877,51.226z
							 M69.429,47.8l0.396,0.042c1.904,0.206,3.549,0.383,5.052,0.383c3.008,0,5.527-0.654,8.782-3.908
							c4.647-4.648,7.069-10.967,6.749-17.5c-6.589-0.32-12.866,2.111-17.5,6.747c-4.533,4.532-4.173,7.842-3.521,13.851
							L69.429,47.8z"/>
					</g>
				</g>
			</g>
			<g>
				<g>
					<g>
						<path class="st36" d="M50.282,45.379c5.457,5.458,9.531,4.512,16.652,3.785c0.732-7.125,1.678-11.201-3.779-16.66
							c-5.457-5.457-12.838-7.815-19.961-7.084C42.466,32.541,44.821,39.92,50.282,45.379z"/>
					</g>
					<g>
						<path class="st190" d="M43.194,25.42l23.74,23.744c0.732-7.125,1.678-11.201-3.779-16.66
							C57.698,27.047,50.317,24.688,43.194,25.42z"/>
					</g>
					<g>
						<path class="st205" d="M60.123,51.226C60.123,51.226,60.123,51.226,60.123,51.226c-4.345,0-7.503-1.387-10.901-4.786
							c-5.584-5.582-8.325-13.299-7.52-21.172c0.072-0.707,0.631-1.267,1.339-1.339c0.89-0.091,1.795-0.138,2.689-0.138
							c6.985,0,13.55,2.718,18.485,7.653c5.547,5.549,5.057,10.057,4.379,16.295l-0.168,1.579c-0.073,0.708-0.632,1.267-1.34,1.339
							l-1.589,0.168C63.506,51.04,61.787,51.226,60.123,51.226z M44.592,26.818c-0.321,6.534,2.102,12.854,6.75,17.5
							c3.253,3.254,5.771,3.908,8.78,3.908c1.503,0,3.148-0.178,5.053-0.383l0.396-0.042l0.042-0.385
							c0.653-6.009,1.012-9.318-3.519-13.851C57.459,28.929,51.191,26.494,44.592,26.818z"/>
					</g>
				</g>
			</g>
		</g>
	</g>
</g>
</svg>
