<?xml version="1.0" encoding="utf-8"?>
<!-- Generator: Adobe Illustrator 16.0.0, SVG Export Plug-In . SVG Version: 6.00 Build 0)  -->
<!DOCTYPE svg PUBLIC "-//W3C//DTD SVG 1.1//EN" "http://www.w3.org/Graphics/SVG/1.1/DTD/svg11.dtd">
<svg version="1.1" id="Layer_1" xmlns="http://www.w3.org/2000/svg" xmlns:xlink="http://www.w3.org/1999/xlink" x="0px" y="0px"
	 width="135px" height="135px" viewBox="0 0 135 135" style="enable-background:new 0 0 135 135;" xml:space="preserve">
<style type="text/css">
<![CDATA[
	.st0{fill:#465652;}
	.st1{fill:#AAB9BA;}
	.st2{fill:#47C67B;}
	.st3{fill:#AAC8D1;}
	.st4{fill:none;stroke:#E83834;stroke-width:6;stroke-linecap:round;stroke-linejoin:round;stroke-miterlimit:10;}
	.st5{fill:#7BC67B;}
	.st6{fill:#7BC7FF;}
	.st7{fill:#7C34C1;}
	.st8{fill:#7C8D96;}
	.st9{fill:#AD2707;}
	.st10{fill:#ADB8BC;}
	.st11{fill:#107510;}
	.st12{fill:#7FE5D8;}
	.st13{fill:#AF4AD1;}
	.st14{fill:#E02B7E;}
	.st15{fill:#E04038;}
	.st16{fill:#AFD7DD;}
	.st17{fill:#E0A010;}
	.st18{fill:#E0D5A4;}
	.st19{fill:#12B2B2;}
	.st20{fill:#12D66B;}
	.st21{fill:#E1A9FF;}
	.st22{fill:#1362A8;}
	.st23{fill:#E2378D;}
	.st24{fill:#E29C37;}
	.st25{fill:#E2B90E;}
	.st26{fill:#E2BF91;}
	.st27{fill:#E2CBAA;}
	.st28{fill:#14A594;}
	.st29{fill:#E4E9ED;}
	.st30{fill:#4A5D60;}
	.st31{fill:#E5B076;}
	.st32{fill:#E5B1C4;}
	.st33{fill:#E5E4C3;}
	.st34{fill:#4B6466;}
	.st35{fill:#E6FF2E;}
	.st36{fill:#18AA67;}
	.st37{fill:#E86207;}
	.st38{fill:#E8A113;}
	.st39{fill:#E8B5A6;}
	.st40{fill:#E8E8ED;}
	.st41{fill:#4E5154;}
	.st42{fill:#E9F1F4;}
	.st43{fill:#4F4B48;}
	.st44{fill:#4F74E8;}
	.st45{fill:#808E93;}
	.st46{fill:#80949B;}
	.st47{fill:#80EDAC;}
	.st48{fill:#B122E0;}
	.st49{fill:#B2C4CC;}
	.st50{fill:#83D839;}
	.st51{fill:#B3C6C6;}
	.st52{fill:none;stroke:#33363A;stroke-width:3;stroke-linecap:round;stroke-linejoin:round;stroke-miterlimit:10;}
	.st53{fill:#1A8E1C;}
	.st54{fill:#1A93D6;}
	.st55{fill:#B50B0B;}
	.st56{fill:#1AD88F;}
	.st57{fill:#B5DAF4;}
	.st58{fill:#EA7B1F;}
	.st59{fill:#EA81BD;}
	.st60{fill:#87B8D6;}
	.st61{fill:#87C3F4;}
	.st62{fill:#EAC79D;}
	.st63{fill:#EADF11;}
	.st64{fill:#EAE4C5;}
	.st65{fill:#B78094;}
	.st66{fill:#8844D8;}
	.st67{fill:#EBF4F7;}
	.st68{fill:#893015;}
	.st69{fill:#89410B;}
	.st70{fill:#899BA3;}
	.st71{fill:#EDE3B9;}
	.st72{enable-background:new    ;}
	.st73{fill:#50FF9F;}
	.st74{fill:#EEDCF4;}
	.st75{fill:#EFA37D;}
	.st76{fill:#EFA3CC;}
	.st77{fill:#EFC99A;}
	.st78{fill:#54AF79;}
	.st79{fill:#BA503A;}
	.st80{fill:#BA8663;}
	.st81{fill:#8B4FE0;}
	.st82{fill:#58ED9B;}
	.st83{fill:#BC7DFF;}
	.st84{fill:#8D9AA3;}
	.st85{fill:#BCCAD3;}
	.st86{fill:#8DE4FF;}
	.st87{fill:#20B518;}
	.st88{fill:#BF44F2;}
	.st89{fill:#21CEA1;}
	.st90{fill:#BFDAE0;}
	.st91{fill:#F0FBFC;}
	.st92{fill:#F2D9A7;}
	.st93{fill:#F2EAC9;}
	.st94{fill:#24D1AF;}
	.st95{fill:#25931C;}
	.st96{fill:#F4C4B3;}
	.st97{fill:#F4D3A2;}
	.st98{fill:#F4D647;}
	.st99{fill:#F4D7B8;}
	.st100{fill:#F4EC8E;}
	.st101{fill:#5B524D;}
	.st102{fill:#F77819;}
	.st103{fill:#F79AE1;}
	.st104{fill:#5E707A;}
	.st105{fill:#F93585;}
	.st106{fill:#F95D5D;}
	.st107{fill:#F9C19B;}
	.st108{fill:#F9CB58;}
	.st109{fill:#F9D2B2;}
	.st110{fill:#F9F07D;}
	.st111{fill:#F9F1D2;}
	.st112{fill:#F9F4B7;}
	.st113{fill:#F9F9E4;}
	.st114{fill:#5F1DAA;}
	.st115{fill:#5F9AD6;}
	.st116{fill:#C0C0C4;}
	.st117{fill:#91EA57;}
	.st118{fill:#C12727;}
	.st119{fill:#C191A0;}
	.st120{fill:#923BB7;}
	.st121{fill:#93A0A3;}
	.st122{fill:#93F9EA;}
	.st123{fill:#93FF5A;}
	.st124{fill:#C4833D;}
	.st125{fill:#95A2A5;}
	.st126{fill:#965514;}
	.st127{fill:#96562C;}
	.st128{fill:#2AF42F;}
	.st129{fill:#C5D7DD;}
	.st130{fill:#C68510;}
	.st131{fill:#C6A86D;}
	.st132{fill:#C6BB8D;}
	.st133{fill:#2C9DCE;}
	.st134{fill:#FBFCF2;}
	.st135{fill:#FC70B0;}
	.st136{fill:#FCE6C8;}
	.st137{fill:#FCF7E3;}
	.st138{fill:#C90D6B;}
	.st139{fill:#FDFEFF;}
	.st140{fill:#FDFFDC;}
	.st141{fill:#FF1A1A;}
	.st142{fill:#FF5252;}
	.st143{fill:#FF5B00;}
	.st144{fill:#FF6155;}
	.st145{fill:#FF630D;}
	.st146{fill:#FF6666;}
	.st147{fill:#FF7676;}
	.st148{fill:#FF7900;}
	.st149{fill:#FF860D;}
	.st150{fill:#FF8B00;}
	.st151{fill:#FF8F8F;}
	.st152{fill:#FF900B;}
	.st153{fill:#FF908A;}
	.st154{fill:#FF960B;}
	.st155{fill:#FF9C0D;}
	.st156{fill:#FFA9D4;}
	.st157{fill:#FFAA00;}
	.st158{fill:#FFAD40;}
	.st159{fill:#FFAF10;}
	.st160{fill:#FFB000;}
	.st161{fill:#FFBE08;}
	.st162{fill:#FFBF31;}
	.st163{fill:#FFC200;}
	.st164{fill:#FFCAE8;}
	.st165{fill:#FFCCF5;}
	.st166{fill:#FFD00B;}
	.st167{fill:#FFD039;}
	.st168{fill:#FFD400;}
	.st169{fill:#FFD833;}
	.st170{fill:#FFDB80;}
	.st171{fill:#FFDDD2;}
	.st172{fill:#FFE6D4;}
	.st173{fill:#FFE6EB;}
	.st174{fill:#FFE98D;}
	.st175{fill:#FFECD2;}
	.st176{fill:#FFF1D9;}
	.st177{fill:#FFF24D;}
	.st178{fill:#FFF3C2;}
	.st179{fill:#FFF4C7;}
	.st180{fill:#FFF800;}
	.st181{fill:#FFF80D;}
	.st182{fill:#FFF9DE;}
	.st183{fill:#FFFBD7;}
	.st184{fill:#FFFBEB;}
	.st185{fill:#FFFCC0;}
	.st186{fill:#FFFCDC;}
	.st187{fill:#FFFFFA;}
	.st188{fill:#FFFFFF;}
	.st189{fill:#63797F;}
	.st190{fill:#65E529;}
	.st191{fill:#66310E;}
	.st192{fill:#663C17;}
	.st193{fill:#9A5AE5;}
	.st194{fill:#CA30EF;}
	.st195{fill:#6892FC;}
	.st196{fill:#9CFFC4;}
	.st197{fill:#CC4306;}
	.st198{fill:#CC549E;}
	.st199{fill:#9E3256;}
	.st200{fill:#CDFFBB;}
	.st201{fill:#CE86AF;}
	.st202{fill:#CED9DD;}
	
		.st203{fill:none;stroke:#33363A;stroke-width:3;stroke-linecap:round;stroke-linejoin:round;stroke-miterlimit:10;stroke-dasharray:6;}
	.st204{fill:#CFE1E2;}
	.st205{fill:#33363A;}
	.st206{fill:#34C166;}
	.st207{fill:#364B5B;}
	.st208{fill:#3662CE;}
	.st209{fill:#36C6FF;}
	.st210{fill:#6ADB9A;}
	.st211{fill:#6D5C4D;}
	.st212{fill:#6EBDF9;}
	.st213{fill:#0031FF;}
	.st214{fill:#0062FF;}
	.st215{fill:#0068FF;}
	.st216{fill:#0086FF;}
	.st217{fill:#009BE8;}
	.st218{fill:#00AAFF;}
	.st219{fill:#D271FF;}
	.st220{fill:#D363A9;}
	.st221{fill:#D3964C;}
	.st222{fill:#D3DFE2;}
	.st223{fill:#D3E0E2;}
	.st224{fill:#D3EFF4;}
	.st225{fill:#063B66;}
	.st226{fill:#D60909;}
	.st227{fill:#D61D1D;}
	.st228{fill:#D7F0FF;}
	.st229{fill:#09B285;}
	.st230{fill:#D8D593;}
	.st231{fill:#D8E2EA;}
	.st232{fill:#D8E5EA;}
	.st233{fill:#3E5054;}
	.st234{fill:#D988FF;}
	.st235{fill:#D9E7E8;}
	.st236{fill:#702252;}
	.st237{fill:#70D3E0;}
	.st238{fill:#A02FF2;}
	.st239{fill:#A2F255;}
	.st240{fill:#A35616;}
	.st241{fill:#A3CCCC;}
	.st242{fill:#0A6ADD;}
	.st243{fill:#A5145D;}
	.st244{fill:#A57555;}
	.st245{fill:#77D6FC;}
	.st246{fill:#7815CE;}
	.st247{fill:#A7BBC1;}
	.st248{fill:#DBD279;}
	.st249{fill:#0D5C9E;}
	.st250{fill:#A83C11;}
	.st251{fill:#A8633D;}
	.st252{fill:#A8A3E5;}
	.st253{fill:#DCE6EA;}
	.st254{fill:#DCE7EA;}
	.st255{fill:#A962E8;}
	.st256{fill:#DD2466;}
	.st257{fill:#DDC38A;}
	.st258{fill:#DDD2B1;}
	.st259{fill:#DFE7E8;}
	.st260{fill:#42B1E8;}
	.st261{fill:#436377;}
	.st262{fill:#43B530;}
]]>
</style>
<g>
	<g>
		<g>
			<g>
				<g>
					<g>
						<path class="st150" d="M15.706,128.434c0,0.791-0.641,1.431-1.43,1.431h-2.324c-0.789,0-1.43-0.64-1.43-1.431v-2.858
							c0-0.79,0.641-1.429,1.43-1.429h2.324c0.789,0,1.43,0.639,1.43,1.429V128.434z"/>
					</g>
					<g>
						<path class="st150" d="M38.431,128.434c0,0.791-0.641,1.431-1.43,1.431h-2.324c-0.791,0-1.43-0.64-1.43-1.431v-2.858
							c0-0.79,0.639-1.429,1.43-1.429h2.324c0.789,0,1.43,0.639,1.43,1.429V128.434z"/>
					</g>
				</g>
				<g>
					<g>
						<path class="st205" d="M14.276,131.364h-2.324c-1.615,0-2.93-1.314-2.93-2.931v-2.858c0-1.615,1.314-2.929,2.93-2.929h2.324
							c1.615,0,2.93,1.313,2.93,2.929v2.858C17.206,130.05,15.892,131.364,14.276,131.364z M12.022,125.646v2.787l2.184-0.067v-2.72
							H12.022z"/>
					</g>
					<g>
						<path class="st205" d="M37.001,131.364h-2.324c-1.615,0-2.93-1.314-2.93-2.931v-2.858c0-1.615,1.314-2.929,2.93-2.929h2.324
							c1.615,0,2.93,1.313,2.93,2.929v2.858C39.931,130.05,38.616,131.364,37.001,131.364z M34.747,125.646v2.787l2.184-0.067v-2.72
							H34.747z"/>
					</g>
				</g>
				<g>
					<path class="st162" d="M7.335,61.18c1.613,4.719,4.803,8.455,8.775,10.824c1.689-4.308,1.924-9.21,0.311-13.932
						c-1.615-4.719-4.805-8.455-8.777-10.824C5.954,51.554,5.72,56.459,7.335,61.18z"/>
				</g>
				<g>
					<path class="st162" d="M41.618,61.18c-1.613,4.719-4.803,8.455-8.775,10.824c-1.689-4.308-1.924-9.21-0.311-13.932
						c1.615-4.719,4.803-8.455,8.777-10.824C42.999,51.554,43.231,56.459,41.618,61.18z"/>
				</g>
				<g>
					<path class="st150" d="M7.644,52.56c-0.594,1.514-1.004,3.104-1.221,4.732c0.174,1.298,0.471,2.599,0.912,3.888
						c1.613,4.719,4.803,8.455,8.775,10.824c0.594-1.516,1.004-3.105,1.221-4.732c-0.172-1.3-0.471-2.602-0.91-3.889
						C14.806,58.662,11.616,54.927,7.644,52.56z"/>
				</g>
				<g>
					<path class="st150" d="M32.532,63.383c-0.439,1.287-0.738,2.589-0.91,3.889c0.217,1.627,0.627,3.217,1.221,4.732
						c3.973-2.369,7.162-6.105,8.775-10.824c0.439-1.289,0.738-2.59,0.912-3.89c-0.217-1.628-0.627-3.217-1.221-4.73
						C37.335,54.927,34.147,58.662,32.532,63.383z"/>
				</g>
				<g>
					<path class="st205" d="M16.11,73.504c-0.268,0-0.533-0.071-0.769-0.212c-4.415-2.633-7.763-6.763-9.426-11.627
						C4.251,56.801,4.369,51.486,6.247,46.7c0.161-0.41,0.494-0.729,0.911-0.871c0.418-0.145,0.875-0.096,1.254,0.131
						c4.414,2.633,7.763,6.762,9.428,11.627c1.662,4.864,1.544,10.179-0.333,14.965c-0.161,0.41-0.494,0.729-0.911,0.871
						C16.438,73.478,16.273,73.504,16.11,73.504z M8.441,49.581c-1.018,3.635-0.918,7.517,0.312,11.113
						c1.229,3.597,3.527,6.727,6.559,8.977c1.018-3.635,0.918-7.518-0.311-11.113C13.771,54.961,11.472,51.831,8.441,49.581z"/>
				</g>
				<g>
					<path class="st205" d="M32.843,73.504c-0.163,0-0.327-0.026-0.485-0.081c-0.417-0.143-0.75-0.461-0.911-0.871
						c-1.877-4.786-1.995-10.101-0.333-14.965c1.666-4.867,5.014-8.996,9.429-11.627c0.378-0.226,0.835-0.274,1.253-0.131
						c0.417,0.143,0.75,0.461,0.911,0.871c1.877,4.783,1.994,10.098,0.331,14.965c-1.663,4.864-5.011,8.994-9.426,11.627
						C33.376,73.433,33.11,73.504,32.843,73.504z M40.512,49.581c-3.03,2.248-5.329,5.379-6.561,8.977
						c-1.229,3.596-1.328,7.479-0.311,11.113c3.031-2.25,5.328-5.38,6.559-8.977C41.429,57.097,41.528,53.214,40.512,49.581z"/>
				</g>
				<g>
					<path class="st162" d="M41.774,108.553V83.414c0-8.856-7.207-16.062-16.062-16.062h-2.471c-8.857,0-16.062,7.206-16.062,16.062
						v25.139c-1.131,1.224-1.826,2.854-1.826,4.648v5.695c0,3.792,3.074,6.865,6.865,6.865h24.516c3.793,0,6.867-3.073,6.867-6.865
						v-5.695C43.601,111.406,42.903,109.776,41.774,108.553z"/>
				</g>
				<g>
					<path class="st150" d="M41.774,108.553v-20.9c0-8.857-7.207-16.063-16.062-16.063h-2.471c-8.857,0-16.062,7.206-16.062,16.063
						v20.9v4.238c-1.131,1.223-1.826,2.854-1.826,4.651v1.454c0,3.792,3.074,6.865,6.865,6.865h24.516
						c3.793,0,6.867-3.073,6.867-6.865v-1.454c0-1.798-0.697-3.429-1.826-4.651V108.553z"/>
				</g>
				<g>
					<path class="st205" d="M36.733,127.262H12.218c-4.612,0-8.365-3.753-8.365-8.365v-5.695c0-1.898,0.645-3.724,1.826-5.203
						V83.414c0-9.684,7.879-17.562,17.562-17.562h2.471c9.684,0,17.562,7.879,17.562,17.562v24.585
						c1.182,1.48,1.826,3.306,1.826,5.202v5.695C45.101,123.509,41.347,127.262,36.733,127.262z M23.241,68.852
						c-8.03,0-14.562,6.532-14.562,14.562v25.139c0,0.377-0.143,0.741-0.398,1.019c-0.921,0.996-1.428,2.285-1.428,3.63v5.695
						c0,2.958,2.407,5.365,5.365,5.365h24.516c2.96,0,5.367-2.407,5.367-5.365v-5.695c0-1.343-0.508-2.633-1.429-3.631
						c-0.256-0.277-0.397-0.641-0.397-1.018V83.414c0-8.03-6.532-14.562-14.562-14.562H23.241z"/>
				</g>
				<g>
					<polygon class="st162" points="71.001,93.114 52.899,85.411 35.476,98.668 43.581,102.119 23.753,119.197 62.337,106.086 
						53.261,102.224 					"/>
				</g>
				<g>
					<polygon class="st150" points="48.595,104.528 66.335,95.419 49.282,88.163 35.476,98.668 43.581,102.119 23.753,119.197 
						56.731,107.992 					"/>
				</g>
				<g>
					<path class="st205" d="M23.753,120.697c-0.625,0-1.208-0.393-1.42-1.018c-0.267-0.784,0.153-1.636,0.938-1.902l34.866-11.849
						l-5.463-2.325c-0.536-0.228-0.892-0.744-0.912-1.326c-0.021-0.581,0.296-1.122,0.813-1.388l14.895-7.648l-14.355-6.108
						L38.438,98.299l5.731,2.44c0.762,0.324,1.117,1.205,0.792,1.968c-0.324,0.761-1.199,1.119-1.968,0.792l-8.105-3.451
						c-0.491-0.209-0.835-0.664-0.9-1.194c-0.066-0.53,0.154-1.056,0.58-1.379l17.424-13.257c0.43-0.327,1.002-0.398,1.495-0.187
						l18.102,7.703c0.536,0.228,0.892,0.744,0.912,1.326c0.021,0.581-0.296,1.122-0.813,1.388l-14.895,7.648l6.132,2.609
						c0.572,0.243,0.936,0.814,0.912,1.436c-0.023,0.622-0.428,1.164-1.017,1.364l-38.584,13.111
						C24.075,120.672,23.913,120.697,23.753,120.697z"/>
				</g>
				<g>
					<path class="st205" d="M6.298,57.575c-0.251,0-0.502-0.062-0.729-0.188c-0.442-0.246-0.731-0.698-0.768-1.203
						C4.57,52.982,5.07,49.704,6.247,46.7c0.161-0.41,0.494-0.729,0.911-0.871c0.415-0.145,0.875-0.096,1.254,0.131
						c2.369,1.412,4.433,3.26,6.134,5.492c0.268,0.351,0.366,0.802,0.271,1.232c-0.096,0.432-0.376,0.799-0.766,1.004l-7.055,3.714
						C6.777,57.518,6.538,57.575,6.298,57.575z M8.442,49.583c-0.366,1.312-0.59,2.663-0.667,4.019l3.235-1.702
						C10.223,51.044,9.365,50.271,8.442,49.583z"/>
				</g>
				<g>
					<path class="st205" d="M7.644,47.248c-1.084,2.766-1.566,5.776-1.346,8.827l7.055-3.714
						C11.772,50.288,9.835,48.555,7.644,47.248z"/>
				</g>
				<g>
					<path class="st205" d="M42.655,57.575c-0.24,0-0.479-0.058-0.699-0.173l-7.055-3.714c-0.39-0.205-0.67-0.572-0.766-1.004
						c-0.095-0.431,0.004-0.882,0.271-1.232c1.701-2.232,3.765-4.08,6.134-5.492c0.379-0.226,0.836-0.274,1.254-0.131
						c0.417,0.143,0.75,0.461,0.911,0.871c1.176,2.999,1.675,6.277,1.445,9.482c-0.036,0.505-0.325,0.958-0.768,1.204
						C43.157,57.512,42.906,57.575,42.655,57.575z M37.942,51.899l3.234,1.702c-0.077-1.356-0.301-2.708-0.666-4.019
						C39.588,50.271,38.73,51.044,37.942,51.899z"/>
				</g>
				<g>
					<path class="st205" d="M35.601,52.361l7.055,3.714c0.219-3.051-0.262-6.062-1.346-8.827
						C39.118,48.555,37.181,50.288,35.601,52.361z"/>
				</g>
				<g>
					<path class="st205" d="M30.831,88.117c-0.384,0-0.768-0.146-1.061-0.439c-2.631-2.629-6.908-2.629-9.539,0
						c-0.586,0.586-1.535,0.586-2.121,0s-0.586-1.535,0-2.121c3.799-3.799,9.982-3.799,13.781,0c0.586,0.586,0.586,1.535,0,2.121
						C31.599,87.971,31.215,88.117,30.831,88.117z"/>
				</g>
				<g>
					<path class="st205" d="M30.831,96.034c-0.384,0-0.768-0.146-1.061-0.439c-1.274-1.273-2.969-1.976-4.771-1.976
						s-3.495,0.702-4.769,1.976c-0.586,0.586-1.535,0.586-2.121,0c-0.586-0.585-0.586-1.535,0-2.121
						c1.84-1.841,4.287-2.854,6.89-2.854c2.604,0,5.051,1.014,6.892,2.854c0.586,0.585,0.586,1.535,0,2.121
						C31.599,95.888,31.215,96.034,30.831,96.034z"/>
				</g>
			</g>
		</g>
		<g>
			<g>
				<g>
					<path class="st162" d="M101.948,60.539C86.655,60.53,74.249,48.124,74.245,32.835c0.002-15.301,12.404-27.699,27.701-27.699
						c15.301-0.006,27.701,12.404,27.701,27.701S117.249,60.532,101.948,60.539z"/>
				</g>
				<g>
					<path class="st150" d="M101.946,5.136c15.301-0.006,27.701,12.404,27.701,27.701s-12.398,27.695-27.699,27.702"/>
				</g>
				<g>
					<path class="st140" d="M77.36,20.078h49.172c-0.783-1.506-1.699-2.929-2.734-4.257H80.095
						C79.06,17.149,78.144,18.572,77.36,20.078z"/>
				</g>
				<g>
					<path class="st35" d="M101.946,20.078h24.586v-0.001c-0.193-0.371-0.395-0.736-0.604-1.098
						c-0.006-0.008-0.01-0.016-0.014-0.025c-0.209-0.358-0.424-0.711-0.646-1.059c-0.006-0.008-0.012-0.016-0.016-0.023
						c-0.225-0.35-0.457-0.693-0.697-1.031c-0.002-0.004-0.006-0.009-0.01-0.012c-0.242-0.343-0.49-0.678-0.748-1.008h-21.852
						V20.078z"/>
				</g>
				<g>
					<path class="st140" d="M74.245,32.835c0,2.966,0.473,5.82,1.338,8.502h52.73c0.863-2.68,1.334-5.534,1.334-8.5
						c0-2.965-0.471-5.82-1.334-8.498H75.579C74.716,27.017,74.245,29.87,74.245,32.835z"/>
				</g>
				<g>
					<path class="st35" d="M129.589,31.12c-0.018-0.279-0.037-0.557-0.062-0.834c-0.016-0.172-0.033-0.344-0.051-0.515
						c-0.027-0.247-0.061-0.491-0.094-0.737c-0.025-0.18-0.047-0.361-0.076-0.541c-0.057-0.359-0.121-0.717-0.191-1.073
						c-0.051-0.251-0.107-0.502-0.164-0.753c-0.031-0.133-0.061-0.268-0.094-0.4c-0.064-0.263-0.133-0.521-0.203-0.781
						c-0.029-0.107-0.061-0.214-0.092-0.32c-0.078-0.277-0.16-0.554-0.248-0.826h-26.367l0.002,16.998h26.365
						c0.088-0.274,0.17-0.552,0.25-0.829c0.031-0.105,0.061-0.212,0.09-0.319c0.072-0.259,0.139-0.52,0.203-0.781
						c0.033-0.131,0.062-0.266,0.092-0.398c0.059-0.251,0.117-0.502,0.166-0.756c0.07-0.355,0.135-0.712,0.191-1.071
						c0.029-0.181,0.051-0.364,0.076-0.546c0.033-0.244,0.066-0.486,0.094-0.731c0.018-0.172,0.035-0.345,0.051-0.519
						c0.025-0.275,0.047-0.553,0.062-0.832c0.01-0.144,0.02-0.287,0.027-0.433c0.018-0.427,0.031-0.854,0.031-1.284
						c0-0.432-0.014-0.859-0.031-1.283C129.608,31.408,129.599,31.264,129.589,31.12z"/>
				</g>
				<g>
					<path class="st140" d="M80.106,49.854h43.689c1.037-1.329,1.953-2.753,2.736-4.259H77.368
						C78.151,47.101,79.069,48.524,80.106,49.854z"/>
				</g>
				<g>
					<path class="st35" d="M101.948,45.595v4.259h21.848c0.258-0.331,0.508-0.667,0.75-1.009c0.004-0.004,0.006-0.008,0.008-0.012
						c0.24-0.339,0.475-0.684,0.699-1.033c0.004-0.006,0.008-0.013,0.012-0.02c0.225-0.35,0.441-0.703,0.65-1.062
						c0.004-0.007,0.008-0.014,0.012-0.02c0.209-0.362,0.412-0.729,0.605-1.102v-0.002H101.948z"/>
				</g>
				<g>
					<path class="st205" d="M126.533,21.578c-0.541,0-1.064-0.294-1.332-0.808c-0.623-1.199-1.345-2.356-2.148-3.449H80.84
						c-0.804,1.093-1.525,2.25-2.148,3.449c-0.383,0.735-1.288,1.018-2.023,0.639c-0.734-0.383-1.021-1.288-0.639-2.023
						c0.818-1.573,1.788-3.083,2.883-4.486c0.284-0.365,0.721-0.578,1.183-0.578h43.703c0.462,0,0.898,0.213,1.183,0.578
						c1.095,1.403,2.064,2.913,2.883,4.486c0.382,0.735,0.096,1.641-0.639,2.023C127.003,21.523,126.767,21.578,126.533,21.578z"/>
				</g>
				<g>
					<path class="st205" d="M128.313,42.837h-52.73c-0.651,0-1.228-0.42-1.428-1.039c-0.936-2.9-1.41-5.916-1.41-8.963
						c0-3.049,0.474-6.062,1.406-8.956c0.2-0.62,0.776-1.04,1.428-1.04h52.734c0.651,0,1.228,0.42,1.428,1.04
						c0.933,2.895,1.406,5.908,1.406,8.958c0,3.049-0.473,6.063-1.406,8.96C129.542,42.417,128.965,42.837,128.313,42.837z
						 M76.698,39.837h50.499c0.631-2.277,0.95-4.627,0.95-7s-0.319-4.723-0.95-6.998H76.695c-0.631,2.275-0.95,4.624-0.95,6.996
						C75.745,35.206,76.065,37.557,76.698,39.837z"/>
				</g>
				<g>
					<path class="st205" d="M123.796,51.354H80.106c-0.462,0-0.898-0.213-1.183-0.577c-1.098-1.406-2.068-2.917-2.887-4.489
						c-0.382-0.735-0.096-1.641,0.639-2.023c0.736-0.379,1.641-0.097,2.023,0.639c0.623,1.198,1.345,2.356,2.152,3.451h42.199
						c0.804-1.092,1.525-2.25,2.15-3.451c0.384-0.735,1.289-1.018,2.023-0.639c0.734,0.383,1.021,1.288,0.639,2.023
						c-0.82,1.577-1.791,3.088-2.885,4.489C124.694,51.141,124.258,51.354,123.796,51.354z"/>
				</g>
				<g>
					<path class="st205" d="M101.949,62.039c-0.001,0-0.001,0-0.002,0C85.85,62.03,72.749,48.929,72.745,32.835
						c0.002-16.101,13.102-29.199,29.201-29.199c16.106,0,29.201,13.1,29.201,29.201C131.147,48.932,118.049,62.032,101.949,62.039z
						 M101.957,6.636c-14.456,0-26.21,11.753-26.212,26.199c0.004,14.44,11.759,26.196,26.204,26.204
						c14.445-0.007,26.198-11.761,26.198-26.202C128.147,18.39,116.398,6.636,101.957,6.636z"/>
				</g>
			</g>
		</g>
	</g>
	<g>
		<g>
			<g>
				<path class="st205" d="M70.62,61.704c-0.828,0-1.5-0.672-1.5-1.5v-5.227h-5.227c-0.828,0-1.5-0.672-1.5-1.5s0.672-1.5,1.5-1.5
					h6.727c0.828,0,1.5,0.672,1.5,1.5v6.727C72.12,61.032,71.448,61.704,70.62,61.704z"/>
			</g>
			<g>
				<path class="st205" d="M63.03,62.567c-0.384,0-0.768-0.146-1.061-0.439c-0.586-0.586-0.586-1.535,0-2.121l7.59-7.59
					c0.586-0.586,1.535-0.586,2.121,0s0.586,1.535,0,2.121l-7.59,7.59C63.798,62.421,63.414,62.567,63.03,62.567z"/>
			</g>
			<g>
				<path class="st205" d="M59.84,65.75c-0.39,0-0.78-0.16-1.06-0.44c-0.28-0.27-0.44-0.66-0.44-1.06c0-0.391,0.16-0.78,0.44-1.061
					c0.56-0.55,1.56-0.55,2.119,0c0.28,0.28,0.44,0.67,0.44,1.061c0,0.399-0.16,0.79-0.44,1.06C60.62,65.59,60.24,65.75,59.84,65.75
					z"/>
			</g>
			<g>
				<path class="st205" d="M56.66,68.939c-0.4,0-0.78-0.159-1.061-0.439s-0.439-0.67-0.439-1.061c0-0.399,0.159-0.779,0.439-1.06
					c0.55-0.561,1.561-0.561,2.12,0c0.28,0.28,0.44,0.67,0.44,1.06c0,0.391-0.16,0.78-0.44,1.061S57.05,68.939,56.66,68.939z"/>
			</g>
			<g>
				<path class="st205" d="M53.479,72.12c-0.399,0-0.79-0.16-1.06-0.44c-0.28-0.28-0.44-0.67-0.44-1.06c0-0.4,0.16-0.78,0.44-1.061
					c0.55-0.56,1.56-0.56,2.12,0c0.279,0.28,0.439,0.67,0.439,1.061c0,0.39-0.16,0.779-0.439,1.06
					C54.26,71.96,53.87,72.12,53.479,72.12z"/>
			</g>
		</g>
		<g>
			<g>
				<path class="st205" d="M81.524,72.606c-0.828,0-1.5-0.672-1.5-1.5V65.88h-5.227c-0.828,0-1.5-0.672-1.5-1.5s0.672-1.5,1.5-1.5
					h6.727c0.828,0,1.5,0.672,1.5,1.5v6.727C83.024,71.935,82.353,72.606,81.524,72.606z"/>
			</g>
			<g>
				<path class="st205" d="M73.933,73.472c-0.384,0-0.768-0.146-1.061-0.439c-0.586-0.586-0.586-1.535,0-2.121l7.592-7.592
					c0.586-0.586,1.535-0.586,2.121,0s0.586,1.535,0,2.121l-7.592,7.592C74.7,73.325,74.316,73.472,73.933,73.472z"/>
			</g>
			<g>
				<path class="st205" d="M70.74,76.66c-0.391,0-0.78-0.16-1.061-0.44c-0.27-0.28-0.43-0.67-0.43-1.06c0-0.4,0.16-0.78,0.43-1.061
					c0.561-0.56,1.57-0.56,2.13,0c0.28,0.28,0.431,0.67,0.431,1.061c0,0.39-0.15,0.779-0.431,1.06
					C71.53,76.5,71.14,76.66,70.74,76.66z"/>
			</g>
			<g>
				<path class="st205" d="M67.56,79.84c-0.39,0-0.779-0.16-1.06-0.44c-0.28-0.279-0.44-0.659-0.44-1.06s0.16-0.78,0.44-1.06
					c0.56-0.561,1.569-0.561,2.12,0c0.279,0.279,0.439,0.67,0.439,1.06s-0.16,0.78-0.43,1.06C68.35,79.68,67.96,79.84,67.56,79.84z"
					/>
			</g>
			<g>
				<path class="st205" d="M64.38,83.02c-0.39,0-0.78-0.16-1.061-0.439c-0.279-0.28-0.439-0.66-0.439-1.061
					c0-0.39,0.16-0.779,0.439-1.06c0.57-0.561,1.561-0.55,2.12,0c0.28,0.28,0.44,0.67,0.44,1.06c0,0.391-0.16,0.78-0.44,1.061
					C65.16,82.859,64.77,83.02,64.38,83.02z"/>
			</g>
		</g>
	</g>
</g>
</svg>
