<?xml version="1.0" encoding="utf-8"?>
<!-- Generator: Adobe Illustrator 16.0.0, SVG Export Plug-In . SVG Version: 6.00 Build 0)  -->
<!DOCTYPE svg PUBLIC "-//W3C//DTD SVG 1.1//EN" "http://www.w3.org/Graphics/SVG/1.1/DTD/svg11.dtd">
<svg version="1.1" id="Layer_1" xmlns="http://www.w3.org/2000/svg" xmlns:xlink="http://www.w3.org/1999/xlink" x="0px" y="0px"
	 width="135px" height="135px" viewBox="0 0 135 135" style="enable-background:new 0 0 135 135;" xml:space="preserve">
<style type="text/css">
<![CDATA[
	.st0{fill:#465652;}
	.st1{fill:#AAB9BA;}
	.st2{fill:#47C67B;}
	.st3{fill:#AAC8D1;}
	.st4{fill:none;stroke:#E83834;stroke-width:6;stroke-linecap:round;stroke-linejoin:round;stroke-miterlimit:10;}
	.st5{fill:#7BC67B;}
	.st6{fill:#7BC7FF;}
	.st7{fill:#7C34C1;}
	.st8{fill:#7C8D96;}
	.st9{fill:#AD2707;}
	.st10{fill:#ADB8BC;}
	.st11{fill:#107510;}
	.st12{fill:#7FE5D8;}
	.st13{fill:#AF4AD1;}
	.st14{fill:#E02B7E;}
	.st15{fill:#E04038;}
	.st16{fill:#AFD7DD;}
	.st17{fill:#E0A010;}
	.st18{fill:#E0D5A4;}
	.st19{fill:#12B2B2;}
	.st20{fill:#12D66B;}
	.st21{fill:#E1A9FF;}
	.st22{fill:#1362A8;}
	.st23{fill:#E2378D;}
	.st24{fill:#E29C37;}
	.st25{fill:#E2B90E;}
	.st26{fill:#E2BF91;}
	.st27{fill:#E2CBAA;}
	.st28{fill:#14A594;}
	.st29{fill:#E4E9ED;}
	.st30{fill:#4A5D60;}
	.st31{fill:#E5B076;}
	.st32{fill:#E5B1C4;}
	.st33{fill:#E5E4C3;}
	.st34{fill:#4B6466;}
	.st35{fill:#E6FF2E;}
	.st36{fill:#18AA67;}
	.st37{fill:#E86207;}
	.st38{fill:#E8A113;}
	.st39{fill:#E8B5A6;}
	.st40{fill:#E8E8ED;}
	.st41{fill:#4E5154;}
	.st42{fill:#E9F1F4;}
	.st43{fill:#4F4B48;}
	.st44{fill:#4F74E8;}
	.st45{fill:#808E93;}
	.st46{fill:#80949B;}
	.st47{fill:#80EDAC;}
	.st48{fill:#B122E0;}
	.st49{fill:#B2C4CC;}
	.st50{fill:#83D839;}
	.st51{fill:#B3C6C6;}
	.st52{fill:none;stroke:#33363A;stroke-width:3;stroke-linecap:round;stroke-linejoin:round;stroke-miterlimit:10;}
	.st53{fill:#1A8E1C;}
	.st54{fill:#1A93D6;}
	.st55{fill:#B50B0B;}
	.st56{fill:#1AD88F;}
	.st57{fill:#B5DAF4;}
	.st58{fill:#EA7B1F;}
	.st59{fill:#EA81BD;}
	.st60{fill:#87B8D6;}
	.st61{fill:#87C3F4;}
	.st62{fill:#EAC79D;}
	.st63{fill:#EADF11;}
	.st64{fill:#EAE4C5;}
	.st65{fill:#B78094;}
	.st66{fill:#8844D8;}
	.st67{fill:#EBF4F7;}
	.st68{fill:#893015;}
	.st69{fill:#89410B;}
	.st70{fill:#899BA3;}
	.st71{fill:#EDE3B9;}
	.st72{enable-background:new    ;}
	.st73{fill:#50FF9F;}
	.st74{fill:#EEDCF4;}
	.st75{fill:#EFA37D;}
	.st76{fill:#EFA3CC;}
	.st77{fill:#EFC99A;}
	.st78{fill:#54AF79;}
	.st79{fill:#BA503A;}
	.st80{fill:#BA8663;}
	.st81{fill:#8B4FE0;}
	.st82{fill:#58ED9B;}
	.st83{fill:#BC7DFF;}
	.st84{fill:#8D9AA3;}
	.st85{fill:#BCCAD3;}
	.st86{fill:#8DE4FF;}
	.st87{fill:#20B518;}
	.st88{fill:#BF44F2;}
	.st89{fill:#21CEA1;}
	.st90{fill:#BFDAE0;}
	.st91{fill:#F0FBFC;}
	.st92{fill:#F2D9A7;}
	.st93{fill:#F2EAC9;}
	.st94{fill:#24D1AF;}
	.st95{fill:#25931C;}
	.st96{fill:#F4C4B3;}
	.st97{fill:#F4D3A2;}
	.st98{fill:#F4D647;}
	.st99{fill:#F4D7B8;}
	.st100{fill:#F4EC8E;}
	.st101{fill:#5B524D;}
	.st102{fill:#F77819;}
	.st103{fill:#F79AE1;}
	.st104{fill:#5E707A;}
	.st105{fill:#F93585;}
	.st106{fill:#F95D5D;}
	.st107{fill:#F9C19B;}
	.st108{fill:#F9CB58;}
	.st109{fill:#F9D2B2;}
	.st110{fill:#F9F07D;}
	.st111{fill:#F9F1D2;}
	.st112{fill:#F9F4B7;}
	.st113{fill:#F9F9E4;}
	.st114{fill:#5F1DAA;}
	.st115{fill:#5F9AD6;}
	.st116{fill:#C0C0C4;}
	.st117{fill:#91EA57;}
	.st118{fill:#C12727;}
	.st119{fill:#C191A0;}
	.st120{fill:#923BB7;}
	.st121{fill:#93A0A3;}
	.st122{fill:#93F9EA;}
	.st123{fill:#93FF5A;}
	.st124{fill:#C4833D;}
	.st125{fill:#95A2A5;}
	.st126{fill:#965514;}
	.st127{fill:#96562C;}
	.st128{fill:#2AF42F;}
	.st129{fill:#C5D7DD;}
	.st130{fill:#C68510;}
	.st131{fill:#C6A86D;}
	.st132{fill:#C6BB8D;}
	.st133{fill:#2C9DCE;}
	.st134{fill:#FBFCF2;}
	.st135{fill:#FC70B0;}
	.st136{fill:#FCE6C8;}
	.st137{fill:#FCF7E3;}
	.st138{fill:#C90D6B;}
	.st139{fill:#FDFEFF;}
	.st140{fill:#FDFFDC;}
	.st141{fill:#FF1A1A;}
	.st142{fill:#FF5252;}
	.st143{fill:#FF5B00;}
	.st144{fill:#FF6155;}
	.st145{fill:#FF630D;}
	.st146{fill:#FF6666;}
	.st147{fill:#FF7676;}
	.st148{fill:#FF7900;}
	.st149{fill:#FF860D;}
	.st150{fill:#FF8B00;}
	.st151{fill:#FF8F8F;}
	.st152{fill:#FF900B;}
	.st153{fill:#FF908A;}
	.st154{fill:#FF960B;}
	.st155{fill:#FF9C0D;}
	.st156{fill:#FFA9D4;}
	.st157{fill:#FFAA00;}
	.st158{fill:#FFAD40;}
	.st159{fill:#FFAF10;}
	.st160{fill:#FFB000;}
	.st161{fill:#FFBE08;}
	.st162{fill:#FFBF31;}
	.st163{fill:#FFC200;}
	.st164{fill:#FFCAE8;}
	.st165{fill:#FFCCF5;}
	.st166{fill:#FFD00B;}
	.st167{fill:#FFD039;}
	.st168{fill:#FFD400;}
	.st169{fill:#FFD833;}
	.st170{fill:#FFDB80;}
	.st171{fill:#FFDDD2;}
	.st172{fill:#FFE6D4;}
	.st173{fill:#FFE6EB;}
	.st174{fill:#FFE98D;}
	.st175{fill:#FFECD2;}
	.st176{fill:#FFF1D9;}
	.st177{fill:#FFF24D;}
	.st178{fill:#FFF3C2;}
	.st179{fill:#FFF4C7;}
	.st180{fill:#FFF800;}
	.st181{fill:#FFF80D;}
	.st182{fill:#FFF9DE;}
	.st183{fill:#FFFBD7;}
	.st184{fill:#FFFBEB;}
	.st185{fill:#FFFCC0;}
	.st186{fill:#FFFCDC;}
	.st187{fill:#FFFFFA;}
	.st188{fill:#FFFFFF;}
	.st189{fill:#63797F;}
	.st190{fill:#65E529;}
	.st191{fill:#66310E;}
	.st192{fill:#663C17;}
	.st193{fill:#9A5AE5;}
	.st194{fill:#CA30EF;}
	.st195{fill:#6892FC;}
	.st196{fill:#9CFFC4;}
	.st197{fill:#CC4306;}
	.st198{fill:#CC549E;}
	.st199{fill:#9E3256;}
	.st200{fill:#CDFFBB;}
	.st201{fill:#CE86AF;}
	.st202{fill:#CED9DD;}
	
		.st203{fill:none;stroke:#33363A;stroke-width:3;stroke-linecap:round;stroke-linejoin:round;stroke-miterlimit:10;stroke-dasharray:6;}
	.st204{fill:#CFE1E2;}
	.st205{fill:#33363A;}
	.st206{fill:#34C166;}
	.st207{fill:#364B5B;}
	.st208{fill:#3662CE;}
	.st209{fill:#36C6FF;}
	.st210{fill:#6ADB9A;}
	.st211{fill:#6D5C4D;}
	.st212{fill:#6EBDF9;}
	.st213{fill:#0031FF;}
	.st214{fill:#0062FF;}
	.st215{fill:#0068FF;}
	.st216{fill:#0086FF;}
	.st217{fill:#009BE8;}
	.st218{fill:#00AAFF;}
	.st219{fill:#D271FF;}
	.st220{fill:#D363A9;}
	.st221{fill:#D3964C;}
	.st222{fill:#D3DFE2;}
	.st223{fill:#D3E0E2;}
	.st224{fill:#D3EFF4;}
	.st225{fill:#063B66;}
	.st226{fill:#D60909;}
	.st227{fill:#D61D1D;}
	.st228{fill:#D7F0FF;}
	.st229{fill:#09B285;}
	.st230{fill:#D8D593;}
	.st231{fill:#D8E2EA;}
	.st232{fill:#D8E5EA;}
	.st233{fill:#3E5054;}
	.st234{fill:#D988FF;}
	.st235{fill:#D9E7E8;}
	.st236{fill:#702252;}
	.st237{fill:#70D3E0;}
	.st238{fill:#A02FF2;}
	.st239{fill:#A2F255;}
	.st240{fill:#A35616;}
	.st241{fill:#A3CCCC;}
	.st242{fill:#0A6ADD;}
	.st243{fill:#A5145D;}
	.st244{fill:#A57555;}
	.st245{fill:#77D6FC;}
	.st246{fill:#7815CE;}
	.st247{fill:#A7BBC1;}
	.st248{fill:#DBD279;}
	.st249{fill:#0D5C9E;}
	.st250{fill:#A83C11;}
	.st251{fill:#A8633D;}
	.st252{fill:#A8A3E5;}
	.st253{fill:#DCE6EA;}
	.st254{fill:#DCE7EA;}
	.st255{fill:#A962E8;}
	.st256{fill:#DD2466;}
	.st257{fill:#DDC38A;}
	.st258{fill:#DDD2B1;}
	.st259{fill:#DFE7E8;}
	.st260{fill:#42B1E8;}
	.st261{fill:#436377;}
	.st262{fill:#43B530;}
]]>
</style>
<g>
	<g>
		<g>
			<g>
				<g>
					<path class="st161" d="M51.349,53.969c0,1.251-1.015,2.264-2.266,2.264H7.578c-1.25,0-2.264-1.013-2.264-2.264v-5.661
						c0-1.251,1.014-2.265,2.264-2.265h41.505c1.251,0,2.266,1.014,2.266,2.265V53.969z"/>
				</g>
				<g>
					<path class="st166" d="M7.578,46.043c-1.193,0-2.161,0.926-2.248,2.098c0.087,1.173,1.055,2.1,2.248,2.1h41.505
						c1.194,0,2.162-0.927,2.249-2.1c-0.087-1.172-1.055-2.098-2.249-2.098H7.578z"/>
				</g>
				<g>
					<path class="st205" d="M49.083,57.732H7.578c-2.075,0-3.764-1.688-3.764-3.764v-5.661c0-2.076,1.688-3.765,3.764-3.765h41.505
						c2.076,0,3.766,1.689,3.766,3.765v5.661C52.849,56.044,51.159,57.732,49.083,57.732z M7.578,47.543
						c-0.421,0-0.764,0.343-0.764,0.765v5.661c0,0.421,0.343,0.764,0.764,0.764h41.505c0.422,0,0.766-0.343,0.766-0.764v-5.661
						c0-0.422-0.344-0.765-0.766-0.765H7.578z"/>
				</g>
			</g>
			<g>
				<g>
					<path class="st205" d="M11.906,53.773c-0.828,0-1.5-0.671-1.5-1.5v-2.272c0-0.829,0.672-1.5,1.5-1.5s1.5,0.671,1.5,1.5v2.272
						C13.406,53.102,12.734,53.773,11.906,53.773z"/>
				</g>
				<g>
					<path class="st205" d="M17.435,53.773c-0.828,0-1.5-0.671-1.5-1.5v-2.272c0-0.829,0.672-1.5,1.5-1.5s1.5,0.671,1.5,1.5v2.272
						C18.935,53.102,18.263,53.773,17.435,53.773z"/>
				</g>
				<g>
					<path class="st205" d="M22.963,53.773c-0.828,0-1.5-0.671-1.5-1.5v-2.272c0-0.829,0.672-1.5,1.5-1.5s1.5,0.671,1.5,1.5v2.272
						C24.463,53.102,23.791,53.773,22.963,53.773z"/>
				</g>
				<g>
					<path class="st205" d="M28.491,53.773c-0.828,0-1.5-0.671-1.5-1.5v-2.272c0-0.829,0.672-1.5,1.5-1.5s1.5,0.671,1.5,1.5v2.272
						C29.991,53.102,29.319,53.773,28.491,53.773z"/>
				</g>
				<g>
					<path class="st205" d="M34.019,53.773c-0.828,0-1.5-0.671-1.5-1.5v-2.272c0-0.829,0.672-1.5,1.5-1.5s1.5,0.671,1.5,1.5v2.272
						C35.519,53.102,34.847,53.773,34.019,53.773z"/>
				</g>
				<g>
					<path class="st205" d="M39.547,53.773c-0.828,0-1.5-0.671-1.5-1.5v-2.272c0-0.829,0.672-1.5,1.5-1.5s1.5,0.671,1.5,1.5v2.272
						C41.047,53.102,40.375,53.773,39.547,53.773z"/>
				</g>
				<g>
					<path class="st205" d="M45.075,53.773c-0.828,0-1.5-0.671-1.5-1.5v-2.272c0-0.829,0.672-1.5,1.5-1.5s1.5,0.671,1.5,1.5v2.272
						C46.575,53.102,45.903,53.773,45.075,53.773z"/>
				</g>
			</g>
		</g>
		<g>
			<g>
				<g>
					<path class="st161" d="M51.349,64.158c0,1.251-1.015,2.264-2.266,2.264H7.578c-1.25,0-2.264-1.013-2.264-2.264v-5.661
						c0-1.251,1.014-2.265,2.264-2.265h41.505c1.251,0,2.266,1.014,2.266,2.265V64.158z"/>
				</g>
				<g>
					<path class="st166" d="M7.578,56.232c-1.193,0-2.161,0.926-2.248,2.098c0.087,1.173,1.055,2.1,2.248,2.1h41.505
						c1.194,0,2.162-0.927,2.249-2.1c-0.087-1.172-1.055-2.098-2.249-2.098H7.578z"/>
				</g>
				<g>
					<path class="st205" d="M49.083,67.922H7.578c-2.075,0-3.764-1.688-3.764-3.764v-5.661c0-2.076,1.688-3.765,3.764-3.765h41.505
						c2.076,0,3.766,1.689,3.766,3.765v5.661C52.849,66.233,51.159,67.922,49.083,67.922z M7.578,57.732
						c-0.421,0-0.764,0.343-0.764,0.765v5.661c0,0.421,0.343,0.764,0.764,0.764h41.505c0.422,0,0.766-0.343,0.766-0.764v-5.661
						c0-0.422-0.344-0.765-0.766-0.765H7.578z"/>
				</g>
			</g>
			<g>
				<g>
					<path class="st205" d="M11.906,63.963c-0.828,0-1.5-0.671-1.5-1.5V60.19c0-0.829,0.672-1.5,1.5-1.5s1.5,0.671,1.5,1.5v2.272
						C13.406,63.292,12.734,63.963,11.906,63.963z"/>
				</g>
				<g>
					<path class="st205" d="M17.435,63.963c-0.828,0-1.5-0.671-1.5-1.5V60.19c0-0.829,0.672-1.5,1.5-1.5s1.5,0.671,1.5,1.5v2.272
						C18.935,63.292,18.263,63.963,17.435,63.963z"/>
				</g>
				<g>
					<path class="st205" d="M22.963,63.963c-0.828,0-1.5-0.671-1.5-1.5V60.19c0-0.829,0.672-1.5,1.5-1.5s1.5,0.671,1.5,1.5v2.272
						C24.463,63.292,23.791,63.963,22.963,63.963z"/>
				</g>
				<g>
					<path class="st205" d="M28.491,63.963c-0.828,0-1.5-0.671-1.5-1.5V60.19c0-0.829,0.672-1.5,1.5-1.5s1.5,0.671,1.5,1.5v2.272
						C29.991,63.292,29.319,63.963,28.491,63.963z"/>
				</g>
				<g>
					<path class="st205" d="M34.019,63.963c-0.828,0-1.5-0.671-1.5-1.5V60.19c0-0.829,0.672-1.5,1.5-1.5s1.5,0.671,1.5,1.5v2.272
						C35.519,63.292,34.847,63.963,34.019,63.963z"/>
				</g>
				<g>
					<path class="st205" d="M39.547,63.963c-0.828,0-1.5-0.671-1.5-1.5V60.19c0-0.829,0.672-1.5,1.5-1.5s1.5,0.671,1.5,1.5v2.272
						C41.047,63.292,40.375,63.963,39.547,63.963z"/>
				</g>
				<g>
					<path class="st205" d="M45.075,63.963c-0.828,0-1.5-0.671-1.5-1.5V60.19c0-0.829,0.672-1.5,1.5-1.5s1.5,0.671,1.5,1.5v2.272
						C46.575,63.292,45.903,63.963,45.075,63.963z"/>
				</g>
			</g>
		</g>
		<g>
			<g>
				<g>
					<path class="st161" d="M51.349,74.348c0,1.251-1.015,2.264-2.266,2.264H7.578c-1.25,0-2.264-1.013-2.264-2.264v-5.661
						c0-1.251,1.014-2.265,2.264-2.265h41.505c1.251,0,2.266,1.014,2.266,2.265V74.348z"/>
				</g>
				<g>
					<path class="st166" d="M7.578,66.422c-1.193,0-2.161,0.926-2.248,2.098c0.087,1.173,1.055,2.1,2.248,2.1h41.505
						c1.194,0,2.162-0.927,2.249-2.1c-0.087-1.172-1.055-2.098-2.249-2.098H7.578z"/>
				</g>
				<g>
					<path class="st205" d="M49.083,78.111H7.578c-2.075,0-3.764-1.688-3.764-3.764v-5.661c0-2.076,1.688-3.765,3.764-3.765h41.505
						c2.076,0,3.766,1.689,3.766,3.765v5.661C52.849,76.423,51.159,78.111,49.083,78.111z M7.578,67.922
						c-0.421,0-0.764,0.343-0.764,0.765v5.661c0,0.421,0.343,0.764,0.764,0.764h41.505c0.422,0,0.766-0.343,0.766-0.764v-5.661
						c0-0.422-0.344-0.765-0.766-0.765H7.578z"/>
				</g>
			</g>
			<g>
				<g>
					<path class="st205" d="M11.906,74.153c-0.828,0-1.5-0.671-1.5-1.5V70.38c0-0.829,0.672-1.5,1.5-1.5s1.5,0.671,1.5,1.5v2.273
						C13.406,73.482,12.734,74.153,11.906,74.153z"/>
				</g>
				<g>
					<path class="st205" d="M17.435,74.153c-0.828,0-1.5-0.671-1.5-1.5V70.38c0-0.829,0.672-1.5,1.5-1.5s1.5,0.671,1.5,1.5v2.273
						C18.935,73.482,18.263,74.153,17.435,74.153z"/>
				</g>
				<g>
					<path class="st205" d="M22.963,74.153c-0.828,0-1.5-0.671-1.5-1.5V70.38c0-0.829,0.672-1.5,1.5-1.5s1.5,0.671,1.5,1.5v2.273
						C24.463,73.482,23.791,74.153,22.963,74.153z"/>
				</g>
				<g>
					<path class="st205" d="M28.491,74.153c-0.828,0-1.5-0.671-1.5-1.5V70.38c0-0.829,0.672-1.5,1.5-1.5s1.5,0.671,1.5,1.5v2.273
						C29.991,73.482,29.319,74.153,28.491,74.153z"/>
				</g>
				<g>
					<path class="st205" d="M34.019,74.153c-0.828,0-1.5-0.671-1.5-1.5V70.38c0-0.829,0.672-1.5,1.5-1.5s1.5,0.671,1.5,1.5v2.273
						C35.519,73.482,34.847,74.153,34.019,74.153z"/>
				</g>
				<g>
					<path class="st205" d="M39.547,74.153c-0.828,0-1.5-0.671-1.5-1.5V70.38c0-0.829,0.672-1.5,1.5-1.5s1.5,0.671,1.5,1.5v2.273
						C41.047,73.482,40.375,74.153,39.547,74.153z"/>
				</g>
				<g>
					<path class="st205" d="M45.075,74.153c-0.828,0-1.5-0.671-1.5-1.5V70.38c0-0.829,0.672-1.5,1.5-1.5s1.5,0.671,1.5,1.5v2.273
						C46.575,73.482,45.903,74.153,45.075,74.153z"/>
				</g>
			</g>
		</g>
		<g>
			<g>
				<g>
					<path class="st161" d="M51.349,84.537c0,1.251-1.015,2.264-2.266,2.264H7.578c-1.25,0-2.264-1.013-2.264-2.264v-5.661
						c0-1.251,1.014-2.265,2.264-2.265h41.505c1.251,0,2.266,1.014,2.266,2.265V84.537z"/>
				</g>
				<g>
					<path class="st166" d="M7.578,76.611c-1.193,0-2.161,0.926-2.248,2.098c0.087,1.173,1.055,2.1,2.248,2.1h41.505
						c1.194,0,2.162-0.927,2.249-2.1c-0.087-1.172-1.055-2.098-2.249-2.098H7.578z"/>
				</g>
				<g>
					<path class="st205" d="M49.083,88.301H7.578c-2.075,0-3.764-1.688-3.764-3.764v-5.661c0-2.076,1.688-3.765,3.764-3.765h41.505
						c2.076,0,3.766,1.689,3.766,3.765v5.661C52.849,86.612,51.159,88.301,49.083,88.301z M7.578,78.111
						c-0.421,0-0.764,0.343-0.764,0.765v5.661c0,0.421,0.343,0.764,0.764,0.764h41.505c0.422,0,0.766-0.343,0.766-0.764v-5.661
						c0-0.422-0.344-0.765-0.766-0.765H7.578z"/>
				</g>
			</g>
			<g>
				<g>
					<path class="st205" d="M11.906,84.342c-0.828,0-1.5-0.671-1.5-1.5v-2.272c0-0.829,0.672-1.5,1.5-1.5s1.5,0.671,1.5,1.5v2.272
						C13.406,83.67,12.734,84.342,11.906,84.342z"/>
				</g>
				<g>
					<path class="st205" d="M17.435,84.342c-0.828,0-1.5-0.671-1.5-1.5v-2.272c0-0.829,0.672-1.5,1.5-1.5s1.5,0.671,1.5,1.5v2.272
						C18.935,83.67,18.263,84.342,17.435,84.342z"/>
				</g>
				<g>
					<path class="st205" d="M22.963,84.342c-0.828,0-1.5-0.671-1.5-1.5v-2.272c0-0.829,0.672-1.5,1.5-1.5s1.5,0.671,1.5,1.5v2.272
						C24.463,83.67,23.791,84.342,22.963,84.342z"/>
				</g>
				<g>
					<path class="st205" d="M28.491,84.342c-0.828,0-1.5-0.671-1.5-1.5v-2.272c0-0.829,0.672-1.5,1.5-1.5s1.5,0.671,1.5,1.5v2.272
						C29.991,83.67,29.319,84.342,28.491,84.342z"/>
				</g>
				<g>
					<path class="st205" d="M34.019,84.342c-0.828,0-1.5-0.671-1.5-1.5v-2.272c0-0.829,0.672-1.5,1.5-1.5s1.5,0.671,1.5,1.5v2.272
						C35.519,83.67,34.847,84.342,34.019,84.342z"/>
				</g>
				<g>
					<path class="st205" d="M39.547,84.342c-0.828,0-1.5-0.671-1.5-1.5v-2.272c0-0.829,0.672-1.5,1.5-1.5s1.5,0.671,1.5,1.5v2.272
						C41.047,83.67,40.375,84.342,39.547,84.342z"/>
				</g>
				<g>
					<path class="st205" d="M45.075,84.342c-0.828,0-1.5-0.671-1.5-1.5v-2.272c0-0.829,0.672-1.5,1.5-1.5s1.5,0.671,1.5,1.5v2.272
						C46.575,83.67,45.903,84.342,45.075,84.342z"/>
				</g>
			</g>
		</g>
		<g>
			<g>
				<g>
					<path class="st161" d="M51.349,94.727c0,1.251-1.015,2.264-2.266,2.264H7.578c-1.25,0-2.264-1.013-2.264-2.264v-5.661
						c0-1.251,1.014-2.265,2.264-2.265h41.505c1.251,0,2.266,1.014,2.266,2.265V94.727z"/>
				</g>
				<g>
					<path class="st166" d="M7.578,86.801c-1.193,0-2.161,0.926-2.248,2.098c0.087,1.173,1.055,2.1,2.248,2.1h41.505
						c1.194,0,2.162-0.927,2.249-2.1c-0.087-1.172-1.055-2.098-2.249-2.098H7.578z"/>
				</g>
				<g>
					<path class="st205" d="M49.083,98.49H7.578c-2.075,0-3.764-1.688-3.764-3.764v-5.661c0-2.076,1.688-3.765,3.764-3.765h41.505
						c2.076,0,3.766,1.689,3.766,3.765v5.661C52.849,96.802,51.159,98.49,49.083,98.49z M7.578,88.301
						c-0.421,0-0.764,0.343-0.764,0.765v5.661c0,0.421,0.343,0.764,0.764,0.764h41.505c0.422,0,0.766-0.343,0.766-0.764v-5.661
						c0-0.422-0.344-0.765-0.766-0.765H7.578z"/>
				</g>
			</g>
			<g>
				<g>
					<path class="st205" d="M11.906,94.531c-0.828,0-1.5-0.671-1.5-1.5v-2.272c0-0.829,0.672-1.5,1.5-1.5s1.5,0.671,1.5,1.5v2.272
						C13.406,93.86,12.734,94.531,11.906,94.531z"/>
				</g>
				<g>
					<path class="st205" d="M17.435,94.531c-0.828,0-1.5-0.671-1.5-1.5v-2.272c0-0.829,0.672-1.5,1.5-1.5s1.5,0.671,1.5,1.5v2.272
						C18.935,93.86,18.263,94.531,17.435,94.531z"/>
				</g>
				<g>
					<path class="st205" d="M22.963,94.531c-0.828,0-1.5-0.671-1.5-1.5v-2.272c0-0.829,0.672-1.5,1.5-1.5s1.5,0.671,1.5,1.5v2.272
						C24.463,93.86,23.791,94.531,22.963,94.531z"/>
				</g>
				<g>
					<path class="st205" d="M28.491,94.531c-0.828,0-1.5-0.671-1.5-1.5v-2.272c0-0.829,0.672-1.5,1.5-1.5s1.5,0.671,1.5,1.5v2.272
						C29.991,93.86,29.319,94.531,28.491,94.531z"/>
				</g>
				<g>
					<path class="st205" d="M34.019,94.531c-0.828,0-1.5-0.671-1.5-1.5v-2.272c0-0.829,0.672-1.5,1.5-1.5s1.5,0.671,1.5,1.5v2.272
						C35.519,93.86,34.847,94.531,34.019,94.531z"/>
				</g>
				<g>
					<path class="st205" d="M39.547,94.531c-0.828,0-1.5-0.671-1.5-1.5v-2.272c0-0.829,0.672-1.5,1.5-1.5s1.5,0.671,1.5,1.5v2.272
						C41.047,93.86,40.375,94.531,39.547,94.531z"/>
				</g>
				<g>
					<path class="st205" d="M45.075,94.531c-0.828,0-1.5-0.671-1.5-1.5v-2.272c0-0.829,0.672-1.5,1.5-1.5s1.5,0.671,1.5,1.5v2.272
						C46.575,93.86,45.903,94.531,45.075,94.531z"/>
				</g>
			</g>
		</g>
		<g>
			<g>
				<g>
					<path class="st161" d="M51.349,104.916c0,1.251-1.015,2.264-2.266,2.264H7.578c-1.25,0-2.264-1.013-2.264-2.264v-5.661
						c0-1.251,1.014-2.265,2.264-2.265h41.505c1.251,0,2.266,1.014,2.266,2.265V104.916z"/>
				</g>
				<g>
					<path class="st166" d="M7.578,96.99c-1.193,0-2.161,0.926-2.248,2.098c0.087,1.173,1.055,2.1,2.248,2.1h41.505
						c1.194,0,2.162-0.927,2.249-2.1c-0.087-1.172-1.055-2.098-2.249-2.098H7.578z"/>
				</g>
				<g>
					<path class="st205" d="M49.083,108.68H7.578c-2.075,0-3.764-1.688-3.764-3.764v-5.661c0-2.076,1.688-3.765,3.764-3.765h41.505
						c2.076,0,3.766,1.689,3.766,3.765v5.661C52.849,106.991,51.159,108.68,49.083,108.68z M7.578,98.49
						c-0.421,0-0.764,0.343-0.764,0.765v5.661c0,0.421,0.343,0.764,0.764,0.764h41.505c0.422,0,0.766-0.343,0.766-0.764v-5.661
						c0-0.422-0.344-0.765-0.766-0.765H7.578z"/>
				</g>
			</g>
			<g>
				<g>
					<path class="st205" d="M11.906,104.721c-0.828,0-1.5-0.671-1.5-1.5v-2.272c0-0.829,0.672-1.5,1.5-1.5s1.5,0.671,1.5,1.5v2.272
						C13.406,104.049,12.734,104.721,11.906,104.721z"/>
				</g>
				<g>
					<path class="st205" d="M17.435,104.721c-0.828,0-1.5-0.671-1.5-1.5v-2.272c0-0.829,0.672-1.5,1.5-1.5s1.5,0.671,1.5,1.5v2.272
						C18.935,104.049,18.263,104.721,17.435,104.721z"/>
				</g>
				<g>
					<path class="st205" d="M22.963,104.721c-0.828,0-1.5-0.671-1.5-1.5v-2.272c0-0.829,0.672-1.5,1.5-1.5s1.5,0.671,1.5,1.5v2.272
						C24.463,104.049,23.791,104.721,22.963,104.721z"/>
				</g>
				<g>
					<path class="st205" d="M28.491,104.721c-0.828,0-1.5-0.671-1.5-1.5v-2.272c0-0.829,0.672-1.5,1.5-1.5s1.5,0.671,1.5,1.5v2.272
						C29.991,104.049,29.319,104.721,28.491,104.721z"/>
				</g>
				<g>
					<path class="st205" d="M34.019,104.721c-0.828,0-1.5-0.671-1.5-1.5v-2.272c0-0.829,0.672-1.5,1.5-1.5s1.5,0.671,1.5,1.5v2.272
						C35.519,104.049,34.847,104.721,34.019,104.721z"/>
				</g>
				<g>
					<path class="st205" d="M39.547,104.721c-0.828,0-1.5-0.671-1.5-1.5v-2.272c0-0.829,0.672-1.5,1.5-1.5s1.5,0.671,1.5,1.5v2.272
						C41.047,104.049,40.375,104.721,39.547,104.721z"/>
				</g>
				<g>
					<path class="st205" d="M45.075,104.721c-0.828,0-1.5-0.671-1.5-1.5v-2.272c0-0.829,0.672-1.5,1.5-1.5s1.5,0.671,1.5,1.5v2.272
						C46.575,104.049,45.903,104.721,45.075,104.721z"/>
				</g>
			</g>
		</g>
		<g>
			<g>
				<g>
					<path class="st161" d="M51.349,115.105c0,1.251-1.015,2.264-2.266,2.264H7.578c-1.25,0-2.264-1.013-2.264-2.264v-5.661
						c0-1.25,1.014-2.265,2.264-2.265h41.505c1.251,0,2.266,1.015,2.266,2.265V115.105z"/>
				</g>
				<g>
					<path class="st166" d="M7.578,107.18c-1.193,0-2.161,0.926-2.248,2.098c0.087,1.173,1.055,2.1,2.248,2.1h41.505
						c1.194,0,2.162-0.927,2.249-2.1c-0.087-1.172-1.055-2.098-2.249-2.098H7.578z"/>
				</g>
				<g>
					<path class="st205" d="M49.083,118.869H7.578c-2.075,0-3.764-1.688-3.764-3.764v-5.661c0-2.076,1.688-3.765,3.764-3.765h41.505
						c2.076,0,3.766,1.689,3.766,3.765v5.661C52.849,117.181,51.159,118.869,49.083,118.869z M7.578,108.68
						c-0.421,0-0.764,0.343-0.764,0.765v5.661c0,0.421,0.343,0.764,0.764,0.764h41.505c0.422,0,0.766-0.343,0.766-0.764v-5.661
						c0-0.422-0.344-0.765-0.766-0.765H7.578z"/>
				</g>
			</g>
			<g>
				<g>
					<path class="st205" d="M11.906,114.91c-0.828,0-1.5-0.671-1.5-1.5v-2.272c0-0.829,0.672-1.5,1.5-1.5s1.5,0.671,1.5,1.5v2.272
						C13.406,114.239,12.734,114.91,11.906,114.91z"/>
				</g>
				<g>
					<path class="st205" d="M17.435,114.91c-0.828,0-1.5-0.671-1.5-1.5v-2.272c0-0.829,0.672-1.5,1.5-1.5s1.5,0.671,1.5,1.5v2.272
						C18.935,114.239,18.263,114.91,17.435,114.91z"/>
				</g>
				<g>
					<path class="st205" d="M22.963,114.91c-0.828,0-1.5-0.671-1.5-1.5v-2.272c0-0.829,0.672-1.5,1.5-1.5s1.5,0.671,1.5,1.5v2.272
						C24.463,114.239,23.791,114.91,22.963,114.91z"/>
				</g>
				<g>
					<path class="st205" d="M28.491,114.91c-0.828,0-1.5-0.671-1.5-1.5v-2.272c0-0.829,0.672-1.5,1.5-1.5s1.5,0.671,1.5,1.5v2.272
						C29.991,114.239,29.319,114.91,28.491,114.91z"/>
				</g>
				<g>
					<path class="st205" d="M34.019,114.91c-0.828,0-1.5-0.671-1.5-1.5v-2.272c0-0.829,0.672-1.5,1.5-1.5s1.5,0.671,1.5,1.5v2.272
						C35.519,114.239,34.847,114.91,34.019,114.91z"/>
				</g>
				<g>
					<path class="st205" d="M39.547,114.91c-0.828,0-1.5-0.671-1.5-1.5v-2.272c0-0.829,0.672-1.5,1.5-1.5s1.5,0.671,1.5,1.5v2.272
						C41.047,114.239,40.375,114.91,39.547,114.91z"/>
				</g>
				<g>
					<path class="st205" d="M45.075,114.91c-0.828,0-1.5-0.671-1.5-1.5v-2.272c0-0.829,0.672-1.5,1.5-1.5s1.5,0.671,1.5,1.5v2.272
						C46.575,114.239,45.903,114.91,45.075,114.91z"/>
				</g>
			</g>
		</g>
		<g>
			<g>
				<g>
					<path class="st161" d="M51.349,125.295c0,1.251-1.015,2.264-2.266,2.264H7.578c-1.25,0-2.264-1.013-2.264-2.264v-5.661
						c0-1.251,1.014-2.265,2.264-2.265h41.505c1.251,0,2.266,1.014,2.266,2.265V125.295z"/>
				</g>
				<g>
					<path class="st166" d="M7.578,117.369c-1.193,0-2.161,0.926-2.248,2.098c0.087,1.173,1.055,2.1,2.248,2.1h41.505
						c1.194,0,2.162-0.927,2.249-2.1c-0.087-1.172-1.055-2.098-2.249-2.098H7.578z"/>
				</g>
				<g>
					<path class="st205" d="M49.083,129.059H7.578c-2.075,0-3.764-1.688-3.764-3.764v-5.661c0-2.076,1.688-3.765,3.764-3.765h41.505
						c2.076,0,3.766,1.689,3.766,3.765v5.661C52.849,127.37,51.159,129.059,49.083,129.059z M7.578,118.869
						c-0.421,0-0.764,0.343-0.764,0.765v5.661c0,0.421,0.343,0.764,0.764,0.764h41.505c0.422,0,0.766-0.343,0.766-0.764v-5.661
						c0-0.422-0.344-0.765-0.766-0.765H7.578z"/>
				</g>
			</g>
			<g>
				<g>
					<path class="st205" d="M11.906,125.1c-0.828,0-1.5-0.671-1.5-1.5v-2.272c0-0.829,0.672-1.5,1.5-1.5s1.5,0.671,1.5,1.5v2.272
						C13.406,124.428,12.734,125.1,11.906,125.1z"/>
				</g>
				<g>
					<path class="st205" d="M17.435,125.1c-0.828,0-1.5-0.671-1.5-1.5v-2.272c0-0.829,0.672-1.5,1.5-1.5s1.5,0.671,1.5,1.5v2.272
						C18.935,124.428,18.263,125.1,17.435,125.1z"/>
				</g>
				<g>
					<path class="st205" d="M22.963,125.1c-0.828,0-1.5-0.671-1.5-1.5v-2.272c0-0.829,0.672-1.5,1.5-1.5s1.5,0.671,1.5,1.5v2.272
						C24.463,124.428,23.791,125.1,22.963,125.1z"/>
				</g>
				<g>
					<path class="st205" d="M28.491,125.1c-0.828,0-1.5-0.671-1.5-1.5v-2.272c0-0.829,0.672-1.5,1.5-1.5s1.5,0.671,1.5,1.5v2.272
						C29.991,124.428,29.319,125.1,28.491,125.1z"/>
				</g>
				<g>
					<path class="st205" d="M34.019,125.1c-0.828,0-1.5-0.671-1.5-1.5v-2.272c0-0.829,0.672-1.5,1.5-1.5s1.5,0.671,1.5,1.5v2.272
						C35.519,124.428,34.847,125.1,34.019,125.1z"/>
				</g>
				<g>
					<path class="st205" d="M39.547,125.1c-0.828,0-1.5-0.671-1.5-1.5v-2.272c0-0.829,0.672-1.5,1.5-1.5s1.5,0.671,1.5,1.5v2.272
						C41.047,124.428,40.375,125.1,39.547,125.1z"/>
				</g>
				<g>
					<path class="st205" d="M45.075,125.1c-0.828,0-1.5-0.671-1.5-1.5v-2.272c0-0.829,0.672-1.5,1.5-1.5s1.5,0.671,1.5,1.5v2.272
						C46.575,124.428,45.903,125.1,45.075,125.1z"/>
				</g>
			</g>
		</g>
	</g>
	<g>
		<g>
			<g>
				<g>
					<path class="st161" d="M102.034,24.029c0,1.251-1.015,2.264-2.266,2.264H58.264c-1.25,0-2.264-1.013-2.264-2.264v-5.661
						c0-1.251,1.014-2.265,2.264-2.265h41.505c1.251,0,2.266,1.014,2.266,2.265V24.029z"/>
				</g>
				<g>
					<path class="st166" d="M58.264,16.104c-1.193,0-2.161,0.926-2.248,2.098c0.087,1.173,1.055,2.1,2.248,2.1h41.505
						c1.194,0,2.162-0.927,2.249-2.1c-0.087-1.172-1.055-2.098-2.249-2.098H58.264z"/>
				</g>
				<g>
					<path class="st205" d="M99.769,27.793H58.264c-2.075,0-3.764-1.688-3.764-3.764v-5.661c0-2.076,1.688-3.765,3.764-3.765h41.505
						c2.076,0,3.766,1.689,3.766,3.765v5.661C103.534,26.104,101.845,27.793,99.769,27.793z M58.264,17.604
						c-0.421,0-0.764,0.343-0.764,0.765v5.661c0,0.421,0.343,0.764,0.764,0.764h41.505c0.422,0,0.766-0.343,0.766-0.764v-5.661
						c0-0.422-0.344-0.765-0.766-0.765H58.264z"/>
				</g>
			</g>
			<g>
				<g>
					<path class="st205" d="M62.592,23.834c-0.828,0-1.5-0.671-1.5-1.5v-2.272c0-0.829,0.672-1.5,1.5-1.5s1.5,0.671,1.5,1.5v2.272
						C64.092,23.163,63.42,23.834,62.592,23.834z"/>
				</g>
				<g>
					<path class="st205" d="M68.12,23.834c-0.828,0-1.5-0.671-1.5-1.5v-2.272c0-0.829,0.672-1.5,1.5-1.5s1.5,0.671,1.5,1.5v2.272
						C69.62,23.163,68.948,23.834,68.12,23.834z"/>
				</g>
				<g>
					<path class="st205" d="M73.648,23.834c-0.828,0-1.5-0.671-1.5-1.5v-2.272c0-0.829,0.672-1.5,1.5-1.5s1.5,0.671,1.5,1.5v2.272
						C75.148,23.163,74.477,23.834,73.648,23.834z"/>
				</g>
				<g>
					<path class="st205" d="M79.177,23.834c-0.828,0-1.5-0.671-1.5-1.5v-2.272c0-0.829,0.672-1.5,1.5-1.5s1.5,0.671,1.5,1.5v2.272
						C80.677,23.163,80.005,23.834,79.177,23.834z"/>
				</g>
				<g>
					<path class="st205" d="M84.704,23.834c-0.828,0-1.5-0.671-1.5-1.5v-2.272c0-0.829,0.672-1.5,1.5-1.5s1.5,0.671,1.5,1.5v2.272
						C86.204,23.163,85.532,23.834,84.704,23.834z"/>
				</g>
				<g>
					<path class="st205" d="M90.232,23.834c-0.828,0-1.5-0.671-1.5-1.5v-2.272c0-0.829,0.672-1.5,1.5-1.5s1.5,0.671,1.5,1.5v2.272
						C91.732,23.163,91.061,23.834,90.232,23.834z"/>
				</g>
				<g>
					<path class="st205" d="M95.761,23.834c-0.828,0-1.5-0.671-1.5-1.5v-2.272c0-0.829,0.672-1.5,1.5-1.5s1.5,0.671,1.5,1.5v2.272
						C97.261,23.163,96.589,23.834,95.761,23.834z"/>
				</g>
			</g>
		</g>
		<g>
			<g>
				<g>
					<path class="st161" d="M102.034,34.219c0,1.251-1.015,2.264-2.266,2.264H58.264c-1.25,0-2.264-1.013-2.264-2.264v-5.661
						c0-1.251,1.014-2.265,2.264-2.265h41.505c1.251,0,2.266,1.014,2.266,2.265V34.219z"/>
				</g>
				<g>
					<path class="st166" d="M58.264,26.293c-1.193,0-2.161,0.926-2.248,2.098c0.087,1.173,1.055,2.1,2.248,2.1h41.505
						c1.194,0,2.162-0.927,2.249-2.1c-0.087-1.172-1.055-2.098-2.249-2.098H58.264z"/>
				</g>
				<g>
					<path class="st205" d="M99.769,37.982H58.264c-2.075,0-3.764-1.688-3.764-3.764v-5.661c0-2.076,1.688-3.765,3.764-3.765h41.505
						c2.076,0,3.766,1.689,3.766,3.765v5.661C103.534,36.294,101.845,37.982,99.769,37.982z M58.264,27.793
						c-0.421,0-0.764,0.343-0.764,0.765v5.661c0,0.421,0.343,0.764,0.764,0.764h41.505c0.422,0,0.766-0.343,0.766-0.764v-5.661
						c0-0.422-0.344-0.765-0.766-0.765H58.264z"/>
				</g>
			</g>
			<g>
				<g>
					<path class="st205" d="M62.592,34.023c-0.828,0-1.5-0.671-1.5-1.5v-2.272c0-0.829,0.672-1.5,1.5-1.5s1.5,0.671,1.5,1.5v2.272
						C64.092,33.352,63.42,34.023,62.592,34.023z"/>
				</g>
				<g>
					<path class="st205" d="M68.12,34.023c-0.828,0-1.5-0.671-1.5-1.5v-2.272c0-0.829,0.672-1.5,1.5-1.5s1.5,0.671,1.5,1.5v2.272
						C69.62,33.352,68.948,34.023,68.12,34.023z"/>
				</g>
				<g>
					<path class="st205" d="M73.648,34.023c-0.828,0-1.5-0.671-1.5-1.5v-2.272c0-0.829,0.672-1.5,1.5-1.5s1.5,0.671,1.5,1.5v2.272
						C75.148,33.352,74.477,34.023,73.648,34.023z"/>
				</g>
				<g>
					<path class="st205" d="M79.177,34.023c-0.828,0-1.5-0.671-1.5-1.5v-2.272c0-0.829,0.672-1.5,1.5-1.5s1.5,0.671,1.5,1.5v2.272
						C80.677,33.352,80.005,34.023,79.177,34.023z"/>
				</g>
				<g>
					<path class="st205" d="M84.704,34.023c-0.828,0-1.5-0.671-1.5-1.5v-2.272c0-0.829,0.672-1.5,1.5-1.5s1.5,0.671,1.5,1.5v2.272
						C86.204,33.352,85.532,34.023,84.704,34.023z"/>
				</g>
				<g>
					<path class="st205" d="M90.232,34.023c-0.828,0-1.5-0.671-1.5-1.5v-2.272c0-0.829,0.672-1.5,1.5-1.5s1.5,0.671,1.5,1.5v2.272
						C91.732,33.352,91.061,34.023,90.232,34.023z"/>
				</g>
				<g>
					<path class="st205" d="M95.761,34.023c-0.828,0-1.5-0.671-1.5-1.5v-2.272c0-0.829,0.672-1.5,1.5-1.5s1.5,0.671,1.5,1.5v2.272
						C97.261,33.352,96.589,34.023,95.761,34.023z"/>
				</g>
			</g>
		</g>
		<g>
			<g>
				<g>
					<path class="st161" d="M102.034,44.408c0,1.251-1.015,2.264-2.266,2.264H58.264c-1.25,0-2.264-1.013-2.264-2.264v-5.661
						c0-1.251,1.014-2.265,2.264-2.265h41.505c1.251,0,2.266,1.014,2.266,2.265V44.408z"/>
				</g>
				<g>
					<path class="st166" d="M58.264,36.482c-1.193,0-2.161,0.926-2.248,2.098c0.087,1.173,1.055,2.1,2.248,2.1h41.505
						c1.194,0,2.162-0.927,2.249-2.1c-0.087-1.172-1.055-2.098-2.249-2.098H58.264z"/>
				</g>
				<g>
					<path class="st205" d="M99.769,48.172H58.264c-2.075,0-3.764-1.688-3.764-3.764v-5.661c0-2.076,1.688-3.765,3.764-3.765h41.505
						c2.076,0,3.766,1.689,3.766,3.765v5.661C103.534,46.483,101.845,48.172,99.769,48.172z M58.264,37.982
						c-0.421,0-0.764,0.343-0.764,0.765v5.661c0,0.421,0.343,0.764,0.764,0.764h41.505c0.422,0,0.766-0.343,0.766-0.764v-5.661
						c0-0.422-0.344-0.765-0.766-0.765H58.264z"/>
				</g>
			</g>
			<g>
				<g>
					<path class="st205" d="M62.592,44.213c-0.828,0-1.5-0.671-1.5-1.5V40.44c0-0.829,0.672-1.5,1.5-1.5s1.5,0.671,1.5,1.5v2.272
						C64.092,43.542,63.42,44.213,62.592,44.213z"/>
				</g>
				<g>
					<path class="st205" d="M68.12,44.213c-0.828,0-1.5-0.671-1.5-1.5V40.44c0-0.829,0.672-1.5,1.5-1.5s1.5,0.671,1.5,1.5v2.272
						C69.62,43.542,68.948,44.213,68.12,44.213z"/>
				</g>
				<g>
					<path class="st205" d="M73.648,44.213c-0.828,0-1.5-0.671-1.5-1.5V40.44c0-0.829,0.672-1.5,1.5-1.5s1.5,0.671,1.5,1.5v2.272
						C75.148,43.542,74.477,44.213,73.648,44.213z"/>
				</g>
				<g>
					<path class="st205" d="M79.177,44.213c-0.828,0-1.5-0.671-1.5-1.5V40.44c0-0.829,0.672-1.5,1.5-1.5s1.5,0.671,1.5,1.5v2.272
						C80.677,43.542,80.005,44.213,79.177,44.213z"/>
				</g>
				<g>
					<path class="st205" d="M84.704,44.213c-0.828,0-1.5-0.671-1.5-1.5V40.44c0-0.829,0.672-1.5,1.5-1.5s1.5,0.671,1.5,1.5v2.272
						C86.204,43.542,85.532,44.213,84.704,44.213z"/>
				</g>
				<g>
					<path class="st205" d="M90.232,44.213c-0.828,0-1.5-0.671-1.5-1.5V40.44c0-0.829,0.672-1.5,1.5-1.5s1.5,0.671,1.5,1.5v2.272
						C91.732,43.542,91.061,44.213,90.232,44.213z"/>
				</g>
				<g>
					<path class="st205" d="M95.761,44.213c-0.828,0-1.5-0.671-1.5-1.5V40.44c0-0.829,0.672-1.5,1.5-1.5s1.5,0.671,1.5,1.5v2.272
						C97.261,43.542,96.589,44.213,95.761,44.213z"/>
				</g>
			</g>
		</g>
		<g>
			<g>
				<g>
					<path class="st161" d="M102.034,54.598c0,1.251-1.015,2.264-2.266,2.264H58.264c-1.25,0-2.264-1.013-2.264-2.264v-5.661
						c0-1.251,1.014-2.265,2.264-2.265h41.505c1.251,0,2.266,1.014,2.266,2.265V54.598z"/>
				</g>
				<g>
					<path class="st166" d="M58.264,46.672c-1.193,0-2.161,0.926-2.248,2.098c0.087,1.173,1.055,2.1,2.248,2.1h41.505
						c1.194,0,2.162-0.927,2.249-2.1c-0.087-1.172-1.055-2.098-2.249-2.098H58.264z"/>
				</g>
				<g>
					<path class="st205" d="M99.769,58.361H58.264c-2.075,0-3.764-1.688-3.764-3.764v-5.661c0-2.076,1.688-3.765,3.764-3.765h41.505
						c2.076,0,3.766,1.689,3.766,3.765v5.661C103.534,56.673,101.845,58.361,99.769,58.361z M58.264,48.172
						c-0.421,0-0.764,0.343-0.764,0.765v5.661c0,0.421,0.343,0.764,0.764,0.764h41.505c0.422,0,0.766-0.343,0.766-0.764v-5.661
						c0-0.422-0.344-0.765-0.766-0.765H58.264z"/>
				</g>
			</g>
			<g>
				<g>
					<path class="st205" d="M62.592,54.403c-0.828,0-1.5-0.671-1.5-1.5V50.63c0-0.829,0.672-1.5,1.5-1.5s1.5,0.671,1.5,1.5v2.273
						C64.092,53.732,63.42,54.403,62.592,54.403z"/>
				</g>
				<g>
					<path class="st205" d="M68.12,54.403c-0.828,0-1.5-0.671-1.5-1.5V50.63c0-0.829,0.672-1.5,1.5-1.5s1.5,0.671,1.5,1.5v2.273
						C69.62,53.732,68.948,54.403,68.12,54.403z"/>
				</g>
				<g>
					<path class="st205" d="M73.648,54.403c-0.828,0-1.5-0.671-1.5-1.5V50.63c0-0.829,0.672-1.5,1.5-1.5s1.5,0.671,1.5,1.5v2.273
						C75.148,53.732,74.477,54.403,73.648,54.403z"/>
				</g>
				<g>
					<path class="st205" d="M79.177,54.403c-0.828,0-1.5-0.671-1.5-1.5V50.63c0-0.829,0.672-1.5,1.5-1.5s1.5,0.671,1.5,1.5v2.273
						C80.677,53.732,80.005,54.403,79.177,54.403z"/>
				</g>
				<g>
					<path class="st205" d="M84.704,54.403c-0.828,0-1.5-0.671-1.5-1.5V50.63c0-0.829,0.672-1.5,1.5-1.5s1.5,0.671,1.5,1.5v2.273
						C86.204,53.732,85.532,54.403,84.704,54.403z"/>
				</g>
				<g>
					<path class="st205" d="M90.232,54.403c-0.828,0-1.5-0.671-1.5-1.5V50.63c0-0.829,0.672-1.5,1.5-1.5s1.5,0.671,1.5,1.5v2.273
						C91.732,53.732,91.061,54.403,90.232,54.403z"/>
				</g>
				<g>
					<path class="st205" d="M95.761,54.403c-0.828,0-1.5-0.671-1.5-1.5V50.63c0-0.829,0.672-1.5,1.5-1.5s1.5,0.671,1.5,1.5v2.273
						C97.261,53.732,96.589,54.403,95.761,54.403z"/>
				</g>
			</g>
		</g>
		<g>
			<g>
				<g>
					<path class="st161" d="M102.034,64.787c0,1.251-1.015,2.264-2.266,2.264H58.264c-1.25,0-2.264-1.013-2.264-2.264v-5.661
						c0-1.251,1.014-2.265,2.264-2.265h41.505c1.251,0,2.266,1.014,2.266,2.265V64.787z"/>
				</g>
				<g>
					<path class="st166" d="M58.264,56.861c-1.193,0-2.161,0.926-2.248,2.098c0.087,1.173,1.055,2.1,2.248,2.1h41.505
						c1.194,0,2.162-0.927,2.249-2.1c-0.087-1.172-1.055-2.098-2.249-2.098H58.264z"/>
				</g>
				<g>
					<path class="st205" d="M99.769,68.551H58.264c-2.075,0-3.764-1.688-3.764-3.764v-5.661c0-2.076,1.688-3.765,3.764-3.765h41.505
						c2.076,0,3.766,1.689,3.766,3.765v5.661C103.534,66.862,101.845,68.551,99.769,68.551z M58.264,58.361
						c-0.421,0-0.764,0.343-0.764,0.765v5.661c0,0.421,0.343,0.764,0.764,0.764h41.505c0.422,0,0.766-0.343,0.766-0.764v-5.661
						c0-0.422-0.344-0.765-0.766-0.765H58.264z"/>
				</g>
			</g>
			<g>
				<g>
					<path class="st205" d="M62.592,64.592c-0.828,0-1.5-0.671-1.5-1.5v-2.272c0-0.829,0.672-1.5,1.5-1.5s1.5,0.671,1.5,1.5v2.272
						C64.092,63.92,63.42,64.592,62.592,64.592z"/>
				</g>
				<g>
					<path class="st205" d="M68.12,64.592c-0.828,0-1.5-0.671-1.5-1.5v-2.272c0-0.829,0.672-1.5,1.5-1.5s1.5,0.671,1.5,1.5v2.272
						C69.62,63.92,68.948,64.592,68.12,64.592z"/>
				</g>
				<g>
					<path class="st205" d="M73.648,64.592c-0.828,0-1.5-0.671-1.5-1.5v-2.272c0-0.829,0.672-1.5,1.5-1.5s1.5,0.671,1.5,1.5v2.272
						C75.148,63.92,74.477,64.592,73.648,64.592z"/>
				</g>
				<g>
					<path class="st205" d="M79.177,64.592c-0.828,0-1.5-0.671-1.5-1.5v-2.272c0-0.829,0.672-1.5,1.5-1.5s1.5,0.671,1.5,1.5v2.272
						C80.677,63.92,80.005,64.592,79.177,64.592z"/>
				</g>
				<g>
					<path class="st205" d="M84.704,64.592c-0.828,0-1.5-0.671-1.5-1.5v-2.272c0-0.829,0.672-1.5,1.5-1.5s1.5,0.671,1.5,1.5v2.272
						C86.204,63.92,85.532,64.592,84.704,64.592z"/>
				</g>
				<g>
					<path class="st205" d="M90.232,64.592c-0.828,0-1.5-0.671-1.5-1.5v-2.272c0-0.829,0.672-1.5,1.5-1.5s1.5,0.671,1.5,1.5v2.272
						C91.732,63.92,91.061,64.592,90.232,64.592z"/>
				</g>
				<g>
					<path class="st205" d="M95.761,64.592c-0.828,0-1.5-0.671-1.5-1.5v-2.272c0-0.829,0.672-1.5,1.5-1.5s1.5,0.671,1.5,1.5v2.272
						C97.261,63.92,96.589,64.592,95.761,64.592z"/>
				</g>
			</g>
		</g>
		<g>
			<g>
				<g>
					<path class="st161" d="M102.034,74.977c0,1.251-1.015,2.264-2.266,2.264H58.264c-1.25,0-2.264-1.013-2.264-2.264v-5.661
						c0-1.251,1.014-2.265,2.264-2.265h41.505c1.251,0,2.266,1.014,2.266,2.265V74.977z"/>
				</g>
				<g>
					<path class="st166" d="M58.264,67.051c-1.193,0-2.161,0.926-2.248,2.098c0.087,1.173,1.055,2.1,2.248,2.1h41.505
						c1.194,0,2.162-0.927,2.249-2.1c-0.087-1.172-1.055-2.098-2.249-2.098H58.264z"/>
				</g>
				<g>
					<path class="st205" d="M99.769,78.74H58.264c-2.075,0-3.764-1.688-3.764-3.764v-5.661c0-2.076,1.688-3.765,3.764-3.765h41.505
						c2.076,0,3.766,1.689,3.766,3.765v5.661C103.534,77.052,101.845,78.74,99.769,78.74z M58.264,68.551
						c-0.421,0-0.764,0.343-0.764,0.765v5.661c0,0.421,0.343,0.764,0.764,0.764h41.505c0.422,0,0.766-0.343,0.766-0.764v-5.661
						c0-0.422-0.344-0.765-0.766-0.765H58.264z"/>
				</g>
			</g>
			<g>
				<g>
					<path class="st205" d="M62.592,74.781c-0.828,0-1.5-0.671-1.5-1.5v-2.272c0-0.829,0.672-1.5,1.5-1.5s1.5,0.671,1.5,1.5v2.272
						C64.092,74.11,63.42,74.781,62.592,74.781z"/>
				</g>
				<g>
					<path class="st205" d="M68.12,74.781c-0.828,0-1.5-0.671-1.5-1.5v-2.272c0-0.829,0.672-1.5,1.5-1.5s1.5,0.671,1.5,1.5v2.272
						C69.62,74.11,68.948,74.781,68.12,74.781z"/>
				</g>
				<g>
					<path class="st205" d="M73.648,74.781c-0.828,0-1.5-0.671-1.5-1.5v-2.272c0-0.829,0.672-1.5,1.5-1.5s1.5,0.671,1.5,1.5v2.272
						C75.148,74.11,74.477,74.781,73.648,74.781z"/>
				</g>
				<g>
					<path class="st205" d="M79.177,74.781c-0.828,0-1.5-0.671-1.5-1.5v-2.272c0-0.829,0.672-1.5,1.5-1.5s1.5,0.671,1.5,1.5v2.272
						C80.677,74.11,80.005,74.781,79.177,74.781z"/>
				</g>
				<g>
					<path class="st205" d="M84.704,74.781c-0.828,0-1.5-0.671-1.5-1.5v-2.272c0-0.829,0.672-1.5,1.5-1.5s1.5,0.671,1.5,1.5v2.272
						C86.204,74.11,85.532,74.781,84.704,74.781z"/>
				</g>
				<g>
					<path class="st205" d="M90.232,74.781c-0.828,0-1.5-0.671-1.5-1.5v-2.272c0-0.829,0.672-1.5,1.5-1.5s1.5,0.671,1.5,1.5v2.272
						C91.732,74.11,91.061,74.781,90.232,74.781z"/>
				</g>
				<g>
					<path class="st205" d="M95.761,74.781c-0.828,0-1.5-0.671-1.5-1.5v-2.272c0-0.829,0.672-1.5,1.5-1.5s1.5,0.671,1.5,1.5v2.272
						C97.261,74.11,96.589,74.781,95.761,74.781z"/>
				</g>
			</g>
		</g>
		<g>
			<g>
				<g>
					<path class="st161" d="M102.034,85.166c0,1.251-1.015,2.264-2.266,2.264H58.264c-1.25,0-2.264-1.013-2.264-2.264v-5.661
						c0-1.251,1.014-2.265,2.264-2.265h41.505c1.251,0,2.266,1.014,2.266,2.265V85.166z"/>
				</g>
				<g>
					<path class="st166" d="M58.264,77.24c-1.193,0-2.161,0.926-2.248,2.098c0.087,1.173,1.055,2.1,2.248,2.1h41.505
						c1.194,0,2.162-0.927,2.249-2.1c-0.087-1.172-1.055-2.098-2.249-2.098H58.264z"/>
				</g>
				<g>
					<path class="st205" d="M99.769,88.93H58.264c-2.075,0-3.764-1.688-3.764-3.764v-5.661c0-2.076,1.688-3.765,3.764-3.765h41.505
						c2.076,0,3.766,1.689,3.766,3.765v5.661C103.534,87.241,101.845,88.93,99.769,88.93z M58.264,78.74
						c-0.421,0-0.764,0.343-0.764,0.765v5.661c0,0.421,0.343,0.764,0.764,0.764h41.505c0.422,0,0.766-0.343,0.766-0.764v-5.661
						c0-0.422-0.344-0.765-0.766-0.765H58.264z"/>
				</g>
			</g>
			<g>
				<g>
					<path class="st205" d="M62.592,84.971c-0.828,0-1.5-0.671-1.5-1.5v-2.272c0-0.829,0.672-1.5,1.5-1.5s1.5,0.671,1.5,1.5v2.272
						C64.092,84.299,63.42,84.971,62.592,84.971z"/>
				</g>
				<g>
					<path class="st205" d="M68.12,84.971c-0.828,0-1.5-0.671-1.5-1.5v-2.272c0-0.829,0.672-1.5,1.5-1.5s1.5,0.671,1.5,1.5v2.272
						C69.62,84.299,68.948,84.971,68.12,84.971z"/>
				</g>
				<g>
					<path class="st205" d="M73.648,84.971c-0.828,0-1.5-0.671-1.5-1.5v-2.272c0-0.829,0.672-1.5,1.5-1.5s1.5,0.671,1.5,1.5v2.272
						C75.148,84.299,74.477,84.971,73.648,84.971z"/>
				</g>
				<g>
					<path class="st205" d="M79.177,84.971c-0.828,0-1.5-0.671-1.5-1.5v-2.272c0-0.829,0.672-1.5,1.5-1.5s1.5,0.671,1.5,1.5v2.272
						C80.677,84.299,80.005,84.971,79.177,84.971z"/>
				</g>
				<g>
					<path class="st205" d="M84.704,84.971c-0.828,0-1.5-0.671-1.5-1.5v-2.272c0-0.829,0.672-1.5,1.5-1.5s1.5,0.671,1.5,1.5v2.272
						C86.204,84.299,85.532,84.971,84.704,84.971z"/>
				</g>
				<g>
					<path class="st205" d="M90.232,84.971c-0.828,0-1.5-0.671-1.5-1.5v-2.272c0-0.829,0.672-1.5,1.5-1.5s1.5,0.671,1.5,1.5v2.272
						C91.732,84.299,91.061,84.971,90.232,84.971z"/>
				</g>
				<g>
					<path class="st205" d="M95.761,84.971c-0.828,0-1.5-0.671-1.5-1.5v-2.272c0-0.829,0.672-1.5,1.5-1.5s1.5,0.671,1.5,1.5v2.272
						C97.261,84.299,96.589,84.971,95.761,84.971z"/>
				</g>
			</g>
		</g>
		<g>
			<g>
				<g>
					<path class="st161" d="M102.034,95.355c0,1.251-1.015,2.264-2.266,2.264H58.264c-1.25,0-2.264-1.013-2.264-2.264v-5.661
						c0-1.25,1.014-2.265,2.264-2.265h41.505c1.251,0,2.266,1.015,2.266,2.265V95.355z"/>
				</g>
				<g>
					<path class="st166" d="M58.264,87.43c-1.193,0-2.161,0.926-2.248,2.098c0.087,1.173,1.055,2.1,2.248,2.1h41.505
						c1.194,0,2.162-0.927,2.249-2.1c-0.087-1.172-1.055-2.098-2.249-2.098H58.264z"/>
				</g>
				<g>
					<path class="st205" d="M99.769,99.119H58.264c-2.075,0-3.764-1.688-3.764-3.764v-5.661c0-2.076,1.688-3.765,3.764-3.765h41.505
						c2.076,0,3.766,1.689,3.766,3.765v5.661C103.534,97.431,101.845,99.119,99.769,99.119z M58.264,88.93
						c-0.421,0-0.764,0.343-0.764,0.765v5.661c0,0.421,0.343,0.764,0.764,0.764h41.505c0.422,0,0.766-0.343,0.766-0.764v-5.661
						c0-0.422-0.344-0.765-0.766-0.765H58.264z"/>
				</g>
			</g>
			<g>
				<g>
					<path class="st205" d="M62.592,95.16c-0.828,0-1.5-0.671-1.5-1.5v-2.272c0-0.829,0.672-1.5,1.5-1.5s1.5,0.671,1.5,1.5v2.272
						C64.092,94.489,63.42,95.16,62.592,95.16z"/>
				</g>
				<g>
					<path class="st205" d="M68.12,95.16c-0.828,0-1.5-0.671-1.5-1.5v-2.272c0-0.829,0.672-1.5,1.5-1.5s1.5,0.671,1.5,1.5v2.272
						C69.62,94.489,68.948,95.16,68.12,95.16z"/>
				</g>
				<g>
					<path class="st205" d="M73.648,95.16c-0.828,0-1.5-0.671-1.5-1.5v-2.272c0-0.829,0.672-1.5,1.5-1.5s1.5,0.671,1.5,1.5v2.272
						C75.148,94.489,74.477,95.16,73.648,95.16z"/>
				</g>
				<g>
					<path class="st205" d="M79.177,95.16c-0.828,0-1.5-0.671-1.5-1.5v-2.272c0-0.829,0.672-1.5,1.5-1.5s1.5,0.671,1.5,1.5v2.272
						C80.677,94.489,80.005,95.16,79.177,95.16z"/>
				</g>
				<g>
					<path class="st205" d="M84.704,95.16c-0.828,0-1.5-0.671-1.5-1.5v-2.272c0-0.829,0.672-1.5,1.5-1.5s1.5,0.671,1.5,1.5v2.272
						C86.204,94.489,85.532,95.16,84.704,95.16z"/>
				</g>
				<g>
					<path class="st205" d="M90.232,95.16c-0.828,0-1.5-0.671-1.5-1.5v-2.272c0-0.829,0.672-1.5,1.5-1.5s1.5,0.671,1.5,1.5v2.272
						C91.732,94.489,91.061,95.16,90.232,95.16z"/>
				</g>
				<g>
					<path class="st205" d="M95.761,95.16c-0.828,0-1.5-0.671-1.5-1.5v-2.272c0-0.829,0.672-1.5,1.5-1.5s1.5,0.671,1.5,1.5v2.272
						C97.261,94.489,96.589,95.16,95.761,95.16z"/>
				</g>
			</g>
		</g>
	</g>
	<g>
		<g>
			<g>
				<polygon class="st188" points="113.612,127.559 44.422,127.559 28.348,33.956 129.686,33.956 				"/>
			</g>
			<g>
				<polygon class="st152" points="35.82,77.471 122.213,77.471 129.686,33.956 28.348,33.956 				"/>
			</g>
			<g>
				<polygon class="st259" points="96.967,127.559 61.065,127.559 52.727,33.956 105.306,33.956 				"/>
			</g>
			<g>
				<polygon class="st145" points="101.43,77.471 105.306,33.956 52.727,33.956 56.604,77.471 				"/>
			</g>
			<g>
				<path class="st205" d="M113.612,129.059h-69.19c-0.73,0-1.354-0.526-1.479-1.246L26.869,34.21
					c-0.074-0.436,0.047-0.882,0.332-1.221c0.284-0.338,0.704-0.533,1.146-0.533h101.338c0.442,0,0.862,0.195,1.146,0.533
					c0.285,0.338,0.406,0.785,0.332,1.221l-16.073,93.603C114.967,128.532,114.343,129.059,113.612,129.059z M45.687,126.059h66.661
					l15.559-90.603H30.127L45.687,126.059z"/>
			</g>
		</g>
		<g>
			<path class="st205" d="M46.181,45.618c-0.828,0-1.5-0.671-1.5-1.5V11.644c0-3.144,2.559-5.702,5.703-5.702h57.266
				c3.145,0,5.703,2.558,5.703,5.702v22.312c0,0.829-0.672,1.5-1.5,1.5s-1.5-0.671-1.5-1.5V11.644c0-1.49-1.213-2.702-2.703-2.702
				H50.384c-1.49,0-2.703,1.212-2.703,2.702v32.475C47.681,44.947,47.009,45.618,46.181,45.618z"/>
		</g>
		<g>
			<path class="st205" d="M46.303,53.024c-2.869,0-5.204-2.333-5.204-5.202c0-2.87,2.335-5.204,5.204-5.204s5.204,2.334,5.204,5.204
				C51.507,50.691,49.172,53.024,46.303,53.024z M46.303,45.618c-1.216,0-2.204,0.989-2.204,2.204c0,1.214,0.988,2.202,2.204,2.202
				s2.204-0.988,2.204-2.202C48.507,46.607,47.519,45.618,46.303,45.618z"/>
		</g>
	</g>
	<g>
		<g>
			<g>
				<circle class="st166" cx="79.017" cy="79.885" r="27.611"/>
			</g>
			<g>
				<path class="st161" d="M79.017,52.274v55.222c15.249,0,27.611-12.362,27.611-27.611C106.628,64.638,94.266,52.274,79.017,52.274
					z"/>
			</g>
			<g>
				<path class="st205" d="M79.017,108.996c-16.052,0-29.11-13.059-29.11-29.111c0-16.051,13.059-29.11,29.11-29.11
					s29.111,13.059,29.111,29.11C108.128,95.937,95.068,108.996,79.017,108.996z M79.017,53.774c-14.397,0-26.11,11.713-26.11,26.11
					c0,14.398,11.713,26.111,26.11,26.111s26.111-11.713,26.111-26.111C105.128,65.487,93.414,53.774,79.017,53.774z"/>
			</g>
		</g>
		<g>
			<g>
				<circle class="st166" cx="79.016" cy="79.886" r="21.374"/>
			</g>
			<g>
				<path class="st161" d="M63.903,64.772l30.228,30.227c8.348-8.346,8.348-21.881-0.001-30.227
					C85.784,56.426,72.25,56.425,63.903,64.772z"/>
			</g>
			<g>
				<path class="st205" d="M79.017,102.761c-6.109,0-11.854-2.38-16.175-6.701c-4.32-4.319-6.699-10.063-6.699-16.174
					s2.38-11.854,6.7-16.174c4.319-4.32,10.063-6.7,16.174-6.7s11.854,2.379,16.174,6.7c4.321,4.319,6.701,10.063,6.701,16.174
					s-2.38,11.854-6.7,16.174C90.871,100.381,85.127,102.761,79.017,102.761z M79.017,60.012c-5.309,0-10.299,2.067-14.053,5.821
					c-3.754,3.753-5.821,8.744-5.821,14.053s2.066,10.299,5.82,14.053c3.754,3.754,8.745,5.822,14.054,5.822
					c5.31,0,10.3-2.068,14.054-5.822c3.754-3.753,5.821-8.744,5.821-14.053c0-5.309-2.068-10.299-5.822-14.052
					C89.315,62.079,84.325,60.012,79.017,60.012z"/>
			</g>
		</g>
		<g>
			<g>
				<g>
					<path class="st205" d="M79.017,57.688c-0.828,0-1.5-0.671-1.5-1.5v-1.572c0-0.829,0.672-1.5,1.5-1.5s1.5,0.671,1.5,1.5v1.572
						C80.517,57.017,79.845,57.688,79.017,57.688z"/>
				</g>
				<g>
					<path class="st205" d="M79.017,106.654c-0.828,0-1.5-0.671-1.5-1.5v-1.569c0-0.829,0.672-1.5,1.5-1.5s1.5,0.671,1.5,1.5v1.569
						C80.517,105.983,79.845,106.654,79.017,106.654z"/>
				</g>
			</g>
			<g>
				<g>
					<path class="st205" d="M95.774,64.628c-0.384,0-0.768-0.146-1.061-0.439c-0.586-0.585-0.586-1.536,0-2.121l1.109-1.109
						c0.586-0.586,1.535-0.586,2.121,0c0.586,0.585,0.586,1.536,0,2.121l-1.109,1.109C96.542,64.481,96.158,64.628,95.774,64.628z"
						/>
				</g>
				<g>
					<path class="st205" d="M61.149,99.253c-0.384,0-0.768-0.146-1.061-0.439c-0.586-0.585-0.586-1.536,0-2.121l1.109-1.109
						c0.586-0.586,1.535-0.586,2.121,0c0.586,0.585,0.586,1.536,0,2.121l-1.109,1.109C61.917,99.106,61.533,99.253,61.149,99.253z"
						/>
				</g>
			</g>
			<g>
				<g>
					<path class="st205" d="M104.285,81.386h-1.569c-0.828,0-1.5-0.671-1.5-1.5s0.672-1.5,1.5-1.5h1.569c0.828,0,1.5,0.671,1.5,1.5
						S105.113,81.386,104.285,81.386z"/>
				</g>
				<g>
					<path class="st205" d="M55.317,81.386h-1.569c-0.828,0-1.5-0.671-1.5-1.5s0.672-1.5,1.5-1.5h1.569c0.828,0,1.5,0.671,1.5,1.5
						S56.146,81.386,55.317,81.386z"/>
				</g>
			</g>
			<g>
				<g>
					<path class="st205" d="M96.884,99.253c-0.384,0-0.768-0.146-1.061-0.439l-1.109-1.109c-0.586-0.585-0.586-1.536,0-2.121
						c0.586-0.586,1.535-0.586,2.121,0l1.109,1.109c0.586,0.585,0.586,1.536,0,2.121C97.651,99.106,97.268,99.253,96.884,99.253z"/>
				</g>
				<g>
					<path class="st205" d="M62.259,64.628c-0.384,0-0.768-0.146-1.061-0.439l-1.109-1.109c-0.586-0.585-0.586-1.536,0-2.121
						c0.586-0.586,1.535-0.586,2.121,0l1.109,1.109c0.586,0.585,0.586,1.536,0,2.121C63.026,64.481,62.643,64.628,62.259,64.628z"/>
				</g>
			</g>
		</g>
		<g>
			<g>
				<g>
					<path class="st205" d="M67.168,60.862c-0.518,0-1.021-0.269-1.3-0.75l-0.784-1.357c-0.414-0.717-0.169-1.635,0.549-2.049
						c0.717-0.414,1.634-0.17,2.049,0.548l0.784,1.357c0.414,0.717,0.169,1.635-0.549,2.049
						C67.681,60.797,67.423,60.862,67.168,60.862z"/>
				</g>
				<g>
					<path class="st205" d="M91.652,103.269c-0.518,0-1.022-0.269-1.3-0.75l-0.785-1.359c-0.414-0.717-0.169-1.635,0.549-2.049
						c0.717-0.414,1.635-0.17,2.049,0.549l0.785,1.359c0.414,0.717,0.169,1.635-0.549,2.049
						C92.165,103.204,91.907,103.269,91.652,103.269z"/>
				</g>
			</g>
			<g>
				<g>
					<path class="st205" d="M85.151,58.496c-0.129,0-0.259-0.017-0.389-0.051c-0.801-0.214-1.275-1.037-1.062-1.837l0.406-1.518
						c0.215-0.801,1.042-1.273,1.837-1.062c0.801,0.214,1.275,1.037,1.062,1.837L86.6,57.383
						C86.42,58.053,85.813,58.496,85.151,58.496z"/>
				</g>
				<g>
					<path class="st205" d="M72.478,105.793c-0.129,0-0.26-0.017-0.39-0.052c-0.8-0.214-1.274-1.037-1.061-1.837l0.406-1.515
						c0.215-0.8,1.041-1.274,1.838-1.06c0.8,0.214,1.274,1.037,1.061,1.837l-0.406,1.515
						C73.746,105.352,73.14,105.793,72.478,105.793z"/>
				</g>
			</g>
			<g>
				<g>
					<path class="st205" d="M99.541,69.538c-0.518,0-1.021-0.269-1.3-0.75c-0.414-0.717-0.169-1.635,0.548-2.049l1.359-0.786
						c0.716-0.415,1.634-0.17,2.05,0.547c0.414,0.717,0.169,1.635-0.548,2.049l-1.359,0.786
						C100.055,69.472,99.796,69.538,99.541,69.538z"/>
				</g>
				<g>
					<path class="st205" d="M57.135,94.021c-0.518,0-1.022-0.269-1.3-0.75c-0.414-0.717-0.169-1.635,0.549-2.049l1.359-0.785
						c0.716-0.415,1.635-0.169,2.049,0.549c0.414,0.717,0.169,1.635-0.549,2.049l-1.359,0.785
						C57.647,93.956,57.39,94.021,57.135,94.021z"/>
				</g>
			</g>
			<g>
				<g>
					<path class="st205" d="M103.425,87.927c-0.129,0-0.261-0.017-0.391-0.052l-1.516-0.408c-0.801-0.215-1.274-1.039-1.059-1.838
						c0.215-0.8,1.041-1.275,1.838-1.058l1.516,0.408c0.801,0.215,1.274,1.039,1.059,1.838
						C104.692,87.486,104.086,87.927,103.425,87.927z"/>
				</g>
				<g>
					<path class="st205" d="M56.126,75.252c-0.129,0-0.26-0.017-0.391-0.052l-1.516-0.407c-0.8-0.215-1.274-1.038-1.059-1.838
						c0.215-0.8,1.036-1.272,1.838-1.06l1.516,0.407c0.8,0.215,1.274,1.038,1.059,1.838C57.394,74.811,56.788,75.252,56.126,75.252z
						"/>
				</g>
			</g>
		</g>
		<g>
			<g>
				<g>
					<path class="st205" d="M58.492,69.538c-0.255,0-0.514-0.065-0.75-0.202l-1.359-0.786c-0.717-0.415-0.962-1.332-0.548-2.049
						c0.415-0.717,1.334-0.962,2.05-0.547l1.359,0.786c0.717,0.415,0.962,1.332,0.548,2.049
						C59.514,69.269,59.01,69.538,58.492,69.538z"/>
				</g>
				<g>
					<path class="st205" d="M100.898,94.021c-0.255,0-0.514-0.065-0.75-0.202l-1.358-0.785c-0.717-0.415-0.962-1.332-0.548-2.049
						c0.415-0.718,1.333-0.963,2.05-0.548l1.358,0.785c0.717,0.415,0.962,1.332,0.548,2.049
						C101.92,93.752,101.416,94.021,100.898,94.021z"/>
				</g>
			</g>
			<g>
				<g>
					<path class="st205" d="M72.882,58.496c-0.662,0-1.269-0.442-1.448-1.113l-0.406-1.518c-0.214-0.8,0.261-1.623,1.062-1.837
						c0.799-0.212,1.622,0.261,1.837,1.062l0.406,1.518c0.214,0.8-0.261,1.623-1.062,1.837
						C73.141,58.479,73.011,58.496,72.882,58.496z"/>
				</g>
				<g>
					<path class="st205" d="M85.556,105.793c-0.662,0-1.269-0.442-1.448-1.112l-0.406-1.515c-0.214-0.8,0.261-1.623,1.061-1.837
						c0.797-0.215,1.623,0.26,1.838,1.06l0.406,1.515c0.214,0.8-0.261,1.623-1.061,1.837
						C85.815,105.777,85.685,105.793,85.556,105.793z"/>
				</g>
			</g>
			<g>
				<g>
					<path class="st205" d="M90.865,60.862c-0.255,0-0.514-0.065-0.75-0.202c-0.717-0.415-0.962-1.332-0.548-2.049l0.785-1.357
						c0.416-0.717,1.334-0.962,2.05-0.547c0.717,0.415,0.962,1.332,0.548,2.049l-0.785,1.357
						C91.887,60.593,91.383,60.862,90.865,60.862z"/>
				</g>
				<g>
					<path class="st205" d="M66.382,103.269c-0.255,0-0.513-0.065-0.749-0.202c-0.718-0.415-0.963-1.332-0.549-2.049l0.784-1.357
						c0.415-0.717,1.332-0.963,2.049-0.548c0.718,0.415,0.963,1.332,0.549,2.049l-0.784,1.357
						C67.403,103,66.899,103.269,66.382,103.269z"/>
				</g>
			</g>
			<g>
				<g>
					<path class="st205" d="M101.907,75.252c-0.662,0-1.268-0.441-1.447-1.111c-0.216-0.8,0.259-1.623,1.059-1.838l1.516-0.407
						c0.805-0.21,1.623,0.259,1.838,1.06c0.216,0.8-0.259,1.623-1.059,1.838l-1.516,0.407
						C102.167,75.235,102.036,75.252,101.907,75.252z"/>
				</g>
				<g>
					<path class="st205" d="M54.608,87.927c-0.661,0-1.268-0.441-1.447-1.11c-0.216-0.8,0.258-1.623,1.059-1.838l1.516-0.408
						c0.796-0.217,1.623,0.258,1.838,1.058c0.216,0.8-0.258,1.623-1.059,1.838l-1.516,0.408
						C54.869,87.91,54.737,87.927,54.608,87.927z"/>
				</g>
			</g>
		</g>
		<g>
			<path class="st205" d="M89.611,99.813c-0.323,0-0.648-0.104-0.922-0.318c-0.653-0.51-0.77-1.453-0.26-2.105
				c3.953-5.062,5.015-9.844,3.069-13.831c-2.185-4.478-7.468-6.863-10.442-6.863c-1.252,0-2.286,0.096-3.266,0.567
				c-0.371,0.179-0.803,0.197-1.188,0.048c-0.386-0.148-0.693-0.45-0.85-0.833c-0.642-1.57-1.565-2.964-2.745-4.143
				c-1.577-1.579-3.483-2.682-5.591-3.251c0.576,2.104,1.692,4.042,3.246,5.597c1.021,1.021,2.201,1.853,3.509,2.473
				c0.442,0.21,0.755,0.624,0.836,1.107s-0.08,0.977-0.431,1.32c-1.706,1.67-3.097,3.839-4.857,6.585
				c-1.581,2.466-3.373,5.261-5.868,8.425c-0.513,0.649-1.456,0.762-2.106,0.249c-0.65-0.513-0.762-1.456-0.249-2.107
				c2.404-3.048,4.154-5.778,5.698-8.186c1.36-2.123,2.58-4.025,3.943-5.653c-0.936-0.601-1.805-1.301-2.596-2.092
				c-2.526-2.527-4.12-5.876-4.488-9.43c-0.046-0.449,0.112-0.896,0.432-1.215c0.319-0.32,0.768-0.479,1.215-0.432
				c3.556,0.368,6.904,1.962,9.429,4.488c1.125,1.124,2.062,2.404,2.795,3.818c1.079-0.286,2.133-0.336,3.133-0.336
				c4.313,0,10.563,3.268,13.139,8.547c1.731,3.549,2.547,9.377-3.4,16.993C90.499,99.615,90.058,99.813,89.611,99.813z"/>
		</g>
		<g>
			<path class="st205" d="M71.612,82.089c-0.051,0-0.103-0.002-0.154-0.008c-2.936-0.304-5.7-1.62-7.784-3.706
				c-2.084-2.083-3.399-4.847-3.703-7.781c-0.046-0.449,0.112-0.896,0.432-1.215c0.32-0.32,0.767-0.481,1.216-0.431
				c2.463,0.256,4.786,1.211,6.718,2.762c0.144,0.115,0.264,0.255,0.356,0.413c0.546,0.935,1.209,1.795,1.972,2.558
				c0.206,0.207,0.424,0.396,0.64,0.583c0.14,0.121,0.255,0.266,0.341,0.427c0.797,1.495,1.288,3.09,1.46,4.743
				c0.047,0.449-0.112,0.896-0.432,1.215C72.391,81.932,72.008,82.089,71.612,82.089z M63.408,72.386
				c0.483,1.449,1.299,2.78,2.388,3.868c1.107,1.108,2.421,1.918,3.87,2.396c-0.149-0.445-0.332-0.883-0.546-1.31
				c-0.196-0.173-0.39-0.35-0.578-0.538c-0.874-0.875-1.644-1.854-2.289-2.912C65.389,73.233,64.428,72.727,63.408,72.386z"/>
		</g>
		<g>
			<path class="st205" d="M87.963,84.7c-0.324,0-0.624-0.103-0.87-0.278c-0.245,0.175-0.545,0.278-0.869,0.278
				c-0.828,0-1.5-0.671-1.5-1.5c0-1.306,1.062-2.369,2.369-2.369s2.37,1.063,2.37,2.369C89.463,84.029,88.791,84.7,87.963,84.7z"/>
		</g>
		<g>
			<path class="st15" d="M88.424,88c0,1.29-1.045,2.335-2.334,2.335S83.756,89.29,83.756,88c0-1.286,1.045-2.332,2.334-2.332
				S88.424,86.714,88.424,88z"/>
		</g>
		<g>
			<path class="st144" d="M86.09,85.668c1.289,0,2.334,1.046,2.334,2.332c0,1.29-1.045,2.335-2.334,2.335"/>
		</g>
		<g>
			<path class="st205" d="M93.474,85.129c-0.506,0-1-0.256-1.282-0.72c-0.217-0.356-0.268-0.766-0.175-1.141
				c-0.376-0.09-0.718-0.325-0.935-0.682c-0.429-0.708-0.202-1.631,0.506-2.06c1.21-0.731,2.788-0.346,3.522,0.86
				c0.734,1.208,0.35,2.789-0.857,3.523C94.009,85.059,93.74,85.129,93.474,85.129z"/>
		</g>
		<g>
			<path class="st205" d="M66.313,72.059c-0.108,0-0.218-0.012-0.326-0.036c-0.501-0.111-0.91-0.471-1.084-0.954
				c-0.433-1.196-0.719-2.439-0.85-3.696c-0.047-0.449,0.111-0.896,0.431-1.215c0.319-0.32,0.759-0.479,1.216-0.432
				c1.256,0.13,2.5,0.416,3.698,0.85c0.482,0.174,0.842,0.583,0.953,1.084s-0.041,1.024-0.403,1.387l-2.574,2.573
				C67.09,71.904,66.707,72.059,66.313,72.059z"/>
		</g>
		<g>
			<path class="st205" d="M66.313,70.559l2.574-2.573c-1.084-0.393-2.207-0.65-3.342-0.768
				C65.664,68.353,65.922,69.476,66.313,70.559z"/>
		</g>
		<g>
			<path class="st205" d="M62.323,75.233c-0.095,0-0.19-0.009-0.286-0.027c-0.489-0.095-0.898-0.427-1.094-0.885
				c-0.514-1.206-0.841-2.458-0.973-3.725c-0.047-0.449,0.112-0.896,0.432-1.216s0.767-0.481,1.216-0.432
				c1.281,0.133,2.537,0.462,3.731,0.976c0.457,0.197,0.787,0.607,0.881,1.096c0.093,0.488-0.062,0.992-0.413,1.343l-2.434,2.432
				C63.1,75.078,62.717,75.233,62.323,75.233z"/>
		</g>
		<g>
			<path class="st205" d="M61.463,70.44c0.117,1.125,0.41,2.235,0.86,3.293l2.434-2.432C63.699,70.847,62.59,70.558,61.463,70.44z"
				/>
		</g>
		<g>
			<path class="st205" d="M72.316,90.81c-0.547,0-1.073-0.3-1.338-0.82c-0.104-0.2-1.035-1.866-2.695-1.388
				c-0.796,0.225-1.627-0.233-1.854-1.03c-0.228-0.796,0.233-1.626,1.03-1.854c3.28-0.936,5.488,1.502,6.198,2.922
				c0.37,0.741,0.07,1.642-0.671,2.012C72.771,90.759,72.542,90.81,72.316,90.81z"/>
		</g>
		<g>
			<path class="st205" d="M69.905,95.162c-0.547,0-1.073-0.3-1.338-0.82c-0.104-0.199-1.027-1.866-2.694-1.39
				c-0.795,0.224-1.627-0.234-1.854-1.031c-0.228-0.796,0.234-1.626,1.03-1.854c3.28-0.935,5.488,1.504,6.197,2.925
				c0.37,0.741,0.069,1.642-0.672,2.012C70.359,95.11,70.131,95.162,69.905,95.162z"/>
		</g>
	</g>
</g>
</svg>
