<?xml version="1.0" encoding="utf-8"?>
<!-- Generator: Adobe Illustrator 16.0.0, SVG Export Plug-In . SVG Version: 6.00 Build 0)  -->
<!DOCTYPE svg PUBLIC "-//W3C//DTD SVG 1.1//EN" "http://www.w3.org/Graphics/SVG/1.1/DTD/svg11.dtd">
<svg version="1.1" id="Layer_1" xmlns="http://www.w3.org/2000/svg" xmlns:xlink="http://www.w3.org/1999/xlink" x="0px" y="0px"
	 width="135px" height="135px" viewBox="0 0 135 135" style="enable-background:new 0 0 135 135;" xml:space="preserve">
<style type="text/css">
<![CDATA[
	.st0{fill:#465652;}
	.st1{fill:#AAB9BA;}
	.st2{fill:#47C67B;}
	.st3{fill:#AAC8D1;}
	.st4{fill:none;stroke:#E83834;stroke-width:6;stroke-linecap:round;stroke-linejoin:round;stroke-miterlimit:10;}
	.st5{fill:#7BC67B;}
	.st6{fill:#7BC7FF;}
	.st7{fill:#7C34C1;}
	.st8{fill:#7C8D96;}
	.st9{fill:#AD2707;}
	.st10{fill:#ADB8BC;}
	.st11{fill:#107510;}
	.st12{fill:#7FE5D8;}
	.st13{fill:#AF4AD1;}
	.st14{fill:#E02B7E;}
	.st15{fill:#E04038;}
	.st16{fill:#AFD7DD;}
	.st17{fill:#E0A010;}
	.st18{fill:#E0D5A4;}
	.st19{fill:#12B2B2;}
	.st20{fill:#12D66B;}
	.st21{fill:#E1A9FF;}
	.st22{fill:#1362A8;}
	.st23{fill:#E2378D;}
	.st24{fill:#E29C37;}
	.st25{fill:#E2B90E;}
	.st26{fill:#E2BF91;}
	.st27{fill:#E2CBAA;}
	.st28{fill:#14A594;}
	.st29{fill:#E4E9ED;}
	.st30{fill:#4A5D60;}
	.st31{fill:#E5B076;}
	.st32{fill:#E5B1C4;}
	.st33{fill:#E5E4C3;}
	.st34{fill:#4B6466;}
	.st35{fill:#E6FF2E;}
	.st36{fill:#18AA67;}
	.st37{fill:#E86207;}
	.st38{fill:#E8A113;}
	.st39{fill:#E8B5A6;}
	.st40{fill:#E8E8ED;}
	.st41{fill:#4E5154;}
	.st42{fill:#E9F1F4;}
	.st43{fill:#4F4B48;}
	.st44{fill:#4F74E8;}
	.st45{fill:#808E93;}
	.st46{fill:#80949B;}
	.st47{fill:#80EDAC;}
	.st48{fill:#B122E0;}
	.st49{fill:#B2C4CC;}
	.st50{fill:#83D839;}
	.st51{fill:#B3C6C6;}
	.st52{fill:none;stroke:#33363A;stroke-width:3;stroke-linecap:round;stroke-linejoin:round;stroke-miterlimit:10;}
	.st53{fill:#1A8E1C;}
	.st54{fill:#1A93D6;}
	.st55{fill:#B50B0B;}
	.st56{fill:#1AD88F;}
	.st57{fill:#B5DAF4;}
	.st58{fill:#EA7B1F;}
	.st59{fill:#EA81BD;}
	.st60{fill:#87B8D6;}
	.st61{fill:#87C3F4;}
	.st62{fill:#EAC79D;}
	.st63{fill:#EADF11;}
	.st64{fill:#EAE4C5;}
	.st65{fill:#B78094;}
	.st66{fill:#8844D8;}
	.st67{fill:#EBF4F7;}
	.st68{fill:#893015;}
	.st69{fill:#89410B;}
	.st70{fill:#899BA3;}
	.st71{fill:#EDE3B9;}
	.st72{enable-background:new    ;}
	.st73{fill:#50FF9F;}
	.st74{fill:#EEDCF4;}
	.st75{fill:#EFA37D;}
	.st76{fill:#EFA3CC;}
	.st77{fill:#EFC99A;}
	.st78{fill:#54AF79;}
	.st79{fill:#BA503A;}
	.st80{fill:#BA8663;}
	.st81{fill:#8B4FE0;}
	.st82{fill:#58ED9B;}
	.st83{fill:#BC7DFF;}
	.st84{fill:#8D9AA3;}
	.st85{fill:#BCCAD3;}
	.st86{fill:#8DE4FF;}
	.st87{fill:#20B518;}
	.st88{fill:#BF44F2;}
	.st89{fill:#21CEA1;}
	.st90{fill:#BFDAE0;}
	.st91{fill:#F0FBFC;}
	.st92{fill:#F2D9A7;}
	.st93{fill:#F2EAC9;}
	.st94{fill:#24D1AF;}
	.st95{fill:#25931C;}
	.st96{fill:#F4C4B3;}
	.st97{fill:#F4D3A2;}
	.st98{fill:#F4D647;}
	.st99{fill:#F4D7B8;}
	.st100{fill:#F4EC8E;}
	.st101{fill:#5B524D;}
	.st102{fill:#F77819;}
	.st103{fill:#F79AE1;}
	.st104{fill:#5E707A;}
	.st105{fill:#F93585;}
	.st106{fill:#F95D5D;}
	.st107{fill:#F9C19B;}
	.st108{fill:#F9CB58;}
	.st109{fill:#F9D2B2;}
	.st110{fill:#F9F07D;}
	.st111{fill:#F9F1D2;}
	.st112{fill:#F9F4B7;}
	.st113{fill:#F9F9E4;}
	.st114{fill:#5F1DAA;}
	.st115{fill:#5F9AD6;}
	.st116{fill:#C0C0C4;}
	.st117{fill:#91EA57;}
	.st118{fill:#C12727;}
	.st119{fill:#C191A0;}
	.st120{fill:#923BB7;}
	.st121{fill:#93A0A3;}
	.st122{fill:#93F9EA;}
	.st123{fill:#93FF5A;}
	.st124{fill:#C4833D;}
	.st125{fill:#95A2A5;}
	.st126{fill:#965514;}
	.st127{fill:#96562C;}
	.st128{fill:#2AF42F;}
	.st129{fill:#C5D7DD;}
	.st130{fill:#C68510;}
	.st131{fill:#C6A86D;}
	.st132{fill:#C6BB8D;}
	.st133{fill:#2C9DCE;}
	.st134{fill:#FBFCF2;}
	.st135{fill:#FC70B0;}
	.st136{fill:#FCE6C8;}
	.st137{fill:#FCF7E3;}
	.st138{fill:#C90D6B;}
	.st139{fill:#FDFEFF;}
	.st140{fill:#FDFFDC;}
	.st141{fill:#FF1A1A;}
	.st142{fill:#FF5252;}
	.st143{fill:#FF5B00;}
	.st144{fill:#FF6155;}
	.st145{fill:#FF630D;}
	.st146{fill:#FF6666;}
	.st147{fill:#FF7676;}
	.st148{fill:#FF7900;}
	.st149{fill:#FF860D;}
	.st150{fill:#FF8B00;}
	.st151{fill:#FF8F8F;}
	.st152{fill:#FF900B;}
	.st153{fill:#FF908A;}
	.st154{fill:#FF960B;}
	.st155{fill:#FF9C0D;}
	.st156{fill:#FFA9D4;}
	.st157{fill:#FFAA00;}
	.st158{fill:#FFAD40;}
	.st159{fill:#FFAF10;}
	.st160{fill:#FFB000;}
	.st161{fill:#FFBE08;}
	.st162{fill:#FFBF31;}
	.st163{fill:#FFC200;}
	.st164{fill:#FFCAE8;}
	.st165{fill:#FFCCF5;}
	.st166{fill:#FFD00B;}
	.st167{fill:#FFD039;}
	.st168{fill:#FFD400;}
	.st169{fill:#FFD833;}
	.st170{fill:#FFDB80;}
	.st171{fill:#FFDDD2;}
	.st172{fill:#FFE6D4;}
	.st173{fill:#FFE6EB;}
	.st174{fill:#FFE98D;}
	.st175{fill:#FFECD2;}
	.st176{fill:#FFF1D9;}
	.st177{fill:#FFF24D;}
	.st178{fill:#FFF3C2;}
	.st179{fill:#FFF4C7;}
	.st180{fill:#FFF800;}
	.st181{fill:#FFF80D;}
	.st182{fill:#FFF9DE;}
	.st183{fill:#FFFBD7;}
	.st184{fill:#FFFBEB;}
	.st185{fill:#FFFCC0;}
	.st186{fill:#FFFCDC;}
	.st187{fill:#FFFFFA;}
	.st188{fill:#FFFFFF;}
	.st189{fill:#63797F;}
	.st190{fill:#65E529;}
	.st191{fill:#66310E;}
	.st192{fill:#663C17;}
	.st193{fill:#9A5AE5;}
	.st194{fill:#CA30EF;}
	.st195{fill:#6892FC;}
	.st196{fill:#9CFFC4;}
	.st197{fill:#CC4306;}
	.st198{fill:#CC549E;}
	.st199{fill:#9E3256;}
	.st200{fill:#CDFFBB;}
	.st201{fill:#CE86AF;}
	.st202{fill:#CED9DD;}
	
		.st203{fill:none;stroke:#33363A;stroke-width:3;stroke-linecap:round;stroke-linejoin:round;stroke-miterlimit:10;stroke-dasharray:6;}
	.st204{fill:#CFE1E2;}
	.st205{fill:#33363A;}
	.st206{fill:#34C166;}
	.st207{fill:#364B5B;}
	.st208{fill:#3662CE;}
	.st209{fill:#36C6FF;}
	.st210{fill:#6ADB9A;}
	.st211{fill:#6D5C4D;}
	.st212{fill:#6EBDF9;}
	.st213{fill:#0031FF;}
	.st214{fill:#0062FF;}
	.st215{fill:#0068FF;}
	.st216{fill:#0086FF;}
	.st217{fill:#009BE8;}
	.st218{fill:#00AAFF;}
	.st219{fill:#D271FF;}
	.st220{fill:#D363A9;}
	.st221{fill:#D3964C;}
	.st222{fill:#D3DFE2;}
	.st223{fill:#D3E0E2;}
	.st224{fill:#D3EFF4;}
	.st225{fill:#063B66;}
	.st226{fill:#D60909;}
	.st227{fill:#D61D1D;}
	.st228{fill:#D7F0FF;}
	.st229{fill:#09B285;}
	.st230{fill:#D8D593;}
	.st231{fill:#D8E2EA;}
	.st232{fill:#D8E5EA;}
	.st233{fill:#3E5054;}
	.st234{fill:#D988FF;}
	.st235{fill:#D9E7E8;}
	.st236{fill:#702252;}
	.st237{fill:#70D3E0;}
	.st238{fill:#A02FF2;}
	.st239{fill:#A2F255;}
	.st240{fill:#A35616;}
	.st241{fill:#A3CCCC;}
	.st242{fill:#0A6ADD;}
	.st243{fill:#A5145D;}
	.st244{fill:#A57555;}
	.st245{fill:#77D6FC;}
	.st246{fill:#7815CE;}
	.st247{fill:#A7BBC1;}
	.st248{fill:#DBD279;}
	.st249{fill:#0D5C9E;}
	.st250{fill:#A83C11;}
	.st251{fill:#A8633D;}
	.st252{fill:#A8A3E5;}
	.st253{fill:#DCE6EA;}
	.st254{fill:#DCE7EA;}
	.st255{fill:#A962E8;}
	.st256{fill:#DD2466;}
	.st257{fill:#DDC38A;}
	.st258{fill:#DDD2B1;}
	.st259{fill:#DFE7E8;}
	.st260{fill:#42B1E8;}
	.st261{fill:#436377;}
	.st262{fill:#43B530;}
]]>
</style>
<g>
	<g>
		<circle class="st216" cx="67.5" cy="63.57" r="58.163"/>
	</g>
	<g>
		<path class="st218" d="M125.663,63.57c0,32.123-26.039,58.162-58.162,58.162S9.337,95.693,9.337,63.57"/>
	</g>
	<g>
		<g>
			<g>
				<path class="st188" d="M60.116,51.089c2.619,0,4.744-2.124,4.744-4.743c0-2.62-2.125-4.743-4.744-4.743H36.493
					c-2.619,0-4.744,2.123-4.744,4.743v34.449c0,2.617,2.125,4.742,4.744,4.742h23.623c2.619,0,4.744-2.125,4.744-4.742
					c0-2.621-2.125-4.746-4.744-4.746H41.237v-24.96H60.116z"/>
			</g>
			<g>
				<path class="st188" d="M98.507,41.603H74.884c-2.619,0-4.744,2.123-4.744,4.743v34.449c0,2.617,2.125,4.742,4.744,4.742
					c2.621,0,4.744-2.125,4.744-4.742V68.312h18.867c0.006,0,0.01,0.003,0.012,0.003c2.621,0,4.744-2.125,4.744-4.744V46.346
					C103.251,43.726,101.128,41.603,98.507,41.603z M79.628,51.089h14.135v7.735H79.628V51.089z"/>
			</g>
		</g>
		<g>
			<g>
				<path class="st232" d="M36.493,85.537h23.623c2.184,0,4.002-1.482,4.555-3.49c-0.553-2.008-2.371-3.491-4.555-3.491H41.237
					v-2.507V53.595v-2.506h18.879c2.184,0,4.002-1.481,4.555-3.49c-0.553-2.007-2.371-3.49-4.555-3.49H36.493
					c-2.619,0-4.744,2.124-4.744,4.743v31.943C31.749,83.412,33.874,85.537,36.493,85.537z"/>
			</g>
			<g>
				<path class="st232" d="M98.507,44.108H74.884c-2.619,0-4.744,2.124-4.744,4.743v31.943c0,2.617,2.125,4.742,4.744,4.742
					c2.621,0,4.744-2.125,4.744-4.742v-9.979v-2.505h18.867c0.006,0,0.01,0.003,0.012,0.003c2.621,0,4.744-2.125,4.744-4.744V48.852
					C103.251,46.232,101.128,44.108,98.507,44.108z M93.763,53.595v5.229v2.506H79.628v-2.506v-5.229v-2.506h14.135V53.595z"/>
			</g>
		</g>
	</g>
	<g>
		<g>
			<path class="st205" d="M74.884,87.037c-3.443,0-6.244-2.8-6.244-6.242V46.346c0-3.442,2.801-6.243,6.244-6.243h23.623
				c3.443,0,6.244,2.801,6.244,6.243V63.57c0,3.443-2.801,6.244-6.244,6.244c-0.031,0-0.062-0.001-0.093-0.003H81.128v10.983
				C81.128,84.237,78.327,87.037,74.884,87.037z M74.884,43.103c-1.789,0-3.244,1.455-3.244,3.243v34.449
				c0,1.788,1.456,3.242,3.244,3.242c1.789,0,3.244-1.455,3.244-3.242V68.312c0-0.829,0.671-1.5,1.5-1.5h18.867
				c0.026,0,0.053,0.001,0.08,0.002c1.757-0.037,3.176-1.478,3.176-3.244V46.346c0-1.788-1.456-3.243-3.244-3.243H74.884z
				 M93.763,60.324H79.628c-0.829,0-1.5-0.671-1.5-1.5v-7.735c0-0.829,0.671-1.5,1.5-1.5h14.135c0.829,0,1.5,0.671,1.5,1.5v7.735
				C95.263,59.653,94.591,60.324,93.763,60.324z M81.128,57.324h11.135v-4.735H81.128V57.324z"/>
		</g>
		<g>
			<path class="st205" d="M60.116,87.037H36.493c-3.443,0-6.244-2.8-6.244-6.242V46.346c0-3.442,2.801-6.243,6.244-6.243h23.623
				c3.443,0,6.244,2.801,6.244,6.243c0,1.833-0.819,3.57-2.248,4.767c-0.075,0.067-0.189,0.164-0.308,0.25
				c-0.139,0.105-0.308,0.213-0.48,0.319c-0.167,0.102-0.33,0.189-0.501,0.272c-0.147,0.071-0.294,0.139-0.447,0.201
				c-0.253,0.095-0.475,0.161-0.7,0.219c-0.174,0.049-0.29,0.079-0.408,0.101c-0.391,0.076-0.773,0.114-1.152,0.114H42.737v21.96
				h17.379c3.443,0,6.244,2.802,6.244,6.246c0,1.829-0.818,3.566-2.246,4.766c-0.08,0.07-0.187,0.161-0.299,0.244
				c-0.149,0.113-0.318,0.221-0.491,0.326c-0.178,0.106-0.344,0.198-0.518,0.28c-0.13,0.064-0.288,0.136-0.45,0.199
				c-0.229,0.087-0.46,0.157-0.695,0.215c-0.123,0.037-0.243,0.069-0.366,0.094C60.867,87,60.488,87.037,60.116,87.037z
				 M36.493,43.103c-1.789,0-3.244,1.455-3.244,3.243v34.449c0,1.788,1.456,3.242,3.244,3.242h23.623
				c0.184,0,0.383-0.021,0.607-0.062c0.021-0.004,0.061-0.018,0.102-0.029c0.018-0.005,0.091-0.026,0.109-0.03
				c0.117-0.029,0.232-0.062,0.344-0.104c0.076-0.029,0.153-0.066,0.229-0.104c0.108-0.051,0.188-0.096,0.266-0.143
				c0.075-0.046,0.164-0.1,0.249-0.164c0.056-0.042,0.097-0.078,0.138-0.114c0.772-0.65,1.201-1.55,1.201-2.491
				c0-1.79-1.456-3.246-3.244-3.246H41.237c-0.829,0-1.5-0.671-1.5-1.5v-24.96c0-0.829,0.671-1.5,1.5-1.5h18.879
				c0.185,0,0.381-0.021,0.597-0.062c0.007-0.002,0.194-0.052,0.201-0.054c0.131-0.034,0.257-0.07,0.378-0.115
				c0.052-0.021,0.139-0.063,0.224-0.104c0.084-0.041,0.167-0.086,0.249-0.135c0.083-0.05,0.172-0.104,0.256-0.168
				c0.06-0.044,0.094-0.076,0.129-0.107c0.781-0.655,1.209-1.555,1.209-2.498c0-1.788-1.456-3.243-3.244-3.243H36.493z"/>
		</g>
	</g>
	<g>
		<path class="st205" d="M67.501,123.232c-32.899,0-59.664-26.764-59.664-59.662c0-32.899,26.765-59.664,59.664-59.664
			c32.898,0,59.662,26.765,59.662,59.664C127.163,96.468,100.399,123.232,67.501,123.232z M67.501,6.906
			c-31.245,0-56.664,25.419-56.664,56.664c0,31.244,25.419,56.662,56.664,56.662c31.244,0,56.662-25.418,56.662-56.662
			C124.163,32.326,98.745,6.906,67.501,6.906z"/>
	</g>
	<g>
		<g>
			<polyline class="st218" points="83.224,113.87 67.501,129.594 51.776,113.87 			"/>
		</g>
		<g>
			<path class="st205" d="M67.501,131.094c-0.398,0-0.779-0.158-1.061-0.439l-15.725-15.724c-0.586-0.585-0.586-1.535,0-2.121
				s1.535-0.586,2.121,0l14.664,14.663l14.662-14.663c0.586-0.586,1.535-0.586,2.121,0c0.586,0.585,0.586,1.535,0,2.121
				l-15.723,15.724C68.28,130.936,67.899,131.094,67.501,131.094z"/>
		</g>
	</g>
</g>
</svg>
