<?xml version="1.0" encoding="utf-8"?>
<!-- Generator: Adobe Illustrator 16.0.0, SVG Export Plug-In . SVG Version: 6.00 Build 0)  -->
<!DOCTYPE svg PUBLIC "-//W3C//DTD SVG 1.1//EN" "http://www.w3.org/Graphics/SVG/1.1/DTD/svg11.dtd">
<svg version="1.1" id="Layer_1" xmlns="http://www.w3.org/2000/svg" xmlns:xlink="http://www.w3.org/1999/xlink" x="0px" y="0px"
	 width="135px" height="135px" viewBox="0 0 135 135" style="enable-background:new 0 0 135 135;" xml:space="preserve">
<style type="text/css">
<![CDATA[
	.st0{fill:#465652;}
	.st1{fill:#AAB9BA;}
	.st2{fill:#47C67B;}
	.st3{fill:#AAC8D1;}
	.st4{fill:none;stroke:#E83834;stroke-width:6;stroke-linecap:round;stroke-linejoin:round;stroke-miterlimit:10;}
	.st5{fill:#7BC67B;}
	.st6{fill:#7BC7FF;}
	.st7{fill:#7C34C1;}
	.st8{fill:#7C8D96;}
	.st9{fill:#AD2707;}
	.st10{fill:#ADB8BC;}
	.st11{fill:#107510;}
	.st12{fill:#7FE5D8;}
	.st13{fill:#AF4AD1;}
	.st14{fill:#E02B7E;}
	.st15{fill:#E04038;}
	.st16{fill:#AFD7DD;}
	.st17{fill:#E0A010;}
	.st18{fill:#E0D5A4;}
	.st19{fill:#12B2B2;}
	.st20{fill:#12D66B;}
	.st21{fill:#E1A9FF;}
	.st22{fill:#1362A8;}
	.st23{fill:#E2378D;}
	.st24{fill:#E29C37;}
	.st25{fill:#E2B90E;}
	.st26{fill:#E2BF91;}
	.st27{fill:#E2CBAA;}
	.st28{fill:#14A594;}
	.st29{fill:#E4E9ED;}
	.st30{fill:#4A5D60;}
	.st31{fill:#E5B076;}
	.st32{fill:#E5B1C4;}
	.st33{fill:#E5E4C3;}
	.st34{fill:#4B6466;}
	.st35{fill:#E6FF2E;}
	.st36{fill:#18AA67;}
	.st37{fill:#E86207;}
	.st38{fill:#E8A113;}
	.st39{fill:#E8B5A6;}
	.st40{fill:#E8E8ED;}
	.st41{fill:#4E5154;}
	.st42{fill:#E9F1F4;}
	.st43{fill:#4F4B48;}
	.st44{fill:#4F74E8;}
	.st45{fill:#808E93;}
	.st46{fill:#80949B;}
	.st47{fill:#80EDAC;}
	.st48{fill:#B122E0;}
	.st49{fill:#B2C4CC;}
	.st50{fill:#83D839;}
	.st51{fill:#B3C6C6;}
	.st52{fill:none;stroke:#33363A;stroke-width:3;stroke-linecap:round;stroke-linejoin:round;stroke-miterlimit:10;}
	.st53{fill:#1A8E1C;}
	.st54{fill:#1A93D6;}
	.st55{fill:#B50B0B;}
	.st56{fill:#1AD88F;}
	.st57{fill:#B5DAF4;}
	.st58{fill:#EA7B1F;}
	.st59{fill:#EA81BD;}
	.st60{fill:#87B8D6;}
	.st61{fill:#87C3F4;}
	.st62{fill:#EAC79D;}
	.st63{fill:#EADF11;}
	.st64{fill:#EAE4C5;}
	.st65{fill:#B78094;}
	.st66{fill:#8844D8;}
	.st67{fill:#EBF4F7;}
	.st68{fill:#893015;}
	.st69{fill:#89410B;}
	.st70{fill:#899BA3;}
	.st71{fill:#EDE3B9;}
	.st72{enable-background:new    ;}
	.st73{fill:#50FF9F;}
	.st74{fill:#EEDCF4;}
	.st75{fill:#EFA37D;}
	.st76{fill:#EFA3CC;}
	.st77{fill:#EFC99A;}
	.st78{fill:#54AF79;}
	.st79{fill:#BA503A;}
	.st80{fill:#BA8663;}
	.st81{fill:#8B4FE0;}
	.st82{fill:#58ED9B;}
	.st83{fill:#BC7DFF;}
	.st84{fill:#8D9AA3;}
	.st85{fill:#BCCAD3;}
	.st86{fill:#8DE4FF;}
	.st87{fill:#20B518;}
	.st88{fill:#BF44F2;}
	.st89{fill:#21CEA1;}
	.st90{fill:#BFDAE0;}
	.st91{fill:#F0FBFC;}
	.st92{fill:#F2D9A7;}
	.st93{fill:#F2EAC9;}
	.st94{fill:#24D1AF;}
	.st95{fill:#25931C;}
	.st96{fill:#F4C4B3;}
	.st97{fill:#F4D3A2;}
	.st98{fill:#F4D647;}
	.st99{fill:#F4D7B8;}
	.st100{fill:#F4EC8E;}
	.st101{fill:#5B524D;}
	.st102{fill:#F77819;}
	.st103{fill:#F79AE1;}
	.st104{fill:#5E707A;}
	.st105{fill:#F93585;}
	.st106{fill:#F95D5D;}
	.st107{fill:#F9C19B;}
	.st108{fill:#F9CB58;}
	.st109{fill:#F9D2B2;}
	.st110{fill:#F9F07D;}
	.st111{fill:#F9F1D2;}
	.st112{fill:#F9F4B7;}
	.st113{fill:#F9F9E4;}
	.st114{fill:#5F1DAA;}
	.st115{fill:#5F9AD6;}
	.st116{fill:#C0C0C4;}
	.st117{fill:#91EA57;}
	.st118{fill:#C12727;}
	.st119{fill:#C191A0;}
	.st120{fill:#923BB7;}
	.st121{fill:#93A0A3;}
	.st122{fill:#93F9EA;}
	.st123{fill:#93FF5A;}
	.st124{fill:#C4833D;}
	.st125{fill:#95A2A5;}
	.st126{fill:#965514;}
	.st127{fill:#96562C;}
	.st128{fill:#2AF42F;}
	.st129{fill:#C5D7DD;}
	.st130{fill:#C68510;}
	.st131{fill:#C6A86D;}
	.st132{fill:#C6BB8D;}
	.st133{fill:#2C9DCE;}
	.st134{fill:#FBFCF2;}
	.st135{fill:#FC70B0;}
	.st136{fill:#FCE6C8;}
	.st137{fill:#FCF7E3;}
	.st138{fill:#C90D6B;}
	.st139{fill:#FDFEFF;}
	.st140{fill:#FDFFDC;}
	.st141{fill:#FF1A1A;}
	.st142{fill:#FF5252;}
	.st143{fill:#FF5B00;}
	.st144{fill:#FF6155;}
	.st145{fill:#FF630D;}
	.st146{fill:#FF6666;}
	.st147{fill:#FF7676;}
	.st148{fill:#FF7900;}
	.st149{fill:#FF860D;}
	.st150{fill:#FF8B00;}
	.st151{fill:#FF8F8F;}
	.st152{fill:#FF900B;}
	.st153{fill:#FF908A;}
	.st154{fill:#FF960B;}
	.st155{fill:#FF9C0D;}
	.st156{fill:#FFA9D4;}
	.st157{fill:#FFAA00;}
	.st158{fill:#FFAD40;}
	.st159{fill:#FFAF10;}
	.st160{fill:#FFB000;}
	.st161{fill:#FFBE08;}
	.st162{fill:#FFBF31;}
	.st163{fill:#FFC200;}
	.st164{fill:#FFCAE8;}
	.st165{fill:#FFCCF5;}
	.st166{fill:#FFD00B;}
	.st167{fill:#FFD039;}
	.st168{fill:#FFD400;}
	.st169{fill:#FFD833;}
	.st170{fill:#FFDB80;}
	.st171{fill:#FFDDD2;}
	.st172{fill:#FFE6D4;}
	.st173{fill:#FFE6EB;}
	.st174{fill:#FFE98D;}
	.st175{fill:#FFECD2;}
	.st176{fill:#FFF1D9;}
	.st177{fill:#FFF24D;}
	.st178{fill:#FFF3C2;}
	.st179{fill:#FFF4C7;}
	.st180{fill:#FFF800;}
	.st181{fill:#FFF80D;}
	.st182{fill:#FFF9DE;}
	.st183{fill:#FFFBD7;}
	.st184{fill:#FFFBEB;}
	.st185{fill:#FFFCC0;}
	.st186{fill:#FFFCDC;}
	.st187{fill:#FFFFFA;}
	.st188{fill:#FFFFFF;}
	.st189{fill:#63797F;}
	.st190{fill:#65E529;}
	.st191{fill:#66310E;}
	.st192{fill:#663C17;}
	.st193{fill:#9A5AE5;}
	.st194{fill:#CA30EF;}
	.st195{fill:#6892FC;}
	.st196{fill:#9CFFC4;}
	.st197{fill:#CC4306;}
	.st198{fill:#CC549E;}
	.st199{fill:#9E3256;}
	.st200{fill:#CDFFBB;}
	.st201{fill:#CE86AF;}
	.st202{fill:#CED9DD;}
	
		.st203{fill:none;stroke:#33363A;stroke-width:3;stroke-linecap:round;stroke-linejoin:round;stroke-miterlimit:10;stroke-dasharray:6;}
	.st204{fill:#CFE1E2;}
	.st205{fill:#33363A;}
	.st206{fill:#34C166;}
	.st207{fill:#364B5B;}
	.st208{fill:#3662CE;}
	.st209{fill:#36C6FF;}
	.st210{fill:#6ADB9A;}
	.st211{fill:#6D5C4D;}
	.st212{fill:#6EBDF9;}
	.st213{fill:#0031FF;}
	.st214{fill:#0062FF;}
	.st215{fill:#0068FF;}
	.st216{fill:#0086FF;}
	.st217{fill:#009BE8;}
	.st218{fill:#00AAFF;}
	.st219{fill:#D271FF;}
	.st220{fill:#D363A9;}
	.st221{fill:#D3964C;}
	.st222{fill:#D3DFE2;}
	.st223{fill:#D3E0E2;}
	.st224{fill:#D3EFF4;}
	.st225{fill:#063B66;}
	.st226{fill:#D60909;}
	.st227{fill:#D61D1D;}
	.st228{fill:#D7F0FF;}
	.st229{fill:#09B285;}
	.st230{fill:#D8D593;}
	.st231{fill:#D8E2EA;}
	.st232{fill:#D8E5EA;}
	.st233{fill:#3E5054;}
	.st234{fill:#D988FF;}
	.st235{fill:#D9E7E8;}
	.st236{fill:#702252;}
	.st237{fill:#70D3E0;}
	.st238{fill:#A02FF2;}
	.st239{fill:#A2F255;}
	.st240{fill:#A35616;}
	.st241{fill:#A3CCCC;}
	.st242{fill:#0A6ADD;}
	.st243{fill:#A5145D;}
	.st244{fill:#A57555;}
	.st245{fill:#77D6FC;}
	.st246{fill:#7815CE;}
	.st247{fill:#A7BBC1;}
	.st248{fill:#DBD279;}
	.st249{fill:#0D5C9E;}
	.st250{fill:#A83C11;}
	.st251{fill:#A8633D;}
	.st252{fill:#A8A3E5;}
	.st253{fill:#DCE6EA;}
	.st254{fill:#DCE7EA;}
	.st255{fill:#A962E8;}
	.st256{fill:#DD2466;}
	.st257{fill:#DDC38A;}
	.st258{fill:#DDD2B1;}
	.st259{fill:#DFE7E8;}
	.st260{fill:#42B1E8;}
	.st261{fill:#436377;}
	.st262{fill:#43B530;}
]]>
</style>
<g>
	<g>
		<g>
			<path class="st116" d="M98.684,55.455c0,10.744-13.961,19.455-31.184,19.455s-31.184-8.711-31.184-19.455
				c0-10.748,13.961-28.709,31.184-28.709S98.684,44.707,98.684,55.455z"/>
		</g>
		<g>
			<path class="st128" d="M98.684,55.896c0,6.549-13.961,11.855-31.184,11.855s-31.184-5.307-31.184-11.855
				c0-6.545,13.961-17.492,31.184-17.492S98.684,49.352,98.684,55.896z"/>
		</g>
		<g>
			<path class="st188" d="M98.684,50.83c0,6.547-13.961,11.855-31.184,11.855S36.316,57.377,36.316,50.83S50.277,33.338,67.5,33.338
				S98.684,44.283,98.684,50.83z"/>
		</g>
		<g>
			<path class="st40" d="M85.612,58.15c0,6.547-8.108,4.535-18.112,4.535s-18.113,2.012-18.113-4.535S57.496,33.338,67.5,33.338
				S85.612,51.604,85.612,58.15z"/>
		</g>
		<g>
			<path class="st128" d="M89.842,37.383C84.178,31.398,76.264,26.746,67.5,26.746s-16.678,4.652-22.342,10.637
				c5.664,3.631,13.578,5.893,22.342,5.893S84.178,41.014,89.842,37.383z"/>
		</g>
		<g>
			<path class="st56" d="M47.525,38.748c5.41,2.824,12.371,4.527,19.975,4.527s14.564-1.703,19.975-4.527
				c-5.41-4.836-12.371-8.342-19.975-8.342S52.936,33.912,47.525,38.748z"/>
		</g>
		<g>
			<path class="st205" d="M67.5,76.41c-18.022,0-32.684-9.4-32.684-20.955c0-5.891,3.661-13.335,9.555-19.428
				c6.725-6.953,14.939-10.781,23.128-10.781s16.403,3.829,23.128,10.781c5.894,6.093,9.555,13.537,9.555,19.428
				C100.184,67.01,85.522,76.41,67.5,76.41z M67.5,28.246c-16.099,0-29.684,16.712-29.684,27.209c0,9.9,13.316,17.955,29.684,17.955
				s29.684-8.055,29.684-17.955C97.184,44.958,83.599,28.246,67.5,28.246z"/>
		</g>
		<g>
			<path class="st205" d="M67.5,76.41c-18.022,0-32.684-9.4-32.684-20.955c0-5.891,3.661-13.335,9.555-19.428
				c6.725-6.953,14.939-10.781,23.128-10.781s16.403,3.829,23.128,10.781c5.894,6.093,9.555,13.537,9.555,19.428
				C100.184,67.01,85.522,76.41,67.5,76.41z M67.5,28.246c-16.099,0-29.684,16.712-29.684,27.209c0,9.9,13.316,17.955,29.684,17.955
				s29.684-8.055,29.684-17.955C97.184,44.958,83.599,28.246,67.5,28.246z"/>
		</g>
		<g>
			<path class="st205" d="M67.5,44.775c-8.763,0-16.985-2.177-23.151-6.13c-0.376-0.241-0.625-0.637-0.679-1.081
				c-0.054-0.443,0.092-0.888,0.399-1.213c3.926-4.147,12.189-11.105,23.431-11.105s19.505,6.958,23.431,11.105
				c0.307,0.325,0.454,0.77,0.399,1.213c-0.054,0.444-0.303,0.84-0.679,1.081C84.485,42.599,76.263,44.775,67.5,44.775z
				 M47.576,37.079c5.483,3.039,12.478,4.697,19.924,4.697s14.441-1.658,19.924-4.697c-3.957-3.787-10.92-8.833-19.924-8.833
				S51.533,33.292,47.576,37.079z"/>
		</g>
		<g>
			<g>
				<path class="st205" d="M59.453,50.953c-5.225,0-9.476-4.478-9.476-9.982c0-0.829,0.671-1.5,1.5-1.5s1.5,0.671,1.5,1.5
					c0,3.85,2.905,6.982,6.476,6.982c0.829,0,1.5,0.671,1.5,1.5S60.282,50.953,59.453,50.953z"/>
			</g>
			<g>
				<path class="st205" d="M75.547,50.953c-0.829,0-1.5-0.671-1.5-1.5s0.671-1.5,1.5-1.5c3.571,0,6.476-3.132,6.476-6.982
					c0-0.829,0.671-1.5,1.5-1.5s1.5,0.671,1.5,1.5C85.022,46.475,80.771,50.953,75.547,50.953z"/>
			</g>
		</g>
		<g>
			<path class="st157" d="M70.43,50.15c0,1.617-1.312,2.928-2.93,2.928s-2.93-1.311-2.93-2.928c0-1.621,1.312-2.932,2.93-2.932
				S70.43,48.529,70.43,50.15z"/>
		</g>
		<g>
			<path class="st205" d="M67.5,58.711c-5.003,0-9.074-4.072-9.074-9.076c0-0.829,0.671-1.5,1.5-1.5s1.5,0.671,1.5,1.5
				c0,3.351,2.725,6.076,6.074,6.076c3.349,0,6.073-2.726,6.073-6.076c0-0.829,0.671-1.5,1.5-1.5s1.5,0.671,1.5,1.5
				C76.573,54.639,72.503,58.711,67.5,58.711z"/>
		</g>
		<g>
			<path class="st205" d="M70.43,51.65c-0.829,0-1.5-0.671-1.5-1.5c0-0.79-0.642-1.432-1.43-1.432s-1.43,0.642-1.43,1.432
				c0,0.829-0.671,1.5-1.5,1.5s-1.5-0.671-1.5-1.5c0-2.444,1.987-4.432,4.43-4.432s4.43,1.988,4.43,4.432
				C71.93,50.979,71.258,51.65,70.43,51.65z"/>
		</g>
		<g>
			<path class="st128" d="M63.093,31.033c1.193,2.82,2.729,4.523,4.407,4.523c1.677,0,3.214-1.703,4.407-4.523
				c-1.193-4.834-2.73-8.34-4.407-8.34C65.822,22.693,64.286,26.199,63.093,31.033z"/>
		</g>
		<g>
			<path class="st56" d="M67.5,26.264c-1.399,0-2.7,2.445-3.786,6.061c1.087,2.035,2.385,4.516,3.786,4.516s2.699-2.48,3.785-4.516
				C70.2,28.709,68.899,26.264,67.5,26.264z"/>
		</g>
		<g>
			<path class="st205" d="M71.906,32.534c-0.674,0-1.287-0.458-1.455-1.141c-1.275-5.164-2.496-6.868-2.951-7.17
				c-0.456,0.301-1.676,2.005-2.951,7.17c-0.198,0.804-1.008,1.3-1.815,1.097c-0.804-0.198-1.295-1.011-1.097-1.815
				c1.597-6.468,3.459-9.48,5.863-9.48s4.267,3.012,5.863,9.48c0.199,0.804-0.292,1.617-1.097,1.815
				C72.146,32.519,72.025,32.534,71.906,32.534z"/>
		</g>
		<g>
			<g>
				<path class="st205" d="M67.5,64.186c-18.633,0-32.684-5.742-32.684-13.355c0-0.829,0.671-1.5,1.5-1.5s1.5,0.671,1.5,1.5
					c0,4.898,12.19,10.355,29.684,10.355c0.829,0,1.5,0.671,1.5,1.5S68.329,64.186,67.5,64.186z"/>
			</g>
			<g>
				<path class="st205" d="M67.5,64.186c-0.829,0-1.5-0.671-1.5-1.5s0.671-1.5,1.5-1.5c17.493,0,29.684-5.458,29.684-10.355
					c0-0.829,0.671-1.5,1.5-1.5s1.5,0.671,1.5,1.5C100.184,58.444,86.133,64.186,67.5,64.186z"/>
			</g>
		</g>
		<g>
			<g>
				<path class="st52" d="M36.316,56.18"/>
			</g>
			<g>
				<path class="st52" d="M98.684,56.18"/>
			</g>
		</g>
	</g>
	<g>
		<g>
			<g>
				<path class="st205" d="M62.235,19.996c-3.639,0-6.6-2.959-6.6-6.598c0-0.829,0.671-1.5,1.5-1.5s1.5,0.671,1.5,1.5
					c0,1.984,1.615,3.598,3.6,3.598c0.829,0,1.5,0.671,1.5,1.5S63.064,19.996,62.235,19.996z"/>
			</g>
			<g>
				<path class="st205" d="M66.638,22.255c-0.483,0-0.957-0.232-1.247-0.664c-0.671-0.999-1.79-1.596-2.991-1.596
					c-0.829,0-1.5-0.671-1.5-1.5s0.671-1.5,1.5-1.5c2.203,0,4.252,1.093,5.481,2.923c0.462,0.688,0.279,1.62-0.409,2.082
					C67.216,22.173,66.926,22.255,66.638,22.255z"/>
			</g>
		</g>
		<g>
			<g>
				<path class="st205" d="M62.235,11.816c-3.639,0-6.6-2.961-6.6-6.602c0-0.829,0.671-1.5,1.5-1.5s1.5,0.671,1.5,1.5
					c0,1.986,1.615,3.602,3.6,3.602c0.829,0,1.5,0.671,1.5,1.5S63.064,11.816,62.235,11.816z"/>
			</g>
			<g>
				<path class="st205" d="M66.638,14.075c-0.483,0-0.957-0.232-1.247-0.664c-0.671-0.999-1.789-1.595-2.991-1.595
					c-0.829,0-1.5-0.671-1.5-1.5s0.671-1.5,1.5-1.5c2.203,0,4.252,1.092,5.481,2.922c0.462,0.688,0.279,1.62-0.409,2.082
					C67.216,13.993,66.926,14.075,66.638,14.075z"/>
			</g>
		</g>
	</g>
	<g>
		<g>
			<g>
				<circle class="st128" cx="67.5" cy="108.562" r="21.221"/>
			</g>
			<g>
				<path class="st56" d="M46.279,108.562c0-11.719,9.501-21.219,21.221-21.219s21.221,9.5,21.221,21.219"/>
			</g>
			<g>
				<path class="st205" d="M67.5,131.285C67.5,131.285,67.5,131.285,67.5,131.285c-12.529-0.002-22.721-10.195-22.721-22.723
					S54.972,85.844,67.5,85.844s22.721,10.191,22.721,22.719S80.028,131.283,67.5,131.285z M67.5,88.844
					c-10.874,0-19.721,8.846-19.721,19.719s8.847,19.721,19.721,19.723c10.874-0.002,19.72-8.85,19.72-19.723
					S78.374,88.844,67.5,88.844z"/>
			</g>
			<g>
				<g>
					<polyline class="st56" points="61.763,89.213 67.5,77.357 73.237,89.213 					"/>
				</g>
				<g>
					<path class="st205" d="M73.238,90.713c-0.557,0-1.092-0.312-1.351-0.847L67.5,80.801l-4.387,9.065
						c-0.36,0.746-1.257,1.058-2.003,0.697c-0.746-0.361-1.058-1.258-0.697-2.004l5.737-11.855c0.25-0.518,0.775-0.847,1.35-0.847
						s1.1,0.329,1.35,0.847l5.737,11.855c0.361,0.746,0.049,1.643-0.697,2.004C73.68,90.665,73.458,90.713,73.238,90.713z"/>
				</g>
			</g>
		</g>
		<g>
			<g>
				<g>
					<path class="st205" d="M77.962,115.797h-7.864c-0.829,0-1.5-0.672-1.5-1.5V102.83c0-0.828,0.671-1.5,1.5-1.5h7.864
						c0.829,0,1.5,0.672,1.5,1.5v11.467C79.462,115.125,78.791,115.797,77.962,115.797z M71.598,112.797h4.864v-8.467h-4.864
						V112.797z"/>
				</g>
			</g>
			<g>
				<g>
					<g>
						<path class="st205" d="M64.902,115.797h-7.864c-0.829,0-1.5-0.672-1.5-1.5s0.671-1.5,1.5-1.5h6.364v-8.467h-6.364
							c-0.829,0-1.5-0.672-1.5-1.5s0.671-1.5,1.5-1.5h7.864c0.829,0,1.5,0.672,1.5,1.5v11.467
							C66.402,115.125,65.731,115.797,64.902,115.797z"/>
					</g>
				</g>
				<g>
					<path class="st205" d="M64.902,110.064h-7.864c-0.829,0-1.5-0.672-1.5-1.5s0.671-1.5,1.5-1.5h7.864c0.829,0,1.5,0.672,1.5,1.5
						S65.731,110.064,64.902,110.064z"/>
				</g>
			</g>
		</g>
	</g>
</g>
</svg>
