<?xml version="1.0" encoding="utf-8"?>
<!-- Generator: Adobe Illustrator 16.0.0, SVG Export Plug-In . SVG Version: 6.00 Build 0)  -->
<!DOCTYPE svg PUBLIC "-//W3C//DTD SVG 1.1//EN" "http://www.w3.org/Graphics/SVG/1.1/DTD/svg11.dtd">
<svg version="1.1" id="Layer_1" xmlns="http://www.w3.org/2000/svg" xmlns:xlink="http://www.w3.org/1999/xlink" x="0px" y="0px"
	 width="135px" height="135px" viewBox="0 0 135 135" style="enable-background:new 0 0 135 135;" xml:space="preserve">
<style type="text/css">
<![CDATA[
	.st0{fill:#465652;}
	.st1{fill:#AAB9BA;}
	.st2{fill:#47C67B;}
	.st3{fill:#AAC8D1;}
	.st4{fill:none;stroke:#E83834;stroke-width:6;stroke-linecap:round;stroke-linejoin:round;stroke-miterlimit:10;}
	.st5{fill:#7BC67B;}
	.st6{fill:#7BC7FF;}
	.st7{fill:#7C34C1;}
	.st8{fill:#7C8D96;}
	.st9{fill:#AD2707;}
	.st10{fill:#ADB8BC;}
	.st11{fill:#107510;}
	.st12{fill:#7FE5D8;}
	.st13{fill:#AF4AD1;}
	.st14{fill:#E02B7E;}
	.st15{fill:#E04038;}
	.st16{fill:#AFD7DD;}
	.st17{fill:#E0A010;}
	.st18{fill:#E0D5A4;}
	.st19{fill:#12B2B2;}
	.st20{fill:#12D66B;}
	.st21{fill:#E1A9FF;}
	.st22{fill:#1362A8;}
	.st23{fill:#E2378D;}
	.st24{fill:#E29C37;}
	.st25{fill:#E2B90E;}
	.st26{fill:#E2BF91;}
	.st27{fill:#E2CBAA;}
	.st28{fill:#14A594;}
	.st29{fill:#E4E9ED;}
	.st30{fill:#4A5D60;}
	.st31{fill:#E5B076;}
	.st32{fill:#E5B1C4;}
	.st33{fill:#E5E4C3;}
	.st34{fill:#4B6466;}
	.st35{fill:#E6FF2E;}
	.st36{fill:#18AA67;}
	.st37{fill:#E86207;}
	.st38{fill:#E8A113;}
	.st39{fill:#E8B5A6;}
	.st40{fill:#E8E8ED;}
	.st41{fill:#4E5154;}
	.st42{fill:#E9F1F4;}
	.st43{fill:#4F4B48;}
	.st44{fill:#4F74E8;}
	.st45{fill:#808E93;}
	.st46{fill:#80949B;}
	.st47{fill:#80EDAC;}
	.st48{fill:#B122E0;}
	.st49{fill:#B2C4CC;}
	.st50{fill:#83D839;}
	.st51{fill:#B3C6C6;}
	.st52{fill:none;stroke:#33363A;stroke-width:3;stroke-linecap:round;stroke-linejoin:round;stroke-miterlimit:10;}
	.st53{fill:#1A8E1C;}
	.st54{fill:#1A93D6;}
	.st55{fill:#B50B0B;}
	.st56{fill:#1AD88F;}
	.st57{fill:#B5DAF4;}
	.st58{fill:#EA7B1F;}
	.st59{fill:#EA81BD;}
	.st60{fill:#87B8D6;}
	.st61{fill:#87C3F4;}
	.st62{fill:#EAC79D;}
	.st63{fill:#EADF11;}
	.st64{fill:#EAE4C5;}
	.st65{fill:#B78094;}
	.st66{fill:#8844D8;}
	.st67{fill:#EBF4F7;}
	.st68{fill:#893015;}
	.st69{fill:#89410B;}
	.st70{fill:#899BA3;}
	.st71{fill:#EDE3B9;}
	.st72{enable-background:new    ;}
	.st73{fill:#50FF9F;}
	.st74{fill:#EEDCF4;}
	.st75{fill:#EFA37D;}
	.st76{fill:#EFA3CC;}
	.st77{fill:#EFC99A;}
	.st78{fill:#54AF79;}
	.st79{fill:#BA503A;}
	.st80{fill:#BA8663;}
	.st81{fill:#8B4FE0;}
	.st82{fill:#58ED9B;}
	.st83{fill:#BC7DFF;}
	.st84{fill:#8D9AA3;}
	.st85{fill:#BCCAD3;}
	.st86{fill:#8DE4FF;}
	.st87{fill:#20B518;}
	.st88{fill:#BF44F2;}
	.st89{fill:#21CEA1;}
	.st90{fill:#BFDAE0;}
	.st91{fill:#F0FBFC;}
	.st92{fill:#F2D9A7;}
	.st93{fill:#F2EAC9;}
	.st94{fill:#24D1AF;}
	.st95{fill:#25931C;}
	.st96{fill:#F4C4B3;}
	.st97{fill:#F4D3A2;}
	.st98{fill:#F4D647;}
	.st99{fill:#F4D7B8;}
	.st100{fill:#F4EC8E;}
	.st101{fill:#5B524D;}
	.st102{fill:#F77819;}
	.st103{fill:#F79AE1;}
	.st104{fill:#5E707A;}
	.st105{fill:#F93585;}
	.st106{fill:#F95D5D;}
	.st107{fill:#F9C19B;}
	.st108{fill:#F9CB58;}
	.st109{fill:#F9D2B2;}
	.st110{fill:#F9F07D;}
	.st111{fill:#F9F1D2;}
	.st112{fill:#F9F4B7;}
	.st113{fill:#F9F9E4;}
	.st114{fill:#5F1DAA;}
	.st115{fill:#5F9AD6;}
	.st116{fill:#C0C0C4;}
	.st117{fill:#91EA57;}
	.st118{fill:#C12727;}
	.st119{fill:#C191A0;}
	.st120{fill:#923BB7;}
	.st121{fill:#93A0A3;}
	.st122{fill:#93F9EA;}
	.st123{fill:#93FF5A;}
	.st124{fill:#C4833D;}
	.st125{fill:#95A2A5;}
	.st126{fill:#965514;}
	.st127{fill:#96562C;}
	.st128{fill:#2AF42F;}
	.st129{fill:#C5D7DD;}
	.st130{fill:#C68510;}
	.st131{fill:#C6A86D;}
	.st132{fill:#C6BB8D;}
	.st133{fill:#2C9DCE;}
	.st134{fill:#FBFCF2;}
	.st135{fill:#FC70B0;}
	.st136{fill:#FCE6C8;}
	.st137{fill:#FCF7E3;}
	.st138{fill:#C90D6B;}
	.st139{fill:#FDFEFF;}
	.st140{fill:#FDFFDC;}
	.st141{fill:#FF1A1A;}
	.st142{fill:#FF5252;}
	.st143{fill:#FF5B00;}
	.st144{fill:#FF6155;}
	.st145{fill:#FF630D;}
	.st146{fill:#FF6666;}
	.st147{fill:#FF7676;}
	.st148{fill:#FF7900;}
	.st149{fill:#FF860D;}
	.st150{fill:#FF8B00;}
	.st151{fill:#FF8F8F;}
	.st152{fill:#FF900B;}
	.st153{fill:#FF908A;}
	.st154{fill:#FF960B;}
	.st155{fill:#FF9C0D;}
	.st156{fill:#FFA9D4;}
	.st157{fill:#FFAA00;}
	.st158{fill:#FFAD40;}
	.st159{fill:#FFAF10;}
	.st160{fill:#FFB000;}
	.st161{fill:#FFBE08;}
	.st162{fill:#FFBF31;}
	.st163{fill:#FFC200;}
	.st164{fill:#FFCAE8;}
	.st165{fill:#FFCCF5;}
	.st166{fill:#FFD00B;}
	.st167{fill:#FFD039;}
	.st168{fill:#FFD400;}
	.st169{fill:#FFD833;}
	.st170{fill:#FFDB80;}
	.st171{fill:#FFDDD2;}
	.st172{fill:#FFE6D4;}
	.st173{fill:#FFE6EB;}
	.st174{fill:#FFE98D;}
	.st175{fill:#FFECD2;}
	.st176{fill:#FFF1D9;}
	.st177{fill:#FFF24D;}
	.st178{fill:#FFF3C2;}
	.st179{fill:#FFF4C7;}
	.st180{fill:#FFF800;}
	.st181{fill:#FFF80D;}
	.st182{fill:#FFF9DE;}
	.st183{fill:#FFFBD7;}
	.st184{fill:#FFFBEB;}
	.st185{fill:#FFFCC0;}
	.st186{fill:#FFFCDC;}
	.st187{fill:#FFFFFA;}
	.st188{fill:#FFFFFF;}
	.st189{fill:#63797F;}
	.st190{fill:#65E529;}
	.st191{fill:#66310E;}
	.st192{fill:#663C17;}
	.st193{fill:#9A5AE5;}
	.st194{fill:#CA30EF;}
	.st195{fill:#6892FC;}
	.st196{fill:#9CFFC4;}
	.st197{fill:#CC4306;}
	.st198{fill:#CC549E;}
	.st199{fill:#9E3256;}
	.st200{fill:#CDFFBB;}
	.st201{fill:#CE86AF;}
	.st202{fill:#CED9DD;}
	
		.st203{fill:none;stroke:#33363A;stroke-width:3;stroke-linecap:round;stroke-linejoin:round;stroke-miterlimit:10;stroke-dasharray:6;}
	.st204{fill:#CFE1E2;}
	.st205{fill:#33363A;}
	.st206{fill:#34C166;}
	.st207{fill:#364B5B;}
	.st208{fill:#3662CE;}
	.st209{fill:#36C6FF;}
	.st210{fill:#6ADB9A;}
	.st211{fill:#6D5C4D;}
	.st212{fill:#6EBDF9;}
	.st213{fill:#0031FF;}
	.st214{fill:#0062FF;}
	.st215{fill:#0068FF;}
	.st216{fill:#0086FF;}
	.st217{fill:#009BE8;}
	.st218{fill:#00AAFF;}
	.st219{fill:#D271FF;}
	.st220{fill:#D363A9;}
	.st221{fill:#D3964C;}
	.st222{fill:#D3DFE2;}
	.st223{fill:#D3E0E2;}
	.st224{fill:#D3EFF4;}
	.st225{fill:#063B66;}
	.st226{fill:#D60909;}
	.st227{fill:#D61D1D;}
	.st228{fill:#D7F0FF;}
	.st229{fill:#09B285;}
	.st230{fill:#D8D593;}
	.st231{fill:#D8E2EA;}
	.st232{fill:#D8E5EA;}
	.st233{fill:#3E5054;}
	.st234{fill:#D988FF;}
	.st235{fill:#D9E7E8;}
	.st236{fill:#702252;}
	.st237{fill:#70D3E0;}
	.st238{fill:#A02FF2;}
	.st239{fill:#A2F255;}
	.st240{fill:#A35616;}
	.st241{fill:#A3CCCC;}
	.st242{fill:#0A6ADD;}
	.st243{fill:#A5145D;}
	.st244{fill:#A57555;}
	.st245{fill:#77D6FC;}
	.st246{fill:#7815CE;}
	.st247{fill:#A7BBC1;}
	.st248{fill:#DBD279;}
	.st249{fill:#0D5C9E;}
	.st250{fill:#A83C11;}
	.st251{fill:#A8633D;}
	.st252{fill:#A8A3E5;}
	.st253{fill:#DCE6EA;}
	.st254{fill:#DCE7EA;}
	.st255{fill:#A962E8;}
	.st256{fill:#DD2466;}
	.st257{fill:#DDC38A;}
	.st258{fill:#DDD2B1;}
	.st259{fill:#DFE7E8;}
	.st260{fill:#42B1E8;}
	.st261{fill:#436377;}
	.st262{fill:#43B530;}
]]>
</style>
<g>
	<g>
		<g>
			<path class="st74" d="M116.074,81.167c0,26.601-21.564,48.166-48.168,48.166c-26.603,0-48.167-21.565-48.167-48.166
				c0-26.604,21.564-75.5,48.167-75.5C94.51,5.667,116.074,54.563,116.074,81.167z"/>
		</g>
		<g>
			<path class="st252" d="M67.906,5.667v123.666c26.604,0,48.168-21.565,48.168-48.166C116.074,54.563,94.51,5.667,67.906,5.667z"/>
		</g>
		<g>
			<path class="st205" d="M67.906,130.833c-27.386,0-49.667-22.28-49.667-49.666c0-13.942,5.613-32.964,14.299-48.46
				c10.316-18.404,22.877-28.54,35.368-28.54c12.491,0,25.052,10.136,35.369,28.54c8.687,15.496,14.299,34.518,14.299,48.46
				C117.574,108.553,95.293,130.833,67.906,130.833z M67.906,7.167c-6.578,0-19.579,3.509-32.751,27.007
				c-8.454,15.081-13.916,33.526-13.916,46.993c0,25.732,20.935,46.666,46.667,46.666c25.733,0,46.668-20.934,46.668-46.666
				c0-13.466-5.462-31.912-13.916-46.993C87.486,10.676,74.484,7.167,67.906,7.167z"/>
		</g>
	</g>
	<g>
		<g>
			<g>
				<circle class="st74" cx="79.158" cy="37.768" r="3.5"/>
			</g>
			<g>
				<ellipse class="st74" cx="77.408" cy="25.077" rx="1.75" ry="0"/>
			</g>
			<g>
				<circle class="st74" cx="90.49" cy="36.768" r="2.5"/>
			</g>
			<g>
				<circle class="st74" cx="91.74" cy="46.518" r="1.25"/>
			</g>
			<g>
				<circle class="st74" cx="82.574" cy="24.457" r="3.416"/>
			</g>
			<g>
				<ellipse class="st74" cx="72.324" cy="24.457" rx="0.666" ry="0"/>
			</g>
			<g>
				<circle class="st74" cx="74.525" cy="15.47" r="1.535"/>
			</g>
			<g>
				<circle class="st74" cx="80.866" cy="59.186" r="1.708"/>
			</g>
			<g>
				<circle class="st74" cx="80.892" cy="78.295" r="1.733"/>
			</g>
			<g>
				<circle class="st74" cx="94.823" cy="69.333" r="1.833"/>
			</g>
			<g>
				<circle class="st74" cx="103.491" cy="62.727" r="1.833"/>
			</g>
			<g>
				<ellipse class="st74" cx="101.658" cy="83.695" rx="0" ry="1.24"/>
			</g>
			<g>
				<circle class="st74" cx="93.907" cy="88.518" r="0.917"/>
			</g>
			<g>
				<circle class="st74" cx="104.824" cy="79.727" r="3.166"/>
			</g>
			<g>
				<circle class="st74" cx="78.128" cy="103.867" r="2.067"/>
			</g>
			<g>
				<circle class="st74" cx="80.593" cy="116.804" r="2.464"/>
			</g>
			<g>
				<circle class="st74" cx="89.24" cy="105.792" r="1.25"/>
			</g>
			<g>
				<circle class="st74" cx="99.824" cy="98.139" r="1.834"/>
			</g>
		</g>
		<g>
			<g>
				<circle class="st252" cx="56.656" cy="37.768" r="3.5"/>
			</g>
			<g>
				<ellipse class="st252" cx="58.406" cy="25.077" rx="1.75" ry="0"/>
			</g>
			<g>
				<circle class="st252" cx="45.324" cy="36.768" r="2.5"/>
			</g>
			<g>
				<circle class="st252" cx="44.073" cy="46.518" r="1.25"/>
			</g>
			<g>
				<circle class="st252" cx="53.24" cy="24.457" r="3.416"/>
			</g>
			<g>
				<ellipse class="st252" cx="63.49" cy="24.457" rx="0.666" ry="0"/>
			</g>
			<g>
				<circle class="st252" cx="61.289" cy="15.47" r="1.535"/>
			</g>
			<g>
				<circle class="st252" cx="54.948" cy="59.186" r="1.708"/>
			</g>
			<g>
				<circle class="st252" cx="54.923" cy="78.295" r="1.733"/>
			</g>
			<g>
				<circle class="st252" cx="40.99" cy="69.333" r="1.833"/>
			</g>
			<g>
				<circle class="st252" cx="32.322" cy="62.727" r="1.833"/>
			</g>
			<g>
				<ellipse class="st252" cx="34.155" cy="83.695" rx="0" ry="1.24"/>
			</g>
			<g>
				<circle class="st252" cx="41.906" cy="88.518" r="0.917"/>
			</g>
			<g>
				<circle class="st252" cx="30.989" cy="79.727" r="3.166"/>
			</g>
			<g>
				<circle class="st252" cx="57.687" cy="103.867" r="2.067"/>
			</g>
			<g>
				<circle class="st252" cx="55.222" cy="116.804" r="2.464"/>
			</g>
			<g>
				<circle class="st252" cx="46.574" cy="105.792" r="1.25"/>
			</g>
			<g>
				<circle class="st252" cx="35.989" cy="98.139" r="1.834"/>
			</g>
		</g>
	</g>
	<g>
		<g>
			<path class="st205" d="M18.62,23.934c-0.829,0-1.5-0.671-1.5-1.5v-8.498c0-0.829,0.671-1.5,1.5-1.5s1.5,0.671,1.5,1.5v8.498
				C20.12,23.262,19.449,23.934,18.62,23.934z"/>
		</g>
		<g>
			<path class="st205" d="M22.869,19.684H14.37c-0.829,0-1.5-0.671-1.5-1.5s0.671-1.5,1.5-1.5h8.499c0.829,0,1.5,0.671,1.5,1.5
				S23.698,19.684,22.869,19.684z"/>
		</g>
	</g>
	<g>
		<g>
			<path class="st205" d="M120.631,41.273c-0.384,0-0.768-0.146-1.061-0.439l-6.01-6.01c-0.586-0.585-0.586-1.536,0-2.121
				c0.586-0.586,1.535-0.586,2.121,0l6.01,6.01c0.586,0.585,0.586,1.536,0,2.121C121.398,41.127,121.015,41.273,120.631,41.273z"/>
		</g>
		<g>
			<path class="st205" d="M114.621,41.272c-0.384,0-0.768-0.146-1.061-0.439c-0.586-0.585-0.586-1.536,0-2.121l6.01-6.01
				c0.586-0.586,1.535-0.586,2.121,0c0.586,0.585,0.586,1.536,0,2.121l-6.01,6.01C115.389,41.126,115.005,41.272,114.621,41.272z"/>
		</g>
	</g>
	<g>
		<g>
			<path class="st205" d="M21.624,38.27c-0.384,0-0.768-0.146-1.061-0.439l-3.005-3.006c-0.585-0.586-0.585-1.536,0-2.122
				c0.586-0.585,1.536-0.585,2.122,0l3.005,3.006c0.585,0.586,0.585,1.536,0,2.122C22.392,38.123,22.008,38.27,21.624,38.27z"/>
		</g>
		<g>
			<path class="st205" d="M18.619,38.268c-0.384,0-0.768-0.146-1.061-0.439c-0.586-0.585-0.586-1.536,0-2.121l3.005-3.005
				c0.586-0.586,1.535-0.586,2.121,0c0.586,0.585,0.586,1.536,0,2.121l-3.005,3.005C19.387,38.121,19.003,38.268,18.619,38.268z"/>
		</g>
	</g>
	<g>
		<g>
			<path class="st205" d="M110.115,15.436h-4.25c-0.829,0-1.5-0.671-1.5-1.5s0.671-1.5,1.5-1.5h4.25c0.829,0,1.5,0.671,1.5,1.5
				S110.944,15.436,110.115,15.436z"/>
		</g>
		<g>
			<path class="st205" d="M107.99,17.561L107.99,17.561c-0.829,0-1.5-0.672-1.5-1.5l0.002-4.25c0-0.829,0.672-1.5,1.5-1.5h0
				c0.829,0,1.5,0.672,1.5,1.5l-0.002,4.25C109.49,16.89,108.818,17.561,107.99,17.561z"/>
		</g>
	</g>
	<g>
		<g>
			<path class="st205" d="M109.416,27.275c-0.384,0-0.768-0.146-1.061-0.439c-0.586-0.585-0.586-1.536,0-2.121l1.398-1.398
				c0.586-0.586,1.535-0.586,2.121,0c0.586,0.585,0.586,1.536,0,2.121l-1.398,1.398C110.184,27.129,109.8,27.275,109.416,27.275z"/>
		</g>
		<g>
			<path class="st205" d="M110.814,27.275c-0.384,0-0.768-0.146-1.061-0.439l-1.398-1.398c-0.586-0.585-0.586-1.536,0-2.121
				c0.586-0.586,1.535-0.586,2.121,0l1.398,1.398c0.586,0.585,0.586,1.536,0,2.121C111.582,27.129,111.198,27.275,110.814,27.275z"
				/>
		</g>
	</g>
	<g>
		<g>
			<path class="st205" d="M33.312,18.505h-1.978c-0.829,0-1.5-0.671-1.5-1.5s0.671-1.5,1.5-1.5h1.978c0.829,0,1.5,0.671,1.5,1.5
				S34.14,18.505,33.312,18.505z"/>
		</g>
		<g>
			<path class="st205" d="M32.323,19.494c-0.829,0-1.5-0.671-1.5-1.5v-1.978c0-0.829,0.671-1.5,1.5-1.5s1.5,0.671,1.5,1.5v1.978
				C33.823,18.823,33.152,19.494,32.323,19.494z"/>
		</g>
	</g>
</g>
</svg>
