<?xml version="1.0" encoding="utf-8"?>
<!-- Generator: Adobe Illustrator 16.0.0, SVG Export Plug-In . SVG Version: 6.00 Build 0)  -->
<!DOCTYPE svg PUBLIC "-//W3C//DTD SVG 1.1//EN" "http://www.w3.org/Graphics/SVG/1.1/DTD/svg11.dtd">
<svg version="1.1" id="Layer_1" xmlns="http://www.w3.org/2000/svg" xmlns:xlink="http://www.w3.org/1999/xlink" x="0px" y="0px"
	 width="135px" height="135px" viewBox="0 0 135 135" style="enable-background:new 0 0 135 135;" xml:space="preserve">
<style type="text/css">
<![CDATA[
	.st0{fill:#465652;}
	.st1{fill:#AAB9BA;}
	.st2{fill:#47C67B;}
	.st3{fill:#AAC8D1;}
	.st4{fill:none;stroke:#E83834;stroke-width:6;stroke-linecap:round;stroke-linejoin:round;stroke-miterlimit:10;}
	.st5{fill:#7BC67B;}
	.st6{fill:#7BC7FF;}
	.st7{fill:#7C34C1;}
	.st8{fill:#7C8D96;}
	.st9{fill:#AD2707;}
	.st10{fill:#ADB8BC;}
	.st11{fill:#107510;}
	.st12{fill:#7FE5D8;}
	.st13{fill:#AF4AD1;}
	.st14{fill:#E02B7E;}
	.st15{fill:#E04038;}
	.st16{fill:#AFD7DD;}
	.st17{fill:#E0A010;}
	.st18{fill:#E0D5A4;}
	.st19{fill:#12B2B2;}
	.st20{fill:#12D66B;}
	.st21{fill:#E1A9FF;}
	.st22{fill:#1362A8;}
	.st23{fill:#E2378D;}
	.st24{fill:#E29C37;}
	.st25{fill:#E2B90E;}
	.st26{fill:#E2BF91;}
	.st27{fill:#E2CBAA;}
	.st28{fill:#14A594;}
	.st29{fill:#E4E9ED;}
	.st30{fill:#4A5D60;}
	.st31{fill:#E5B076;}
	.st32{fill:#E5B1C4;}
	.st33{fill:#E5E4C3;}
	.st34{fill:#4B6466;}
	.st35{fill:#E6FF2E;}
	.st36{fill:#18AA67;}
	.st37{fill:#E86207;}
	.st38{fill:#E8A113;}
	.st39{fill:#E8B5A6;}
	.st40{fill:#E8E8ED;}
	.st41{fill:#4E5154;}
	.st42{fill:#E9F1F4;}
	.st43{fill:#4F4B48;}
	.st44{fill:#4F74E8;}
	.st45{fill:#808E93;}
	.st46{fill:#80949B;}
	.st47{fill:#80EDAC;}
	.st48{fill:#B122E0;}
	.st49{fill:#B2C4CC;}
	.st50{fill:#83D839;}
	.st51{fill:#B3C6C6;}
	.st52{fill:none;stroke:#33363A;stroke-width:3;stroke-linecap:round;stroke-linejoin:round;stroke-miterlimit:10;}
	.st53{fill:#1A8E1C;}
	.st54{fill:#1A93D6;}
	.st55{fill:#B50B0B;}
	.st56{fill:#1AD88F;}
	.st57{fill:#B5DAF4;}
	.st58{fill:#EA7B1F;}
	.st59{fill:#EA81BD;}
	.st60{fill:#87B8D6;}
	.st61{fill:#87C3F4;}
	.st62{fill:#EAC79D;}
	.st63{fill:#EADF11;}
	.st64{fill:#EAE4C5;}
	.st65{fill:#B78094;}
	.st66{fill:#8844D8;}
	.st67{fill:#EBF4F7;}
	.st68{fill:#893015;}
	.st69{fill:#89410B;}
	.st70{fill:#899BA3;}
	.st71{fill:#EDE3B9;}
	.st72{enable-background:new    ;}
	.st73{fill:#50FF9F;}
	.st74{fill:#EEDCF4;}
	.st75{fill:#EFA37D;}
	.st76{fill:#EFA3CC;}
	.st77{fill:#EFC99A;}
	.st78{fill:#54AF79;}
	.st79{fill:#BA503A;}
	.st80{fill:#BA8663;}
	.st81{fill:#8B4FE0;}
	.st82{fill:#58ED9B;}
	.st83{fill:#BC7DFF;}
	.st84{fill:#8D9AA3;}
	.st85{fill:#BCCAD3;}
	.st86{fill:#8DE4FF;}
	.st87{fill:#20B518;}
	.st88{fill:#BF44F2;}
	.st89{fill:#21CEA1;}
	.st90{fill:#BFDAE0;}
	.st91{fill:#F0FBFC;}
	.st92{fill:#F2D9A7;}
	.st93{fill:#F2EAC9;}
	.st94{fill:#24D1AF;}
	.st95{fill:#25931C;}
	.st96{fill:#F4C4B3;}
	.st97{fill:#F4D3A2;}
	.st98{fill:#F4D647;}
	.st99{fill:#F4D7B8;}
	.st100{fill:#F4EC8E;}
	.st101{fill:#5B524D;}
	.st102{fill:#F77819;}
	.st103{fill:#F79AE1;}
	.st104{fill:#5E707A;}
	.st105{fill:#F93585;}
	.st106{fill:#F95D5D;}
	.st107{fill:#F9C19B;}
	.st108{fill:#F9CB58;}
	.st109{fill:#F9D2B2;}
	.st110{fill:#F9F07D;}
	.st111{fill:#F9F1D2;}
	.st112{fill:#F9F4B7;}
	.st113{fill:#F9F9E4;}
	.st114{fill:#5F1DAA;}
	.st115{fill:#5F9AD6;}
	.st116{fill:#C0C0C4;}
	.st117{fill:#91EA57;}
	.st118{fill:#C12727;}
	.st119{fill:#C191A0;}
	.st120{fill:#923BB7;}
	.st121{fill:#93A0A3;}
	.st122{fill:#93F9EA;}
	.st123{fill:#93FF5A;}
	.st124{fill:#C4833D;}
	.st125{fill:#95A2A5;}
	.st126{fill:#965514;}
	.st127{fill:#96562C;}
	.st128{fill:#2AF42F;}
	.st129{fill:#C5D7DD;}
	.st130{fill:#C68510;}
	.st131{fill:#C6A86D;}
	.st132{fill:#C6BB8D;}
	.st133{fill:#2C9DCE;}
	.st134{fill:#FBFCF2;}
	.st135{fill:#FC70B0;}
	.st136{fill:#FCE6C8;}
	.st137{fill:#FCF7E3;}
	.st138{fill:#C90D6B;}
	.st139{fill:#FDFEFF;}
	.st140{fill:#FDFFDC;}
	.st141{fill:#FF1A1A;}
	.st142{fill:#FF5252;}
	.st143{fill:#FF5B00;}
	.st144{fill:#FF6155;}
	.st145{fill:#FF630D;}
	.st146{fill:#FF6666;}
	.st147{fill:#FF7676;}
	.st148{fill:#FF7900;}
	.st149{fill:#FF860D;}
	.st150{fill:#FF8B00;}
	.st151{fill:#FF8F8F;}
	.st152{fill:#FF900B;}
	.st153{fill:#FF908A;}
	.st154{fill:#FF960B;}
	.st155{fill:#FF9C0D;}
	.st156{fill:#FFA9D4;}
	.st157{fill:#FFAA00;}
	.st158{fill:#FFAD40;}
	.st159{fill:#FFAF10;}
	.st160{fill:#FFB000;}
	.st161{fill:#FFBE08;}
	.st162{fill:#FFBF31;}
	.st163{fill:#FFC200;}
	.st164{fill:#FFCAE8;}
	.st165{fill:#FFCCF5;}
	.st166{fill:#FFD00B;}
	.st167{fill:#FFD039;}
	.st168{fill:#FFD400;}
	.st169{fill:#FFD833;}
	.st170{fill:#FFDB80;}
	.st171{fill:#FFDDD2;}
	.st172{fill:#FFE6D4;}
	.st173{fill:#FFE6EB;}
	.st174{fill:#FFE98D;}
	.st175{fill:#FFECD2;}
	.st176{fill:#FFF1D9;}
	.st177{fill:#FFF24D;}
	.st178{fill:#FFF3C2;}
	.st179{fill:#FFF4C7;}
	.st180{fill:#FFF800;}
	.st181{fill:#FFF80D;}
	.st182{fill:#FFF9DE;}
	.st183{fill:#FFFBD7;}
	.st184{fill:#FFFBEB;}
	.st185{fill:#FFFCC0;}
	.st186{fill:#FFFCDC;}
	.st187{fill:#FFFFFA;}
	.st188{fill:#FFFFFF;}
	.st189{fill:#63797F;}
	.st190{fill:#65E529;}
	.st191{fill:#66310E;}
	.st192{fill:#663C17;}
	.st193{fill:#9A5AE5;}
	.st194{fill:#CA30EF;}
	.st195{fill:#6892FC;}
	.st196{fill:#9CFFC4;}
	.st197{fill:#CC4306;}
	.st198{fill:#CC549E;}
	.st199{fill:#9E3256;}
	.st200{fill:#CDFFBB;}
	.st201{fill:#CE86AF;}
	.st202{fill:#CED9DD;}
	
		.st203{fill:none;stroke:#33363A;stroke-width:3;stroke-linecap:round;stroke-linejoin:round;stroke-miterlimit:10;stroke-dasharray:6;}
	.st204{fill:#CFE1E2;}
	.st205{fill:#33363A;}
	.st206{fill:#34C166;}
	.st207{fill:#364B5B;}
	.st208{fill:#3662CE;}
	.st209{fill:#36C6FF;}
	.st210{fill:#6ADB9A;}
	.st211{fill:#6D5C4D;}
	.st212{fill:#6EBDF9;}
	.st213{fill:#0031FF;}
	.st214{fill:#0062FF;}
	.st215{fill:#0068FF;}
	.st216{fill:#0086FF;}
	.st217{fill:#009BE8;}
	.st218{fill:#00AAFF;}
	.st219{fill:#D271FF;}
	.st220{fill:#D363A9;}
	.st221{fill:#D3964C;}
	.st222{fill:#D3DFE2;}
	.st223{fill:#D3E0E2;}
	.st224{fill:#D3EFF4;}
	.st225{fill:#063B66;}
	.st226{fill:#D60909;}
	.st227{fill:#D61D1D;}
	.st228{fill:#D7F0FF;}
	.st229{fill:#09B285;}
	.st230{fill:#D8D593;}
	.st231{fill:#D8E2EA;}
	.st232{fill:#D8E5EA;}
	.st233{fill:#3E5054;}
	.st234{fill:#D988FF;}
	.st235{fill:#D9E7E8;}
	.st236{fill:#702252;}
	.st237{fill:#70D3E0;}
	.st238{fill:#A02FF2;}
	.st239{fill:#A2F255;}
	.st240{fill:#A35616;}
	.st241{fill:#A3CCCC;}
	.st242{fill:#0A6ADD;}
	.st243{fill:#A5145D;}
	.st244{fill:#A57555;}
	.st245{fill:#77D6FC;}
	.st246{fill:#7815CE;}
	.st247{fill:#A7BBC1;}
	.st248{fill:#DBD279;}
	.st249{fill:#0D5C9E;}
	.st250{fill:#A83C11;}
	.st251{fill:#A8633D;}
	.st252{fill:#A8A3E5;}
	.st253{fill:#DCE6EA;}
	.st254{fill:#DCE7EA;}
	.st255{fill:#A962E8;}
	.st256{fill:#DD2466;}
	.st257{fill:#DDC38A;}
	.st258{fill:#DDD2B1;}
	.st259{fill:#DFE7E8;}
	.st260{fill:#42B1E8;}
	.st261{fill:#436377;}
	.st262{fill:#43B530;}
]]>
</style>
<g>
	<g>
		<g>
			<g>
				<rect x="33.403" y="27.396" class="st10" width="68.193" height="91.309"/>
			</g>
			<g>
				<rect x="53.702" y="27.396" class="st121" width="27.596" height="91.309"/>
			</g>
			<g>
				<rect x="33.403" y="110.218" class="st216" width="68.193" height="8.486"/>
			</g>
			<g>
				<rect x="33.403" y="110.218" class="st6" width="68.193" height="4.243"/>
			</g>
			<g>
				<path class="st205" d="M101.597,120.204H33.403c-0.828,0-1.5-0.671-1.5-1.5v-8.486c0-0.829,0.672-1.5,1.5-1.5h68.193
					c0.828,0,1.5,0.671,1.5,1.5v8.486C103.097,119.533,102.425,120.204,101.597,120.204z M34.903,117.204h65.193v-5.486H34.903
					V117.204z"/>
			</g>
			<g>
				<polygon class="st67" points="33.403,118.704 101.597,118.704 92.929,129.95 42.073,129.95 				"/>
			</g>
			<g>
				<polygon class="st67" points="101.597,27.542 33.403,27.542 42.073,5.05 92.929,5.05 				"/>
			</g>
			<g>
				<g>
					<polygon class="st232" points="53.702,118.704 81.298,118.704 77.79,129.95 57.21,129.95 					"/>
				</g>
				<g>
					<polygon class="st232" points="81.298,27.542 53.702,27.542 57.21,5.05 77.79,5.05 					"/>
				</g>
			</g>
			<g>
				<path class="st205" d="M101.597,120.204H33.403c-0.828,0-1.5-0.671-1.5-1.5V27.396c0-0.829,0.672-1.5,1.5-1.5h68.193
					c0.828,0,1.5,0.671,1.5,1.5v91.309C103.097,119.533,102.425,120.204,101.597,120.204z M34.903,117.204h65.193V28.896H34.903
					V117.204z"/>
			</g>
			<g>
				<path class="st205" d="M101.616,29.042c-0.005,0-0.012,0.001-0.02,0H33.403c-0.494,0-0.957-0.244-1.236-0.651
					c-0.28-0.408-0.341-0.927-0.163-1.388l8.67-22.492c0.223-0.579,0.779-0.96,1.399-0.96h50.855c0.62,0,1.177,0.382,1.399,0.96
					l8.585,22.277c0.13,0.222,0.203,0.479,0.203,0.754C103.116,28.371,102.445,29.042,101.616,29.042z M35.589,26.042h63.822
					L91.899,6.55H43.103L35.589,26.042z"/>
			</g>
			<g>
				<path class="st205" d="M92.929,131.45H42.073c-0.465,0-0.904-0.216-1.188-0.584l-8.67-11.246
					c-0.35-0.453-0.411-1.065-0.158-1.578c0.252-0.513,0.774-0.838,1.346-0.838h68.193c0.571,0,1.094,0.325,1.346,0.838
					c0.253,0.513,0.191,1.125-0.157,1.578l-8.668,11.246C93.833,131.234,93.394,131.45,92.929,131.45z M42.811,128.45h49.381
					l6.355-8.246H36.454L42.811,128.45z"/>
			</g>
			<g>
				<g>
					<path class="st216" d="M80.878,16.259c0,2.209-1.791,4-4,4H58.122c-2.209,0-4-1.791-4-4v-0.75c0-2.209,1.791-4,4-4h18.756
						c2.209,0,4,1.791,4,4V16.259z"/>
				</g>
				<g>
					<path class="st205" d="M76.878,21.759H58.122c-3.032,0-5.5-2.467-5.5-5.5v-0.75c0-3.033,2.468-5.5,5.5-5.5h18.756
						c3.032,0,5.5,2.467,5.5,5.5v0.75C82.378,19.292,79.91,21.759,76.878,21.759z M58.122,13.009c-1.379,0-2.5,1.122-2.5,2.5v0.75
						c0,1.378,1.121,2.5,2.5,2.5h18.756c1.379,0,2.5-1.122,2.5-2.5v-0.75c0-1.378-1.121-2.5-2.5-2.5H58.122z"/>
				</g>
			</g>
			<g>
				<path class="st139" d="M39.917,85.402c-0.828,0-1.5-0.671-1.5-1.5V42.384c0-0.829,0.672-1.5,1.5-1.5s1.5,0.671,1.5,1.5v41.519
					C41.417,84.731,40.745,85.402,39.917,85.402z"/>
			</g>
			<g>
				<path class="st139" d="M39.917,37.884c-0.828,0-1.5-0.671-1.5-1.5v-2.853c0-0.829,0.672-1.5,1.5-1.5s1.5,0.671,1.5,1.5v2.853
					C41.417,37.212,40.745,37.884,39.917,37.884z"/>
			</g>
			<g>
				<path class="st139" d="M39.917,93.884c-0.828,0-1.5-0.671-1.5-1.5v-2.853c0-0.829,0.672-1.5,1.5-1.5s1.5,0.671,1.5,1.5v2.853
					C41.417,93.212,40.745,93.884,39.917,93.884z"/>
			</g>
			<g>
				<path class="st139" d="M39.917,102.634c-0.828,0-1.5-0.671-1.5-1.5v-2.853c0-0.829,0.672-1.5,1.5-1.5s1.5,0.671,1.5,1.5v2.853
					C41.417,101.962,40.745,102.634,39.917,102.634z"/>
			</g>
		</g>
		<g>
			<g>
				<path class="st205" d="M55.417,125.827h-1.166c-0.828,0-1.5-0.671-1.5-1.5s0.672-1.5,1.5-1.5h1.166c0.828,0,1.5,0.671,1.5,1.5
					S56.245,125.827,55.417,125.827z"/>
			</g>
			<g>
				<path class="st205" d="M61.751,125.827h-1.168c-0.828,0-1.5-0.671-1.5-1.5s0.672-1.5,1.5-1.5h1.168c0.828,0,1.5,0.671,1.5,1.5
					S62.579,125.827,61.751,125.827z"/>
			</g>
			<g>
				<path class="st205" d="M68.083,125.827h-1.166c-0.828,0-1.5-0.671-1.5-1.5s0.672-1.5,1.5-1.5h1.166c0.828,0,1.5,0.671,1.5,1.5
					S68.911,125.827,68.083,125.827z"/>
			</g>
			<g>
				<path class="st205" d="M74.417,125.827h-1.168c-0.828,0-1.5-0.671-1.5-1.5s0.672-1.5,1.5-1.5h1.168c0.828,0,1.5,0.671,1.5,1.5
					S75.245,125.827,74.417,125.827z"/>
			</g>
			<g>
				<path class="st205" d="M80.749,125.827h-1.166c-0.828,0-1.5-0.671-1.5-1.5s0.672-1.5,1.5-1.5h1.166c0.828,0,1.5,0.671,1.5,1.5
					S81.577,125.827,80.749,125.827z"/>
			</g>
		</g>
	</g>
	<g>
		<g>
			<path class="st187" d="M89.341,88.96c0,11.739-9.518,21.258-21.258,21.258s-21.256-9.519-21.256-21.258
				c0-11.74,9.516-33.32,21.256-33.32S89.341,77.22,89.341,88.96z"/>
		</g>
		<g>
			<path class="st113" d="M68.083,55.64v54.578c11.74,0,21.258-9.519,21.258-21.258C89.341,77.22,79.823,55.64,68.083,55.64z"/>
		</g>
		<g>
			<g>
				<path class="st5" d="M54.911,101.02c1.963,2.144,4.123,3.194,2.975,4.244c-1.15,1.051-3.67,0.165-5.633-1.979
					c-1.961-2.145-2.619-4.734-1.471-5.785S52.95,98.874,54.911,101.02z"/>
			</g>
			<g>
				<path class="st78" d="M81.255,101.02c-1.961,2.144-4.121,3.194-2.973,4.244c1.148,1.051,3.67,0.165,5.631-1.979
					c1.963-2.145,2.621-4.734,1.473-5.785C84.235,96.448,83.218,98.874,81.255,101.02z"/>
			</g>
		</g>
		<g>
			<path class="st205" d="M68.083,111.718c-12.548,0-22.756-10.209-22.756-22.758c0-11.919,9.609-34.82,22.756-34.82
				c13.147,0,22.758,22.901,22.758,34.82C90.841,101.509,80.632,111.718,68.083,111.718z M68.083,57.14
				c-10.812,0-19.756,21.068-19.756,31.82c0,10.895,8.862,19.758,19.756,19.758c10.895,0,19.758-8.863,19.758-19.758
				C87.841,78.208,78.896,57.14,68.083,57.14z"/>
		</g>
		<g>
			<path class="st5" d="M80.569,94.464c-2.766,5.99-8.414,9.273-12.617,7.334c-4.201-1.939-2.25-5.468,0.516-11.459
				c2.766-5.99,5.297-12.176,9.5-10.234C82.169,82.044,83.335,88.472,80.569,94.464z"/>
		</g>
		<g>
			<path class="st78" d="M77.968,80.104c-4.203-1.941-6.734,4.244-9.5,10.234c-0.131,0.283-0.258,0.559-0.385,0.829v10.685
				c4.189,1.814,9.748-1.46,12.486-7.389C83.335,88.472,82.169,82.044,77.968,80.104z"/>
		</g>
		<g>
			<circle class="st5" cx="55.859" cy="71.989" r="1.351"/>
		</g>
		<g>
			<circle class="st5" cx="60.734" cy="65.53" r="0.528"/>
		</g>
		<g>
			<circle class="st5" cx="57.974" cy="79.741" r="0.764"/>
		</g>
		<g>
			<circle class="st78" cx="69.874" cy="104.942" r="0.764"/>
		</g>
		<g>
			<circle class="st5" cx="66.282" cy="104.179" r="0.764"/>
		</g>
		<g>
			<circle class="st78" cx="77.151" cy="68.208" r="1.561"/>
		</g>
		<g>
			<circle class="st78" cx="81.579" cy="74.866" r="1.527"/>
		</g>
		<g>
			<circle class="st5" cx="59.847" cy="95.335" r="1.527"/>
		</g>
		<g>
			<path class="st5" d="M69.728,72.937c0,3.578,1.545,6.479-2.035,6.479c-3.578,0-6.479-2.9-6.479-6.479s2.9-6.48,6.479-6.48
				C71.272,66.456,69.728,69.358,69.728,72.937z"/>
		</g>
		<g>
			<path class="st78" d="M68.083,79.401c3.068-0.213,1.645-3.025,1.645-6.465s1.424-6.253-1.645-6.467V79.401z"/>
		</g>
	</g>
</g>
</svg>
