<?xml version="1.0" encoding="utf-8"?>
<!-- Generator: Adobe Illustrator 16.0.0, SVG Export Plug-In . SVG Version: 6.00 Build 0)  -->
<!DOCTYPE svg PUBLIC "-//W3C//DTD SVG 1.1//EN" "http://www.w3.org/Graphics/SVG/1.1/DTD/svg11.dtd">
<svg version="1.1" id="Layer_1" xmlns="http://www.w3.org/2000/svg" xmlns:xlink="http://www.w3.org/1999/xlink" x="0px" y="0px"
	 width="135px" height="135px" viewBox="0 0 135 135" style="enable-background:new 0 0 135 135;" xml:space="preserve">
<style type="text/css">
<![CDATA[
	.st0{fill:#465652;}
	.st1{fill:#AAB9BA;}
	.st2{fill:#47C67B;}
	.st3{fill:#AAC8D1;}
	.st4{fill:none;stroke:#E83834;stroke-width:6;stroke-linecap:round;stroke-linejoin:round;stroke-miterlimit:10;}
	.st5{fill:#7BC67B;}
	.st6{fill:#7BC7FF;}
	.st7{fill:#7C34C1;}
	.st8{fill:#7C8D96;}
	.st9{fill:#AD2707;}
	.st10{fill:#ADB8BC;}
	.st11{fill:#107510;}
	.st12{fill:#7FE5D8;}
	.st13{fill:#AF4AD1;}
	.st14{fill:#E02B7E;}
	.st15{fill:#E04038;}
	.st16{fill:#AFD7DD;}
	.st17{fill:#E0A010;}
	.st18{fill:#E0D5A4;}
	.st19{fill:#12B2B2;}
	.st20{fill:#12D66B;}
	.st21{fill:#E1A9FF;}
	.st22{fill:#1362A8;}
	.st23{fill:#E2378D;}
	.st24{fill:#E29C37;}
	.st25{fill:#E2B90E;}
	.st26{fill:#E2BF91;}
	.st27{fill:#E2CBAA;}
	.st28{fill:#14A594;}
	.st29{fill:#E4E9ED;}
	.st30{fill:#4A5D60;}
	.st31{fill:#E5B076;}
	.st32{fill:#E5B1C4;}
	.st33{fill:#E5E4C3;}
	.st34{fill:#4B6466;}
	.st35{fill:#E6FF2E;}
	.st36{fill:#18AA67;}
	.st37{fill:#E86207;}
	.st38{fill:#E8A113;}
	.st39{fill:#E8B5A6;}
	.st40{fill:#E8E8ED;}
	.st41{fill:#4E5154;}
	.st42{fill:#E9F1F4;}
	.st43{fill:#4F4B48;}
	.st44{fill:#4F74E8;}
	.st45{fill:#808E93;}
	.st46{fill:#80949B;}
	.st47{fill:#80EDAC;}
	.st48{fill:#B122E0;}
	.st49{fill:#B2C4CC;}
	.st50{fill:#83D839;}
	.st51{fill:#B3C6C6;}
	.st52{fill:none;stroke:#33363A;stroke-width:3;stroke-linecap:round;stroke-linejoin:round;stroke-miterlimit:10;}
	.st53{fill:#1A8E1C;}
	.st54{fill:#1A93D6;}
	.st55{fill:#B50B0B;}
	.st56{fill:#1AD88F;}
	.st57{fill:#B5DAF4;}
	.st58{fill:#EA7B1F;}
	.st59{fill:#EA81BD;}
	.st60{fill:#87B8D6;}
	.st61{fill:#87C3F4;}
	.st62{fill:#EAC79D;}
	.st63{fill:#EADF11;}
	.st64{fill:#EAE4C5;}
	.st65{fill:#B78094;}
	.st66{fill:#8844D8;}
	.st67{fill:#EBF4F7;}
	.st68{fill:#893015;}
	.st69{fill:#89410B;}
	.st70{fill:#899BA3;}
	.st71{fill:#EDE3B9;}
	.st72{enable-background:new    ;}
	.st73{fill:#50FF9F;}
	.st74{fill:#EEDCF4;}
	.st75{fill:#EFA37D;}
	.st76{fill:#EFA3CC;}
	.st77{fill:#EFC99A;}
	.st78{fill:#54AF79;}
	.st79{fill:#BA503A;}
	.st80{fill:#BA8663;}
	.st81{fill:#8B4FE0;}
	.st82{fill:#58ED9B;}
	.st83{fill:#BC7DFF;}
	.st84{fill:#8D9AA3;}
	.st85{fill:#BCCAD3;}
	.st86{fill:#8DE4FF;}
	.st87{fill:#20B518;}
	.st88{fill:#BF44F2;}
	.st89{fill:#21CEA1;}
	.st90{fill:#BFDAE0;}
	.st91{fill:#F0FBFC;}
	.st92{fill:#F2D9A7;}
	.st93{fill:#F2EAC9;}
	.st94{fill:#24D1AF;}
	.st95{fill:#25931C;}
	.st96{fill:#F4C4B3;}
	.st97{fill:#F4D3A2;}
	.st98{fill:#F4D647;}
	.st99{fill:#F4D7B8;}
	.st100{fill:#F4EC8E;}
	.st101{fill:#5B524D;}
	.st102{fill:#F77819;}
	.st103{fill:#F79AE1;}
	.st104{fill:#5E707A;}
	.st105{fill:#F93585;}
	.st106{fill:#F95D5D;}
	.st107{fill:#F9C19B;}
	.st108{fill:#F9CB58;}
	.st109{fill:#F9D2B2;}
	.st110{fill:#F9F07D;}
	.st111{fill:#F9F1D2;}
	.st112{fill:#F9F4B7;}
	.st113{fill:#F9F9E4;}
	.st114{fill:#5F1DAA;}
	.st115{fill:#5F9AD6;}
	.st116{fill:#C0C0C4;}
	.st117{fill:#91EA57;}
	.st118{fill:#C12727;}
	.st119{fill:#C191A0;}
	.st120{fill:#923BB7;}
	.st121{fill:#93A0A3;}
	.st122{fill:#93F9EA;}
	.st123{fill:#93FF5A;}
	.st124{fill:#C4833D;}
	.st125{fill:#95A2A5;}
	.st126{fill:#965514;}
	.st127{fill:#96562C;}
	.st128{fill:#2AF42F;}
	.st129{fill:#C5D7DD;}
	.st130{fill:#C68510;}
	.st131{fill:#C6A86D;}
	.st132{fill:#C6BB8D;}
	.st133{fill:#2C9DCE;}
	.st134{fill:#FBFCF2;}
	.st135{fill:#FC70B0;}
	.st136{fill:#FCE6C8;}
	.st137{fill:#FCF7E3;}
	.st138{fill:#C90D6B;}
	.st139{fill:#FDFEFF;}
	.st140{fill:#FDFFDC;}
	.st141{fill:#FF1A1A;}
	.st142{fill:#FF5252;}
	.st143{fill:#FF5B00;}
	.st144{fill:#FF6155;}
	.st145{fill:#FF630D;}
	.st146{fill:#FF6666;}
	.st147{fill:#FF7676;}
	.st148{fill:#FF7900;}
	.st149{fill:#FF860D;}
	.st150{fill:#FF8B00;}
	.st151{fill:#FF8F8F;}
	.st152{fill:#FF900B;}
	.st153{fill:#FF908A;}
	.st154{fill:#FF960B;}
	.st155{fill:#FF9C0D;}
	.st156{fill:#FFA9D4;}
	.st157{fill:#FFAA00;}
	.st158{fill:#FFAD40;}
	.st159{fill:#FFAF10;}
	.st160{fill:#FFB000;}
	.st161{fill:#FFBE08;}
	.st162{fill:#FFBF31;}
	.st163{fill:#FFC200;}
	.st164{fill:#FFCAE8;}
	.st165{fill:#FFCCF5;}
	.st166{fill:#FFD00B;}
	.st167{fill:#FFD039;}
	.st168{fill:#FFD400;}
	.st169{fill:#FFD833;}
	.st170{fill:#FFDB80;}
	.st171{fill:#FFDDD2;}
	.st172{fill:#FFE6D4;}
	.st173{fill:#FFE6EB;}
	.st174{fill:#FFE98D;}
	.st175{fill:#FFECD2;}
	.st176{fill:#FFF1D9;}
	.st177{fill:#FFF24D;}
	.st178{fill:#FFF3C2;}
	.st179{fill:#FFF4C7;}
	.st180{fill:#FFF800;}
	.st181{fill:#FFF80D;}
	.st182{fill:#FFF9DE;}
	.st183{fill:#FFFBD7;}
	.st184{fill:#FFFBEB;}
	.st185{fill:#FFFCC0;}
	.st186{fill:#FFFCDC;}
	.st187{fill:#FFFFFA;}
	.st188{fill:#FFFFFF;}
	.st189{fill:#63797F;}
	.st190{fill:#65E529;}
	.st191{fill:#66310E;}
	.st192{fill:#663C17;}
	.st193{fill:#9A5AE5;}
	.st194{fill:#CA30EF;}
	.st195{fill:#6892FC;}
	.st196{fill:#9CFFC4;}
	.st197{fill:#CC4306;}
	.st198{fill:#CC549E;}
	.st199{fill:#9E3256;}
	.st200{fill:#CDFFBB;}
	.st201{fill:#CE86AF;}
	.st202{fill:#CED9DD;}
	
		.st203{fill:none;stroke:#33363A;stroke-width:3;stroke-linecap:round;stroke-linejoin:round;stroke-miterlimit:10;stroke-dasharray:6;}
	.st204{fill:#CFE1E2;}
	.st205{fill:#33363A;}
	.st206{fill:#34C166;}
	.st207{fill:#364B5B;}
	.st208{fill:#3662CE;}
	.st209{fill:#36C6FF;}
	.st210{fill:#6ADB9A;}
	.st211{fill:#6D5C4D;}
	.st212{fill:#6EBDF9;}
	.st213{fill:#0031FF;}
	.st214{fill:#0062FF;}
	.st215{fill:#0068FF;}
	.st216{fill:#0086FF;}
	.st217{fill:#009BE8;}
	.st218{fill:#00AAFF;}
	.st219{fill:#D271FF;}
	.st220{fill:#D363A9;}
	.st221{fill:#D3964C;}
	.st222{fill:#D3DFE2;}
	.st223{fill:#D3E0E2;}
	.st224{fill:#D3EFF4;}
	.st225{fill:#063B66;}
	.st226{fill:#D60909;}
	.st227{fill:#D61D1D;}
	.st228{fill:#D7F0FF;}
	.st229{fill:#09B285;}
	.st230{fill:#D8D593;}
	.st231{fill:#D8E2EA;}
	.st232{fill:#D8E5EA;}
	.st233{fill:#3E5054;}
	.st234{fill:#D988FF;}
	.st235{fill:#D9E7E8;}
	.st236{fill:#702252;}
	.st237{fill:#70D3E0;}
	.st238{fill:#A02FF2;}
	.st239{fill:#A2F255;}
	.st240{fill:#A35616;}
	.st241{fill:#A3CCCC;}
	.st242{fill:#0A6ADD;}
	.st243{fill:#A5145D;}
	.st244{fill:#A57555;}
	.st245{fill:#77D6FC;}
	.st246{fill:#7815CE;}
	.st247{fill:#A7BBC1;}
	.st248{fill:#DBD279;}
	.st249{fill:#0D5C9E;}
	.st250{fill:#A83C11;}
	.st251{fill:#A8633D;}
	.st252{fill:#A8A3E5;}
	.st253{fill:#DCE6EA;}
	.st254{fill:#DCE7EA;}
	.st255{fill:#A962E8;}
	.st256{fill:#DD2466;}
	.st257{fill:#DDC38A;}
	.st258{fill:#DDD2B1;}
	.st259{fill:#DFE7E8;}
	.st260{fill:#42B1E8;}
	.st261{fill:#436377;}
	.st262{fill:#43B530;}
]]>
</style>
<g>
	<g>
		<g>
			<path class="st226" d="M97.973,12.122c-13.829,0-25.968,7.763-30.237,19.287c-0.061,0.169-0.138,0.321-0.236,0.465
				c-0.094-0.144-0.176-0.296-0.237-0.465c-4.263-11.524-16.405-19.287-30.243-19.287c-17.495,0-31.746,12.548-31.746,27.957
				c0,5.605,1.857,11.021,5.409,15.633c0.033,0.031,0.056,0.082,0.056,0.082c0.113,0.129,0.209,0.211,0.295,0.291l56.467,66.793
				l56.463-66.793c0.092-0.08,0.188-0.162,0.304-0.291c0,0,0.017-0.051,0.052-0.082c3.556-4.611,5.41-10.027,5.41-15.633
				C129.728,24.67,115.477,12.122,97.973,12.122z"/>
		</g>
		<g>
			<path class="st141" d="M67.262,31.409c-4.263-11.524-16.405-19.287-30.243-19.287c-17.495,0-31.746,12.548-31.746,27.957
				c0,5.605,1.857,11.021,5.409,15.633c0.033,0.031,0.056,0.082,0.056,0.082c0.113,0.129,0.209,0.211,0.295,0.291l56.467,66.793
				V31.874C67.405,31.73,67.323,31.578,67.262,31.409z"/>
		</g>
		<g>
			<path class="st205" d="M67.499,124.378c-0.441,0-0.86-0.194-1.146-0.532L9.947,57.125c-0.119-0.11-0.221-0.209-0.336-0.34
				c-0.051-0.058-0.097-0.12-0.138-0.185c-3.729-4.853-5.7-10.565-5.7-16.521c0-16.243,14.914-29.457,33.246-29.457
				c13.344,0,25.213,6.948,30.481,17.561c5.281-10.617,17.144-17.561,30.473-17.561c18.337,0,33.255,13.214,33.255,29.457
				c0,5.949-1.964,11.651-5.68,16.494c-0.048,0.08-0.104,0.155-0.167,0.225c-0.129,0.143-0.24,0.247-0.344,0.34l-56.391,66.708
				C68.359,124.184,67.94,124.378,67.499,124.378z M11.91,54.852c0.031,0.032,0.061,0.058,0.087,0.082
				c0.047,0.043,0.14,0.134,0.181,0.183l55.321,65.438l55.317-65.438c0.049-0.058,0.102-0.112,0.16-0.162
				c0.041-0.036,0.077-0.066,0.114-0.102c0.014-0.019,0.027-0.037,0.041-0.055l-0.002-0.001c3.335-4.325,5.098-9.415,5.098-14.717
				c0-14.588-13.572-26.457-30.255-26.457c-13.188,0-24.774,7.357-28.831,18.308c-0.1,0.278-0.234,0.542-0.407,0.793
				c-0.284,0.412-0.772,0.634-1.254,0.65c-0.5-0.006-0.965-0.261-1.238-0.68c-0.167-0.256-0.295-0.508-0.391-0.772
				c-4.047-10.943-15.636-18.3-28.833-18.3c-16.678,0-30.246,11.869-30.246,26.457c0,5.298,1.763,10.388,5.098,14.717l-0.001,0.001
				C11.882,54.815,11.896,54.834,11.91,54.852z"/>
		</g>
	</g>
	<g>
		<g>
			<circle class="st209" cx="67.499" cy="68.556" r="21.931"/>
		</g>
		<g>
			<ellipse class="st216" cx="67.499" cy="68.556" rx="21.931" ry="16.799"/>
		</g>
		<g>
			<path class="st188" d="M45.568,68.556c0,12.113,9.819,21.932,21.931,21.932c12.112,0,21.931-9.818,21.931-21.932H45.568z"/>
		</g>
		<g>
			<path class="st232" d="M67.499,85.354c12.112,0,21.931-7.521,21.931-16.799H45.568C45.568,77.833,55.388,85.354,67.499,85.354z"
				/>
		</g>
		<g>
			<path class="st205" d="M67.499,91.987c-12.92,0-23.431-10.511-23.431-23.432c0-12.919,10.511-23.43,23.431-23.43
				S90.93,55.637,90.93,68.556C90.93,81.476,80.419,91.987,67.499,91.987z M67.499,48.126c-11.266,0-20.431,9.165-20.431,20.43
				c0,11.266,9.165,20.432,20.431,20.432S87.93,79.822,87.93,68.556C87.93,57.291,78.765,48.126,67.499,48.126z"/>
		</g>
		<g>
			<path class="st205" d="M89.43,70.056H45.568c-0.829,0-1.5-0.671-1.5-1.5s0.671-1.5,1.5-1.5H89.43c0.829,0,1.5,0.671,1.5,1.5
				S90.258,70.056,89.43,70.056z"/>
		</g>
		<g>
			<g>
				<circle class="st247" cx="67.499" cy="71.068" r="7.251"/>
			</g>
			<g>
				<circle class="st188" cx="67.499" cy="68.604" r="7.251"/>
			</g>
			<g>
				<path class="st232" d="M62.372,73.731c-2.832-2.832-2.832-7.424,0-10.256s7.423-2.832,10.254,0"/>
			</g>
			<g>
				<path class="st205" d="M67.5,77.354c-2.337,0-4.535-0.91-6.188-2.562c-3.413-3.413-3.413-8.965,0-12.377
					c1.653-1.653,3.851-2.563,6.188-2.563s4.535,0.911,6.188,2.563s2.563,3.851,2.563,6.188s-0.911,4.536-2.564,6.189
					C72.034,76.444,69.836,77.354,67.5,77.354z M67.5,62.852c-1.536,0-2.98,0.598-4.067,1.685c-2.243,2.243-2.243,5.892,0,8.135
					c1.086,1.085,2.531,1.683,4.067,1.683s2.98-0.598,4.066-1.684c1.087-1.086,1.685-2.531,1.685-4.067s-0.598-2.981-1.685-4.067
					C70.479,63.45,69.035,62.852,67.5,62.852z"/>
			</g>
		</g>
	</g>
	<g>
		<path class="st205" d="M67.536,42.38c-0.829,0-1.5-0.671-1.5-1.5v-9.471c0-0.829,0.671-1.5,1.5-1.5s1.5,0.671,1.5,1.5v9.471
			C69.036,41.708,68.365,42.38,67.536,42.38z"/>
	</g>
	<g>
		<path class="st205" d="M67.536,121.833c-0.829,0-1.5-0.671-1.5-1.5v-9.47c0-0.829,0.671-1.5,1.5-1.5s1.5,0.671,1.5,1.5v9.47
			C69.036,121.162,68.365,121.833,67.536,121.833z"/>
	</g>
	<g>
		<path class="st205" d="M67.536,101.457c-0.829,0-1.5-0.671-1.5-1.5v-9.47c0-0.829,0.671-1.5,1.5-1.5s1.5,0.671,1.5,1.5v9.47
			C69.036,100.786,68.365,101.457,67.536,101.457z"/>
	</g>
	<g>
		<path class="st205" d="M67.536,48.246c-0.829,0-1.5-0.671-1.5-1.5v-1.409c0-0.829,0.671-1.5,1.5-1.5s1.5,0.671,1.5,1.5v1.409
			C69.036,47.575,68.365,48.246,67.536,48.246z"/>
	</g>
	<g>
		<path class="st205" d="M67.536,107.63c-0.829,0-1.5-0.671-1.5-1.5v-1.409c0-0.829,0.671-1.5,1.5-1.5s1.5,0.671,1.5,1.5v1.409
			C69.036,106.958,68.365,107.63,67.536,107.63z"/>
	</g>
</g>
</svg>
