<?xml version="1.0" encoding="utf-8"?>
<!-- Generator: Adobe Illustrator 16.0.0, SVG Export Plug-In . SVG Version: 6.00 Build 0)  -->
<!DOCTYPE svg PUBLIC "-//W3C//DTD SVG 1.1//EN" "http://www.w3.org/Graphics/SVG/1.1/DTD/svg11.dtd">
<svg version="1.1" id="Layer_1" xmlns="http://www.w3.org/2000/svg" xmlns:xlink="http://www.w3.org/1999/xlink" x="0px" y="0px"
	 width="135px" height="135px" viewBox="0 0 135 135" style="enable-background:new 0 0 135 135;" xml:space="preserve">
<style type="text/css">
<![CDATA[
	.st0{fill:#465652;}
	.st1{fill:#AAB9BA;}
	.st2{fill:#47C67B;}
	.st3{fill:#AAC8D1;}
	.st4{fill:none;stroke:#E83834;stroke-width:6;stroke-linecap:round;stroke-linejoin:round;stroke-miterlimit:10;}
	.st5{fill:#7BC67B;}
	.st6{fill:#7BC7FF;}
	.st7{fill:#7C34C1;}
	.st8{fill:#7C8D96;}
	.st9{fill:#AD2707;}
	.st10{fill:#ADB8BC;}
	.st11{fill:#107510;}
	.st12{fill:#7FE5D8;}
	.st13{fill:#AF4AD1;}
	.st14{fill:#E02B7E;}
	.st15{fill:#E04038;}
	.st16{fill:#AFD7DD;}
	.st17{fill:#E0A010;}
	.st18{fill:#E0D5A4;}
	.st19{fill:#12B2B2;}
	.st20{fill:#12D66B;}
	.st21{fill:#E1A9FF;}
	.st22{fill:#1362A8;}
	.st23{fill:#E2378D;}
	.st24{fill:#E29C37;}
	.st25{fill:#E2B90E;}
	.st26{fill:#E2BF91;}
	.st27{fill:#E2CBAA;}
	.st28{fill:#14A594;}
	.st29{fill:#E4E9ED;}
	.st30{fill:#4A5D60;}
	.st31{fill:#E5B076;}
	.st32{fill:#E5B1C4;}
	.st33{fill:#E5E4C3;}
	.st34{fill:#4B6466;}
	.st35{fill:#E6FF2E;}
	.st36{fill:#18AA67;}
	.st37{fill:#E86207;}
	.st38{fill:#E8A113;}
	.st39{fill:#E8B5A6;}
	.st40{fill:#E8E8ED;}
	.st41{fill:#4E5154;}
	.st42{fill:#E9F1F4;}
	.st43{fill:#4F4B48;}
	.st44{fill:#4F74E8;}
	.st45{fill:#808E93;}
	.st46{fill:#80949B;}
	.st47{fill:#80EDAC;}
	.st48{fill:#B122E0;}
	.st49{fill:#B2C4CC;}
	.st50{fill:#83D839;}
	.st51{fill:#B3C6C6;}
	.st52{fill:none;stroke:#33363A;stroke-width:3;stroke-linecap:round;stroke-linejoin:round;stroke-miterlimit:10;}
	.st53{fill:#1A8E1C;}
	.st54{fill:#1A93D6;}
	.st55{fill:#B50B0B;}
	.st56{fill:#1AD88F;}
	.st57{fill:#B5DAF4;}
	.st58{fill:#EA7B1F;}
	.st59{fill:#EA81BD;}
	.st60{fill:#87B8D6;}
	.st61{fill:#87C3F4;}
	.st62{fill:#EAC79D;}
	.st63{fill:#EADF11;}
	.st64{fill:#EAE4C5;}
	.st65{fill:#B78094;}
	.st66{fill:#8844D8;}
	.st67{fill:#EBF4F7;}
	.st68{fill:#893015;}
	.st69{fill:#89410B;}
	.st70{fill:#899BA3;}
	.st71{fill:#EDE3B9;}
	.st72{enable-background:new    ;}
	.st73{fill:#50FF9F;}
	.st74{fill:#EEDCF4;}
	.st75{fill:#EFA37D;}
	.st76{fill:#EFA3CC;}
	.st77{fill:#EFC99A;}
	.st78{fill:#54AF79;}
	.st79{fill:#BA503A;}
	.st80{fill:#BA8663;}
	.st81{fill:#8B4FE0;}
	.st82{fill:#58ED9B;}
	.st83{fill:#BC7DFF;}
	.st84{fill:#8D9AA3;}
	.st85{fill:#BCCAD3;}
	.st86{fill:#8DE4FF;}
	.st87{fill:#20B518;}
	.st88{fill:#BF44F2;}
	.st89{fill:#21CEA1;}
	.st90{fill:#BFDAE0;}
	.st91{fill:#F0FBFC;}
	.st92{fill:#F2D9A7;}
	.st93{fill:#F2EAC9;}
	.st94{fill:#24D1AF;}
	.st95{fill:#25931C;}
	.st96{fill:#F4C4B3;}
	.st97{fill:#F4D3A2;}
	.st98{fill:#F4D647;}
	.st99{fill:#F4D7B8;}
	.st100{fill:#F4EC8E;}
	.st101{fill:#5B524D;}
	.st102{fill:#F77819;}
	.st103{fill:#F79AE1;}
	.st104{fill:#5E707A;}
	.st105{fill:#F93585;}
	.st106{fill:#F95D5D;}
	.st107{fill:#F9C19B;}
	.st108{fill:#F9CB58;}
	.st109{fill:#F9D2B2;}
	.st110{fill:#F9F07D;}
	.st111{fill:#F9F1D2;}
	.st112{fill:#F9F4B7;}
	.st113{fill:#F9F9E4;}
	.st114{fill:#5F1DAA;}
	.st115{fill:#5F9AD6;}
	.st116{fill:#C0C0C4;}
	.st117{fill:#91EA57;}
	.st118{fill:#C12727;}
	.st119{fill:#C191A0;}
	.st120{fill:#923BB7;}
	.st121{fill:#93A0A3;}
	.st122{fill:#93F9EA;}
	.st123{fill:#93FF5A;}
	.st124{fill:#C4833D;}
	.st125{fill:#95A2A5;}
	.st126{fill:#965514;}
	.st127{fill:#96562C;}
	.st128{fill:#2AF42F;}
	.st129{fill:#C5D7DD;}
	.st130{fill:#C68510;}
	.st131{fill:#C6A86D;}
	.st132{fill:#C6BB8D;}
	.st133{fill:#2C9DCE;}
	.st134{fill:#FBFCF2;}
	.st135{fill:#FC70B0;}
	.st136{fill:#FCE6C8;}
	.st137{fill:#FCF7E3;}
	.st138{fill:#C90D6B;}
	.st139{fill:#FDFEFF;}
	.st140{fill:#FDFFDC;}
	.st141{fill:#FF1A1A;}
	.st142{fill:#FF5252;}
	.st143{fill:#FF5B00;}
	.st144{fill:#FF6155;}
	.st145{fill:#FF630D;}
	.st146{fill:#FF6666;}
	.st147{fill:#FF7676;}
	.st148{fill:#FF7900;}
	.st149{fill:#FF860D;}
	.st150{fill:#FF8B00;}
	.st151{fill:#FF8F8F;}
	.st152{fill:#FF900B;}
	.st153{fill:#FF908A;}
	.st154{fill:#FF960B;}
	.st155{fill:#FF9C0D;}
	.st156{fill:#FFA9D4;}
	.st157{fill:#FFAA00;}
	.st158{fill:#FFAD40;}
	.st159{fill:#FFAF10;}
	.st160{fill:#FFB000;}
	.st161{fill:#FFBE08;}
	.st162{fill:#FFBF31;}
	.st163{fill:#FFC200;}
	.st164{fill:#FFCAE8;}
	.st165{fill:#FFCCF5;}
	.st166{fill:#FFD00B;}
	.st167{fill:#FFD039;}
	.st168{fill:#FFD400;}
	.st169{fill:#FFD833;}
	.st170{fill:#FFDB80;}
	.st171{fill:#FFDDD2;}
	.st172{fill:#FFE6D4;}
	.st173{fill:#FFE6EB;}
	.st174{fill:#FFE98D;}
	.st175{fill:#FFECD2;}
	.st176{fill:#FFF1D9;}
	.st177{fill:#FFF24D;}
	.st178{fill:#FFF3C2;}
	.st179{fill:#FFF4C7;}
	.st180{fill:#FFF800;}
	.st181{fill:#FFF80D;}
	.st182{fill:#FFF9DE;}
	.st183{fill:#FFFBD7;}
	.st184{fill:#FFFBEB;}
	.st185{fill:#FFFCC0;}
	.st186{fill:#FFFCDC;}
	.st187{fill:#FFFFFA;}
	.st188{fill:#FFFFFF;}
	.st189{fill:#63797F;}
	.st190{fill:#65E529;}
	.st191{fill:#66310E;}
	.st192{fill:#663C17;}
	.st193{fill:#9A5AE5;}
	.st194{fill:#CA30EF;}
	.st195{fill:#6892FC;}
	.st196{fill:#9CFFC4;}
	.st197{fill:#CC4306;}
	.st198{fill:#CC549E;}
	.st199{fill:#9E3256;}
	.st200{fill:#CDFFBB;}
	.st201{fill:#CE86AF;}
	.st202{fill:#CED9DD;}
	
		.st203{fill:none;stroke:#33363A;stroke-width:3;stroke-linecap:round;stroke-linejoin:round;stroke-miterlimit:10;stroke-dasharray:6;}
	.st204{fill:#CFE1E2;}
	.st205{fill:#33363A;}
	.st206{fill:#34C166;}
	.st207{fill:#364B5B;}
	.st208{fill:#3662CE;}
	.st209{fill:#36C6FF;}
	.st210{fill:#6ADB9A;}
	.st211{fill:#6D5C4D;}
	.st212{fill:#6EBDF9;}
	.st213{fill:#0031FF;}
	.st214{fill:#0062FF;}
	.st215{fill:#0068FF;}
	.st216{fill:#0086FF;}
	.st217{fill:#009BE8;}
	.st218{fill:#00AAFF;}
	.st219{fill:#D271FF;}
	.st220{fill:#D363A9;}
	.st221{fill:#D3964C;}
	.st222{fill:#D3DFE2;}
	.st223{fill:#D3E0E2;}
	.st224{fill:#D3EFF4;}
	.st225{fill:#063B66;}
	.st226{fill:#D60909;}
	.st227{fill:#D61D1D;}
	.st228{fill:#D7F0FF;}
	.st229{fill:#09B285;}
	.st230{fill:#D8D593;}
	.st231{fill:#D8E2EA;}
	.st232{fill:#D8E5EA;}
	.st233{fill:#3E5054;}
	.st234{fill:#D988FF;}
	.st235{fill:#D9E7E8;}
	.st236{fill:#702252;}
	.st237{fill:#70D3E0;}
	.st238{fill:#A02FF2;}
	.st239{fill:#A2F255;}
	.st240{fill:#A35616;}
	.st241{fill:#A3CCCC;}
	.st242{fill:#0A6ADD;}
	.st243{fill:#A5145D;}
	.st244{fill:#A57555;}
	.st245{fill:#77D6FC;}
	.st246{fill:#7815CE;}
	.st247{fill:#A7BBC1;}
	.st248{fill:#DBD279;}
	.st249{fill:#0D5C9E;}
	.st250{fill:#A83C11;}
	.st251{fill:#A8633D;}
	.st252{fill:#A8A3E5;}
	.st253{fill:#DCE6EA;}
	.st254{fill:#DCE7EA;}
	.st255{fill:#A962E8;}
	.st256{fill:#DD2466;}
	.st257{fill:#DDC38A;}
	.st258{fill:#DDD2B1;}
	.st259{fill:#DFE7E8;}
	.st260{fill:#42B1E8;}
	.st261{fill:#436377;}
	.st262{fill:#43B530;}
]]>
</style>
<g>
	<g>
		<g>
			<path class="st84" d="M84.342,83.978c0.545-11.883-13.086-0.926-24.305-0.926c-11.217,0-15.51,0.998-15.51,5.855
				c0,4.859,9.092,8.798,20.309,8.798C80.809,97.705,84.119,88.83,84.342,83.978z"/>
		</g>
		<g>
			<path class="st104" d="M74.971,79.526c0.758,0.85,1.143,2.26,1.043,4.451c-0.203,4.418-2.971,12.17-15.52,13.521
				c-9.129-0.861-15.967-4.379-15.967-8.592c0-4.857,4.293-5.855,15.51-5.855C65.025,83.052,70.486,80.888,74.971,79.526z"/>
		</g>
		<g>
			<path class="st205" d="M64.836,99.205c-12.433,0-21.809-4.427-21.809-10.298c0-6.828,7.05-7.355,17.01-7.355
				c3.78,0,8.018-1.376,11.756-2.59c3.332-1.082,6.21-2.017,8.587-2.017c1.683,0,3.009,0.494,3.939,1.469
				c1.143,1.196,1.64,3.038,1.521,5.632c-0.097,2.125-0.784,6.208-4.289,9.68C77.881,97.362,72.258,99.205,64.836,99.205z
				 M80.38,79.945c-1.902,0-4.699,0.908-7.66,1.87c-3.95,1.283-8.428,2.737-12.683,2.737c-11.987,0-14.01,1.344-14.01,4.355
				c0,3.452,7.725,7.298,18.809,7.298c16.186,0,17.875-9.412,18.008-12.296c0.077-1.683-0.163-2.867-0.693-3.422
				C82.022,80.353,81.633,79.945,80.38,79.945z"/>
		</g>
		<g>
			<path class="st205" d="M84.357,99.492h-1.143c-0.828,0-1.5-0.671-1.5-1.5s0.672-1.5,1.5-1.5h1.143c0.828,0,1.5,0.671,1.5,1.5
				S85.186,99.492,84.357,99.492z"/>
		</g>
		<g>
			<path class="st205" d="M87.416,95.663h-1.145c-0.828,0-1.5-0.671-1.5-1.5s0.672-1.5,1.5-1.5h1.145c0.828,0,1.5,0.671,1.5,1.5
				S88.244,95.663,87.416,95.663z"/>
		</g>
		<g>
			<path class="st205" d="M89.33,91.643h-1.143c-0.828,0-1.5-0.671-1.5-1.5s0.672-1.5,1.5-1.5h1.143c0.828,0,1.5,0.671,1.5,1.5
				S90.158,91.643,89.33,91.643z"/>
		</g>
		<g>
			<path class="st205" d="M90.473,87.048H89.33c-0.828,0-1.5-0.671-1.5-1.5s0.672-1.5,1.5-1.5h1.143c0.828,0,1.5,0.671,1.5,1.5
				S91.301,87.048,90.473,87.048z"/>
		</g>
		<g>
			<path class="st205" d="M90.473,82.185H89.33c-0.828,0-1.5-0.671-1.5-1.5s0.672-1.5,1.5-1.5h1.143c0.828,0,1.5,0.671,1.5,1.5
				S91.301,82.185,90.473,82.185z"/>
		</g>
	</g>
	<g>
		<g>
			<g>
				<path class="st84" d="M45.021,51.023c0.545,11.882-13.086,0.925-24.303,0.925c-11.219,0-15.512-0.998-15.512-5.855
					c0-4.859,9.092-8.798,20.311-8.798C41.49,37.295,44.799,46.17,45.021,51.023z"/>
			</g>
			<g>
				<path class="st104" d="M35.65,55.474c0.76-0.85,1.143-2.26,1.043-4.45c-0.203-4.419-2.969-12.171-15.52-13.522
					c-9.129,0.861-15.967,4.379-15.967,8.592c0,4.857,4.293,5.855,15.512,5.855C25.705,51.948,31.166,54.112,35.65,55.474z"/>
			</g>
			<g>
				<path class="st205" d="M41.061,58.055c-2.378,0-5.256-0.935-8.588-2.017c-3.738-1.214-7.975-2.59-11.754-2.59
					c-9.961,0-17.012-0.528-17.012-7.355c0-5.871,9.377-10.298,21.811-10.298c9.817,0,20.489,3.982,21.002,15.16
					c0.119,2.594-0.378,4.436-1.52,5.631C44.068,57.561,42.743,58.055,41.061,58.055z M25.518,38.795
					c-11.085,0-18.811,3.846-18.811,7.298c0,3.012,2.023,4.355,14.012,4.355c4.254,0,8.731,1.454,12.681,2.737
					c2.961,0.962,5.759,1.87,7.661,1.87c1.253,0,1.642-0.407,1.77-0.542c0.53-0.555,0.771-1.738,0.693-3.421
					C43.391,48.208,41.701,38.795,25.518,38.795z"/>
			</g>
			<g>
				<path class="st205" d="M45.037,38.508h-1.143c-0.828,0-1.5-0.671-1.5-1.5s0.672-1.5,1.5-1.5h1.143c0.828,0,1.5,0.671,1.5,1.5
					S45.865,38.508,45.037,38.508z"/>
			</g>
			<g>
				<path class="st205" d="M48.096,42.337h-1.145c-0.828,0-1.5-0.671-1.5-1.5s0.672-1.5,1.5-1.5h1.145c0.828,0,1.5,0.671,1.5,1.5
					S48.924,42.337,48.096,42.337z"/>
			</g>
			<g>
				<path class="st205" d="M50.01,46.357h-1.143c-0.828,0-1.5-0.671-1.5-1.5s0.672-1.5,1.5-1.5h1.143c0.828,0,1.5,0.671,1.5,1.5
					S50.838,46.357,50.01,46.357z"/>
			</g>
			<g>
				<path class="st205" d="M51.154,50.952H50.01c-0.828,0-1.5-0.671-1.5-1.5s0.672-1.5,1.5-1.5h1.145c0.828,0,1.5,0.671,1.5,1.5
					S51.982,50.952,51.154,50.952z"/>
			</g>
			<g>
				<path class="st205" d="M51.154,55.815H50.01c-0.828,0-1.5-0.671-1.5-1.5s0.672-1.5,1.5-1.5h1.145c0.828,0,1.5,0.671,1.5,1.5
					S51.982,55.815,51.154,55.815z"/>
			</g>
		</g>
		<g>
			<g>
				<path class="st84" d="M123.662,51.023c0.545,11.882-13.088,0.925-24.305,0.925s-15.512-0.998-15.512-5.855
					c0-4.859,9.094-8.798,20.311-8.798C120.129,37.295,123.439,46.17,123.662,51.023z"/>
			</g>
			<g>
				<path class="st104" d="M114.289,55.474c0.76-0.85,1.145-2.26,1.043-4.45c-0.203-4.419-2.969-12.171-15.52-13.522
					c-9.127,0.861-15.967,4.379-15.967,8.592c0,4.857,4.295,5.855,15.512,5.855C104.344,51.948,109.807,54.112,114.289,55.474z"/>
			</g>
			<g>
				<path class="st205" d="M119.7,58.055c-2.378,0-5.256-0.935-8.589-2.017c-3.737-1.214-7.975-2.59-11.754-2.59
					c-9.961,0-17.012-0.528-17.012-7.355c0-5.871,9.377-10.298,21.811-10.298c9.818,0,20.491,3.982,21.004,15.16
					c0.119,2.594-0.378,4.436-1.521,5.631C122.709,57.561,121.384,58.055,119.7,58.055z M104.156,38.795
					c-11.085,0-18.811,3.846-18.811,7.298c0,3.012,2.023,4.355,14.012,4.355c4.254,0,8.731,1.454,12.681,2.737
					c2.962,0.961,5.76,1.87,7.662,1.87c1.253,0,1.643-0.408,1.771-0.542c0.53-0.555,0.771-1.738,0.693-3.421
					C122.031,48.208,120.342,38.795,104.156,38.795z"/>
			</g>
			<g>
				<path class="st205" d="M123.678,38.508h-1.145c-0.828,0-1.5-0.671-1.5-1.5s0.672-1.5,1.5-1.5h1.145c0.828,0,1.5,0.671,1.5,1.5
					S124.506,38.508,123.678,38.508z"/>
			</g>
			<g>
				<path class="st205" d="M126.734,42.337h-1.143c-0.828,0-1.5-0.671-1.5-1.5s0.672-1.5,1.5-1.5h1.143c0.828,0,1.5,0.671,1.5,1.5
					S127.562,42.337,126.734,42.337z"/>
			</g>
			<g>
				<path class="st205" d="M128.65,46.357h-1.145c-0.828,0-1.5-0.671-1.5-1.5s0.672-1.5,1.5-1.5h1.145c0.828,0,1.5,0.671,1.5,1.5
					S129.479,46.357,128.65,46.357z"/>
			</g>
			<g>
				<path class="st205" d="M129.793,50.952h-1.143c-0.828,0-1.5-0.671-1.5-1.5s0.672-1.5,1.5-1.5h1.143c0.828,0,1.5,0.671,1.5,1.5
					S130.621,50.952,129.793,50.952z"/>
			</g>
			<g>
				<path class="st205" d="M129.793,55.815h-1.143c-0.828,0-1.5-0.671-1.5-1.5s0.672-1.5,1.5-1.5h1.143c0.828,0,1.5,0.671,1.5,1.5
					S130.621,55.815,129.793,55.815z"/>
			</g>
		</g>
	</g>
	<g>
		<g>
			<path class="st205" d="M43.615,91.643h-7.777c-0.828,0-1.5-0.671-1.5-1.5s0.672-1.5,1.5-1.5h7.777c0.828,0,1.5,0.671,1.5,1.5
				S44.443,91.643,43.615,91.643z"/>
		</g>
		<g>
			<path class="st205" d="M29.404,91.643h-0.09c-0.828,0-1.5-0.671-1.5-1.5s0.672-1.5,1.5-1.5s1.545,0.671,1.545,1.5
				S30.232,91.643,29.404,91.643z"/>
		</g>
		<g>
			<path class="st205" d="M24.213,91.643h-0.09c-0.828,0-1.5-0.671-1.5-1.5s0.672-1.5,1.5-1.5s1.545,0.671,1.545,1.5
				S25.041,91.643,24.213,91.643z"/>
		</g>
		<g>
			<path class="st205" d="M19.021,91.643h-0.09c-0.828,0-1.5-0.671-1.5-1.5s0.672-1.5,1.5-1.5s1.545,0.671,1.545,1.5
				S19.85,91.643,19.021,91.643z"/>
		</g>
	</g>
	<g>
		<g>
			<path class="st205" d="M82.406,48.425h-7.777c-0.828,0-1.5-0.671-1.5-1.5s0.672-1.5,1.5-1.5h7.777c0.828,0,1.5,0.671,1.5,1.5
				S83.234,48.425,82.406,48.425z"/>
		</g>
		<g>
			<path class="st205" d="M68.195,48.425h-0.09c-0.828,0-1.5-0.671-1.5-1.5s0.672-1.5,1.5-1.5s1.545,0.671,1.545,1.5
				S69.023,48.425,68.195,48.425z"/>
		</g>
		<g>
			<path class="st205" d="M63.004,48.425h-0.09c-0.828,0-1.5-0.671-1.5-1.5s0.672-1.5,1.5-1.5s1.545,0.671,1.545,1.5
				S63.832,48.425,63.004,48.425z"/>
		</g>
		<g>
			<path class="st205" d="M57.814,48.425h-0.09c-0.828,0-1.5-0.671-1.5-1.5s0.672-1.5,1.5-1.5s1.545,0.671,1.545,1.5
				S58.643,48.425,57.814,48.425z"/>
		</g>
	</g>
</g>
</svg>
