<?xml version="1.0" encoding="utf-8"?>
<!-- Generator: Adobe Illustrator 16.0.0, SVG Export Plug-In . SVG Version: 6.00 Build 0)  -->
<!DOCTYPE svg PUBLIC "-//W3C//DTD SVG 1.1//EN" "http://www.w3.org/Graphics/SVG/1.1/DTD/svg11.dtd">
<svg version="1.1" id="Layer_1" xmlns="http://www.w3.org/2000/svg" xmlns:xlink="http://www.w3.org/1999/xlink" x="0px" y="0px"
	 width="135px" height="135px" viewBox="0 0 135 135" style="enable-background:new 0 0 135 135;" xml:space="preserve">
<style type="text/css">
<![CDATA[
	.st0{fill:#465652;}
	.st1{fill:#AAB9BA;}
	.st2{fill:#47C67B;}
	.st3{fill:#AAC8D1;}
	.st4{fill:none;stroke:#E83834;stroke-width:6;stroke-linecap:round;stroke-linejoin:round;stroke-miterlimit:10;}
	.st5{fill:#7BC67B;}
	.st6{fill:#7BC7FF;}
	.st7{fill:#7C34C1;}
	.st8{fill:#7C8D96;}
	.st9{fill:#AD2707;}
	.st10{fill:#ADB8BC;}
	.st11{fill:#107510;}
	.st12{fill:#7FE5D8;}
	.st13{fill:#AF4AD1;}
	.st14{fill:#E02B7E;}
	.st15{fill:#E04038;}
	.st16{fill:#AFD7DD;}
	.st17{fill:#E0A010;}
	.st18{fill:#E0D5A4;}
	.st19{fill:#12B2B2;}
	.st20{fill:#12D66B;}
	.st21{fill:#E1A9FF;}
	.st22{fill:#1362A8;}
	.st23{fill:#E2378D;}
	.st24{fill:#E29C37;}
	.st25{fill:#E2B90E;}
	.st26{fill:#E2BF91;}
	.st27{fill:#E2CBAA;}
	.st28{fill:#14A594;}
	.st29{fill:#E4E9ED;}
	.st30{fill:#4A5D60;}
	.st31{fill:#E5B076;}
	.st32{fill:#E5B1C4;}
	.st33{fill:#E5E4C3;}
	.st34{fill:#4B6466;}
	.st35{fill:#E6FF2E;}
	.st36{fill:#18AA67;}
	.st37{fill:#E86207;}
	.st38{fill:#E8A113;}
	.st39{fill:#E8B5A6;}
	.st40{fill:#E8E8ED;}
	.st41{fill:#4E5154;}
	.st42{fill:#E9F1F4;}
	.st43{fill:#4F4B48;}
	.st44{fill:#4F74E8;}
	.st45{fill:#808E93;}
	.st46{fill:#80949B;}
	.st47{fill:#80EDAC;}
	.st48{fill:#B122E0;}
	.st49{fill:#B2C4CC;}
	.st50{fill:#83D839;}
	.st51{fill:#B3C6C6;}
	.st52{fill:none;stroke:#33363A;stroke-width:3;stroke-linecap:round;stroke-linejoin:round;stroke-miterlimit:10;}
	.st53{fill:#1A8E1C;}
	.st54{fill:#1A93D6;}
	.st55{fill:#B50B0B;}
	.st56{fill:#1AD88F;}
	.st57{fill:#B5DAF4;}
	.st58{fill:#EA7B1F;}
	.st59{fill:#EA81BD;}
	.st60{fill:#87B8D6;}
	.st61{fill:#87C3F4;}
	.st62{fill:#EAC79D;}
	.st63{fill:#EADF11;}
	.st64{fill:#EAE4C5;}
	.st65{fill:#B78094;}
	.st66{fill:#8844D8;}
	.st67{fill:#EBF4F7;}
	.st68{fill:#893015;}
	.st69{fill:#89410B;}
	.st70{fill:#899BA3;}
	.st71{fill:#EDE3B9;}
	.st72{enable-background:new    ;}
	.st73{fill:#50FF9F;}
	.st74{fill:#EEDCF4;}
	.st75{fill:#EFA37D;}
	.st76{fill:#EFA3CC;}
	.st77{fill:#EFC99A;}
	.st78{fill:#54AF79;}
	.st79{fill:#BA503A;}
	.st80{fill:#BA8663;}
	.st81{fill:#8B4FE0;}
	.st82{fill:#58ED9B;}
	.st83{fill:#BC7DFF;}
	.st84{fill:#8D9AA3;}
	.st85{fill:#BCCAD3;}
	.st86{fill:#8DE4FF;}
	.st87{fill:#20B518;}
	.st88{fill:#BF44F2;}
	.st89{fill:#21CEA1;}
	.st90{fill:#BFDAE0;}
	.st91{fill:#F0FBFC;}
	.st92{fill:#F2D9A7;}
	.st93{fill:#F2EAC9;}
	.st94{fill:#24D1AF;}
	.st95{fill:#25931C;}
	.st96{fill:#F4C4B3;}
	.st97{fill:#F4D3A2;}
	.st98{fill:#F4D647;}
	.st99{fill:#F4D7B8;}
	.st100{fill:#F4EC8E;}
	.st101{fill:#5B524D;}
	.st102{fill:#F77819;}
	.st103{fill:#F79AE1;}
	.st104{fill:#5E707A;}
	.st105{fill:#F93585;}
	.st106{fill:#F95D5D;}
	.st107{fill:#F9C19B;}
	.st108{fill:#F9CB58;}
	.st109{fill:#F9D2B2;}
	.st110{fill:#F9F07D;}
	.st111{fill:#F9F1D2;}
	.st112{fill:#F9F4B7;}
	.st113{fill:#F9F9E4;}
	.st114{fill:#5F1DAA;}
	.st115{fill:#5F9AD6;}
	.st116{fill:#C0C0C4;}
	.st117{fill:#91EA57;}
	.st118{fill:#C12727;}
	.st119{fill:#C191A0;}
	.st120{fill:#923BB7;}
	.st121{fill:#93A0A3;}
	.st122{fill:#93F9EA;}
	.st123{fill:#93FF5A;}
	.st124{fill:#C4833D;}
	.st125{fill:#95A2A5;}
	.st126{fill:#965514;}
	.st127{fill:#96562C;}
	.st128{fill:#2AF42F;}
	.st129{fill:#C5D7DD;}
	.st130{fill:#C68510;}
	.st131{fill:#C6A86D;}
	.st132{fill:#C6BB8D;}
	.st133{fill:#2C9DCE;}
	.st134{fill:#FBFCF2;}
	.st135{fill:#FC70B0;}
	.st136{fill:#FCE6C8;}
	.st137{fill:#FCF7E3;}
	.st138{fill:#C90D6B;}
	.st139{fill:#FDFEFF;}
	.st140{fill:#FDFFDC;}
	.st141{fill:#FF1A1A;}
	.st142{fill:#FF5252;}
	.st143{fill:#FF5B00;}
	.st144{fill:#FF6155;}
	.st145{fill:#FF630D;}
	.st146{fill:#FF6666;}
	.st147{fill:#FF7676;}
	.st148{fill:#FF7900;}
	.st149{fill:#FF860D;}
	.st150{fill:#FF8B00;}
	.st151{fill:#FF8F8F;}
	.st152{fill:#FF900B;}
	.st153{fill:#FF908A;}
	.st154{fill:#FF960B;}
	.st155{fill:#FF9C0D;}
	.st156{fill:#FFA9D4;}
	.st157{fill:#FFAA00;}
	.st158{fill:#FFAD40;}
	.st159{fill:#FFAF10;}
	.st160{fill:#FFB000;}
	.st161{fill:#FFBE08;}
	.st162{fill:#FFBF31;}
	.st163{fill:#FFC200;}
	.st164{fill:#FFCAE8;}
	.st165{fill:#FFCCF5;}
	.st166{fill:#FFD00B;}
	.st167{fill:#FFD039;}
	.st168{fill:#FFD400;}
	.st169{fill:#FFD833;}
	.st170{fill:#FFDB80;}
	.st171{fill:#FFDDD2;}
	.st172{fill:#FFE6D4;}
	.st173{fill:#FFE6EB;}
	.st174{fill:#FFE98D;}
	.st175{fill:#FFECD2;}
	.st176{fill:#FFF1D9;}
	.st177{fill:#FFF24D;}
	.st178{fill:#FFF3C2;}
	.st179{fill:#FFF4C7;}
	.st180{fill:#FFF800;}
	.st181{fill:#FFF80D;}
	.st182{fill:#FFF9DE;}
	.st183{fill:#FFFBD7;}
	.st184{fill:#FFFBEB;}
	.st185{fill:#FFFCC0;}
	.st186{fill:#FFFCDC;}
	.st187{fill:#FFFFFA;}
	.st188{fill:#FFFFFF;}
	.st189{fill:#63797F;}
	.st190{fill:#65E529;}
	.st191{fill:#66310E;}
	.st192{fill:#663C17;}
	.st193{fill:#9A5AE5;}
	.st194{fill:#CA30EF;}
	.st195{fill:#6892FC;}
	.st196{fill:#9CFFC4;}
	.st197{fill:#CC4306;}
	.st198{fill:#CC549E;}
	.st199{fill:#9E3256;}
	.st200{fill:#CDFFBB;}
	.st201{fill:#CE86AF;}
	.st202{fill:#CED9DD;}
	
		.st203{fill:none;stroke:#33363A;stroke-width:3;stroke-linecap:round;stroke-linejoin:round;stroke-miterlimit:10;stroke-dasharray:6;}
	.st204{fill:#CFE1E2;}
	.st205{fill:#33363A;}
	.st206{fill:#34C166;}
	.st207{fill:#364B5B;}
	.st208{fill:#3662CE;}
	.st209{fill:#36C6FF;}
	.st210{fill:#6ADB9A;}
	.st211{fill:#6D5C4D;}
	.st212{fill:#6EBDF9;}
	.st213{fill:#0031FF;}
	.st214{fill:#0062FF;}
	.st215{fill:#0068FF;}
	.st216{fill:#0086FF;}
	.st217{fill:#009BE8;}
	.st218{fill:#00AAFF;}
	.st219{fill:#D271FF;}
	.st220{fill:#D363A9;}
	.st221{fill:#D3964C;}
	.st222{fill:#D3DFE2;}
	.st223{fill:#D3E0E2;}
	.st224{fill:#D3EFF4;}
	.st225{fill:#063B66;}
	.st226{fill:#D60909;}
	.st227{fill:#D61D1D;}
	.st228{fill:#D7F0FF;}
	.st229{fill:#09B285;}
	.st230{fill:#D8D593;}
	.st231{fill:#D8E2EA;}
	.st232{fill:#D8E5EA;}
	.st233{fill:#3E5054;}
	.st234{fill:#D988FF;}
	.st235{fill:#D9E7E8;}
	.st236{fill:#702252;}
	.st237{fill:#70D3E0;}
	.st238{fill:#A02FF2;}
	.st239{fill:#A2F255;}
	.st240{fill:#A35616;}
	.st241{fill:#A3CCCC;}
	.st242{fill:#0A6ADD;}
	.st243{fill:#A5145D;}
	.st244{fill:#A57555;}
	.st245{fill:#77D6FC;}
	.st246{fill:#7815CE;}
	.st247{fill:#A7BBC1;}
	.st248{fill:#DBD279;}
	.st249{fill:#0D5C9E;}
	.st250{fill:#A83C11;}
	.st251{fill:#A8633D;}
	.st252{fill:#A8A3E5;}
	.st253{fill:#DCE6EA;}
	.st254{fill:#DCE7EA;}
	.st255{fill:#A962E8;}
	.st256{fill:#DD2466;}
	.st257{fill:#DDC38A;}
	.st258{fill:#DDD2B1;}
	.st259{fill:#DFE7E8;}
	.st260{fill:#42B1E8;}
	.st261{fill:#436377;}
	.st262{fill:#43B530;}
]]>
</style>
<g>
	<g>
		<g>
			<path class="st113" d="M102.15,95.333c0,19.139-15.514,34.652-34.65,34.652s-34.65-15.514-34.65-34.652
				c0-19.137,15.514-54.314,34.65-54.314S102.15,76.196,102.15,95.333z"/>
		</g>
		<g>
			<path class="st33" d="M67.5,41.019v88.967c19.137,0,34.65-15.514,34.65-34.652C102.15,76.196,86.637,41.019,67.5,41.019z"/>
		</g>
		<g>
			<g>
				<path class="st33" d="M46.028,114.993c3.197,3.494,6.719,5.203,4.847,6.918c-1.873,1.713-5.984,0.268-9.18-3.227
					c-3.197-3.496-4.271-7.719-2.398-9.432C41.17,107.542,42.831,111.495,46.028,114.993z"/>
			</g>
			<g>
				<path class="st230" d="M88.971,114.993c-3.197,3.494-6.719,5.203-4.848,6.918c1.874,1.713,5.984,0.268,9.181-3.227
					c3.197-3.496,4.271-7.719,2.398-9.432C93.829,107.542,92.168,111.495,88.971,114.993z"/>
			</g>
		</g>
		<g>
			<path class="st205" d="M67.5,131.485c-19.934,0-36.15-16.218-36.15-36.152c0-10.096,4.059-23.86,10.34-35.067
				c7.5-13.379,16.666-20.747,25.81-20.747s18.311,7.368,25.81,20.747c6.281,11.207,10.34,24.972,10.34,35.067
				C103.65,115.268,87.434,131.485,67.5,131.485z M67.5,42.519c-18.142,0-33.15,34.968-33.15,52.814
				c0,18.28,14.871,33.152,33.15,33.152s33.15-14.872,33.15-33.152C100.65,77.486,85.642,42.519,67.5,42.519z"/>
		</g>
		<g>
			<path class="st33" d="M87.852,104.304c-4.509,9.766-13.717,15.121-20.566,11.959s-3.667-8.914,0.842-18.68
				c4.508-9.766,8.634-19.848,15.484-16.686C90.461,84.06,92.359,94.54,87.852,104.304z"/>
		</g>
		<g>
			<path class="st230" d="M83.611,80.897c-6.851-3.162-10.977,6.92-15.484,16.686c-0.213,0.461-0.422,0.91-0.627,1.352v17.416
				c6.828,2.957,15.891-2.379,20.352-12.047C92.359,94.54,90.461,84.06,83.611,80.897z"/>
		</g>
		<g>
			<circle class="st33" cx="47.574" cy="67.671" r="2.201"/>
		</g>
		<g>
			<path class="st33" d="M56.38,57.14c0,0.477-0.386,0.863-0.862,0.863c-0.475,0-0.86-0.387-0.86-0.863
				c0-0.471,0.386-0.859,0.86-0.859C55.994,56.28,56.38,56.669,56.38,57.14z"/>
		</g>
		<g>
			<circle class="st33" cx="51.02" cy="80.306" r="1.244"/>
		</g>
		<g>
			<circle class="st230" cx="70.419" cy="121.388" r="1.245"/>
		</g>
		<g>
			<circle class="st33" cx="64.562" cy="120.144" r="1.244"/>
		</g>
		<g>
			<circle class="st230" cx="82.28" cy="61.507" r="2.545"/>
		</g>
		<g>
			<circle class="st230" cx="89.499" cy="72.36" r="2.489"/>
		</g>
		<g>
			<circle class="st33" cx="54.072" cy="105.728" r="2.488"/>
		</g>
	</g>
	<g>
		<g>
			<g>
				<path class="st205" d="M54.199,21.753H43.748c-0.829,0-1.5-0.672-1.5-1.5V5.015c0-0.828,0.671-1.5,1.5-1.5h10.451
					c0.829,0,1.5,0.672,1.5,1.5v15.238C55.699,21.081,55.028,21.753,54.199,21.753z M45.248,18.753h7.451V6.515h-7.451V18.753z"/>
			</g>
		</g>
		<g>
			<g>
				<path class="st205" d="M62.588,21.753c-0.829,0-1.5-0.672-1.5-1.5V5.015c0-0.828,0.671-1.5,1.5-1.5s1.5,0.672,1.5,1.5v15.238
					C64.088,21.081,63.417,21.753,62.588,21.753z"/>
			</g>
			<g>
				<path class="st205" d="M73.039,21.753c-0.829,0-1.5-0.672-1.5-1.5V5.015c0-0.828,0.671-1.5,1.5-1.5s1.5,0.672,1.5,1.5v15.238
					C74.539,21.081,73.868,21.753,73.039,21.753z"/>
			</g>
			<g>
				<path class="st205" d="M73.039,14.134H62.588c-0.829,0-1.5-0.672-1.5-1.5s0.671-1.5,1.5-1.5h10.451c0.829,0,1.5,0.672,1.5,1.5
					S73.868,14.134,73.039,14.134z"/>
			</g>
		</g>
		<g>
			<g>
				<g>
					<path class="st205" d="M91.252,14.134c-0.829,0-1.5-0.672-1.5-1.5V6.515h-7.451v1.691c0,0.828-0.671,1.5-1.5,1.5
						s-1.5-0.672-1.5-1.5V5.015c0-0.828,0.671-1.5,1.5-1.5h10.451c0.829,0,1.5,0.672,1.5,1.5v7.619
						C92.752,13.462,92.081,14.134,91.252,14.134z"/>
				</g>
			</g>
			<g>
				<path class="st205" d="M91.252,14.134h-5.227c-0.829,0-1.5-0.672-1.5-1.5s0.671-1.5,1.5-1.5h5.227c0.829,0,1.5,0.672,1.5,1.5
					S92.081,14.134,91.252,14.134z"/>
			</g>
			<g>
				<path class="st205" d="M86.025,17.524c-0.829,0-1.5-0.672-1.5-1.5v-3.256c0-0.828,0.671-1.5,1.5-1.5s1.5,0.672,1.5,1.5v3.256
					C87.525,16.853,86.854,17.524,86.025,17.524z"/>
			</g>
			<g>
				<path class="st205" d="M86.03,21.75c-0.4,0-0.79-0.16-1.06-0.44c-0.28-0.279-0.44-0.66-0.44-1.06c0-0.391,0.16-0.78,0.43-1.061
					c0.56-0.55,1.57-0.56,2.12,0c0.29,0.28,0.45,0.67,0.45,1.061c0,0.399-0.16,0.78-0.44,1.06C86.81,21.59,86.42,21.75,86.03,21.75z
					"/>
			</g>
		</g>
	</g>
	<g>
		<g>
			<path class="st205" d="M52.729,90.351c-0.384,0-0.768-0.146-1.061-0.439c-0.586-0.585-0.586-1.535,0-2.121l6.021-6.023
				c0.563-0.562,1.559-0.562,2.122,0l6.022,6.023c0.586,0.586,0.586,1.535,0,2.121s-1.536,0.586-2.121,0l-4.962-4.963l-4.96,4.963
				C53.498,90.204,53.113,90.351,52.729,90.351z"/>
		</g>
		<g>
			<path class="st205" d="M64.773,90.351c-0.384,0-0.768-0.146-1.061-0.439c-0.586-0.585-0.586-1.535,0-2.121l6.021-6.023
				c0.562-0.562,1.559-0.562,2.122,0l6.022,6.023c0.586,0.586,0.586,1.535,0,2.121s-1.536,0.586-2.121,0l-4.962-4.962l-4.959,4.962
				C65.542,90.204,65.157,90.351,64.773,90.351z"/>
		</g>
		<g>
			<path class="st205" d="M76.816,90.351c-0.384,0-0.768-0.146-1.061-0.439c-0.586-0.585-0.586-1.535,0-2.121l6.021-6.023
				c0.562-0.562,1.559-0.562,2.122,0l6.021,6.023c0.585,0.586,0.585,1.536,0,2.121c-0.586,0.586-1.536,0.586-2.122,0l-4.96-4.962
				l-4.959,4.962C77.584,90.204,77.2,90.351,76.816,90.351z"/>
		</g>
		<g>
			<path class="st205" d="M100.901,90.351c-0.384,0-0.768-0.146-1.061-0.439l-4.959-4.962l-4.962,4.962
				c-0.585,0.586-1.535,0.586-2.121,0s-0.586-1.535,0-2.121l6.022-6.023c0.281-0.281,0.663-0.439,1.061-0.439l0,0
				c0.398,0,0.78,0.158,1.061,0.439l6.021,6.023c0.585,0.586,0.585,1.536,0,2.121C101.669,90.204,101.285,90.351,100.901,90.351z"/>
		</g>
	</g>
</g>
</svg>
