<?xml version="1.0" encoding="utf-8"?>
<!-- Generator: Adobe Illustrator 16.0.0, SVG Export Plug-In . SVG Version: 6.00 Build 0)  -->
<!DOCTYPE svg PUBLIC "-//W3C//DTD SVG 1.1//EN" "http://www.w3.org/Graphics/SVG/1.1/DTD/svg11.dtd">
<svg version="1.1" id="Layer_1" xmlns="http://www.w3.org/2000/svg" xmlns:xlink="http://www.w3.org/1999/xlink" x="0px" y="0px"
	 width="135px" height="135px" viewBox="0 0 135 135" style="enable-background:new 0 0 135 135;" xml:space="preserve">
<style type="text/css">
<![CDATA[
	.st0{fill:#465652;}
	.st1{fill:#AAB9BA;}
	.st2{fill:#47C67B;}
	.st3{fill:#AAC8D1;}
	.st4{fill:none;stroke:#E83834;stroke-width:6;stroke-linecap:round;stroke-linejoin:round;stroke-miterlimit:10;}
	.st5{fill:#7BC67B;}
	.st6{fill:#7BC7FF;}
	.st7{fill:#7C34C1;}
	.st8{fill:#7C8D96;}
	.st9{fill:#AD2707;}
	.st10{fill:#ADB8BC;}
	.st11{fill:#107510;}
	.st12{fill:#7FE5D8;}
	.st13{fill:#AF4AD1;}
	.st14{fill:#E02B7E;}
	.st15{fill:#E04038;}
	.st16{fill:#AFD7DD;}
	.st17{fill:#E0A010;}
	.st18{fill:#E0D5A4;}
	.st19{fill:#12B2B2;}
	.st20{fill:#12D66B;}
	.st21{fill:#E1A9FF;}
	.st22{fill:#1362A8;}
	.st23{fill:#E2378D;}
	.st24{fill:#E29C37;}
	.st25{fill:#E2B90E;}
	.st26{fill:#E2BF91;}
	.st27{fill:#E2CBAA;}
	.st28{fill:#14A594;}
	.st29{fill:#E4E9ED;}
	.st30{fill:#4A5D60;}
	.st31{fill:#E5B076;}
	.st32{fill:#E5B1C4;}
	.st33{fill:#E5E4C3;}
	.st34{fill:#4B6466;}
	.st35{fill:#E6FF2E;}
	.st36{fill:#18AA67;}
	.st37{fill:#E86207;}
	.st38{fill:#E8A113;}
	.st39{fill:#E8B5A6;}
	.st40{fill:#E8E8ED;}
	.st41{fill:#4E5154;}
	.st42{fill:#E9F1F4;}
	.st43{fill:#4F4B48;}
	.st44{fill:#4F74E8;}
	.st45{fill:#808E93;}
	.st46{fill:#80949B;}
	.st47{fill:#80EDAC;}
	.st48{fill:#B122E0;}
	.st49{fill:#B2C4CC;}
	.st50{fill:#83D839;}
	.st51{fill:#B3C6C6;}
	.st52{fill:none;stroke:#33363A;stroke-width:3;stroke-linecap:round;stroke-linejoin:round;stroke-miterlimit:10;}
	.st53{fill:#1A8E1C;}
	.st54{fill:#1A93D6;}
	.st55{fill:#B50B0B;}
	.st56{fill:#1AD88F;}
	.st57{fill:#B5DAF4;}
	.st58{fill:#EA7B1F;}
	.st59{fill:#EA81BD;}
	.st60{fill:#87B8D6;}
	.st61{fill:#87C3F4;}
	.st62{fill:#EAC79D;}
	.st63{fill:#EADF11;}
	.st64{fill:#EAE4C5;}
	.st65{fill:#B78094;}
	.st66{fill:#8844D8;}
	.st67{fill:#EBF4F7;}
	.st68{fill:#893015;}
	.st69{fill:#89410B;}
	.st70{fill:#899BA3;}
	.st71{fill:#EDE3B9;}
	.st72{enable-background:new    ;}
	.st73{fill:#50FF9F;}
	.st74{fill:#EEDCF4;}
	.st75{fill:#EFA37D;}
	.st76{fill:#EFA3CC;}
	.st77{fill:#EFC99A;}
	.st78{fill:#54AF79;}
	.st79{fill:#BA503A;}
	.st80{fill:#BA8663;}
	.st81{fill:#8B4FE0;}
	.st82{fill:#58ED9B;}
	.st83{fill:#BC7DFF;}
	.st84{fill:#8D9AA3;}
	.st85{fill:#BCCAD3;}
	.st86{fill:#8DE4FF;}
	.st87{fill:#20B518;}
	.st88{fill:#BF44F2;}
	.st89{fill:#21CEA1;}
	.st90{fill:#BFDAE0;}
	.st91{fill:#F0FBFC;}
	.st92{fill:#F2D9A7;}
	.st93{fill:#F2EAC9;}
	.st94{fill:#24D1AF;}
	.st95{fill:#25931C;}
	.st96{fill:#F4C4B3;}
	.st97{fill:#F4D3A2;}
	.st98{fill:#F4D647;}
	.st99{fill:#F4D7B8;}
	.st100{fill:#F4EC8E;}
	.st101{fill:#5B524D;}
	.st102{fill:#F77819;}
	.st103{fill:#F79AE1;}
	.st104{fill:#5E707A;}
	.st105{fill:#F93585;}
	.st106{fill:#F95D5D;}
	.st107{fill:#F9C19B;}
	.st108{fill:#F9CB58;}
	.st109{fill:#F9D2B2;}
	.st110{fill:#F9F07D;}
	.st111{fill:#F9F1D2;}
	.st112{fill:#F9F4B7;}
	.st113{fill:#F9F9E4;}
	.st114{fill:#5F1DAA;}
	.st115{fill:#5F9AD6;}
	.st116{fill:#C0C0C4;}
	.st117{fill:#91EA57;}
	.st118{fill:#C12727;}
	.st119{fill:#C191A0;}
	.st120{fill:#923BB7;}
	.st121{fill:#93A0A3;}
	.st122{fill:#93F9EA;}
	.st123{fill:#93FF5A;}
	.st124{fill:#C4833D;}
	.st125{fill:#95A2A5;}
	.st126{fill:#965514;}
	.st127{fill:#96562C;}
	.st128{fill:#2AF42F;}
	.st129{fill:#C5D7DD;}
	.st130{fill:#C68510;}
	.st131{fill:#C6A86D;}
	.st132{fill:#C6BB8D;}
	.st133{fill:#2C9DCE;}
	.st134{fill:#FBFCF2;}
	.st135{fill:#FC70B0;}
	.st136{fill:#FCE6C8;}
	.st137{fill:#FCF7E3;}
	.st138{fill:#C90D6B;}
	.st139{fill:#FDFEFF;}
	.st140{fill:#FDFFDC;}
	.st141{fill:#FF1A1A;}
	.st142{fill:#FF5252;}
	.st143{fill:#FF5B00;}
	.st144{fill:#FF6155;}
	.st145{fill:#FF630D;}
	.st146{fill:#FF6666;}
	.st147{fill:#FF7676;}
	.st148{fill:#FF7900;}
	.st149{fill:#FF860D;}
	.st150{fill:#FF8B00;}
	.st151{fill:#FF8F8F;}
	.st152{fill:#FF900B;}
	.st153{fill:#FF908A;}
	.st154{fill:#FF960B;}
	.st155{fill:#FF9C0D;}
	.st156{fill:#FFA9D4;}
	.st157{fill:#FFAA00;}
	.st158{fill:#FFAD40;}
	.st159{fill:#FFAF10;}
	.st160{fill:#FFB000;}
	.st161{fill:#FFBE08;}
	.st162{fill:#FFBF31;}
	.st163{fill:#FFC200;}
	.st164{fill:#FFCAE8;}
	.st165{fill:#FFCCF5;}
	.st166{fill:#FFD00B;}
	.st167{fill:#FFD039;}
	.st168{fill:#FFD400;}
	.st169{fill:#FFD833;}
	.st170{fill:#FFDB80;}
	.st171{fill:#FFDDD2;}
	.st172{fill:#FFE6D4;}
	.st173{fill:#FFE6EB;}
	.st174{fill:#FFE98D;}
	.st175{fill:#FFECD2;}
	.st176{fill:#FFF1D9;}
	.st177{fill:#FFF24D;}
	.st178{fill:#FFF3C2;}
	.st179{fill:#FFF4C7;}
	.st180{fill:#FFF800;}
	.st181{fill:#FFF80D;}
	.st182{fill:#FFF9DE;}
	.st183{fill:#FFFBD7;}
	.st184{fill:#FFFBEB;}
	.st185{fill:#FFFCC0;}
	.st186{fill:#FFFCDC;}
	.st187{fill:#FFFFFA;}
	.st188{fill:#FFFFFF;}
	.st189{fill:#63797F;}
	.st190{fill:#65E529;}
	.st191{fill:#66310E;}
	.st192{fill:#663C17;}
	.st193{fill:#9A5AE5;}
	.st194{fill:#CA30EF;}
	.st195{fill:#6892FC;}
	.st196{fill:#9CFFC4;}
	.st197{fill:#CC4306;}
	.st198{fill:#CC549E;}
	.st199{fill:#9E3256;}
	.st200{fill:#CDFFBB;}
	.st201{fill:#CE86AF;}
	.st202{fill:#CED9DD;}
	
		.st203{fill:none;stroke:#33363A;stroke-width:3;stroke-linecap:round;stroke-linejoin:round;stroke-miterlimit:10;stroke-dasharray:6;}
	.st204{fill:#CFE1E2;}
	.st205{fill:#33363A;}
	.st206{fill:#34C166;}
	.st207{fill:#364B5B;}
	.st208{fill:#3662CE;}
	.st209{fill:#36C6FF;}
	.st210{fill:#6ADB9A;}
	.st211{fill:#6D5C4D;}
	.st212{fill:#6EBDF9;}
	.st213{fill:#0031FF;}
	.st214{fill:#0062FF;}
	.st215{fill:#0068FF;}
	.st216{fill:#0086FF;}
	.st217{fill:#009BE8;}
	.st218{fill:#00AAFF;}
	.st219{fill:#D271FF;}
	.st220{fill:#D363A9;}
	.st221{fill:#D3964C;}
	.st222{fill:#D3DFE2;}
	.st223{fill:#D3E0E2;}
	.st224{fill:#D3EFF4;}
	.st225{fill:#063B66;}
	.st226{fill:#D60909;}
	.st227{fill:#D61D1D;}
	.st228{fill:#D7F0FF;}
	.st229{fill:#09B285;}
	.st230{fill:#D8D593;}
	.st231{fill:#D8E2EA;}
	.st232{fill:#D8E5EA;}
	.st233{fill:#3E5054;}
	.st234{fill:#D988FF;}
	.st235{fill:#D9E7E8;}
	.st236{fill:#702252;}
	.st237{fill:#70D3E0;}
	.st238{fill:#A02FF2;}
	.st239{fill:#A2F255;}
	.st240{fill:#A35616;}
	.st241{fill:#A3CCCC;}
	.st242{fill:#0A6ADD;}
	.st243{fill:#A5145D;}
	.st244{fill:#A57555;}
	.st245{fill:#77D6FC;}
	.st246{fill:#7815CE;}
	.st247{fill:#A7BBC1;}
	.st248{fill:#DBD279;}
	.st249{fill:#0D5C9E;}
	.st250{fill:#A83C11;}
	.st251{fill:#A8633D;}
	.st252{fill:#A8A3E5;}
	.st253{fill:#DCE6EA;}
	.st254{fill:#DCE7EA;}
	.st255{fill:#A962E8;}
	.st256{fill:#DD2466;}
	.st257{fill:#DDC38A;}
	.st258{fill:#DDD2B1;}
	.st259{fill:#DFE7E8;}
	.st260{fill:#42B1E8;}
	.st261{fill:#436377;}
	.st262{fill:#43B530;}
]]>
</style>
<g>
	<g>
		<g>
			<g>
				<polygon class="st105" points="49.999,118.236 49.999,118.238 69.543,129.519 89.084,118.238 89.084,118.236 69.543,106.955 
									"/>
			</g>
			<g>
				<polyline class="st135" points="69.543,129.519 89.084,118.238 89.084,118.236 69.543,106.955 				"/>
			</g>
			<g>
				<path class="st205" d="M69.543,131.019c-0.259,0-0.518-0.067-0.75-0.201l-19.544-11.281c-0.464-0.268-0.75-0.763-0.75-1.299
					c0-0.536,0.286-1.031,0.75-1.299l19.544-11.283c0.465-0.269,1.035-0.269,1.5,0l19.541,11.281c0.464,0.268,0.75,0.763,0.75,1.299
					c0,0.536-0.286,1.031-0.75,1.299l-19.541,11.283C70.061,130.952,69.802,131.019,69.543,131.019z M52.999,118.236l16.544,9.551
					l16.541-9.549l-16.541-9.551L52.999,118.236z"/>
			</g>
			<g>
				<g>
					<path class="st205" d="M69.543,98.748c-0.828,0-1.5-0.671-1.5-1.5V86.907c0-0.829,0.672-1.5,1.5-1.5s1.5,0.671,1.5,1.5v10.341
						C71.043,98.076,70.371,98.748,69.543,98.748z"/>
				</g>
				<g>
					<path class="st205" d="M69.54,103.19c-0.391,0-0.78-0.16-1.061-0.44c-0.279-0.28-0.439-0.67-0.439-1.06
						c0-0.4,0.16-0.78,0.439-1.06c0.561-0.56,1.561-0.56,2.12,0c0.28,0.28,0.44,0.66,0.44,1.06c0,0.39-0.16,0.78-0.44,1.06
						C70.319,103.03,69.939,103.19,69.54,103.19z"/>
				</g>
			</g>
		</g>
		<g>
			<g>
				<g>
					<g>
						<path class="st135" d="M81.412,59.71c-2.385,4.084-6.807,6.844-11.869,6.844c-5.064,0-9.484-2.76-11.871-6.844H37.405
							c3.181,14.82,16.38,25.968,32.138,25.968c15.756,0,28.955-11.147,32.135-25.968H81.412z"/>
					</g>
					<g>
						<path class="st105" d="M69.543,66.554c-5.064,0-9.484-2.76-11.871-6.844H40.274c5.449,10.633,16.521,17.932,29.269,17.932
							s23.818-7.299,29.266-17.932H81.412C79.027,63.794,74.605,66.554,69.543,66.554z"/>
					</g>
					<g>
						<path class="st205" d="M69.543,87.178c-16.095,0-30.228-11.419-33.604-27.153c-0.095-0.443,0.016-0.905,0.3-1.258
							c0.285-0.353,0.714-0.557,1.167-0.557h20.267c0.533,0,1.026,0.283,1.295,0.743c2.199,3.763,6.252,6.101,10.576,6.101
							c4.325,0,8.377-2.337,10.574-6.1c0.269-0.46,0.762-0.744,1.295-0.744h20.266c0.453,0,0.882,0.205,1.167,0.557
							c0.284,0.353,0.395,0.814,0.3,1.257C99.769,75.759,85.638,87.178,69.543,87.178z M39.319,61.21
							c3.738,13.415,16.16,22.968,30.224,22.968c14.062,0,26.483-9.553,30.221-22.968h-17.52c-2.816,4.243-7.605,6.844-12.701,6.844
							c-5.095,0-9.885-2.602-12.703-6.844H39.319z"/>
					</g>
				</g>
				<g>
					<g>
						<path class="st135" d="M57.672,46.071c2.387-4.085,6.807-6.845,11.871-6.845c5.062,0,9.484,2.76,11.869,6.845h20.266
							c-3.18-14.821-16.379-25.969-32.135-25.969c-15.758,0-28.957,11.147-32.138,25.969H57.672z"/>
					</g>
					<g>
						<path class="st105" d="M69.543,39.226c5.062,0,9.484,2.76,11.869,6.845h17.396c-5.447-10.634-16.518-17.932-29.266-17.932
							s-23.819,7.298-29.269,17.932h17.397C60.059,41.986,64.479,39.226,69.543,39.226z"/>
					</g>
					<g>
						<path class="st205" d="M101.697,47.571c-0.005,0-0.012,0.001-0.02,0H81.412c-0.533,0-1.026-0.283-1.296-0.744
							c-2.196-3.763-6.248-6.101-10.573-6.101c-4.324,0-8.377,2.338-10.576,6.102c-0.269,0.46-0.762,0.743-1.295,0.743H37.405
							c-0.453,0-0.882-0.205-1.167-0.557c-0.284-0.353-0.395-0.814-0.3-1.258c3.377-15.734,17.51-27.154,33.604-27.154
							c16.013,0,30.082,11.304,33.549,26.915c0.068,0.171,0.105,0.358,0.105,0.554C103.197,46.899,102.526,47.571,101.697,47.571z
							 M82.244,44.571h17.521c-3.737-13.416-16.158-22.969-30.222-22.969s-26.485,9.554-30.224,22.969H56.84
							c2.818-4.243,7.607-6.845,12.703-6.845C74.64,37.726,79.429,40.328,82.244,44.571z"/>
					</g>
				</g>
			</g>
			<g>
				<g>
					<circle class="st105" cx="69.542" cy="52.89" r="7.165"/>
				</g>
				<g>
					<path class="st135" d="M69.543,45.724c3.957,0,7.164,3.209,7.164,7.166c0,3.959-3.207,7.166-7.164,7.166"/>
				</g>
				<g>
					<path class="st205" d="M69.543,61.556c-4.778,0-8.666-3.888-8.666-8.666s3.888-8.666,8.666-8.666
						c4.777,0,8.664,3.888,8.664,8.666S74.32,61.556,69.543,61.556z M69.543,47.224c-3.124,0-5.666,2.542-5.666,5.666
						s2.542,5.666,5.666,5.666c3.123,0,5.664-2.542,5.664-5.666S72.666,47.224,69.543,47.224z"/>
				</g>
			</g>
		</g>
		<g>
			<g>
				<path class="st205" d="M69.543,97.287c-0.828,0-1.5-0.671-1.5-1.5s0.672-1.5,1.5-1.5c22.825,0,41.395-18.57,41.395-41.396
					c0-0.829,0.672-1.5,1.5-1.5s1.5,0.671,1.5,1.5C113.938,77.371,94.022,97.287,69.543,97.287z"/>
			</g>
			<g>
				<path class="st205" d="M26.646,54.39c-0.828,0-1.5-0.671-1.5-1.5c0-24.48,19.917-44.396,44.397-44.396
					c0.828,0,1.5,0.671,1.5,1.5s-0.672,1.5-1.5,1.5c-22.826,0-41.397,18.57-41.397,41.396C28.146,53.719,27.474,54.39,26.646,54.39z
					"/>
			</g>
		</g>
		<g>
			<g>
				<g>
					<path class="st205" d="M55.875,54.39H45.751c-0.828,0-1.5-0.671-1.5-1.5s0.672-1.5,1.5-1.5h10.124c0.828,0,1.5,0.671,1.5,1.5
						S56.703,54.39,55.875,54.39z"/>
				</g>
				<g>
					<path class="st205" d="M39.92,54.39c-0.4,0-0.78-0.16-1.061-0.44c-0.279-0.28-0.439-0.66-0.439-1.06
						c0-0.39,0.16-0.78,0.439-1.06c0.551-0.56,1.561-0.56,2.12,0c0.28,0.28,0.44,0.67,0.44,1.06c0,0.39-0.16,0.78-0.44,1.06
						C40.7,54.23,40.31,54.39,39.92,54.39z"/>
				</g>
				<g>
					<path class="st205" d="M34.609,54.39c-0.399,0-0.779-0.16-1.06-0.44c-0.28-0.28-0.44-0.66-0.44-1.06
						c0-0.39,0.16-0.78,0.431-1.06c0.569-0.56,1.56-0.56,2.13,0c0.28,0.28,0.439,0.67,0.439,1.06c0,0.39-0.159,0.78-0.439,1.06
						C35.38,54.23,35,54.39,34.609,54.39z"/>
				</g>
			</g>
			<g>
				<g>
					<path class="st205" d="M93.332,54.39H83.209c-0.828,0-1.5-0.671-1.5-1.5s0.672-1.5,1.5-1.5h10.123c0.828,0,1.5,0.671,1.5,1.5
						S94.16,54.39,93.332,54.39z"/>
				</g>
				<g>
					<path class="st205" d="M99.16,54.39c-0.391,0-0.78-0.16-1.061-0.44c-0.28-0.28-0.439-0.67-0.439-1.06
						c0-0.39,0.159-0.78,0.439-1.06c0.561-0.56,1.57-0.56,2.12,0c0.28,0.28,0.44,0.66,0.44,1.06c0,0.4-0.16,0.78-0.44,1.06
						C99.939,54.23,99.56,54.39,99.16,54.39z"/>
				</g>
				<g>
					<path class="st205" d="M104.479,54.39c-0.399,0-0.779-0.16-1.06-0.44c-0.28-0.28-0.44-0.66-0.44-1.06
						c0-0.39,0.16-0.78,0.44-1.06c0.56-0.56,1.56-0.56,2.12,0c0.279,0.28,0.439,0.67,0.439,1.06c0,0.39-0.16,0.78-0.439,1.06
						C105.26,54.23,104.87,54.39,104.479,54.39z"/>
				</g>
			</g>
		</g>
		<g>
			<g>
				<path class="st205" d="M69.543,21.513c-0.828,0-1.5-0.671-1.5-1.5V9.923c0-0.829,0.672-1.5,1.5-1.5s1.5,0.671,1.5,1.5v10.09
					C71.043,20.842,70.371,21.513,69.543,21.513z"/>
			</g>
			<g>
				<path class="st205" d="M69.54,6.98c-0.391,0-0.78-0.16-1.061-0.44C68.2,6.26,68.04,5.88,68.04,5.48c0-0.39,0.16-0.78,0.439-1.06
					c0.57-0.56,1.561-0.56,2.12,0c0.28,0.28,0.44,0.67,0.44,1.06c0,0.4-0.16,0.78-0.44,1.06C70.319,6.82,69.939,6.98,69.54,6.98z"/>
			</g>
		</g>
	</g>
	<g>
		<g>
			<path class="st135" d="M114.582,99.028c-2.826,0-5.307,1.586-6.178,3.941c-0.014,0.035-0.029,0.066-0.049,0.096
				c-0.02-0.029-0.035-0.061-0.049-0.096c-0.871-2.355-3.352-3.941-6.18-3.941c-3.576,0-6.488,2.564-6.488,5.713
				c0,1.146,0.379,2.253,1.105,3.195c0.006,0.006,0.012,0.017,0.012,0.017c0.023,0.026,0.043,0.043,0.061,0.06l11.539,13.65
				l11.539-13.65c0.018-0.017,0.039-0.033,0.062-0.06c0,0,0.002-0.011,0.01-0.017c0.727-0.942,1.105-2.049,1.105-3.195
				C121.072,101.592,118.16,99.028,114.582,99.028z"/>
		</g>
		<g>
			<path class="st105" d="M108.307,102.969c-0.871-2.355-3.352-3.941-6.18-3.941c-3.576,0-6.488,2.564-6.488,5.713
				c0,1.146,0.379,2.253,1.105,3.195c0.006,0.006,0.012,0.017,0.012,0.017c0.023,0.026,0.043,0.043,0.061,0.06l11.539,13.65v-18.598
				C108.336,103.036,108.32,103.004,108.307,102.969z"/>
		</g>
		<g>
			<path class="st205" d="M108.355,123.163c-0.441,0-0.86-0.194-1.146-0.532L95.713,109.03c-0.031-0.032-0.063-0.064-0.078-0.081
				c-0.035-0.04-0.067-0.081-0.099-0.123c-0.914-1.197-1.397-2.609-1.397-4.085c0-3.977,3.584-7.213,7.988-7.213
				c2.473,0,4.74,1.017,6.227,2.676c1.482-1.656,3.752-2.676,6.229-2.676c4.406,0,7.99,3.236,7.99,7.213
				c0,1.463-0.475,2.863-1.374,4.054c-0.036,0.054-0.076,0.105-0.12,0.154c-0.021,0.024-0.056,0.06-0.091,0.094l-11.486,13.588
				C109.216,122.968,108.797,123.163,108.355,123.163z M97.899,106.977c0.023,0.022,0.034,0.033,0.062,0.067l10.394,12.295
				l10.394-12.295c0.023-0.027,0.047-0.054,0.072-0.079c0.491-0.661,0.751-1.429,0.751-2.224c0-2.323-2.238-4.213-4.99-4.213
				c-2.198,0-4.116,1.19-4.771,2.962c-0.063,0.162-0.128,0.288-0.208,0.407c-0.557,0.835-1.939,0.835-2.496,0
				c-0.08-0.12-0.145-0.246-0.199-0.384c-0.663-1.794-2.582-2.985-4.781-2.985c-2.751,0-4.988,1.89-4.988,4.213
				C97.139,105.542,97.401,106.313,97.899,106.977z"/>
		</g>
	</g>
	<g>
		<g>
			<path class="st135" d="M32.872,92.077c-2.826,0-5.307,1.586-6.179,3.942c-0.013,0.034-0.028,0.065-0.048,0.095
				c-0.02-0.029-0.036-0.061-0.049-0.095c-0.871-2.356-3.353-3.942-6.181-3.942c-3.575,0-6.487,2.564-6.487,5.713
				c0,1.146,0.379,2.253,1.105,3.195c0.006,0.006,0.011,0.017,0.011,0.017c0.023,0.026,0.043,0.043,0.061,0.06l11.54,13.65
				l11.539-13.65c0.018-0.017,0.038-0.033,0.062-0.06c0,0,0.003-0.011,0.011-0.017c0.727-0.942,1.105-2.049,1.105-3.195
				C39.362,94.641,36.45,92.077,32.872,92.077z"/>
		</g>
		<g>
			<path class="st105" d="M26.597,96.019c-0.871-2.356-3.353-3.942-6.181-3.942c-3.575,0-6.487,2.564-6.487,5.713
				c0,1.146,0.379,2.253,1.105,3.195c0.006,0.006,0.011,0.017,0.011,0.017c0.023,0.026,0.043,0.043,0.061,0.06l11.54,13.65V96.114
				C26.626,96.084,26.609,96.053,26.597,96.019z"/>
		</g>
		<g>
			<path class="st205" d="M26.646,116.211c-0.441,0-0.86-0.194-1.146-0.532l-11.498-13.601c-0.031-0.032-0.063-0.064-0.078-0.081
				c-0.04-0.045-0.077-0.092-0.11-0.141c-0.906-1.194-1.385-2.599-1.385-4.068c0-3.977,3.583-7.213,7.987-7.213
				c2.475,0,4.742,1.018,6.229,2.679c1.486-1.662,3.753-2.679,6.227-2.679c4.406,0,7.99,3.236,7.99,7.213
				c0,1.469-0.479,2.875-1.385,4.068c-0.033,0.049-0.07,0.096-0.11,0.141c-0.02,0.022-0.053,0.057-0.086,0.089l-11.49,13.592
				C27.506,116.017,27.087,116.211,26.646,116.211z M16.191,100.029c0.021,0.02,0.032,0.031,0.06,0.063l10.395,12.295l10.394-12.295
				c0.023-0.027,0.047-0.054,0.072-0.079c0.491-0.661,0.751-1.429,0.751-2.224c0-2.323-2.238-4.213-4.99-4.213
				c-2.198,0-4.116,1.191-4.771,2.963c-0.055,0.145-0.123,0.281-0.207,0.406c-0.557,0.835-1.939,0.835-2.496,0
				c-0.085-0.127-0.154-0.263-0.207-0.404c-0.655-1.774-2.574-2.965-4.774-2.965c-2.75,0-4.987,1.89-4.987,4.213
				C15.429,98.591,15.692,99.365,16.191,100.029z"/>
		</g>
	</g>
	<g>
		<g>
			<path class="st135" d="M30.489,67.354c-1.744,0-3.275,0.979-3.814,2.433c-0.008,0.021-0.018,0.041-0.029,0.059
				c-0.012-0.018-0.021-0.037-0.029-0.059c-0.538-1.454-2.07-2.433-3.814-2.433c-2.207,0-4.004,1.583-4.004,3.525
				c0,0.708,0.234,1.391,0.682,1.972c0.004,0.004,0.007,0.011,0.007,0.011c0.015,0.017,0.026,0.026,0.038,0.037l7.121,8.424
				l7.121-8.424c0.012-0.011,0.023-0.021,0.038-0.037c0,0,0.003-0.007,0.007-0.011c0.448-0.581,0.682-1.264,0.682-1.972
				C34.493,68.937,32.696,67.354,30.489,67.354z"/>
		</g>
		<g>
			<path class="st105" d="M26.616,69.787c-0.538-1.454-2.07-2.433-3.814-2.433c-2.207,0-4.004,1.583-4.004,3.525
				c0,0.708,0.234,1.391,0.682,1.972c0.004,0.004,0.007,0.011,0.007,0.011c0.015,0.017,0.026,0.026,0.038,0.037l7.121,8.424V69.845
				C26.634,69.828,26.624,69.808,26.616,69.787z"/>
		</g>
		<g>
			<path class="st205" d="M26.646,82.823c-0.441,0-0.86-0.194-1.146-0.532l-7.079-8.374c-0.023-0.023-0.045-0.046-0.06-0.062
				c-0.036-0.042-0.07-0.085-0.102-0.13c-0.63-0.835-0.962-1.818-0.962-2.845c0-2.771,2.469-5.025,5.504-5.025
				c1.472,0,2.839,0.53,3.845,1.421c1.007-0.892,2.373-1.421,3.843-1.421c3.035,0,5.504,2.254,5.504,5.025
				c0,1.029-0.332,2.012-0.962,2.846C35,73.77,34.966,73.813,34.93,73.854c-0.017,0.018-0.038,0.041-0.062,0.065l-7.077,8.372
				C27.506,82.628,27.087,82.823,26.646,82.823z M20.632,71.888c0.014,0.015,0.026,0.029,0.038,0.043L26.646,79l5.976-7.069
				c0.013-0.016,0.026-0.03,0.04-0.045c0.221-0.305,0.332-0.643,0.332-1.006c0-1.098-1.146-2.025-2.504-2.025
				c-1.118,0-2.086,0.584-2.408,1.454c-0.04,0.109-0.123,0.272-0.188,0.369c-0.557,0.835-1.939,0.835-2.496,0
				c-0.066-0.1-0.15-0.265-0.19-0.378c-0.319-0.861-1.287-1.445-2.405-1.445c-1.357,0-2.504,0.928-2.504,2.025
				C20.298,71.237,20.413,71.584,20.632,71.888z"/>
		</g>
	</g>
	<g>
		<g>
			<path class="st135" d="M116.281,30.121c-1.744,0-3.275,0.979-3.812,2.433c-0.008,0.021-0.018,0.041-0.031,0.059
				c-0.012-0.018-0.021-0.037-0.029-0.059c-0.537-1.454-2.068-2.433-3.814-2.433c-2.207,0-4.004,1.583-4.004,3.525
				c0,0.708,0.234,1.391,0.682,1.972c0.006,0.004,0.008,0.011,0.008,0.011c0.014,0.017,0.027,0.026,0.037,0.037l7.121,8.424
				l7.121-8.424c0.012-0.011,0.025-0.021,0.039-0.037c0,0,0.002-0.007,0.006-0.011c0.449-0.581,0.684-1.264,0.684-1.972
				C120.287,31.704,118.49,30.121,116.281,30.121z"/>
		</g>
		<g>
			<path class="st105" d="M112.408,32.553c-0.537-1.454-2.068-2.433-3.814-2.433c-2.207,0-4.004,1.583-4.004,3.525
				c0,0.708,0.234,1.391,0.682,1.972c0.006,0.004,0.008,0.011,0.008,0.011c0.014,0.017,0.027,0.026,0.037,0.037l7.121,8.424V32.612
				C112.426,32.594,112.416,32.575,112.408,32.553z"/>
		</g>
		<g>
			<path class="st205" d="M112.438,45.589c-0.441,0-0.86-0.194-1.146-0.532l-7.082-8.378c-0.033-0.034-0.064-0.069-0.089-0.098
				c-0.018-0.022-0.035-0.044-0.052-0.067c-0.641-0.84-0.979-1.832-0.979-2.869c0-2.771,2.469-5.025,5.504-5.025
				c1.473,0,2.84,0.53,3.846,1.42c1.005-0.892,2.371-1.42,3.842-1.42c3.036,0,5.506,2.254,5.506,5.025
				c0,1.022-0.329,1.999-0.952,2.83c-0.024,0.037-0.051,0.072-0.079,0.106c-0.027,0.033-0.063,0.072-0.101,0.109l-7.072,8.366
				C113.298,45.395,112.879,45.589,112.438,45.589z M106.423,34.653c0.001,0.001,0.003,0.002,0.004,0.004l6.011,7.109l5.976-7.069
				c0.013-0.016,0.026-0.031,0.04-0.046c0.222-0.305,0.334-0.643,0.334-1.005c0-1.098-1.147-2.025-2.506-2.025
				c-1.118,0-2.085,0.583-2.405,1.452c-0.054,0.145-0.16,0.339-0.255,0.46c-0.295,0.381-0.744,0.591-1.238,0.578
				c-0.482-0.018-0.926-0.266-1.193-0.667c-0.066-0.1-0.15-0.266-0.191-0.378c-0.317-0.861-1.285-1.445-2.404-1.445
				c-1.357,0-2.504,0.928-2.504,2.025C106.09,34.003,106.205,34.35,106.423,34.653z"/>
		</g>
	</g>
</g>
</svg>
