<?xml version="1.0" encoding="utf-8"?>
<!-- Generator: Adobe Illustrator 16.0.0, SVG Export Plug-In . SVG Version: 6.00 Build 0)  -->
<!DOCTYPE svg PUBLIC "-//W3C//DTD SVG 1.1//EN" "http://www.w3.org/Graphics/SVG/1.1/DTD/svg11.dtd">
<svg version="1.1" id="Layer_1" xmlns="http://www.w3.org/2000/svg" xmlns:xlink="http://www.w3.org/1999/xlink" x="0px" y="0px"
	 width="135px" height="135px" viewBox="0 0 135 135" style="enable-background:new 0 0 135 135;" xml:space="preserve">
<style type="text/css">
<![CDATA[
	.st0{fill:#465652;}
	.st1{fill:#AAB9BA;}
	.st2{fill:#47C67B;}
	.st3{fill:#AAC8D1;}
	.st4{fill:none;stroke:#E83834;stroke-width:6;stroke-linecap:round;stroke-linejoin:round;stroke-miterlimit:10;}
	.st5{fill:#7BC67B;}
	.st6{fill:#7BC7FF;}
	.st7{fill:#7C34C1;}
	.st8{fill:#7C8D96;}
	.st9{fill:#AD2707;}
	.st10{fill:#ADB8BC;}
	.st11{fill:#107510;}
	.st12{fill:#7FE5D8;}
	.st13{fill:#AF4AD1;}
	.st14{fill:#E02B7E;}
	.st15{fill:#E04038;}
	.st16{fill:#AFD7DD;}
	.st17{fill:#E0A010;}
	.st18{fill:#E0D5A4;}
	.st19{fill:#12B2B2;}
	.st20{fill:#12D66B;}
	.st21{fill:#E1A9FF;}
	.st22{fill:#1362A8;}
	.st23{fill:#E2378D;}
	.st24{fill:#E29C37;}
	.st25{fill:#E2B90E;}
	.st26{fill:#E2BF91;}
	.st27{fill:#E2CBAA;}
	.st28{fill:#14A594;}
	.st29{fill:#E4E9ED;}
	.st30{fill:#4A5D60;}
	.st31{fill:#E5B076;}
	.st32{fill:#E5B1C4;}
	.st33{fill:#E5E4C3;}
	.st34{fill:#4B6466;}
	.st35{fill:#E6FF2E;}
	.st36{fill:#18AA67;}
	.st37{fill:#E86207;}
	.st38{fill:#E8A113;}
	.st39{fill:#E8B5A6;}
	.st40{fill:#E8E8ED;}
	.st41{fill:#4E5154;}
	.st42{fill:#E9F1F4;}
	.st43{fill:#4F4B48;}
	.st44{fill:#4F74E8;}
	.st45{fill:#808E93;}
	.st46{fill:#80949B;}
	.st47{fill:#80EDAC;}
	.st48{fill:#B122E0;}
	.st49{fill:#B2C4CC;}
	.st50{fill:#83D839;}
	.st51{fill:#B3C6C6;}
	.st52{fill:none;stroke:#33363A;stroke-width:3;stroke-linecap:round;stroke-linejoin:round;stroke-miterlimit:10;}
	.st53{fill:#1A8E1C;}
	.st54{fill:#1A93D6;}
	.st55{fill:#B50B0B;}
	.st56{fill:#1AD88F;}
	.st57{fill:#B5DAF4;}
	.st58{fill:#EA7B1F;}
	.st59{fill:#EA81BD;}
	.st60{fill:#87B8D6;}
	.st61{fill:#87C3F4;}
	.st62{fill:#EAC79D;}
	.st63{fill:#EADF11;}
	.st64{fill:#EAE4C5;}
	.st65{fill:#B78094;}
	.st66{fill:#8844D8;}
	.st67{fill:#EBF4F7;}
	.st68{fill:#893015;}
	.st69{fill:#89410B;}
	.st70{fill:#899BA3;}
	.st71{fill:#EDE3B9;}
	.st72{enable-background:new    ;}
	.st73{fill:#50FF9F;}
	.st74{fill:#EEDCF4;}
	.st75{fill:#EFA37D;}
	.st76{fill:#EFA3CC;}
	.st77{fill:#EFC99A;}
	.st78{fill:#54AF79;}
	.st79{fill:#BA503A;}
	.st80{fill:#BA8663;}
	.st81{fill:#8B4FE0;}
	.st82{fill:#58ED9B;}
	.st83{fill:#BC7DFF;}
	.st84{fill:#8D9AA3;}
	.st85{fill:#BCCAD3;}
	.st86{fill:#8DE4FF;}
	.st87{fill:#20B518;}
	.st88{fill:#BF44F2;}
	.st89{fill:#21CEA1;}
	.st90{fill:#BFDAE0;}
	.st91{fill:#F0FBFC;}
	.st92{fill:#F2D9A7;}
	.st93{fill:#F2EAC9;}
	.st94{fill:#24D1AF;}
	.st95{fill:#25931C;}
	.st96{fill:#F4C4B3;}
	.st97{fill:#F4D3A2;}
	.st98{fill:#F4D647;}
	.st99{fill:#F4D7B8;}
	.st100{fill:#F4EC8E;}
	.st101{fill:#5B524D;}
	.st102{fill:#F77819;}
	.st103{fill:#F79AE1;}
	.st104{fill:#5E707A;}
	.st105{fill:#F93585;}
	.st106{fill:#F95D5D;}
	.st107{fill:#F9C19B;}
	.st108{fill:#F9CB58;}
	.st109{fill:#F9D2B2;}
	.st110{fill:#F9F07D;}
	.st111{fill:#F9F1D2;}
	.st112{fill:#F9F4B7;}
	.st113{fill:#F9F9E4;}
	.st114{fill:#5F1DAA;}
	.st115{fill:#5F9AD6;}
	.st116{fill:#C0C0C4;}
	.st117{fill:#91EA57;}
	.st118{fill:#C12727;}
	.st119{fill:#C191A0;}
	.st120{fill:#923BB7;}
	.st121{fill:#93A0A3;}
	.st122{fill:#93F9EA;}
	.st123{fill:#93FF5A;}
	.st124{fill:#C4833D;}
	.st125{fill:#95A2A5;}
	.st126{fill:#965514;}
	.st127{fill:#96562C;}
	.st128{fill:#2AF42F;}
	.st129{fill:#C5D7DD;}
	.st130{fill:#C68510;}
	.st131{fill:#C6A86D;}
	.st132{fill:#C6BB8D;}
	.st133{fill:#2C9DCE;}
	.st134{fill:#FBFCF2;}
	.st135{fill:#FC70B0;}
	.st136{fill:#FCE6C8;}
	.st137{fill:#FCF7E3;}
	.st138{fill:#C90D6B;}
	.st139{fill:#FDFEFF;}
	.st140{fill:#FDFFDC;}
	.st141{fill:#FF1A1A;}
	.st142{fill:#FF5252;}
	.st143{fill:#FF5B00;}
	.st144{fill:#FF6155;}
	.st145{fill:#FF630D;}
	.st146{fill:#FF6666;}
	.st147{fill:#FF7676;}
	.st148{fill:#FF7900;}
	.st149{fill:#FF860D;}
	.st150{fill:#FF8B00;}
	.st151{fill:#FF8F8F;}
	.st152{fill:#FF900B;}
	.st153{fill:#FF908A;}
	.st154{fill:#FF960B;}
	.st155{fill:#FF9C0D;}
	.st156{fill:#FFA9D4;}
	.st157{fill:#FFAA00;}
	.st158{fill:#FFAD40;}
	.st159{fill:#FFAF10;}
	.st160{fill:#FFB000;}
	.st161{fill:#FFBE08;}
	.st162{fill:#FFBF31;}
	.st163{fill:#FFC200;}
	.st164{fill:#FFCAE8;}
	.st165{fill:#FFCCF5;}
	.st166{fill:#FFD00B;}
	.st167{fill:#FFD039;}
	.st168{fill:#FFD400;}
	.st169{fill:#FFD833;}
	.st170{fill:#FFDB80;}
	.st171{fill:#FFDDD2;}
	.st172{fill:#FFE6D4;}
	.st173{fill:#FFE6EB;}
	.st174{fill:#FFE98D;}
	.st175{fill:#FFECD2;}
	.st176{fill:#FFF1D9;}
	.st177{fill:#FFF24D;}
	.st178{fill:#FFF3C2;}
	.st179{fill:#FFF4C7;}
	.st180{fill:#FFF800;}
	.st181{fill:#FFF80D;}
	.st182{fill:#FFF9DE;}
	.st183{fill:#FFFBD7;}
	.st184{fill:#FFFBEB;}
	.st185{fill:#FFFCC0;}
	.st186{fill:#FFFCDC;}
	.st187{fill:#FFFFFA;}
	.st188{fill:#FFFFFF;}
	.st189{fill:#63797F;}
	.st190{fill:#65E529;}
	.st191{fill:#66310E;}
	.st192{fill:#663C17;}
	.st193{fill:#9A5AE5;}
	.st194{fill:#CA30EF;}
	.st195{fill:#6892FC;}
	.st196{fill:#9CFFC4;}
	.st197{fill:#CC4306;}
	.st198{fill:#CC549E;}
	.st199{fill:#9E3256;}
	.st200{fill:#CDFFBB;}
	.st201{fill:#CE86AF;}
	.st202{fill:#CED9DD;}
	
		.st203{fill:none;stroke:#33363A;stroke-width:3;stroke-linecap:round;stroke-linejoin:round;stroke-miterlimit:10;stroke-dasharray:6;}
	.st204{fill:#CFE1E2;}
	.st205{fill:#33363A;}
	.st206{fill:#34C166;}
	.st207{fill:#364B5B;}
	.st208{fill:#3662CE;}
	.st209{fill:#36C6FF;}
	.st210{fill:#6ADB9A;}
	.st211{fill:#6D5C4D;}
	.st212{fill:#6EBDF9;}
	.st213{fill:#0031FF;}
	.st214{fill:#0062FF;}
	.st215{fill:#0068FF;}
	.st216{fill:#0086FF;}
	.st217{fill:#009BE8;}
	.st218{fill:#00AAFF;}
	.st219{fill:#D271FF;}
	.st220{fill:#D363A9;}
	.st221{fill:#D3964C;}
	.st222{fill:#D3DFE2;}
	.st223{fill:#D3E0E2;}
	.st224{fill:#D3EFF4;}
	.st225{fill:#063B66;}
	.st226{fill:#D60909;}
	.st227{fill:#D61D1D;}
	.st228{fill:#D7F0FF;}
	.st229{fill:#09B285;}
	.st230{fill:#D8D593;}
	.st231{fill:#D8E2EA;}
	.st232{fill:#D8E5EA;}
	.st233{fill:#3E5054;}
	.st234{fill:#D988FF;}
	.st235{fill:#D9E7E8;}
	.st236{fill:#702252;}
	.st237{fill:#70D3E0;}
	.st238{fill:#A02FF2;}
	.st239{fill:#A2F255;}
	.st240{fill:#A35616;}
	.st241{fill:#A3CCCC;}
	.st242{fill:#0A6ADD;}
	.st243{fill:#A5145D;}
	.st244{fill:#A57555;}
	.st245{fill:#77D6FC;}
	.st246{fill:#7815CE;}
	.st247{fill:#A7BBC1;}
	.st248{fill:#DBD279;}
	.st249{fill:#0D5C9E;}
	.st250{fill:#A83C11;}
	.st251{fill:#A8633D;}
	.st252{fill:#A8A3E5;}
	.st253{fill:#DCE6EA;}
	.st254{fill:#DCE7EA;}
	.st255{fill:#A962E8;}
	.st256{fill:#DD2466;}
	.st257{fill:#DDC38A;}
	.st258{fill:#DDD2B1;}
	.st259{fill:#DFE7E8;}
	.st260{fill:#42B1E8;}
	.st261{fill:#436377;}
	.st262{fill:#43B530;}
]]>
</style>
<g>
	<g>
		<path class="st188" d="M89.667,125.833c0,2.209-1.791,4-4,4H49.333c-2.209,0-4-1.791-4-4V9.167c0-2.209,1.791-4,4-4h36.334
			c2.209,0,4,1.791,4,4V125.833z"/>
	</g>
	<g>
		<path class="st205" d="M85.667,131.333H49.333c-3.033,0-5.5-2.467-5.5-5.5V9.167c0-3.033,2.467-5.5,5.5-5.5h36.334
			c3.033,0,5.5,2.467,5.5,5.5v116.667C91.167,128.866,88.7,131.333,85.667,131.333z M49.333,6.667c-1.378,0-2.5,1.122-2.5,2.5
			v116.667c0,1.378,1.122,2.5,2.5,2.5h36.334c1.378,0,2.5-1.122,2.5-2.5V9.167c0-1.378-1.122-2.5-2.5-2.5H49.333z"/>
	</g>
	<g>
		<path class="st51" d="M82.278,118.747c0,1.473-1.194,2.668-2.667,2.668H55.388c-1.473,0-2.666-1.195-2.666-2.668v-77.78
			c0-1.472,1.193-2.667,2.666-2.667h24.224c1.473,0,2.667,1.195,2.667,2.667V118.747z"/>
	</g>
	<g>
		<path class="st204" d="M79.611,46.633H55.388c-1.473,0-2.666,1.195-2.666,2.667v69.446c0,1.473,1.193,2.668,2.666,2.668h24.224
			c1.473,0,2.667-1.195,2.667-2.668V49.3C82.278,47.829,81.084,46.633,79.611,46.633z"/>
	</g>
	<g>
		<g>
			<path class="st219" d="M53.324,60.929c7.829,0,14.176,6.347,14.176,14.176c0,0.375,0.013,0.596,0.034,0.679
				c0.356,7.512,6.542,13.497,14.142,13.497c0.204,0,0.401-0.021,0.603-0.03v29.496c0,1.473-1.193,2.668-2.666,2.668H55.389
				c-1.473,0-2.667-1.195-2.667-2.668V60.959C52.923,60.951,53.121,60.929,53.324,60.929z"/>
		</g>
	</g>
	<g>
		<path class="st48" d="M67.534,82.349c-0.021-0.083-0.034-0.304-0.034-0.679c0-7.829-6.347-14.176-14.176-14.176
			c-0.203,0-0.401,0.021-0.603,0.03v51.222c0,1.473,1.194,2.668,2.667,2.668h24.224c1.473,0,2.666-1.195,2.666-2.668V95.816
			c-0.201,0.009-0.398,0.03-0.603,0.03C74.076,95.846,67.891,89.861,67.534,82.349z"/>
	</g>
	<g>
		<g>
			<path class="st205" d="M79.612,122.915H55.389c-2.298,0-4.167-1.87-4.167-4.168V60.959c0-0.803,0.632-1.463,1.435-1.499
				l0.188-0.011c0.159-0.011,0.318-0.021,0.48-0.021C61.968,59.429,69,66.461,69,75.105c0,0.184,0.001,0.317,0.009,0.403
				c0.012,0.067,0.021,0.136,0.024,0.205c0.321,6.768,5.875,12.068,12.643,12.068c0.094,0,0.186-0.007,0.278-0.014l0.259-0.015
				c0.414-0.018,0.808,0.132,1.103,0.415c0.296,0.283,0.463,0.674,0.463,1.083v29.496C83.778,121.045,81.91,122.915,79.612,122.915z
				 M54.222,62.46v56.286c0,0.644,0.523,1.168,1.167,1.168h24.224c0.643,0,1.166-0.524,1.166-1.168V90.755
				c-7.929-0.446-14.307-6.779-14.737-14.801C66.015,75.777,66,75.529,66,75.105C66,68.417,60.794,62.922,54.222,62.46z"/>
		</g>
	</g>
	<g>
		<path class="st205" d="M79.611,122.915H55.388c-2.297,0-4.166-1.87-4.166-4.168v-77.78c0-2.298,1.869-4.167,4.166-4.167h24.224
			c2.298,0,4.167,1.869,4.167,4.167v77.78C83.778,121.045,81.909,122.915,79.611,122.915z M55.388,39.799
			c-0.643,0-1.166,0.523-1.166,1.167v77.78c0,0.644,0.523,1.168,1.166,1.168h24.224c0.644,0,1.167-0.524,1.167-1.168v-77.78
			c0-0.644-0.523-1.167-1.167-1.167H55.388z"/>
	</g>
	<g>
		<path class="st204" d="M85.667,5.167H49.333c-2.209,0-4,1.791-4,4v29.133h44.334V9.167C89.667,6.958,87.876,5.167,85.667,5.167z"
			/>
	</g>
	<g>
		<path class="st241" d="M79.611,5.167H55.389c-1.473,0-2.667,1.791-2.667,4v29.133h29.557V9.167
			C82.278,6.958,81.084,5.167,79.611,5.167z"/>
	</g>
	<g>
		<path class="st205" d="M89.667,39.799H45.333c-0.829,0-1.5-0.671-1.5-1.5V9.167c0-3.033,2.467-5.5,5.5-5.5h36.334
			c3.033,0,5.5,2.467,5.5,5.5v29.133C91.167,39.128,90.496,39.799,89.667,39.799z M46.833,36.799h41.334V9.167
			c0-1.378-1.122-2.5-2.5-2.5H49.333c-1.378,0-2.5,1.122-2.5,2.5V36.799z"/>
	</g>
	<g>
		<g>
			<path class="st166" d="M76.615,19.569c-0.146-0.45-0.534-0.778-1.002-0.845l-4.837-0.704l-2.163-4.384
				c-0.208-0.423-0.641-0.691-1.113-0.691s-0.904,0.269-1.113,0.691l-2.163,4.384l-4.837,0.704
				c-0.468,0.066-0.855,0.395-1.002,0.845c-0.146,0.449-0.024,0.943,0.314,1.272l3.5,3.41l-0.827,4.818
				c-0.08,0.466,0.111,0.937,0.494,1.215c0.385,0.276,0.891,0.314,1.309,0.093l4.325-2.272l4.326,2.272
				c0.182,0.097,0.38,0.144,0.577,0.144c0.258,0,0.514-0.079,0.73-0.236c0.383-0.278,0.574-0.749,0.494-1.215l-0.827-4.818l3.5-3.41
				C76.64,20.512,76.761,20.018,76.615,19.569z"/>
		</g>
		<g>
			<path class="st161" d="M72.801,24.251l2.827-2.754c-0.005,0-0.01-0.002-0.015-0.003l-4.837-0.704l-2.163-4.383
				c-0.208-0.424-0.641-0.691-1.113-0.691s-0.904,0.268-1.113,0.691l-2.163,4.383l-4.837,0.704c-0.005,0.001-0.01,0.003-0.014,0.003
				l2.826,2.754l-0.407,2.373l0.407,0.397l-0.529,3.081c0.06,0.066,0.123,0.128,0.196,0.182c0.385,0.276,0.891,0.314,1.309,0.093
				l4.325-2.272l4.326,2.272c0.182,0.097,0.38,0.144,0.577,0.144c0.258,0,0.514-0.079,0.73-0.236
				c0.073-0.054,0.137-0.115,0.196-0.182l-0.529-3.081l0.407-0.397L72.801,24.251z"/>
		</g>
		<g>
			<path class="st205" d="M62.597,32.021c-0.579,0-1.134-0.179-1.606-0.518c-0.858-0.624-1.275-1.651-1.098-2.687l0.694-4.041
				l-2.935-2.86c-0.741-0.719-1.014-1.823-0.694-2.809c0.327-1.005,1.176-1.72,2.218-1.868l4.052-0.589l1.814-3.677
				c0.466-0.943,1.408-1.528,2.458-1.528c1.037,0,2.002,0.6,2.459,1.529l1.813,3.675l4.057,0.59
				c1.022,0.145,1.893,0.878,2.213,1.868c0.319,0.985,0.046,2.089-0.697,2.81l-2.933,2.858l0.694,4.041
				c0.178,1.036-0.24,2.063-1.09,2.682c-0.834,0.604-1.99,0.686-2.895,0.204L67.5,29.799l-3.627,1.906
				C63.485,31.911,63.042,32.021,62.597,32.021z M60.122,20.133l3.125,3.044c0.354,0.345,0.515,0.841,0.432,1.328l-0.739,4.301
				l3.863-2.029c0.437-0.229,0.958-0.23,1.396,0l3.863,2.029l-0.738-4.301c-0.083-0.487,0.078-0.983,0.432-1.328l3.125-3.044
				l-4.318-0.628c-0.488-0.071-0.911-0.378-1.129-0.821L67.5,14.77l-1.931,3.914c-0.218,0.443-0.641,0.75-1.129,0.821L60.122,20.133
				z"/>
		</g>
	</g>
	<g>
		<circle class="st219" cx="59.657" cy="76.429" r="1.333"/>
	</g>
	<g>
		<circle class="st219" cx="60.824" cy="86.095" r="1.167"/>
	</g>
	<g>
		<circle class="st219" cx="62.412" cy="82.017" r="0.421"/>
	</g>
	<g>
		<circle class="st219" cx="70.25" cy="101.013" r="1.583"/>
	</g>
	<g>
		<circle class="st219" cx="62.782" cy="100.221" r="0.792"/>
	</g>
	<g>
		<circle class="st219" cx="67.179" cy="93.775" r="0.679"/>
	</g>
	<g>
		<circle class="st219" cx="62.707" cy="110.812" r="3.049"/>
	</g>
	<g>
		<circle class="st219" cx="72.394" cy="110.703" r="0.773"/>
	</g>
	<g>
		<ellipse class="st219" cx="76.676" cy="103.179" rx="0" ry="0.583"/>
	</g>
	<g>
		<ellipse class="st219" cx="58.324" cy="104.595" rx="0" ry="0.167"/>
	</g>
	<g>
		<circle class="st219" cx="76.711" cy="107.845" r="1.083"/>
	</g>
	<g>
		<path class="st188" d="M76.878,67.929c-0.829,0-1.5-0.671-1.5-1.5v-23c0-0.829,0.671-1.5,1.5-1.5s1.5,0.671,1.5,1.5v23
			C78.378,67.258,77.707,67.929,76.878,67.929z"/>
	</g>
	<g>
		<path class="st188" d="M76.878,74.804c-0.829,0-1.5-0.671-1.5-1.5v-1.167c0-0.829,0.671-1.5,1.5-1.5s1.5,0.671,1.5,1.5v1.167
			C78.378,74.133,77.707,74.804,76.878,74.804z"/>
	</g>
	<g>
		<path class="st188" d="M76.878,80.429c-0.829,0-1.5-0.671-1.5-1.5v-1.167c0-0.829,0.671-1.5,1.5-1.5s1.5,0.671,1.5,1.5v1.167
			C78.378,79.758,77.707,80.429,76.878,80.429z"/>
	</g>
</g>
</svg>
