<?xml version="1.0" encoding="utf-8"?>
<!-- Generator: Adobe Illustrator 16.0.0, SVG Export Plug-In . SVG Version: 6.00 Build 0)  -->
<!DOCTYPE svg PUBLIC "-//W3C//DTD SVG 1.1//EN" "http://www.w3.org/Graphics/SVG/1.1/DTD/svg11.dtd">
<svg version="1.1" id="Layer_1" xmlns="http://www.w3.org/2000/svg" xmlns:xlink="http://www.w3.org/1999/xlink" x="0px" y="0px"
	 width="135px" height="135px" viewBox="0 0 135 135" style="enable-background:new 0 0 135 135;" xml:space="preserve">
<style type="text/css">
<![CDATA[
	.st0{fill:#465652;}
	.st1{fill:#AAB9BA;}
	.st2{fill:#47C67B;}
	.st3{fill:#AAC8D1;}
	.st4{fill:none;stroke:#E83834;stroke-width:6;stroke-linecap:round;stroke-linejoin:round;stroke-miterlimit:10;}
	.st5{fill:#7BC67B;}
	.st6{fill:#7BC7FF;}
	.st7{fill:#7C34C1;}
	.st8{fill:#7C8D96;}
	.st9{fill:#AD2707;}
	.st10{fill:#ADB8BC;}
	.st11{fill:#107510;}
	.st12{fill:#7FE5D8;}
	.st13{fill:#AF4AD1;}
	.st14{fill:#E02B7E;}
	.st15{fill:#E04038;}
	.st16{fill:#AFD7DD;}
	.st17{fill:#E0A010;}
	.st18{fill:#E0D5A4;}
	.st19{fill:#12B2B2;}
	.st20{fill:#12D66B;}
	.st21{fill:#E1A9FF;}
	.st22{fill:#1362A8;}
	.st23{fill:#E2378D;}
	.st24{fill:#E29C37;}
	.st25{fill:#E2B90E;}
	.st26{fill:#E2BF91;}
	.st27{fill:#E2CBAA;}
	.st28{fill:#14A594;}
	.st29{fill:#E4E9ED;}
	.st30{fill:#4A5D60;}
	.st31{fill:#E5B076;}
	.st32{fill:#E5B1C4;}
	.st33{fill:#E5E4C3;}
	.st34{fill:#4B6466;}
	.st35{fill:#E6FF2E;}
	.st36{fill:#18AA67;}
	.st37{fill:#E86207;}
	.st38{fill:#E8A113;}
	.st39{fill:#E8B5A6;}
	.st40{fill:#E8E8ED;}
	.st41{fill:#4E5154;}
	.st42{fill:#E9F1F4;}
	.st43{fill:#4F4B48;}
	.st44{fill:#4F74E8;}
	.st45{fill:#808E93;}
	.st46{fill:#80949B;}
	.st47{fill:#80EDAC;}
	.st48{fill:#B122E0;}
	.st49{fill:#B2C4CC;}
	.st50{fill:#83D839;}
	.st51{fill:#B3C6C6;}
	.st52{fill:none;stroke:#33363A;stroke-width:3;stroke-linecap:round;stroke-linejoin:round;stroke-miterlimit:10;}
	.st53{fill:#1A8E1C;}
	.st54{fill:#1A93D6;}
	.st55{fill:#B50B0B;}
	.st56{fill:#1AD88F;}
	.st57{fill:#B5DAF4;}
	.st58{fill:#EA7B1F;}
	.st59{fill:#EA81BD;}
	.st60{fill:#87B8D6;}
	.st61{fill:#87C3F4;}
	.st62{fill:#EAC79D;}
	.st63{fill:#EADF11;}
	.st64{fill:#EAE4C5;}
	.st65{fill:#B78094;}
	.st66{fill:#8844D8;}
	.st67{fill:#EBF4F7;}
	.st68{fill:#893015;}
	.st69{fill:#89410B;}
	.st70{fill:#899BA3;}
	.st71{fill:#EDE3B9;}
	.st72{enable-background:new    ;}
	.st73{fill:#50FF9F;}
	.st74{fill:#EEDCF4;}
	.st75{fill:#EFA37D;}
	.st76{fill:#EFA3CC;}
	.st77{fill:#EFC99A;}
	.st78{fill:#54AF79;}
	.st79{fill:#BA503A;}
	.st80{fill:#BA8663;}
	.st81{fill:#8B4FE0;}
	.st82{fill:#58ED9B;}
	.st83{fill:#BC7DFF;}
	.st84{fill:#8D9AA3;}
	.st85{fill:#BCCAD3;}
	.st86{fill:#8DE4FF;}
	.st87{fill:#20B518;}
	.st88{fill:#BF44F2;}
	.st89{fill:#21CEA1;}
	.st90{fill:#BFDAE0;}
	.st91{fill:#F0FBFC;}
	.st92{fill:#F2D9A7;}
	.st93{fill:#F2EAC9;}
	.st94{fill:#24D1AF;}
	.st95{fill:#25931C;}
	.st96{fill:#F4C4B3;}
	.st97{fill:#F4D3A2;}
	.st98{fill:#F4D647;}
	.st99{fill:#F4D7B8;}
	.st100{fill:#F4EC8E;}
	.st101{fill:#5B524D;}
	.st102{fill:#F77819;}
	.st103{fill:#F79AE1;}
	.st104{fill:#5E707A;}
	.st105{fill:#F93585;}
	.st106{fill:#F95D5D;}
	.st107{fill:#F9C19B;}
	.st108{fill:#F9CB58;}
	.st109{fill:#F9D2B2;}
	.st110{fill:#F9F07D;}
	.st111{fill:#F9F1D2;}
	.st112{fill:#F9F4B7;}
	.st113{fill:#F9F9E4;}
	.st114{fill:#5F1DAA;}
	.st115{fill:#5F9AD6;}
	.st116{fill:#C0C0C4;}
	.st117{fill:#91EA57;}
	.st118{fill:#C12727;}
	.st119{fill:#C191A0;}
	.st120{fill:#923BB7;}
	.st121{fill:#93A0A3;}
	.st122{fill:#93F9EA;}
	.st123{fill:#93FF5A;}
	.st124{fill:#C4833D;}
	.st125{fill:#95A2A5;}
	.st126{fill:#965514;}
	.st127{fill:#96562C;}
	.st128{fill:#2AF42F;}
	.st129{fill:#C5D7DD;}
	.st130{fill:#C68510;}
	.st131{fill:#C6A86D;}
	.st132{fill:#C6BB8D;}
	.st133{fill:#2C9DCE;}
	.st134{fill:#FBFCF2;}
	.st135{fill:#FC70B0;}
	.st136{fill:#FCE6C8;}
	.st137{fill:#FCF7E3;}
	.st138{fill:#C90D6B;}
	.st139{fill:#FDFEFF;}
	.st140{fill:#FDFFDC;}
	.st141{fill:#FF1A1A;}
	.st142{fill:#FF5252;}
	.st143{fill:#FF5B00;}
	.st144{fill:#FF6155;}
	.st145{fill:#FF630D;}
	.st146{fill:#FF6666;}
	.st147{fill:#FF7676;}
	.st148{fill:#FF7900;}
	.st149{fill:#FF860D;}
	.st150{fill:#FF8B00;}
	.st151{fill:#FF8F8F;}
	.st152{fill:#FF900B;}
	.st153{fill:#FF908A;}
	.st154{fill:#FF960B;}
	.st155{fill:#FF9C0D;}
	.st156{fill:#FFA9D4;}
	.st157{fill:#FFAA00;}
	.st158{fill:#FFAD40;}
	.st159{fill:#FFAF10;}
	.st160{fill:#FFB000;}
	.st161{fill:#FFBE08;}
	.st162{fill:#FFBF31;}
	.st163{fill:#FFC200;}
	.st164{fill:#FFCAE8;}
	.st165{fill:#FFCCF5;}
	.st166{fill:#FFD00B;}
	.st167{fill:#FFD039;}
	.st168{fill:#FFD400;}
	.st169{fill:#FFD833;}
	.st170{fill:#FFDB80;}
	.st171{fill:#FFDDD2;}
	.st172{fill:#FFE6D4;}
	.st173{fill:#FFE6EB;}
	.st174{fill:#FFE98D;}
	.st175{fill:#FFECD2;}
	.st176{fill:#FFF1D9;}
	.st177{fill:#FFF24D;}
	.st178{fill:#FFF3C2;}
	.st179{fill:#FFF4C7;}
	.st180{fill:#FFF800;}
	.st181{fill:#FFF80D;}
	.st182{fill:#FFF9DE;}
	.st183{fill:#FFFBD7;}
	.st184{fill:#FFFBEB;}
	.st185{fill:#FFFCC0;}
	.st186{fill:#FFFCDC;}
	.st187{fill:#FFFFFA;}
	.st188{fill:#FFFFFF;}
	.st189{fill:#63797F;}
	.st190{fill:#65E529;}
	.st191{fill:#66310E;}
	.st192{fill:#663C17;}
	.st193{fill:#9A5AE5;}
	.st194{fill:#CA30EF;}
	.st195{fill:#6892FC;}
	.st196{fill:#9CFFC4;}
	.st197{fill:#CC4306;}
	.st198{fill:#CC549E;}
	.st199{fill:#9E3256;}
	.st200{fill:#CDFFBB;}
	.st201{fill:#CE86AF;}
	.st202{fill:#CED9DD;}
	
		.st203{fill:none;stroke:#33363A;stroke-width:3;stroke-linecap:round;stroke-linejoin:round;stroke-miterlimit:10;stroke-dasharray:6;}
	.st204{fill:#CFE1E2;}
	.st205{fill:#33363A;}
	.st206{fill:#34C166;}
	.st207{fill:#364B5B;}
	.st208{fill:#3662CE;}
	.st209{fill:#36C6FF;}
	.st210{fill:#6ADB9A;}
	.st211{fill:#6D5C4D;}
	.st212{fill:#6EBDF9;}
	.st213{fill:#0031FF;}
	.st214{fill:#0062FF;}
	.st215{fill:#0068FF;}
	.st216{fill:#0086FF;}
	.st217{fill:#009BE8;}
	.st218{fill:#00AAFF;}
	.st219{fill:#D271FF;}
	.st220{fill:#D363A9;}
	.st221{fill:#D3964C;}
	.st222{fill:#D3DFE2;}
	.st223{fill:#D3E0E2;}
	.st224{fill:#D3EFF4;}
	.st225{fill:#063B66;}
	.st226{fill:#D60909;}
	.st227{fill:#D61D1D;}
	.st228{fill:#D7F0FF;}
	.st229{fill:#09B285;}
	.st230{fill:#D8D593;}
	.st231{fill:#D8E2EA;}
	.st232{fill:#D8E5EA;}
	.st233{fill:#3E5054;}
	.st234{fill:#D988FF;}
	.st235{fill:#D9E7E8;}
	.st236{fill:#702252;}
	.st237{fill:#70D3E0;}
	.st238{fill:#A02FF2;}
	.st239{fill:#A2F255;}
	.st240{fill:#A35616;}
	.st241{fill:#A3CCCC;}
	.st242{fill:#0A6ADD;}
	.st243{fill:#A5145D;}
	.st244{fill:#A57555;}
	.st245{fill:#77D6FC;}
	.st246{fill:#7815CE;}
	.st247{fill:#A7BBC1;}
	.st248{fill:#DBD279;}
	.st249{fill:#0D5C9E;}
	.st250{fill:#A83C11;}
	.st251{fill:#A8633D;}
	.st252{fill:#A8A3E5;}
	.st253{fill:#DCE6EA;}
	.st254{fill:#DCE7EA;}
	.st255{fill:#A962E8;}
	.st256{fill:#DD2466;}
	.st257{fill:#DDC38A;}
	.st258{fill:#DDD2B1;}
	.st259{fill:#DFE7E8;}
	.st260{fill:#42B1E8;}
	.st261{fill:#436377;}
	.st262{fill:#43B530;}
]]>
</style>
<g>
	<g>
		<g>
			<g>
				<g>
					<path class="st135" d="M108.942,28.006c0,1.832-1.485,3.316-3.316,3.316H84.905c-1.832,0-3.316-1.484-3.316-3.316v-1.439
						c0-1.83,1.484-3.317,3.316-3.317h20.721c1.831,0,3.316,1.487,3.316,3.317V28.006z"/>
				</g>
				<g>
					<path class="st156" d="M84.905,23.249c-1.371,0-2.546,0.833-3.051,2.02c0.505,1.187,1.68,2.017,3.051,2.017h20.721
						c1.371,0,2.546-0.83,3.051-2.017c-0.505-1.187-1.68-2.02-3.051-2.02H84.905z"/>
				</g>
				<g>
					<path class="st205" d="M105.626,32.822H84.905c-2.655,0-4.816-2.161-4.816-4.816v-1.439c0-2.656,2.161-4.817,4.816-4.817
						h20.721c2.655,0,4.816,2.161,4.816,4.817v1.439C110.442,30.662,108.281,32.822,105.626,32.822z M84.905,24.749
						c-1.001,0-1.816,0.815-1.816,1.817v1.439c0,1.001,0.814,1.816,1.816,1.816h20.721c1.001,0,1.816-0.815,1.816-1.816v-1.439
						c0-1.002-0.814-1.817-1.816-1.817H84.905z"/>
				</g>
			</g>
			<g>
				<g>
					<path class="st135" d="M104.798,36.077c0,1.83-1.485,3.317-3.315,3.317H80.761c-1.832,0-3.316-1.487-3.316-3.317v-1.438
						c0-1.832,1.484-3.316,3.316-3.316h20.721c1.831,0,3.315,1.484,3.315,3.316V36.077z"/>
				</g>
				<g>
					<path class="st156" d="M80.761,31.322c-1.371,0-2.546,0.832-3.052,2.017c0.505,1.186,1.681,2.02,3.052,2.02h20.721
						c1.371,0,2.546-0.834,3.05-2.02c-0.504-1.185-1.68-2.017-3.05-2.017H80.761z"/>
				</g>
				<g>
					<path class="st205" d="M101.482,40.895H80.761c-2.655,0-4.816-2.161-4.816-4.817v-1.438c0-2.656,2.161-4.816,4.816-4.816
						h20.721c2.655,0,4.815,2.161,4.815,4.816v1.438C106.298,38.733,104.138,40.895,101.482,40.895z M80.761,32.822
						c-1.001,0-1.816,0.815-1.816,1.816v1.438c0,1.002,0.814,1.817,1.816,1.817h20.721c1.001,0,1.815-0.815,1.815-1.817v-1.438
						c0-1.001-0.814-1.816-1.815-1.816H80.761z"/>
				</g>
			</g>
			<g>
				<g>
					<path class="st135" d="M100.653,44.15c0,1.83-1.484,3.314-3.315,3.314H76.616c-1.831,0-3.315-1.484-3.315-3.314v-1.441
						c0-1.832,1.484-3.314,3.315-3.314h20.722c1.831,0,3.315,1.482,3.315,3.314V44.15z"/>
				</g>
				<g>
					<path class="st156" d="M76.616,39.395c-1.37,0-2.545,0.83-3.05,2.018c0.505,1.186,1.68,2.018,3.05,2.018h20.722
						c1.37,0,2.546-0.832,3.051-2.018c-0.504-1.188-1.681-2.018-3.051-2.018H76.616z"/>
				</g>
				<g>
					<path class="st205" d="M97.338,48.965H76.616c-2.655,0-4.815-2.16-4.815-4.814v-1.441c0-2.655,2.16-4.814,4.815-4.814h20.722
						c2.655,0,4.815,2.16,4.815,4.814v1.441C102.153,46.805,99.993,48.965,97.338,48.965z M76.616,40.895
						c-1.001,0-1.815,0.814-1.815,1.814v1.441c0,1,0.814,1.814,1.815,1.814h20.722c1.001,0,1.815-0.814,1.815-1.814v-1.441
						c0-1-0.814-1.814-1.815-1.814H76.616z"/>
				</g>
			</g>
		</g>
		<g>
			<g>
				<path class="st135" d="M111.374,8.543c-0.643-1.492-2.11-2.457-3.734-2.457H27.36c-2.246,0-4.065,1.82-4.065,4.064v33.249
					c0,2.245,1.82,4.065,4.065,4.065h48.837c1.117,0,2.185-0.461,2.954-1.273l31.443-33.25
					C111.709,11.766,112.016,10.033,111.374,8.543z"/>
			</g>
			<g>
				<path class="st23" d="M27.36,47.465h48.837c1.117,0,2.185-0.461,2.954-1.273l30.652-32.412c-0.636-0.4-1.38-0.629-2.164-0.629
					H27.36c-2.246,0-4.065,1.818-4.065,4.063v26.186C23.294,45.645,25.114,47.465,27.36,47.465z"/>
			</g>
			<g>
				<path class="st205" d="M76.197,48.965H27.36c-3.069,0-5.565-2.497-5.565-5.565V10.15c0-3.068,2.497-5.564,5.565-5.564h80.28
					c2.226,0,4.232,1.32,5.112,3.364c0.881,2.046,0.461,4.411-1.07,6.024L80.241,47.222C79.193,48.33,77.719,48.965,76.197,48.965z
					 M27.36,7.586c-1.415,0-2.565,1.15-2.565,2.564v33.249c0,1.415,1.151,2.565,2.565,2.565h48.837c0.701,0,1.38-0.293,1.864-0.804
					l31.443-33.25c0.706-0.744,0.898-1.832,0.492-2.774c-0.405-0.942-1.331-1.55-2.356-1.55H27.36z"/>
			</g>
		</g>
		<g>
			<g>
				<path class="st246" d="M89.972,15.545c-0.396-0.922-1.299-1.518-2.3-1.518H38.21c-1.383,0-2.504,1.123-2.504,2.506V37.02
					c0,1.381,1.122,2.5,2.504,2.5h30.088c0.689,0,1.348-0.281,1.819-0.781l19.373-20.484C90.179,17.529,90.367,16.461,89.972,15.545
					z"/>
			</g>
			<g>
				<path class="st238" d="M38.21,39.52h30.088c0.689,0,1.348-0.281,1.819-0.781l18.886-19.971
					c-0.391-0.246-0.851-0.387-1.332-0.387H38.21c-1.383,0-2.504,1.121-2.504,2.505V37.02C35.706,38.4,36.828,39.52,38.21,39.52z"/>
			</g>
			<g>
				<path class="st205" d="M68.299,41.02H38.21c-2.208,0-4.004-1.794-4.004-4V16.533c0-2.209,1.796-4.006,4.004-4.006h49.462
					c1.601,0,3.044,0.952,3.678,2.425c0.634,1.471,0.332,3.173-0.771,4.334L71.208,39.769C70.458,40.563,69.398,41.02,68.299,41.02z
					 M38.21,15.527c-0.554,0-1.004,0.451-1.004,1.006V37.02c0,0.551,0.451,1,1.004,1h30.088c0.277,0,0.542-0.113,0.728-0.311
					l19.374-20.486c0.277-0.292,0.353-0.717,0.194-1.084c-0.16-0.372-0.522-0.611-0.922-0.611H38.21z"/>
			</g>
		</g>
		<g>
			<path class="st246" d="M53.823,30.864c0,1.478-1.199,2.679-2.677,2.679h-6.249c-1.478,0-2.677-1.201-2.677-2.679v-6.247
				c0-1.48,1.199-2.68,2.677-2.68h6.249c1.478,0,2.677,1.199,2.677,2.68V30.864z"/>
		</g>
		<g>
			<path class="st205" d="M51.146,35.043h-6.249c-2.303,0-4.177-1.875-4.177-4.179v-6.247c0-2.305,1.874-4.18,4.177-4.18h6.249
				c2.303,0,4.177,1.875,4.177,4.18v6.247C55.323,33.168,53.449,35.043,51.146,35.043z M44.897,23.438
				c-0.649,0-1.177,0.529-1.177,1.18v6.247c0,0.65,0.528,1.179,1.177,1.179h6.249c0.649,0,1.177-0.529,1.177-1.179v-6.247
				c0-0.65-0.528-1.18-1.177-1.18H44.897z"/>
		</g>
		<g>
			<path class="st52" d="M53.823,24.063"/>
		</g>
		<g>
			<path class="st205" d="M73.301,21.09H62.355c-0.829,0-1.5-0.671-1.5-1.5s0.671-1.5,1.5-1.5h10.946c0.829,0,1.5,0.671,1.5,1.5
				S74.13,21.09,73.301,21.09z"/>
		</g>
		<g>
			<path class="st205" d="M58.924,31.105H54.03c-0.829,0-1.5-0.671-1.5-1.5s0.671-1.5,1.5-1.5h4.272l8.986-8.983
				c0.586-0.585,1.536-0.585,2.122,0c0.585,0.586,0.585,1.536,0,2.122l-9.425,9.422C59.703,30.948,59.322,31.105,58.924,31.105z"/>
		</g>
		<g>
			<path class="st52" d="M77.515,24.217"/>
		</g>
		<g>
			<path class="st205" d="M70.884,30.45h-3.869c-0.829,0-1.5-0.671-1.5-1.5s0.671-1.5,1.5-1.5h3.869c0.829,0,1.5,0.671,1.5,1.5
				S71.713,30.45,70.884,30.45z"/>
		</g>
	</g>
	<g>
		<g>
			<g>
				<circle class="st135" cx="67.5" cy="107.692" r="21.22"/>
			</g>
			<g>
				<path class="st23" d="M46.279,107.692c0-11.719,9.5-21.22,21.22-21.22c11.72,0,21.221,9.501,21.221,21.22"/>
			</g>
			<g>
				<path class="st205" d="M67.5,130.414L67.5,130.414c-12.528-0.001-22.72-10.194-22.72-22.722s10.192-22.72,22.72-22.72
					c12.528,0,22.721,10.192,22.721,22.72S80.028,130.413,67.5,130.414z M67.5,87.973c-10.874,0-19.72,8.847-19.72,19.72
					c0,10.874,8.847,19.721,19.72,19.722c10.874-0.001,19.721-8.848,19.721-19.722C87.22,96.819,78.374,87.973,67.5,87.973z"/>
			</g>
			<g>
				<g>
					<polyline class="st23" points="61.763,88.342 67.5,76.486 73.237,88.342 					"/>
				</g>
				<g>
					<path class="st205" d="M73.238,89.842c-0.557,0-1.092-0.312-1.351-0.847L67.5,79.93l-4.387,9.065
						c-0.36,0.746-1.258,1.057-2.003,0.697c-0.746-0.361-1.058-1.258-0.697-2.004l5.737-11.855c0.25-0.518,0.775-0.847,1.35-0.847
						s1.1,0.329,1.35,0.847l5.737,11.855c0.361,0.746,0.049,1.643-0.697,2.004C73.68,89.794,73.457,89.842,73.238,89.842z"/>
				</g>
			</g>
		</g>
		<g>
			<g>
				<g>
					<path class="st205" d="M77.962,114.927h-7.865c-0.829,0-1.5-0.672-1.5-1.5V101.96c0-0.828,0.671-1.5,1.5-1.5h7.865
						c0.829,0,1.5,0.672,1.5,1.5v11.467C79.462,114.255,78.791,114.927,77.962,114.927z M71.597,111.927h4.865v-8.467h-4.865
						V111.927z"/>
				</g>
			</g>
			<g>
				<g>
					<g>
						<path class="st205" d="M64.902,114.927h-7.865c-0.829,0-1.5-0.672-1.5-1.5s0.671-1.5,1.5-1.5h6.365v-8.467h-6.365
							c-0.829,0-1.5-0.672-1.5-1.5s0.671-1.5,1.5-1.5h7.865c0.829,0,1.5,0.672,1.5,1.5v11.467
							C66.402,114.255,65.731,114.927,64.902,114.927z"/>
					</g>
				</g>
				<g>
					<path class="st205" d="M64.902,109.193h-7.865c-0.829,0-1.5-0.672-1.5-1.5s0.671-1.5,1.5-1.5h7.865c0.829,0,1.5,0.672,1.5,1.5
						S65.731,109.193,64.902,109.193z"/>
				</g>
			</g>
		</g>
	</g>
	<g>
		<g>
			<path class="st135" d="M63.172,55.122c1.744,0,3.275,0.979,3.813,2.433c0.008,0.021,0.018,0.041,0.03,0.059
				c0.012-0.018,0.022-0.037,0.03-0.059c0.538-1.454,2.069-2.433,3.814-2.433c2.207,0,4.004,1.583,4.004,3.525
				c0,0.708-0.234,1.391-0.682,1.972c-0.004,0.004-0.007,0.011-0.007,0.011c-0.015,0.017-0.027,0.026-0.038,0.037l-7.122,8.424
				l-7.121-8.424c-0.011-0.011-0.024-0.021-0.038-0.037c0,0-0.002-0.007-0.007-0.011c-0.448-0.581-0.682-1.264-0.682-1.972
				C59.167,56.705,60.964,55.122,63.172,55.122z"/>
		</g>
		<g>
			<path class="st105" d="M67.045,57.555c0.538-1.454,2.069-2.433,3.814-2.433c2.207,0,4.004,1.583,4.004,3.525
				c0,0.708-0.234,1.391-0.682,1.972c-0.004,0.004-0.007,0.011-0.007,0.011c-0.015,0.017-0.027,0.026-0.038,0.037l-7.122,8.424
				V57.613C67.027,57.596,67.037,57.576,67.045,57.555z"/>
		</g>
		<g>
			<path class="st205" d="M67.015,70.591L67.015,70.591c-0.441,0-0.86-0.194-1.146-0.531l-7.082-8.378
				c-0.028-0.028-0.056-0.058-0.073-0.078c-0.03-0.036-0.059-0.072-0.085-0.11c-0.63-0.834-0.962-1.817-0.962-2.846
				c0-2.771,2.47-5.025,5.505-5.025c1.471,0,2.838,0.53,3.844,1.42c1.006-0.892,2.373-1.42,3.844-1.42
				c3.035,0,5.504,2.254,5.504,5.025c0,1.028-0.333,2.011-0.962,2.846c-0.031,0.045-0.065,0.088-0.102,0.129
				c-0.015,0.017-0.037,0.04-0.059,0.062l-7.08,8.375C67.875,70.396,67.457,70.591,67.015,70.591z M61.001,59.655
				c0.014,0.015,0.027,0.029,0.039,0.043l5.976,7.069l5.976-7.069c0.012-0.014,0.024-0.028,0.037-0.042
				c0.219-0.304,0.335-0.651,0.335-1.009c0-1.098-1.146-2.025-2.504-2.025c-1.119,0-2.086,0.584-2.408,1.453
				c-0.041,0.11-0.124,0.273-0.188,0.371c-0.275,0.413-0.737,0.663-1.234,0.668c-0.004,0-0.009,0-0.014,0
				c-0.491,0-0.952-0.24-1.232-0.645c-0.074-0.106-0.163-0.28-0.208-0.401c-0.319-0.861-1.286-1.445-2.404-1.445
				c-1.358,0-2.505,0.928-2.505,2.025C60.667,59.011,60.779,59.35,61.001,59.655z"/>
		</g>
	</g>
</g>
</svg>
