<?xml version="1.0" encoding="utf-8"?>
<!-- Generator: Adobe Illustrator 16.0.0, SVG Export Plug-In . SVG Version: 6.00 Build 0)  -->
<!DOCTYPE svg PUBLIC "-//W3C//DTD SVG 1.1//EN" "http://www.w3.org/Graphics/SVG/1.1/DTD/svg11.dtd">
<svg version="1.1" id="Layer_1" xmlns="http://www.w3.org/2000/svg" xmlns:xlink="http://www.w3.org/1999/xlink" x="0px" y="0px"
	 width="135px" height="135px" viewBox="0 0 135 135" style="enable-background:new 0 0 135 135;" xml:space="preserve">
<style type="text/css">
<![CDATA[
	.st0{fill:#465652;}
	.st1{fill:#AAB9BA;}
	.st2{fill:#47C67B;}
	.st3{fill:#AAC8D1;}
	.st4{fill:none;stroke:#E83834;stroke-width:6;stroke-linecap:round;stroke-linejoin:round;stroke-miterlimit:10;}
	.st5{fill:#7BC67B;}
	.st6{fill:#7BC7FF;}
	.st7{fill:#7C34C1;}
	.st8{fill:#7C8D96;}
	.st9{fill:#AD2707;}
	.st10{fill:#ADB8BC;}
	.st11{fill:#107510;}
	.st12{fill:#7FE5D8;}
	.st13{fill:#AF4AD1;}
	.st14{fill:#E02B7E;}
	.st15{fill:#E04038;}
	.st16{fill:#AFD7DD;}
	.st17{fill:#E0A010;}
	.st18{fill:#E0D5A4;}
	.st19{fill:#12B2B2;}
	.st20{fill:#12D66B;}
	.st21{fill:#E1A9FF;}
	.st22{fill:#1362A8;}
	.st23{fill:#E2378D;}
	.st24{fill:#E29C37;}
	.st25{fill:#E2B90E;}
	.st26{fill:#E2BF91;}
	.st27{fill:#E2CBAA;}
	.st28{fill:#14A594;}
	.st29{fill:#E4E9ED;}
	.st30{fill:#4A5D60;}
	.st31{fill:#E5B076;}
	.st32{fill:#E5B1C4;}
	.st33{fill:#E5E4C3;}
	.st34{fill:#4B6466;}
	.st35{fill:#E6FF2E;}
	.st36{fill:#18AA67;}
	.st37{fill:#E86207;}
	.st38{fill:#E8A113;}
	.st39{fill:#E8B5A6;}
	.st40{fill:#E8E8ED;}
	.st41{fill:#4E5154;}
	.st42{fill:#E9F1F4;}
	.st43{fill:#4F4B48;}
	.st44{fill:#4F74E8;}
	.st45{fill:#808E93;}
	.st46{fill:#80949B;}
	.st47{fill:#80EDAC;}
	.st48{fill:#B122E0;}
	.st49{fill:#B2C4CC;}
	.st50{fill:#83D839;}
	.st51{fill:#B3C6C6;}
	.st52{fill:none;stroke:#33363A;stroke-width:3;stroke-linecap:round;stroke-linejoin:round;stroke-miterlimit:10;}
	.st53{fill:#1A8E1C;}
	.st54{fill:#1A93D6;}
	.st55{fill:#B50B0B;}
	.st56{fill:#1AD88F;}
	.st57{fill:#B5DAF4;}
	.st58{fill:#EA7B1F;}
	.st59{fill:#EA81BD;}
	.st60{fill:#87B8D6;}
	.st61{fill:#87C3F4;}
	.st62{fill:#EAC79D;}
	.st63{fill:#EADF11;}
	.st64{fill:#EAE4C5;}
	.st65{fill:#B78094;}
	.st66{fill:#8844D8;}
	.st67{fill:#EBF4F7;}
	.st68{fill:#893015;}
	.st69{fill:#89410B;}
	.st70{fill:#899BA3;}
	.st71{fill:#EDE3B9;}
	.st72{enable-background:new    ;}
	.st73{fill:#50FF9F;}
	.st74{fill:#EEDCF4;}
	.st75{fill:#EFA37D;}
	.st76{fill:#EFA3CC;}
	.st77{fill:#EFC99A;}
	.st78{fill:#54AF79;}
	.st79{fill:#BA503A;}
	.st80{fill:#BA8663;}
	.st81{fill:#8B4FE0;}
	.st82{fill:#58ED9B;}
	.st83{fill:#BC7DFF;}
	.st84{fill:#8D9AA3;}
	.st85{fill:#BCCAD3;}
	.st86{fill:#8DE4FF;}
	.st87{fill:#20B518;}
	.st88{fill:#BF44F2;}
	.st89{fill:#21CEA1;}
	.st90{fill:#BFDAE0;}
	.st91{fill:#F0FBFC;}
	.st92{fill:#F2D9A7;}
	.st93{fill:#F2EAC9;}
	.st94{fill:#24D1AF;}
	.st95{fill:#25931C;}
	.st96{fill:#F4C4B3;}
	.st97{fill:#F4D3A2;}
	.st98{fill:#F4D647;}
	.st99{fill:#F4D7B8;}
	.st100{fill:#F4EC8E;}
	.st101{fill:#5B524D;}
	.st102{fill:#F77819;}
	.st103{fill:#F79AE1;}
	.st104{fill:#5E707A;}
	.st105{fill:#F93585;}
	.st106{fill:#F95D5D;}
	.st107{fill:#F9C19B;}
	.st108{fill:#F9CB58;}
	.st109{fill:#F9D2B2;}
	.st110{fill:#F9F07D;}
	.st111{fill:#F9F1D2;}
	.st112{fill:#F9F4B7;}
	.st113{fill:#F9F9E4;}
	.st114{fill:#5F1DAA;}
	.st115{fill:#5F9AD6;}
	.st116{fill:#C0C0C4;}
	.st117{fill:#91EA57;}
	.st118{fill:#C12727;}
	.st119{fill:#C191A0;}
	.st120{fill:#923BB7;}
	.st121{fill:#93A0A3;}
	.st122{fill:#93F9EA;}
	.st123{fill:#93FF5A;}
	.st124{fill:#C4833D;}
	.st125{fill:#95A2A5;}
	.st126{fill:#965514;}
	.st127{fill:#96562C;}
	.st128{fill:#2AF42F;}
	.st129{fill:#C5D7DD;}
	.st130{fill:#C68510;}
	.st131{fill:#C6A86D;}
	.st132{fill:#C6BB8D;}
	.st133{fill:#2C9DCE;}
	.st134{fill:#FBFCF2;}
	.st135{fill:#FC70B0;}
	.st136{fill:#FCE6C8;}
	.st137{fill:#FCF7E3;}
	.st138{fill:#C90D6B;}
	.st139{fill:#FDFEFF;}
	.st140{fill:#FDFFDC;}
	.st141{fill:#FF1A1A;}
	.st142{fill:#FF5252;}
	.st143{fill:#FF5B00;}
	.st144{fill:#FF6155;}
	.st145{fill:#FF630D;}
	.st146{fill:#FF6666;}
	.st147{fill:#FF7676;}
	.st148{fill:#FF7900;}
	.st149{fill:#FF860D;}
	.st150{fill:#FF8B00;}
	.st151{fill:#FF8F8F;}
	.st152{fill:#FF900B;}
	.st153{fill:#FF908A;}
	.st154{fill:#FF960B;}
	.st155{fill:#FF9C0D;}
	.st156{fill:#FFA9D4;}
	.st157{fill:#FFAA00;}
	.st158{fill:#FFAD40;}
	.st159{fill:#FFAF10;}
	.st160{fill:#FFB000;}
	.st161{fill:#FFBE08;}
	.st162{fill:#FFBF31;}
	.st163{fill:#FFC200;}
	.st164{fill:#FFCAE8;}
	.st165{fill:#FFCCF5;}
	.st166{fill:#FFD00B;}
	.st167{fill:#FFD039;}
	.st168{fill:#FFD400;}
	.st169{fill:#FFD833;}
	.st170{fill:#FFDB80;}
	.st171{fill:#FFDDD2;}
	.st172{fill:#FFE6D4;}
	.st173{fill:#FFE6EB;}
	.st174{fill:#FFE98D;}
	.st175{fill:#FFECD2;}
	.st176{fill:#FFF1D9;}
	.st177{fill:#FFF24D;}
	.st178{fill:#FFF3C2;}
	.st179{fill:#FFF4C7;}
	.st180{fill:#FFF800;}
	.st181{fill:#FFF80D;}
	.st182{fill:#FFF9DE;}
	.st183{fill:#FFFBD7;}
	.st184{fill:#FFFBEB;}
	.st185{fill:#FFFCC0;}
	.st186{fill:#FFFCDC;}
	.st187{fill:#FFFFFA;}
	.st188{fill:#FFFFFF;}
	.st189{fill:#63797F;}
	.st190{fill:#65E529;}
	.st191{fill:#66310E;}
	.st192{fill:#663C17;}
	.st193{fill:#9A5AE5;}
	.st194{fill:#CA30EF;}
	.st195{fill:#6892FC;}
	.st196{fill:#9CFFC4;}
	.st197{fill:#CC4306;}
	.st198{fill:#CC549E;}
	.st199{fill:#9E3256;}
	.st200{fill:#CDFFBB;}
	.st201{fill:#CE86AF;}
	.st202{fill:#CED9DD;}
	
		.st203{fill:none;stroke:#33363A;stroke-width:3;stroke-linecap:round;stroke-linejoin:round;stroke-miterlimit:10;stroke-dasharray:6;}
	.st204{fill:#CFE1E2;}
	.st205{fill:#33363A;}
	.st206{fill:#34C166;}
	.st207{fill:#364B5B;}
	.st208{fill:#3662CE;}
	.st209{fill:#36C6FF;}
	.st210{fill:#6ADB9A;}
	.st211{fill:#6D5C4D;}
	.st212{fill:#6EBDF9;}
	.st213{fill:#0031FF;}
	.st214{fill:#0062FF;}
	.st215{fill:#0068FF;}
	.st216{fill:#0086FF;}
	.st217{fill:#009BE8;}
	.st218{fill:#00AAFF;}
	.st219{fill:#D271FF;}
	.st220{fill:#D363A9;}
	.st221{fill:#D3964C;}
	.st222{fill:#D3DFE2;}
	.st223{fill:#D3E0E2;}
	.st224{fill:#D3EFF4;}
	.st225{fill:#063B66;}
	.st226{fill:#D60909;}
	.st227{fill:#D61D1D;}
	.st228{fill:#D7F0FF;}
	.st229{fill:#09B285;}
	.st230{fill:#D8D593;}
	.st231{fill:#D8E2EA;}
	.st232{fill:#D8E5EA;}
	.st233{fill:#3E5054;}
	.st234{fill:#D988FF;}
	.st235{fill:#D9E7E8;}
	.st236{fill:#702252;}
	.st237{fill:#70D3E0;}
	.st238{fill:#A02FF2;}
	.st239{fill:#A2F255;}
	.st240{fill:#A35616;}
	.st241{fill:#A3CCCC;}
	.st242{fill:#0A6ADD;}
	.st243{fill:#A5145D;}
	.st244{fill:#A57555;}
	.st245{fill:#77D6FC;}
	.st246{fill:#7815CE;}
	.st247{fill:#A7BBC1;}
	.st248{fill:#DBD279;}
	.st249{fill:#0D5C9E;}
	.st250{fill:#A83C11;}
	.st251{fill:#A8633D;}
	.st252{fill:#A8A3E5;}
	.st253{fill:#DCE6EA;}
	.st254{fill:#DCE7EA;}
	.st255{fill:#A962E8;}
	.st256{fill:#DD2466;}
	.st257{fill:#DDC38A;}
	.st258{fill:#DDD2B1;}
	.st259{fill:#DFE7E8;}
	.st260{fill:#42B1E8;}
	.st261{fill:#436377;}
	.st262{fill:#43B530;}
]]>
</style>
<g>
	<g>
		<g>
			<g>
				<g>
					<path class="st135" d="M108.941,110.121c0,1.83-1.484,3.316-3.315,3.316H84.905c-1.831,0-3.315-1.486-3.315-3.316v-1.441
						c0-1.83,1.484-3.314,3.315-3.314h20.721c1.831,0,3.315,1.484,3.315,3.314V110.121z"/>
				</g>
				<g>
					<path class="st156" d="M84.905,105.365c-1.37,0-2.546,0.83-3.051,2.018c0.505,1.186,1.681,2.018,3.051,2.018h20.721
						c1.37,0,2.546-0.832,3.051-2.018c-0.505-1.188-1.681-2.018-3.051-2.018H84.905z"/>
				</g>
				<g>
					<path class="st205" d="M105.626,114.938H84.905c-2.655,0-4.815-2.161-4.815-4.816v-1.441c0-2.655,2.16-4.814,4.815-4.814
						h20.721c2.655,0,4.815,2.16,4.815,4.814v1.441C110.441,112.777,108.281,114.938,105.626,114.938z M84.905,106.865
						c-1.001,0-1.815,0.814-1.815,1.814v1.441c0,1.001,0.814,1.816,1.815,1.816h20.721c1.001,0,1.815-0.815,1.815-1.816v-1.441
						c0-1-0.814-1.814-1.815-1.814H84.905z"/>
				</g>
			</g>
			<g>
				<g>
					<path class="st135" d="M104.798,118.191c0,1.832-1.485,3.316-3.315,3.316H80.762c-1.832,0-3.316-1.484-3.316-3.316v-1.439
						c0-1.832,1.484-3.314,3.316-3.314h20.721c1.83,0,3.315,1.482,3.315,3.314V118.191z"/>
				</g>
				<g>
					<path class="st156" d="M80.762,113.438c-1.371,0-2.547,0.83-3.053,2.016c0.506,1.186,1.682,2.018,3.053,2.018h20.721
						c1.371,0,2.546-0.832,3.051-2.018c-0.505-1.186-1.68-2.016-3.051-2.016H80.762z"/>
				</g>
				<g>
					<path class="st205" d="M101.482,123.008H80.762c-2.656,0-4.816-2.161-4.816-4.816v-1.439c0-2.655,2.16-4.814,4.816-4.814
						h20.721c2.655,0,4.815,2.16,4.815,4.814v1.439C106.298,120.847,104.138,123.008,101.482,123.008z M80.762,114.938
						c-1.002,0-1.816,0.814-1.816,1.814v1.439c0,1.001,0.814,1.816,1.816,1.816h20.721c1.001,0,1.815-0.815,1.815-1.816v-1.439
						c0-1-0.814-1.814-1.815-1.814H80.762z"/>
				</g>
			</g>
			<g>
				<g>
					<path class="st135" d="M100.652,126.264c0,1.83-1.484,3.314-3.314,3.314H76.616c-1.831,0-3.315-1.484-3.315-3.314v-1.441
						c0-1.83,1.484-3.314,3.315-3.314h20.722c1.83,0,3.314,1.484,3.314,3.314V126.264z"/>
				</g>
				<g>
					<path class="st156" d="M76.616,121.508c-1.37,0-2.546,0.831-3.05,2.018c0.504,1.188,1.68,2.018,3.05,2.018h20.722
						c1.37,0,2.547-0.83,3.051-2.018c-0.504-1.187-1.681-2.018-3.051-2.018H76.616z"/>
				</g>
				<g>
					<path class="st205" d="M97.338,131.078H76.616c-2.655,0-4.815-2.16-4.815-4.814v-1.441c0-2.655,2.16-4.814,4.815-4.814h20.722
						c2.654,0,4.814,2.16,4.814,4.814v1.441C102.152,128.918,99.992,131.078,97.338,131.078z M76.616,123.008
						c-1.001,0-1.815,0.814-1.815,1.814v1.441c0,1,0.814,1.814,1.815,1.814h20.722c1.001,0,1.814-0.814,1.814-1.814v-1.441
						c0-1-0.813-1.814-1.814-1.814H76.616z"/>
				</g>
			</g>
		</g>
		<g>
			<g>
				<path class="st135" d="M111.374,90.656c-0.643-1.49-2.11-2.457-3.734-2.457h-80.28c-2.245,0-4.064,1.82-4.064,4.064v33.25
					c0,2.244,1.819,4.064,4.064,4.064h48.838c1.117,0,2.186-0.46,2.953-1.273l31.443-33.248
					C111.709,93.879,112.016,92.147,111.374,90.656z"/>
			</g>
			<g>
				<path class="st23" d="M27.359,129.578h48.838c1.117,0,2.186-0.46,2.953-1.273l30.652-32.411
					c-0.636-0.401-1.38-0.629-2.163-0.629h-80.28c-2.245,0-4.064,1.818-4.064,4.063v26.186
					C23.295,127.758,25.114,129.578,27.359,129.578z"/>
			</g>
			<g>
				<path class="st205" d="M76.197,131.078H27.359c-3.068,0-5.564-2.496-5.564-5.564v-33.25c0-3.068,2.496-5.564,5.564-5.564h80.28
					c2.225,0,4.23,1.32,5.111,3.363c0.881,2.046,0.461,4.411-1.068,6.025L80.24,129.335
					C79.195,130.442,77.722,131.078,76.197,131.078z M27.359,89.699c-1.414,0-2.564,1.15-2.564,2.564v33.25
					c0,1.414,1.15,2.564,2.564,2.564h48.838c0.702,0,1.381-0.292,1.862-0.803l31.444-33.25c0.705-0.744,0.897-1.834,0.492-2.777
					c-0.405-0.941-1.331-1.55-2.356-1.55H27.359z"/>
			</g>
		</g>
		<g>
			<g>
				<path class="st246" d="M89.973,97.658c-0.396-0.921-1.3-1.516-2.301-1.516H38.211c-1.383,0-2.505,1.124-2.505,2.506v20.484
					c0,1.382,1.122,2.503,2.505,2.503h30.088c0.689,0,1.348-0.283,1.819-0.784l19.372-20.483
					C90.179,99.642,90.367,98.575,89.973,97.658z"/>
			</g>
			<g>
				<path class="st238" d="M38.211,121.636h30.088c0.689,0,1.348-0.283,1.819-0.784l18.886-19.969
					c-0.391-0.246-0.851-0.389-1.332-0.389H38.211c-1.383,0-2.505,1.121-2.505,2.506v16.133
					C35.706,120.515,36.828,121.636,38.211,121.636z"/>
			</g>
			<g>
				<path class="st205" d="M68.299,123.136H38.211c-2.208,0-4.005-1.796-4.005-4.003V98.648c0-2.209,1.797-4.006,4.005-4.006h49.461
					c1.601,0,3.045,0.951,3.679,2.422c0.633,1.471,0.33,3.172-0.771,4.335l-19.371,20.482
					C70.459,122.678,69.397,123.136,68.299,123.136z M38.211,97.643c-0.554,0-1.005,0.451-1.005,1.006v20.484
					c0,0.553,0.451,1.003,1.005,1.003h30.088c0.275,0,0.54-0.114,0.728-0.312L88.4,99.337c0.277-0.292,0.353-0.718,0.194-1.086
					c-0.159-0.37-0.521-0.608-0.923-0.608H38.211z"/>
			</g>
		</g>
		<g>
			<path class="st246" d="M53.823,112.979c0,1.479-1.199,2.678-2.677,2.678h-6.25c-1.478,0-2.677-1.199-2.677-2.678v-6.248
				c0-1.479,1.199-2.679,2.677-2.679h6.25c1.478,0,2.677,1.199,2.677,2.679V112.979z"/>
		</g>
		<g>
			<path class="st205" d="M51.146,117.156h-6.25c-2.303,0-4.177-1.874-4.177-4.178v-6.248c0-2.304,1.874-4.179,4.177-4.179h6.25
				c2.303,0,4.177,1.875,4.177,4.179v6.248C55.323,115.282,53.449,117.156,51.146,117.156z M44.896,105.552
				c-0.648,0-1.177,0.529-1.177,1.179v6.248c0,0.649,0.528,1.178,1.177,1.178h6.25c0.648,0,1.177-0.528,1.177-1.178v-6.248
				c0-0.65-0.528-1.179-1.177-1.179H44.896z"/>
		</g>
		<g>
			<path class="st52" d="M53.823,106.178"/>
		</g>
		<g>
			<path class="st205" d="M73.301,103.205H62.355c-0.828,0-1.5-0.671-1.5-1.5s0.672-1.5,1.5-1.5h10.945c0.828,0,1.5,0.671,1.5,1.5
				S74.129,103.205,73.301,103.205z"/>
		</g>
		<g>
			<path class="st205" d="M58.924,113.22H54.03c-0.828,0-1.5-0.671-1.5-1.5s0.672-1.5,1.5-1.5h4.272l8.986-8.983
				c0.586-0.585,1.535-0.585,2.121,0s0.586,1.536,0,2.122l-9.426,9.422C59.703,113.062,59.321,113.22,58.924,113.22z"/>
		</g>
		<g>
			<path class="st52" d="M77.515,106.329"/>
		</g>
		<g>
			<path class="st205" d="M70.885,112.564h-3.869c-0.828,0-1.5-0.671-1.5-1.5s0.672-1.5,1.5-1.5h3.869c0.828,0,1.5,0.671,1.5,1.5
				S71.713,112.564,70.885,112.564z"/>
		</g>
	</g>
	<g>
		<g>
			<g>
				<g>
					<path class="st135" d="M108.941,68.731c0,1.832-1.484,3.317-3.315,3.317H84.905c-1.831,0-3.315-1.485-3.315-3.317v-1.44
						c0-1.83,1.484-3.316,3.315-3.316h20.721c1.831,0,3.315,1.486,3.315,3.316V68.731z"/>
				</g>
				<g>
					<path class="st156" d="M84.905,63.975c-1.37,0-2.546,0.832-3.051,2.019c0.505,1.187,1.681,2.019,3.051,2.019h20.721
						c1.37,0,2.546-0.832,3.051-2.019c-0.505-1.187-1.681-2.019-3.051-2.019H84.905z"/>
				</g>
				<g>
					<path class="st205" d="M105.626,73.549H84.905c-2.655,0-4.815-2.161-4.815-4.817v-1.44c0-2.656,2.16-4.816,4.815-4.816h20.721
						c2.655,0,4.815,2.161,4.815,4.816v1.44C110.441,71.388,108.281,73.549,105.626,73.549z M84.905,65.475
						c-1.001,0-1.815,0.815-1.815,1.816v1.44c0,1.002,0.814,1.817,1.815,1.817h20.721c1.001,0,1.815-0.815,1.815-1.817v-1.44
						c0-1.001-0.814-1.816-1.815-1.816H84.905z"/>
				</g>
			</g>
			<g>
				<g>
					<path class="st135" d="M104.798,76.803c0,1.83-1.485,3.314-3.315,3.314H80.762c-1.832,0-3.316-1.484-3.316-3.314v-1.439
						c0-1.832,1.484-3.314,3.316-3.314h20.721c1.83,0,3.315,1.482,3.315,3.314V76.803z"/>
				</g>
				<g>
					<path class="st156" d="M80.762,72.049c-1.371,0-2.547,0.83-3.053,2.016c0.506,1.186,1.682,2.018,3.053,2.018h20.721
						c1.371,0,2.546-0.832,3.051-2.018c-0.505-1.186-1.68-2.016-3.051-2.016H80.762z"/>
				</g>
				<g>
					<path class="st205" d="M101.482,81.617H80.762c-2.656,0-4.816-2.16-4.816-4.814v-1.439c0-2.655,2.16-4.814,4.816-4.814h20.721
						c2.655,0,4.815,2.16,4.815,4.814v1.439C106.298,79.458,104.138,81.617,101.482,81.617z M80.762,73.549
						c-1.002,0-1.816,0.814-1.816,1.814v1.439c0,1,0.814,1.814,1.816,1.814h20.721c1.001,0,1.815-0.814,1.815-1.814v-1.439
						c0-1-0.814-1.814-1.815-1.814H80.762z"/>
				</g>
			</g>
			<g>
				<g>
					<path class="st135" d="M100.652,84.875c0,1.83-1.484,3.314-3.314,3.314H76.616c-1.831,0-3.315-1.484-3.315-3.314v-1.44
						c0-1.831,1.484-3.317,3.315-3.317h20.722c1.83,0,3.314,1.486,3.314,3.317V84.875z"/>
				</g>
				<g>
					<path class="st156" d="M76.616,80.117c-1.37,0-2.546,0.832-3.05,2.02c0.504,1.186,1.68,2.018,3.05,2.018h20.722
						c1.37,0,2.547-0.832,3.051-2.018c-0.504-1.188-1.681-2.02-3.051-2.02H76.616z"/>
				</g>
				<g>
					<path class="st205" d="M97.338,89.689H76.616c-2.655,0-4.815-2.16-4.815-4.814v-1.44c0-2.656,2.16-4.817,4.815-4.817h20.722
						c2.654,0,4.814,2.161,4.814,4.817v1.44C102.152,87.53,99.992,89.689,97.338,89.689z M76.616,81.617
						c-1.001,0-1.815,0.815-1.815,1.817v1.44c0,1,0.814,1.814,1.815,1.814h20.722c1.001,0,1.814-0.814,1.814-1.814v-1.44
						c0-1.002-0.813-1.817-1.814-1.817H76.616z"/>
				</g>
			</g>
		</g>
		<g>
			<g>
				<path class="st135" d="M111.374,49.268c-0.643-1.492-2.11-2.457-3.734-2.457h-80.28c-2.245,0-4.064,1.82-4.064,4.064v33.25
					c0,2.244,1.819,4.064,4.064,4.064h48.838c1.117,0,2.186-0.459,2.953-1.272l31.443-33.251
					C111.709,52.49,112.016,50.759,111.374,49.268z"/>
			</g>
			<g>
				<path class="st23" d="M27.359,88.189h48.838c1.117,0,2.186-0.459,2.953-1.272l30.652-32.413
					c-0.636-0.398-1.38-0.628-2.163-0.628h-80.28c-2.245,0-4.064,1.819-4.064,4.063v26.186
					C23.295,86.369,25.114,88.189,27.359,88.189z"/>
			</g>
			<g>
				<path class="st205" d="M76.197,89.689H27.359c-3.068,0-5.564-2.496-5.564-5.564v-33.25c0-3.068,2.496-5.564,5.564-5.564h80.28
					c2.226,0,4.232,1.32,5.112,3.364c0.88,2.046,0.46,4.411-1.07,6.024L80.24,87.948C79.196,89.054,77.722,89.689,76.197,89.689z
					 M27.359,48.311c-1.414,0-2.564,1.15-2.564,2.564v33.25c0,1.414,1.15,2.564,2.564,2.564h48.838c0.702,0,1.381-0.292,1.862-0.802
					l31.444-33.252c0.705-0.744,0.897-1.832,0.492-2.775c-0.405-0.941-1.33-1.55-2.356-1.55H27.359z"/>
			</g>
		</g>
		<g>
			<g>
				<path class="st246" d="M89.973,56.27c-0.396-0.921-1.3-1.516-2.301-1.516H38.211c-1.383,0-2.505,1.123-2.505,2.506v20.484
					c0,1.383,1.122,2.502,2.505,2.502h30.088c0.689,0,1.348-0.281,1.819-0.783L89.49,58.979
					C90.179,58.252,90.367,57.185,89.973,56.27z"/>
			</g>
			<g>
				<path class="st238" d="M38.211,80.246h30.088c0.689,0,1.348-0.281,1.819-0.783l18.886-19.97
					c-0.391-0.245-0.851-0.386-1.332-0.386H38.211c-1.383,0-2.505,1.119-2.505,2.502v16.135
					C35.706,79.127,36.828,80.246,38.211,80.246z"/>
			</g>
			<g>
				<path class="st205" d="M68.299,81.746H38.211c-2.208,0-4.005-1.795-4.005-4.002V57.26c0-2.209,1.797-4.006,4.005-4.006h49.461
					c1.601,0,3.045,0.951,3.679,2.422c0.634,1.469,0.331,3.171-0.771,4.334L71.208,80.494
					C70.461,81.288,69.399,81.746,68.299,81.746z M38.211,56.254c-0.554,0-1.005,0.451-1.005,1.006v20.484
					c0,0.552,0.451,1.002,1.005,1.002h30.088c0.276,0,0.541-0.113,0.727-0.311L88.4,57.948c0.277-0.292,0.354-0.717,0.195-1.084
					c-0.16-0.371-0.522-0.609-0.924-0.609H38.211z"/>
			</g>
		</g>
		<g>
			<path class="st246" d="M53.823,71.59c0,1.477-1.199,2.678-2.677,2.678h-6.25c-1.478,0-2.677-1.201-2.677-2.678v-6.248
				c0-1.479,1.199-2.678,2.677-2.678h6.25c1.478,0,2.677,1.199,2.677,2.678V71.59z"/>
		</g>
		<g>
			<path class="st205" d="M51.146,75.768h-6.25c-2.303,0-4.177-1.874-4.177-4.178v-6.248c0-2.304,1.874-4.178,4.177-4.178h6.25
				c2.303,0,4.177,1.874,4.177,4.178v6.248C55.323,73.894,53.449,75.768,51.146,75.768z M44.896,64.164
				c-0.648,0-1.177,0.528-1.177,1.178v6.248c0,0.649,0.528,1.178,1.177,1.178h6.25c0.648,0,1.177-0.528,1.177-1.178v-6.248
				c0-0.649-0.528-1.178-1.177-1.178H44.896z"/>
		</g>
		<g>
			<path class="st52" d="M53.823,64.787"/>
		</g>
		<g>
			<path class="st205" d="M73.301,61.813H62.355c-0.828,0-1.5-0.671-1.5-1.5s0.672-1.5,1.5-1.5h10.945c0.828,0,1.5,0.671,1.5,1.5
				S74.129,61.813,73.301,61.813z"/>
		</g>
		<g>
			<path class="st205" d="M58.924,71.83H54.03c-0.828,0-1.5-0.671-1.5-1.5s0.672-1.5,1.5-1.5h4.272l8.986-8.983
				c0.586-0.585,1.535-0.585,2.121,0s0.586,1.536,0,2.122l-9.426,9.422C59.703,71.672,59.321,71.83,58.924,71.83z"/>
		</g>
		<g>
			<path class="st52" d="M77.515,64.941"/>
		</g>
		<g>
			<path class="st205" d="M70.885,71.176h-3.869c-0.828,0-1.5-0.671-1.5-1.5s0.672-1.5,1.5-1.5h3.869c0.828,0,1.5,0.671,1.5,1.5
				S71.713,71.176,70.885,71.176z"/>
		</g>
	</g>
	<g>
		<g>
			<g>
				<g>
					<path class="st135" d="M108.941,27.342c0,1.832-1.484,3.316-3.315,3.316H84.905c-1.831,0-3.315-1.484-3.315-3.316v-1.439
						c0-1.831,1.484-3.317,3.315-3.317h20.721c1.831,0,3.315,1.486,3.315,3.317V27.342z"/>
				</g>
				<g>
					<path class="st156" d="M84.905,22.585c-1.37,0-2.546,0.833-3.051,2.02c0.505,1.187,1.681,2.017,3.051,2.017h20.721
						c1.37,0,2.546-0.83,3.051-2.017c-0.505-1.187-1.681-2.02-3.051-2.02H84.905z"/>
				</g>
				<g>
					<path class="st205" d="M105.626,32.158H84.905c-2.655,0-4.815-2.161-4.815-4.816v-1.439c0-2.656,2.16-4.817,4.815-4.817h20.721
						c2.655,0,4.815,2.161,4.815,4.817v1.439C110.441,29.998,108.281,32.158,105.626,32.158z M84.905,24.085
						c-1.001,0-1.815,0.815-1.815,1.817v1.439c0,1.001,0.814,1.816,1.815,1.816h20.721c1.001,0,1.815-0.815,1.815-1.816v-1.439
						c0-1.002-0.814-1.817-1.815-1.817H84.905z"/>
				</g>
			</g>
			<g>
				<g>
					<path class="st135" d="M104.798,35.413c0,1.83-1.485,3.317-3.315,3.317H80.762c-1.832,0-3.316-1.487-3.316-3.317v-1.438
						c0-1.832,1.484-3.316,3.316-3.316h20.721c1.83,0,3.315,1.484,3.315,3.316V35.413z"/>
				</g>
				<g>
					<path class="st156" d="M80.762,30.658c-1.371,0-2.547,0.832-3.053,2.017c0.506,1.186,1.682,2.02,3.053,2.02h20.721
						c1.371,0,2.546-0.834,3.051-2.02c-0.505-1.185-1.68-2.017-3.051-2.017H80.762z"/>
				</g>
				<g>
					<path class="st205" d="M101.482,40.23H80.762c-2.656,0-4.816-2.161-4.816-4.817v-1.438c0-2.656,2.16-4.816,4.816-4.816h20.721
						c2.655,0,4.815,2.161,4.815,4.816v1.438C106.298,38.069,104.138,40.23,101.482,40.23z M80.762,32.158
						c-1.002,0-1.816,0.815-1.816,1.816v1.438c0,1.002,0.814,1.817,1.816,1.817h20.721c1.001,0,1.815-0.815,1.815-1.817v-1.438
						c0-1.001-0.814-1.816-1.815-1.816H80.762z"/>
				</g>
			</g>
			<g>
				<g>
					<path class="st135" d="M100.652,43.486c0,1.83-1.484,3.314-3.314,3.314H76.616c-1.831,0-3.315-1.484-3.315-3.314v-1.441
						c0-1.832,1.484-3.314,3.315-3.314h20.722c1.83,0,3.314,1.482,3.314,3.314V43.486z"/>
				</g>
				<g>
					<path class="st156" d="M76.616,38.73c-1.37,0-2.546,0.83-3.05,2.018c0.504,1.186,1.68,2.018,3.05,2.018h20.722
						c1.37,0,2.547-0.832,3.051-2.018c-0.504-1.188-1.681-2.018-3.051-2.018H76.616z"/>
				</g>
				<g>
					<path class="st205" d="M97.338,48.301H76.616c-2.655,0-4.815-2.16-4.815-4.814v-1.441c0-2.655,2.16-4.814,4.815-4.814h20.722
						c2.654,0,4.814,2.16,4.814,4.814v1.441C102.152,46.141,99.992,48.301,97.338,48.301z M76.616,40.23
						c-1.001,0-1.815,0.814-1.815,1.814v1.441c0,1,0.814,1.814,1.815,1.814h20.722c1.001,0,1.814-0.814,1.814-1.814v-1.441
						c0-1-0.813-1.814-1.814-1.814H76.616z"/>
				</g>
			</g>
		</g>
		<g>
			<g>
				<path class="st135" d="M111.374,7.879c-0.643-1.492-2.11-2.457-3.734-2.457h-80.28c-2.245,0-4.064,1.82-4.064,4.064v33.249
					c0,2.245,1.819,4.065,4.064,4.065h48.838c1.117,0,2.186-0.461,2.953-1.273l31.443-33.25
					C111.709,11.102,112.016,9.369,111.374,7.879z"/>
			</g>
			<g>
				<path class="st23" d="M27.359,46.801h48.838c1.117,0,2.186-0.461,2.953-1.273l30.652-32.412c-0.636-0.4-1.38-0.629-2.163-0.629
					h-80.28c-2.245,0-4.064,1.818-4.064,4.063v26.186C23.295,44.98,25.114,46.801,27.359,46.801z"/>
			</g>
			<g>
				<path class="st205" d="M76.197,48.301H27.359c-3.068,0-5.564-2.497-5.564-5.565V9.486c0-3.068,2.496-5.564,5.564-5.564h80.28
					c2.226,0,4.232,1.32,5.112,3.364c0.881,2.046,0.461,4.41-1.07,6.024L80.24,46.558C79.194,47.666,77.721,48.301,76.197,48.301z
					 M27.359,6.922c-1.414,0-2.564,1.15-2.564,2.564v33.249c0,1.415,1.15,2.565,2.564,2.565h48.838c0.701,0,1.38-0.293,1.862-0.804
					l31.444-33.25c0.705-0.744,0.898-1.832,0.492-2.774c-0.405-0.942-1.33-1.55-2.356-1.55H27.359z"/>
			</g>
		</g>
		<g>
			<g>
				<path class="st246" d="M89.973,14.881c-0.396-0.922-1.3-1.518-2.301-1.518H38.211c-1.383,0-2.505,1.123-2.505,2.506v20.486
					c0,1.381,1.122,2.5,2.505,2.5h30.088c0.689,0,1.348-0.281,1.819-0.781L89.49,17.59C90.179,16.865,90.367,15.797,89.973,14.881z"
					/>
			</g>
			<g>
				<path class="st238" d="M38.211,38.855h30.088c0.689,0,1.348-0.281,1.819-0.781l18.886-19.971
					c-0.391-0.246-0.851-0.387-1.332-0.387H38.211c-1.383,0-2.505,1.121-2.505,2.505v16.134
					C35.706,37.736,36.828,38.855,38.211,38.855z"/>
			</g>
			<g>
				<path class="st205" d="M68.299,40.355H38.211c-2.208,0-4.005-1.794-4.005-4V15.869c0-2.209,1.797-4.006,4.005-4.006h49.461
					c1.602,0,3.045,0.952,3.679,2.425c0.634,1.472,0.331,3.173-0.772,4.335l-19.37,20.482
					C70.459,39.899,69.397,40.355,68.299,40.355z M38.211,14.863c-0.554,0-1.005,0.451-1.005,1.006v20.486c0,0.551,0.451,1,1.005,1
					h30.088c0.276,0,0.542-0.113,0.729-0.311L88.4,16.559c0.277-0.292,0.354-0.717,0.194-1.085
					c-0.159-0.371-0.521-0.611-0.923-0.611H38.211z"/>
			</g>
		</g>
		<g>
			<path class="st246" d="M53.823,30.2c0,1.478-1.199,2.679-2.677,2.679h-6.25c-1.478,0-2.677-1.201-2.677-2.679v-6.247
				c0-1.48,1.199-2.68,2.677-2.68h6.25c1.478,0,2.677,1.199,2.677,2.68V30.2z"/>
		</g>
		<g>
			<path class="st205" d="M51.146,34.379h-6.25c-2.303,0-4.177-1.875-4.177-4.179v-6.247c0-2.305,1.874-4.18,4.177-4.18h6.25
				c2.303,0,4.177,1.875,4.177,4.18V30.2C55.323,32.504,53.449,34.379,51.146,34.379z M44.896,22.773
				c-0.648,0-1.177,0.529-1.177,1.18V30.2c0,0.65,0.528,1.179,1.177,1.179h6.25c0.648,0,1.177-0.529,1.177-1.179v-6.247
				c0-0.65-0.528-1.18-1.177-1.18H44.896z"/>
		</g>
		<g>
			<path class="st52" d="M53.823,23.399"/>
		</g>
		<g>
			<path class="st205" d="M73.301,20.426H62.355c-0.828,0-1.5-0.671-1.5-1.5s0.672-1.5,1.5-1.5h10.945c0.828,0,1.5,0.671,1.5,1.5
				S74.129,20.426,73.301,20.426z"/>
		</g>
		<g>
			<path class="st205" d="M58.924,30.441H54.03c-0.828,0-1.5-0.671-1.5-1.5s0.672-1.5,1.5-1.5h4.272l8.986-8.983
				c0.586-0.585,1.535-0.585,2.121,0s0.586,1.536,0,2.122l-9.426,9.422C59.703,30.284,59.321,30.441,58.924,30.441z"/>
		</g>
		<g>
			<path class="st52" d="M77.515,23.553"/>
		</g>
		<g>
			<path class="st205" d="M70.885,29.786h-3.869c-0.828,0-1.5-0.671-1.5-1.5s0.672-1.5,1.5-1.5h3.869c0.828,0,1.5,0.671,1.5,1.5
				S71.713,29.786,70.885,29.786z"/>
		</g>
	</g>
</g>
</svg>
