<?xml version="1.0" encoding="utf-8"?>
<!-- Generator: Adobe Illustrator 16.0.0, SVG Export Plug-In . SVG Version: 6.00 Build 0)  -->
<!DOCTYPE svg PUBLIC "-//W3C//DTD SVG 1.1//EN" "http://www.w3.org/Graphics/SVG/1.1/DTD/svg11.dtd">
<svg version="1.1" id="Layer_1" xmlns="http://www.w3.org/2000/svg" xmlns:xlink="http://www.w3.org/1999/xlink" x="0px" y="0px"
	 width="135px" height="135px" viewBox="0 0 135 135" style="enable-background:new 0 0 135 135;" xml:space="preserve">
<style type="text/css">
<![CDATA[
	.st0{fill:#465652;}
	.st1{fill:#AAB9BA;}
	.st2{fill:#47C67B;}
	.st3{fill:#AAC8D1;}
	.st4{fill:none;stroke:#E83834;stroke-width:6;stroke-linecap:round;stroke-linejoin:round;stroke-miterlimit:10;}
	.st5{fill:#7BC67B;}
	.st6{fill:#7BC7FF;}
	.st7{fill:#7C34C1;}
	.st8{fill:#7C8D96;}
	.st9{fill:#AD2707;}
	.st10{fill:#ADB8BC;}
	.st11{fill:#107510;}
	.st12{fill:#7FE5D8;}
	.st13{fill:#AF4AD1;}
	.st14{fill:#E02B7E;}
	.st15{fill:#E04038;}
	.st16{fill:#AFD7DD;}
	.st17{fill:#E0A010;}
	.st18{fill:#E0D5A4;}
	.st19{fill:#12B2B2;}
	.st20{fill:#12D66B;}
	.st21{fill:#E1A9FF;}
	.st22{fill:#1362A8;}
	.st23{fill:#E2378D;}
	.st24{fill:#E29C37;}
	.st25{fill:#E2B90E;}
	.st26{fill:#E2BF91;}
	.st27{fill:#E2CBAA;}
	.st28{fill:#14A594;}
	.st29{fill:#E4E9ED;}
	.st30{fill:#4A5D60;}
	.st31{fill:#E5B076;}
	.st32{fill:#E5B1C4;}
	.st33{fill:#E5E4C3;}
	.st34{fill:#4B6466;}
	.st35{fill:#E6FF2E;}
	.st36{fill:#18AA67;}
	.st37{fill:#E86207;}
	.st38{fill:#E8A113;}
	.st39{fill:#E8B5A6;}
	.st40{fill:#E8E8ED;}
	.st41{fill:#4E5154;}
	.st42{fill:#E9F1F4;}
	.st43{fill:#4F4B48;}
	.st44{fill:#4F74E8;}
	.st45{fill:#808E93;}
	.st46{fill:#80949B;}
	.st47{fill:#80EDAC;}
	.st48{fill:#B122E0;}
	.st49{fill:#B2C4CC;}
	.st50{fill:#83D839;}
	.st51{fill:#B3C6C6;}
	.st52{fill:none;stroke:#33363A;stroke-width:3;stroke-linecap:round;stroke-linejoin:round;stroke-miterlimit:10;}
	.st53{fill:#1A8E1C;}
	.st54{fill:#1A93D6;}
	.st55{fill:#B50B0B;}
	.st56{fill:#1AD88F;}
	.st57{fill:#B5DAF4;}
	.st58{fill:#EA7B1F;}
	.st59{fill:#EA81BD;}
	.st60{fill:#87B8D6;}
	.st61{fill:#87C3F4;}
	.st62{fill:#EAC79D;}
	.st63{fill:#EADF11;}
	.st64{fill:#EAE4C5;}
	.st65{fill:#B78094;}
	.st66{fill:#8844D8;}
	.st67{fill:#EBF4F7;}
	.st68{fill:#893015;}
	.st69{fill:#89410B;}
	.st70{fill:#899BA3;}
	.st71{fill:#EDE3B9;}
	.st72{enable-background:new    ;}
	.st73{fill:#50FF9F;}
	.st74{fill:#EEDCF4;}
	.st75{fill:#EFA37D;}
	.st76{fill:#EFA3CC;}
	.st77{fill:#EFC99A;}
	.st78{fill:#54AF79;}
	.st79{fill:#BA503A;}
	.st80{fill:#BA8663;}
	.st81{fill:#8B4FE0;}
	.st82{fill:#58ED9B;}
	.st83{fill:#BC7DFF;}
	.st84{fill:#8D9AA3;}
	.st85{fill:#BCCAD3;}
	.st86{fill:#8DE4FF;}
	.st87{fill:#20B518;}
	.st88{fill:#BF44F2;}
	.st89{fill:#21CEA1;}
	.st90{fill:#BFDAE0;}
	.st91{fill:#F0FBFC;}
	.st92{fill:#F2D9A7;}
	.st93{fill:#F2EAC9;}
	.st94{fill:#24D1AF;}
	.st95{fill:#25931C;}
	.st96{fill:#F4C4B3;}
	.st97{fill:#F4D3A2;}
	.st98{fill:#F4D647;}
	.st99{fill:#F4D7B8;}
	.st100{fill:#F4EC8E;}
	.st101{fill:#5B524D;}
	.st102{fill:#F77819;}
	.st103{fill:#F79AE1;}
	.st104{fill:#5E707A;}
	.st105{fill:#F93585;}
	.st106{fill:#F95D5D;}
	.st107{fill:#F9C19B;}
	.st108{fill:#F9CB58;}
	.st109{fill:#F9D2B2;}
	.st110{fill:#F9F07D;}
	.st111{fill:#F9F1D2;}
	.st112{fill:#F9F4B7;}
	.st113{fill:#F9F9E4;}
	.st114{fill:#5F1DAA;}
	.st115{fill:#5F9AD6;}
	.st116{fill:#C0C0C4;}
	.st117{fill:#91EA57;}
	.st118{fill:#C12727;}
	.st119{fill:#C191A0;}
	.st120{fill:#923BB7;}
	.st121{fill:#93A0A3;}
	.st122{fill:#93F9EA;}
	.st123{fill:#93FF5A;}
	.st124{fill:#C4833D;}
	.st125{fill:#95A2A5;}
	.st126{fill:#965514;}
	.st127{fill:#96562C;}
	.st128{fill:#2AF42F;}
	.st129{fill:#C5D7DD;}
	.st130{fill:#C68510;}
	.st131{fill:#C6A86D;}
	.st132{fill:#C6BB8D;}
	.st133{fill:#2C9DCE;}
	.st134{fill:#FBFCF2;}
	.st135{fill:#FC70B0;}
	.st136{fill:#FCE6C8;}
	.st137{fill:#FCF7E3;}
	.st138{fill:#C90D6B;}
	.st139{fill:#FDFEFF;}
	.st140{fill:#FDFFDC;}
	.st141{fill:#FF1A1A;}
	.st142{fill:#FF5252;}
	.st143{fill:#FF5B00;}
	.st144{fill:#FF6155;}
	.st145{fill:#FF630D;}
	.st146{fill:#FF6666;}
	.st147{fill:#FF7676;}
	.st148{fill:#FF7900;}
	.st149{fill:#FF860D;}
	.st150{fill:#FF8B00;}
	.st151{fill:#FF8F8F;}
	.st152{fill:#FF900B;}
	.st153{fill:#FF908A;}
	.st154{fill:#FF960B;}
	.st155{fill:#FF9C0D;}
	.st156{fill:#FFA9D4;}
	.st157{fill:#FFAA00;}
	.st158{fill:#FFAD40;}
	.st159{fill:#FFAF10;}
	.st160{fill:#FFB000;}
	.st161{fill:#FFBE08;}
	.st162{fill:#FFBF31;}
	.st163{fill:#FFC200;}
	.st164{fill:#FFCAE8;}
	.st165{fill:#FFCCF5;}
	.st166{fill:#FFD00B;}
	.st167{fill:#FFD039;}
	.st168{fill:#FFD400;}
	.st169{fill:#FFD833;}
	.st170{fill:#FFDB80;}
	.st171{fill:#FFDDD2;}
	.st172{fill:#FFE6D4;}
	.st173{fill:#FFE6EB;}
	.st174{fill:#FFE98D;}
	.st175{fill:#FFECD2;}
	.st176{fill:#FFF1D9;}
	.st177{fill:#FFF24D;}
	.st178{fill:#FFF3C2;}
	.st179{fill:#FFF4C7;}
	.st180{fill:#FFF800;}
	.st181{fill:#FFF80D;}
	.st182{fill:#FFF9DE;}
	.st183{fill:#FFFBD7;}
	.st184{fill:#FFFBEB;}
	.st185{fill:#FFFCC0;}
	.st186{fill:#FFFCDC;}
	.st187{fill:#FFFFFA;}
	.st188{fill:#FFFFFF;}
	.st189{fill:#63797F;}
	.st190{fill:#65E529;}
	.st191{fill:#66310E;}
	.st192{fill:#663C17;}
	.st193{fill:#9A5AE5;}
	.st194{fill:#CA30EF;}
	.st195{fill:#6892FC;}
	.st196{fill:#9CFFC4;}
	.st197{fill:#CC4306;}
	.st198{fill:#CC549E;}
	.st199{fill:#9E3256;}
	.st200{fill:#CDFFBB;}
	.st201{fill:#CE86AF;}
	.st202{fill:#CED9DD;}
	
		.st203{fill:none;stroke:#33363A;stroke-width:3;stroke-linecap:round;stroke-linejoin:round;stroke-miterlimit:10;stroke-dasharray:6;}
	.st204{fill:#CFE1E2;}
	.st205{fill:#33363A;}
	.st206{fill:#34C166;}
	.st207{fill:#364B5B;}
	.st208{fill:#3662CE;}
	.st209{fill:#36C6FF;}
	.st210{fill:#6ADB9A;}
	.st211{fill:#6D5C4D;}
	.st212{fill:#6EBDF9;}
	.st213{fill:#0031FF;}
	.st214{fill:#0062FF;}
	.st215{fill:#0068FF;}
	.st216{fill:#0086FF;}
	.st217{fill:#009BE8;}
	.st218{fill:#00AAFF;}
	.st219{fill:#D271FF;}
	.st220{fill:#D363A9;}
	.st221{fill:#D3964C;}
	.st222{fill:#D3DFE2;}
	.st223{fill:#D3E0E2;}
	.st224{fill:#D3EFF4;}
	.st225{fill:#063B66;}
	.st226{fill:#D60909;}
	.st227{fill:#D61D1D;}
	.st228{fill:#D7F0FF;}
	.st229{fill:#09B285;}
	.st230{fill:#D8D593;}
	.st231{fill:#D8E2EA;}
	.st232{fill:#D8E5EA;}
	.st233{fill:#3E5054;}
	.st234{fill:#D988FF;}
	.st235{fill:#D9E7E8;}
	.st236{fill:#702252;}
	.st237{fill:#70D3E0;}
	.st238{fill:#A02FF2;}
	.st239{fill:#A2F255;}
	.st240{fill:#A35616;}
	.st241{fill:#A3CCCC;}
	.st242{fill:#0A6ADD;}
	.st243{fill:#A5145D;}
	.st244{fill:#A57555;}
	.st245{fill:#77D6FC;}
	.st246{fill:#7815CE;}
	.st247{fill:#A7BBC1;}
	.st248{fill:#DBD279;}
	.st249{fill:#0D5C9E;}
	.st250{fill:#A83C11;}
	.st251{fill:#A8633D;}
	.st252{fill:#A8A3E5;}
	.st253{fill:#DCE6EA;}
	.st254{fill:#DCE7EA;}
	.st255{fill:#A962E8;}
	.st256{fill:#DD2466;}
	.st257{fill:#DDC38A;}
	.st258{fill:#DDD2B1;}
	.st259{fill:#DFE7E8;}
	.st260{fill:#42B1E8;}
	.st261{fill:#436377;}
	.st262{fill:#43B530;}
]]>
</style>
<g>
	<g>
		<g>
			<circle class="st162" cx="104.939" cy="23.033" r="6.921"/>
		</g>
		<g>
			<path class="st205" d="M23.15,77.467c-0.829,0-1.5-0.672-1.5-1.5V40.111H6.798c-0.829,0-1.5-0.672-1.5-1.5s0.671-1.5,1.5-1.5
				H23.15c0.829,0,1.5,0.672,1.5,1.5v37.355C24.65,76.795,23.979,77.467,23.15,77.467z"/>
		</g>
		<g>
			<path class="st205" d="M37.509,61.012c-0.829,0-1.5-0.672-1.5-1.5v-7.018H23.13c-0.829,0-1.5-0.672-1.5-1.5s0.671-1.5,1.5-1.5
				h14.379c0.829,0,1.5,0.672,1.5,1.5v8.518C39.009,60.34,38.338,61.012,37.509,61.012z"/>
		</g>
		<g>
			<g>
				<path class="st205" d="M16.67,50.5c-0.4,0-0.78-0.16-1.06-0.44c-0.28-0.29-0.44-0.67-0.44-1.06c0-0.4,0.16-0.78,0.44-1.061
					c0.55-0.56,1.56-0.56,2.12-0.01c0.28,0.29,0.44,0.67,0.44,1.07c0,0.39-0.16,0.77-0.44,1.05C17.45,50.34,17.06,50.5,16.67,50.5z"
					/>
			</g>
			<g>
				<path class="st205" d="M9.9,50.5c-0.39,0-0.78-0.16-1.06-0.44C8.56,49.78,8.4,49.39,8.4,49c0-0.4,0.16-0.79,0.44-1.07
					c0.56-0.55,1.57-0.55,2.12,0.01C11.24,48.21,11.4,48.6,11.4,49c0,0.39-0.16,0.77-0.44,1.06C10.68,50.33,10.3,50.5,9.9,50.5z"/>
			</g>
		</g>
		<g>
			<g>
				<path class="st205" d="M16.67,57c-0.4,0-0.78-0.16-1.06-0.44c-0.28-0.279-0.44-0.66-0.44-1.06c0-0.391,0.16-0.78,0.43-1.061
					c0.57-0.56,1.57-0.56,2.13,0c0.28,0.28,0.44,0.67,0.44,1.061c0,0.399-0.16,0.78-0.44,1.06C17.45,56.84,17.06,57,16.67,57z"/>
			</g>
			<g>
				<path class="st205" d="M9.9,57c-0.39,0-0.78-0.16-1.06-0.44C8.56,56.28,8.4,55.899,8.4,55.5c0-0.391,0.16-0.78,0.44-1.061
					c0.56-0.56,1.56-0.56,2.12,0c0.28,0.28,0.44,0.67,0.44,1.061c0,0.399-0.16,0.79-0.44,1.06C10.68,56.84,10.29,57,9.9,57z"/>
			</g>
		</g>
		<g>
			<g>
				<path class="st205" d="M16.67,63.52c-0.4,0-0.78-0.16-1.06-0.439c-0.28-0.28-0.44-0.67-0.44-1.061c0-0.399,0.16-0.79,0.44-1.069
					c0.56-0.561,1.56-0.551,2.12,0c0.28,0.279,0.44,0.67,0.44,1.069c0,0.391-0.16,0.78-0.44,1.061
					C17.45,63.359,17.06,63.52,16.67,63.52z"/>
			</g>
			<g>
				<path class="st205" d="M9.9,63.52c-0.39,0-0.78-0.16-1.06-0.439C8.56,62.79,8.4,62.41,8.4,62.02c0-0.399,0.16-0.779,0.44-1.069
					c0.56-0.551,1.56-0.551,2.12,0c0.28,0.279,0.44,0.67,0.44,1.069c0,0.391-0.16,0.78-0.44,1.061
					C10.68,63.359,10.29,63.52,9.9,63.52z"/>
			</g>
		</g>
		<g>
			<g>
				<path class="st205" d="M16.67,70.02c-0.4,0-0.79-0.16-1.06-0.43c-0.28-0.29-0.44-0.67-0.44-1.07c0-0.39,0.16-0.779,0.44-1.06
					c0.55-0.55,1.56-0.561,2.12,0c0.28,0.28,0.44,0.67,0.44,1.06c0,0.4-0.16,0.79-0.44,1.07C17.45,69.859,17.06,70.02,16.67,70.02z"
					/>
			</g>
			<g>
				<path class="st205" d="M9.9,70.02c-0.39,0-0.78-0.16-1.06-0.43C8.56,69.3,8.4,68.92,8.4,68.52c0-0.39,0.16-0.779,0.44-1.06
					c0.56-0.561,1.56-0.55,2.12,0c0.28,0.28,0.44,0.67,0.44,1.06c0,0.4-0.16,0.79-0.44,1.061C10.68,69.859,10.3,70.02,9.9,70.02z"/>
			</g>
		</g>
		<g>
			<path class="st205" d="M79.751,61.012H37.509c-0.829,0-1.5-0.672-1.5-1.5s0.671-1.5,1.5-1.5h42.242c0.829,0,1.5,0.672,1.5,1.5
				S80.58,61.012,79.751,61.012z"/>
		</g>
		<g>
			<path class="st205" d="M97.213,61.012H79.751c-0.829,0-1.5-0.672-1.5-1.5s0.671-1.5,1.5-1.5h17.462c0.829,0,1.5,0.672,1.5,1.5
				S98.042,61.012,97.213,61.012z"/>
		</g>
		<g>
			<path class="st205" d="M37.509,76.234c-0.829,0-1.5-0.672-1.5-1.5v-23.74c0-0.828,0.671-1.5,1.5-1.5s1.5,0.672,1.5,1.5v23.74
				C39.009,75.562,38.338,76.234,37.509,76.234z"/>
		</g>
		<g>
			<path class="st205" d="M88.449,70.352c-0.384,0-0.768-0.146-1.061-0.439c-0.586-0.586-0.586-1.535,0-2.121l15.97-15.971
				c0.586-0.586,1.535-0.586,2.121,0l13.101,13.1c0.586,0.586,0.586,1.535,0,2.121c-0.585,0.586-1.535,0.586-2.121,0l-12.041-12.039
				l-14.909,14.91C89.216,70.205,88.833,70.352,88.449,70.352z"/>
		</g>
		<g>
			<path class="st205" d="M107.965,56.537c-0.384,0-0.768-0.146-1.061-0.439c-0.586-0.586-0.586-1.535,0-2.121l18.253-18.254
				c0.586-0.586,1.535-0.585,2.121-0.001l1.983,1.981c0.586,0.586,0.586,1.535,0.001,2.122c-0.586,0.585-1.535,0.586-2.121,0.001
				l-0.923-0.922l-17.193,17.193C108.733,56.391,108.349,56.537,107.965,56.537z"/>
		</g>
		<g>
			<g>
				<circle class="st94" cx="114.941" cy="60.488" r="8.991"/>
			</g>
			<g>
				<path class="st82" d="M114.942,51.494c-3.328,0-6.225,1.813-7.78,4.498c1.556,2.686,4.452,4.496,7.78,4.496
					c3.325,0,6.222-1.811,7.779-4.496C121.164,53.308,118.267,51.494,114.942,51.494z"/>
			</g>
			<g>
				<path class="st205" d="M114.942,78.926c-0.829,0-1.5-0.672-1.5-1.5V63.959c0-0.828,0.671-1.5,1.5-1.5s1.5,0.672,1.5,1.5v13.467
					C116.442,78.254,115.771,78.926,114.942,78.926z"/>
			</g>
			<g>
				<path class="st205" d="M114.942,65.459c-0.398,0-0.78-0.158-1.061-0.439l-3.472-3.471c-0.586-0.585-0.586-1.535,0-2.121
					c0.586-0.586,1.536-0.586,2.122,0l2.411,2.41l2.408-2.41c0.586-0.586,1.536-0.586,2.122,0c0.586,0.585,0.586,1.535,0,2.121
					l-3.469,3.471C115.722,65.301,115.34,65.459,114.942,65.459z"/>
			</g>
			<g>
				<path class="st205" d="M114.942,70.98c-5.785,0-10.492-4.707-10.492-10.492c0-5.786,4.707-10.494,10.492-10.494
					c5.785,0,10.491,4.708,10.491,10.494C125.433,66.273,120.727,70.98,114.942,70.98z M114.942,52.994
					c-4.131,0-7.492,3.362-7.492,7.494c0,4.131,3.361,7.492,7.492,7.492c4.13,0,7.491-3.361,7.491-7.492
					C122.433,56.356,119.072,52.994,114.942,52.994z"/>
			</g>
		</g>
		<g>
			<g>
				<circle class="st94" cx="95.407" cy="52.199" r="10.323"/>
			</g>
			<g>
				<path class="st82" d="M95.407,41.876c-3.819,0-7.146,2.079-8.932,5.161c1.787,3.084,5.113,5.162,8.932,5.162
					c3.817,0,7.145-2.078,8.93-5.162C102.552,43.955,99.224,41.876,95.407,41.876z"/>
			</g>
			<g>
				<path class="st205" d="M95.407,74.336c-0.829,0-1.5-0.672-1.5-1.5V56.184c0-0.828,0.671-1.5,1.5-1.5s1.5,0.672,1.5,1.5v16.652
					C96.907,73.664,96.235,74.336,95.407,74.336z"/>
			</g>
			<g>
				<path class="st205" d="M95.407,57.684c-0.397,0-0.779-0.158-1.061-0.439l-3.985-3.984c-0.586-0.586-0.586-1.535,0-2.121
					c0.586-0.586,1.536-0.586,2.122,0l2.924,2.924l2.922-2.924c0.586-0.586,1.536-0.586,2.122,0c0.586,0.585,0.586,1.535,0,2.121
					l-3.983,3.984C96.187,57.525,95.805,57.684,95.407,57.684z"/>
			</g>
			<g>
				<path class="st205" d="M95.407,64.02c-6.519,0-11.822-5.303-11.822-11.82c0-6.52,5.303-11.823,11.822-11.823
					c6.52,0,11.824,5.304,11.824,11.823C107.23,58.717,101.926,64.02,95.407,64.02z M95.407,43.376
					c-4.865,0-8.822,3.958-8.822,8.823c0,4.863,3.958,8.82,8.822,8.82c4.865,0,8.824-3.957,8.824-8.82
					C104.23,47.334,100.272,43.376,95.407,43.376z"/>
			</g>
		</g>
		<g>
			<path class="st205" d="M5.057,81.966c-0.195,0-0.393-0.038-0.583-0.118c-0.763-0.323-1.12-1.203-0.798-1.966
				c0.441-1.044,1.263-2.986,20.28-4.561c11.75-0.973,27.214-1.508,43.544-1.508c16.332,0,31.797,0.535,43.547,1.508
				c19.015,1.574,19.837,3.517,20.278,4.561c0.323,0.763-0.034,1.643-0.797,1.966c-0.704,0.295-1.505,0.017-1.879-0.625
				c-2.348-1.862-24.7-4.409-61.149-4.409c-36.448,0-58.799,2.547-61.147,4.409C6.08,81.69,5.58,81.966,5.057,81.966z"/>
		</g>
		<g>
			<g>
				<g>
					<g>
						<path class="st150" d="M84.098,119.729c0,0.938-0.759,1.696-1.695,1.696h-2.755c-0.937,0-1.697-0.759-1.697-1.696v-3.39
							c0-0.937,0.76-1.695,1.697-1.695h2.755c0.937,0,1.695,0.759,1.695,1.695V119.729z"/>
					</g>
				</g>
				<g>
					<g>
						<path class="st205" d="M82.403,122.926h-2.755c-1.763,0-3.197-1.434-3.197-3.196v-3.39c0-1.762,1.434-3.195,3.197-3.195h2.755
							c1.762,0,3.195,1.434,3.195,3.195v3.39C85.598,121.492,84.165,122.926,82.403,122.926z M79.647,116.145
							c-0.108,0-0.197,0.088-0.197,0.195v3.39c0,0.108,0.088,0.196,0.197,0.196h2.755c0.108,0,0.195-0.088,0.195-0.196v-3.39
							c0-0.107-0.087-0.195-0.195-0.195H79.647z"/>
					</g>
				</g>
				<g>
					<path class="st162" d="M87.878,39.979c-1.914,5.596-5.694,10.026-10.406,12.836c-2.003-5.107-2.281-10.922-0.367-16.521
						c1.914-5.595,5.696-10.025,10.406-12.834C89.516,28.565,89.792,34.382,87.878,39.979z"/>
				</g>
				<g>
					<path class="st150" d="M77.105,42.593c-0.522,1.525-0.876,3.069-1.081,4.609c0.257,1.932,0.743,3.816,1.448,5.613
						c4.712-2.81,8.493-7.24,10.406-12.836c0.522-1.527,0.876-3.07,1.081-4.611c-0.257-1.93-0.743-3.814-1.448-5.611
						C82.801,32.565,79.019,36.995,77.105,42.593z"/>
				</g>
				<g>
					<path class="st205" d="M77.472,54.315c-0.164,0-0.328-0.026-0.485-0.081c-0.417-0.143-0.75-0.461-0.911-0.871
						c-2.202-5.614-2.34-11.849-0.39-17.555c1.953-5.707,5.879-10.55,11.058-13.637c0.378-0.227,0.836-0.275,1.253-0.131
						c0.417,0.143,0.75,0.461,0.911,0.871c2.203,5.611,2.342,11.846,0.39,17.553S83.419,51.016,78.24,54.104
						C78.005,54.244,77.74,54.315,77.472,54.315z M86.722,25.767c-3.798,2.716-6.677,6.567-8.198,11.013
						c-1.52,4.445-1.602,9.255-0.263,13.729c3.798-2.717,6.677-6.568,8.198-11.015S88.062,30.239,86.722,25.767z"/>
				</g>
				<g>
					<path class="st162" d="M82.087,116.562c4.496,0,8.141-3.645,8.141-8.143v-6.751c0-2.13-0.825-4.063-2.165-5.513V66.347
						c0-10.504-8.545-19.048-19.047-19.048h-2.93"/>
				</g>
				<g>
					<path class="st150" d="M88.064,101.181v-5.025V71.371c0-10.503-8.545-19.048-19.047-19.048h-2.93l0.607,64.238
						c4.496,0,23.535,2.819,23.535-8.143v-1.725C90.229,104.565,89.403,102.632,88.064,101.181z"/>
				</g>
				<g>
					<path class="st205" d="M82.087,118.062H66.694c-0.829,0-1.5-0.672-1.5-1.5s0.671-1.5,1.5-1.5h15.394
						c3.662,0,6.641-2.979,6.641-6.643v-6.751c0-1.666-0.627-3.263-1.766-4.494c-0.256-0.277-0.398-0.642-0.398-1.019V66.347
						c0-9.676-7.872-17.548-17.547-17.548h-2.93c-0.829,0-1.5-0.672-1.5-1.5s0.671-1.5,1.5-1.5h2.93
						c11.33,0,20.547,9.218,20.547,20.548v29.249c1.4,1.718,2.165,3.852,2.165,6.072v6.751
						C91.729,113.736,87.403,118.062,82.087,118.062z"/>
				</g>
				<g>
					<polygon class="st162" points="122.721,77.848 101.256,68.715 80.595,84.435 90.205,88.526 66.694,108.777 112.447,93.229 
						101.684,88.649 					"/>
				</g>
				<g>
					<polygon class="st150" points="96.15,91.382 117.188,80.581 96.967,71.977 80.595,84.435 90.205,88.526 66.694,108.777 
						105.799,95.489 					"/>
				</g>
				<g>
					<path class="st205" d="M66.694,110.277c-0.625,0-1.208-0.393-1.42-1.018c-0.267-0.784,0.153-1.636,0.938-1.902l42.036-14.285
						l-7.151-3.043c-0.535-0.228-0.891-0.744-0.912-1.326c-0.021-0.581,0.296-1.122,0.814-1.388l18.19-9.341l-17.718-7.538
						L83.557,84.065l7.235,3.081c0.762,0.324,1.117,1.205,0.792,1.968c-0.324,0.763-1.208,1.117-1.967,0.792l-9.61-4.092
						c-0.492-0.209-0.835-0.664-0.901-1.194c-0.066-0.53,0.155-1.056,0.58-1.379l20.662-15.72c0.429-0.327,0.999-0.4,1.496-0.187
						l21.464,9.133c0.535,0.228,0.891,0.744,0.912,1.326c0.021,0.581-0.296,1.122-0.814,1.388l-18.19,9.341l7.819,3.327
						c0.572,0.243,0.935,0.814,0.912,1.436c-0.023,0.622-0.428,1.164-1.017,1.364l-45.753,15.548
						C67.017,110.252,66.854,110.277,66.694,110.277z"/>
				</g>
				<g>
					<path class="st205" d="M89.108,35.427c-0.24,0-0.48-0.058-0.699-0.173l-8.366-4.404c-0.391-0.205-0.671-0.572-0.766-1.004
						c-0.095-0.431,0.004-0.882,0.272-1.232c1.996-2.617,4.416-4.784,7.193-6.441c0.378-0.227,0.837-0.275,1.254-0.131
						c0.417,0.143,0.75,0.461,0.911,0.871c1.38,3.517,1.967,7.362,1.697,11.122c-0.036,0.505-0.325,0.958-0.768,1.204
						C89.611,35.363,89.359,35.427,89.108,35.427z M83.072,29.054l4.583,2.413c-0.066-1.927-0.381-3.85-0.934-5.698
						C85.394,26.721,84.173,27.819,83.072,29.054z"/>
				</g>
				<g>
					<path class="st205" d="M80.742,29.522l8.366,4.404c0.26-3.617-0.31-7.188-1.597-10.467
						C84.915,25.009,82.617,27.064,80.742,29.522z"/>
				</g>
				<g>
					<path class="st52" d="M75.087,70.144"/>
				</g>
				<g>
					<path class="st52" d="M75.087,79.532"/>
				</g>
			</g>
		</g>
		<g>
			<path class="st205" d="M30.319,76.663c-0.829,0-1.5-0.672-1.5-1.5V52.42c0-0.828,0.671-1.5,1.5-1.5s1.5,0.672,1.5,1.5v22.743
				C31.819,75.991,31.148,76.663,30.319,76.663z"/>
		</g>
		<g>
			<path class="st205" d="M13.284,40.111c-0.829,0-1.5-0.672-1.5-1.5V26.756c0-0.828,0.671-1.5,1.5-1.5s1.5,0.672,1.5,1.5v11.855
				C14.784,39.439,14.112,40.111,13.284,40.111z"/>
		</g>
		<g>
			<path class="st205" d="M30.061,31.453c-4.643,0-8.421-3.777-8.421-8.42s3.778-8.419,8.421-8.419c0.829,0,1.5,0.672,1.5,1.5
				s-0.671,1.5-1.5,1.5c-2.989,0-5.421,2.431-5.421,5.419s2.432,5.42,5.421,5.42c0.829,0,1.5,0.672,1.5,1.5
				S30.89,31.453,30.061,31.453z"/>
		</g>
		<g>
			<path class="st205" d="M104.938,31.453c-4.643,0-8.42-3.777-8.42-8.42s3.777-8.419,8.42-8.419c4.644,0,8.421,3.776,8.421,8.419
				S109.582,31.453,104.938,31.453z M104.938,17.614c-2.989,0-5.42,2.431-5.42,5.419s2.431,5.42,5.42,5.42
				c2.989,0,5.421-2.432,5.421-5.42S107.927,17.614,104.938,17.614z"/>
		</g>
		<g>
			<g>
				<path class="st205" d="M104.938,12.855c-0.829,0-1.5-0.672-1.5-1.5V7.762c0-0.828,0.671-1.5,1.5-1.5s1.5,0.672,1.5,1.5v3.594
					C106.438,12.184,105.767,12.855,104.938,12.855z"/>
			</g>
			<g>
				<path class="st205" d="M104.938,39.806c-0.829,0-1.5-0.672-1.5-1.5v-3.591c0-0.828,0.671-1.5,1.5-1.5s1.5,0.672,1.5,1.5v3.591
					C106.438,39.134,105.767,39.806,104.938,39.806z"/>
			</g>
		</g>
		<g>
			<g>
				<path class="st205" d="M113.197,16.274c-0.384,0-0.768-0.146-1.061-0.439c-0.586-0.586-0.586-1.535,0-2.121l2.541-2.54
					c0.586-0.586,1.536-0.586,2.121,0c0.586,0.586,0.586,1.535,0,2.121l-2.541,2.54C113.964,16.128,113.581,16.274,113.197,16.274z"
					/>
			</g>
			<g>
				<path class="st205" d="M94.139,35.333c-0.384,0-0.768-0.146-1.061-0.439c-0.586-0.586-0.586-1.535,0-2.121l2.541-2.54
					c0.586-0.586,1.536-0.586,2.121,0c0.586,0.586,0.586,1.535,0,2.121l-2.541,2.54C94.907,35.187,94.523,35.333,94.139,35.333z"/>
			</g>
		</g>
		<g>
			<g>
				<path class="st205" d="M120.209,24.533h-3.591c-0.829,0-1.5-0.672-1.5-1.5s0.671-1.5,1.5-1.5h3.591c0.829,0,1.5,0.672,1.5,1.5
					S121.038,24.533,120.209,24.533z"/>
			</g>
			<g>
				<path class="st205" d="M93.258,24.533h-3.593c-0.829,0-1.5-0.672-1.5-1.5s0.671-1.5,1.5-1.5h3.593c0.829,0,1.5,0.672,1.5,1.5
					S94.087,24.533,93.258,24.533z"/>
			</g>
		</g>
		<g>
			<g>
				<path class="st205" d="M115.737,35.333c-0.384,0-0.768-0.146-1.061-0.439l-2.54-2.54c-0.586-0.586-0.586-1.535,0-2.121
					s1.536-0.586,2.121,0l2.54,2.54c0.586,0.586,0.586,1.535,0,2.121C116.505,35.187,116.121,35.333,115.737,35.333z"/>
			</g>
			<g>
				<path class="st205" d="M96.68,16.274c-0.384,0-0.768-0.146-1.061-0.439l-2.541-2.542c-0.585-0.586-0.585-1.536,0-2.121
					c0.586-0.587,1.536-0.585,2.122,0l2.541,2.542c0.585,0.586,0.585,1.536,0,2.121C97.447,16.128,97.063,16.274,96.68,16.274z"/>
			</g>
		</g>
		<g>
			<g>
				<g>
					<g>
						<path class="st205" d="M67.565,123.656c-23.823,0-42.478-6.403-43.392-14.894c-0.089-0.824,0.507-1.563,1.331-1.652
							c0.82-0.089,1.563,0.507,1.652,1.33c0.636,5.899,17.025,12.216,40.41,12.216c23.383,0,39.771-6.316,40.408-12.216
							c0.089-0.823,0.823-1.418,1.652-1.33c0.824,0.089,1.419,0.828,1.331,1.652C110.04,117.253,91.386,123.656,67.565,123.656z"/>
					</g>
				</g>
				<g>
					<g>
						<g>
							<path class="st205" d="M67.5,124.57c-0.829,0-1.5-0.672-1.5-1.5v-10.148c0-0.828,0.671-1.5,1.5-1.5s1.5,0.672,1.5,1.5v10.148
								C69,123.898,68.329,124.57,67.5,124.57z"/>
						</g>
						<g>
							<path class="st205" d="M67.5,109.83c-0.829,0-1.5-0.672-1.5-1.5v-1.929c0-0.828,0.671-1.5,1.5-1.5s1.5,0.672,1.5,1.5v1.929
								C69,109.158,68.329,109.83,67.5,109.83z"/>
						</g>
						<g>
							<path class="st205" d="M67.5,129.598c-0.829,0-1.5-0.672-1.5-1.5v-0.217c0-0.828,0.671-1.5,1.5-1.5s1.5,0.672,1.5,1.5v0.217
								C69,128.926,68.329,129.598,67.5,129.598z"/>
						</g>
						<g>
							<path class="st205" d="M67.5,103.551c-0.829,0-1.5-0.672-1.5-1.5v-0.215c0-0.828,0.671-1.5,1.5-1.5s1.5,0.672,1.5,1.5v0.215
								C69,102.879,68.329,103.551,67.5,103.551z"/>
						</g>
					</g>
				</g>
				<g>
					<g>
						<g>
							<path class="st205" d="M67.5,91.404c-0.829,0-1.5-0.672-1.5-1.5V79.756c0-0.828,0.671-1.5,1.5-1.5s1.5,0.672,1.5,1.5v10.148
								C69,90.732,68.329,91.404,67.5,91.404z"/>
						</g>
						<g>
							<path class="st205" d="M67.5,76.663c-0.829,0-1.5-0.672-1.5-1.5v-1.929c0-0.828,0.671-1.5,1.5-1.5s1.5,0.672,1.5,1.5v1.929
								C69,75.991,68.329,76.663,67.5,76.663z"/>
						</g>
						<g>
							<path class="st205" d="M67.5,96.432c-0.829,0-1.5-0.672-1.5-1.5v-0.216c0-0.828,0.671-1.5,1.5-1.5s1.5,0.672,1.5,1.5v0.216
								C69,95.76,68.329,96.432,67.5,96.432z"/>
						</g>
						<g>
							<path class="st205" d="M67.5,70.385c-0.829,0-1.5-0.672-1.5-1.5V68.67c0-0.828,0.671-1.5,1.5-1.5s1.5,0.672,1.5,1.5v0.215
								C69,69.713,68.329,70.385,67.5,70.385z"/>
						</g>
					</g>
				</g>
				<g>
					<g>
						<g>
							<path class="st205" d="M67.5,58.236c-0.829,0-1.5-0.672-1.5-1.5v-21.07c0-0.828,0.671-1.5,1.5-1.5s1.5,0.672,1.5,1.5v21.07
								C69,57.564,68.329,58.236,67.5,58.236z"/>
						</g>
						<g>
							<path class="st52" d="M67.5,41.996"/>
						</g>
						<g>
							<path class="st205" d="M67.5,63.265c-0.829,0-1.5-0.672-1.5-1.5v-0.216c0-0.828,0.671-1.5,1.5-1.5s1.5,0.672,1.5,1.5v0.216
								C69,62.593,68.329,63.265,67.5,63.265z"/>
						</g>
						<g>
							<path class="st205" d="M67.5,37.219c-0.829,0-1.5-0.672-1.5-1.5v-0.217c0-0.828,0.671-1.5,1.5-1.5s1.5,0.672,1.5,1.5v0.217
								C69,36.547,68.329,37.219,67.5,37.219z"/>
						</g>
					</g>
				</g>
				<g>
					<g>
						<g>
							<path class="st205" d="M67.5,25.072c-0.829,0-1.5-0.672-1.5-1.5V13.423c0-0.828,0.671-1.5,1.5-1.5s1.5,0.672,1.5,1.5v10.149
								C69,24.4,68.329,25.072,67.5,25.072z"/>
						</g>
						<g>
							<path class="st205" d="M67.5,10.33c-0.829,0-1.5-0.672-1.5-1.5V6.902c0-0.828,0.671-1.5,1.5-1.5s1.5,0.672,1.5,1.5V8.83
								C69,9.658,68.329,10.33,67.5,10.33z"/>
						</g>
						<g>
							<path class="st205" d="M67.5,30.098c-0.829,0-1.5-0.672-1.5-1.5v-0.215c0-0.828,0.671-1.5,1.5-1.5s1.5,0.672,1.5,1.5v0.215
								C69,29.426,68.329,30.098,67.5,30.098z"/>
						</g>
					</g>
				</g>
			</g>
			<g>
				<path class="st205" d="M76.727,35.166c-0.384,0-0.769-0.146-1.062-0.44c-0.237-0.236-0.453-0.237-0.69,0
					c-0.586,0.586-1.536,0.586-2.121,0.002c-0.586-0.585-0.587-1.535-0.002-2.121c0.659-0.66,1.535-1.024,2.467-1.024h0
					c0.932,0,1.809,0.364,2.468,1.024c0.585,0.586,0.584,1.535-0.001,2.121C77.494,35.02,77.11,35.166,76.727,35.166z"/>
			</g>
		</g>
	</g>
	<g>
		<path class="st205" d="M46.903,67.631H44.57c-0.829,0-1.5-0.672-1.5-1.5s0.671-1.5,1.5-1.5h2.333c0.829,0,1.5,0.672,1.5,1.5
			S47.732,67.631,46.903,67.631z"/>
	</g>
	<g>
		<path class="st205" d="M55.237,67.631h-2.333c-0.829,0-1.5-0.672-1.5-1.5s0.671-1.5,1.5-1.5h2.333c0.829,0,1.5,0.672,1.5,1.5
			S56.065,67.631,55.237,67.631z"/>
	</g>
	<g>
		<path class="st205" d="M63.57,67.631h-2.333c-0.829,0-1.5-0.672-1.5-1.5s0.671-1.5,1.5-1.5h2.333c0.829,0,1.5,0.672,1.5,1.5
			S64.399,67.631,63.57,67.631z"/>
	</g>
	<g>
		<path class="st205" d="M50.292,43.283H35.901c-4.519,0-8.194-3.676-8.194-8.193v-0.532c0-2.845,1.504-5.49,3.899-6.971
			c0.502-5.257,4.96-9.395,10.332-9.395c4.98,0,9.239,3.596,10.181,8.384c3.656,0.836,6.369,4.131,6.369,7.981v0.532
			C58.488,39.607,54.812,43.283,50.292,43.283z M41.938,21.192c-4.036,0-7.346,3.285-7.379,7.323
			c-0.005,0.576-0.34,1.099-0.861,1.345c-1.817,0.854-2.991,2.699-2.991,4.697v0.532c0,2.863,2.33,5.193,5.194,5.193h14.392
			c2.865,0,5.195-2.33,5.195-5.193v-0.532c0-2.705-2.113-4.977-4.811-5.173c-0.74-0.054-1.33-0.642-1.387-1.382
			C48.998,24.185,45.768,21.192,41.938,21.192z"/>
	</g>
	<g>
		<path class="st205" d="M25.664,109.831c-0.384,0-0.768-0.146-1.061-0.439c-0.586-0.586-0.586-1.535,0-2.121l6.544-6.544
			c0.281-0.281,0.663-0.439,1.061-0.439l0,0c0.398,0,0.779,0.158,1.061,0.439l3.9,3.901c0.585,0.586,0.585,1.535,0,2.121
			s-1.536,0.586-2.121,0l-2.84-2.841l-5.483,5.483C26.432,109.685,26.048,109.831,25.664,109.831z"/>
	</g>
	<g>
		<path class="st205" d="M54.44,101.334c-0.384,0-0.768-0.146-1.061-0.439c-0.586-0.586-0.586-1.535,0-2.121l13.125-13.125
			c0.586-0.586,1.535-0.586,2.121,0s0.586,1.535,0,2.121l-13.125,13.125C55.208,101.188,54.824,101.334,54.44,101.334z"/>
	</g>
	<g>
		<path class="st205" d="M61.324,110.052c-0.384,0-0.768-0.146-1.061-0.439L48.324,97.671l-11.941,11.941
			c-0.586,0.586-1.535,0.586-2.121,0s-0.586-1.535,0-2.121l13.002-13.002c0.281-0.281,0.663-0.439,1.061-0.439l0,0
			c0.398,0,0.779,0.158,1.061,0.439l13,13.002c0.586,0.586,0.586,1.535,0,2.121C62.091,109.905,61.708,110.052,61.324,110.052z"/>
	</g>
</g>
</svg>
