<?xml version="1.0" encoding="utf-8"?>
<!-- Generator: Adobe Illustrator 16.0.0, SVG Export Plug-In . SVG Version: 6.00 Build 0)  -->
<!DOCTYPE svg PUBLIC "-//W3C//DTD SVG 1.1//EN" "http://www.w3.org/Graphics/SVG/1.1/DTD/svg11.dtd">
<svg version="1.1" id="Layer_1" xmlns="http://www.w3.org/2000/svg" xmlns:xlink="http://www.w3.org/1999/xlink" x="0px" y="0px"
	 width="135px" height="135px" viewBox="0 0 135 135" style="enable-background:new 0 0 135 135;" xml:space="preserve">
<style type="text/css">
<![CDATA[
	.st0{fill:#465652;}
	.st1{fill:#AAB9BA;}
	.st2{fill:#47C67B;}
	.st3{fill:#AAC8D1;}
	.st4{fill:none;stroke:#E83834;stroke-width:6;stroke-linecap:round;stroke-linejoin:round;stroke-miterlimit:10;}
	.st5{fill:#7BC67B;}
	.st6{fill:#7BC7FF;}
	.st7{fill:#7C34C1;}
	.st8{fill:#7C8D96;}
	.st9{fill:#AD2707;}
	.st10{fill:#ADB8BC;}
	.st11{fill:#107510;}
	.st12{fill:#7FE5D8;}
	.st13{fill:#AF4AD1;}
	.st14{fill:#E02B7E;}
	.st15{fill:#E04038;}
	.st16{fill:#AFD7DD;}
	.st17{fill:#E0A010;}
	.st18{fill:#E0D5A4;}
	.st19{fill:#12B2B2;}
	.st20{fill:#12D66B;}
	.st21{fill:#E1A9FF;}
	.st22{fill:#1362A8;}
	.st23{fill:#E2378D;}
	.st24{fill:#E29C37;}
	.st25{fill:#E2B90E;}
	.st26{fill:#E2BF91;}
	.st27{fill:#E2CBAA;}
	.st28{fill:#14A594;}
	.st29{fill:#E4E9ED;}
	.st30{fill:#4A5D60;}
	.st31{fill:#E5B076;}
	.st32{fill:#E5B1C4;}
	.st33{fill:#E5E4C3;}
	.st34{fill:#4B6466;}
	.st35{fill:#E6FF2E;}
	.st36{fill:#18AA67;}
	.st37{fill:#E86207;}
	.st38{fill:#E8A113;}
	.st39{fill:#E8B5A6;}
	.st40{fill:#E8E8ED;}
	.st41{fill:#4E5154;}
	.st42{fill:#E9F1F4;}
	.st43{fill:#4F4B48;}
	.st44{fill:#4F74E8;}
	.st45{fill:#808E93;}
	.st46{fill:#80949B;}
	.st47{fill:#80EDAC;}
	.st48{fill:#B122E0;}
	.st49{fill:#B2C4CC;}
	.st50{fill:#83D839;}
	.st51{fill:#B3C6C6;}
	.st52{fill:none;stroke:#33363A;stroke-width:3;stroke-linecap:round;stroke-linejoin:round;stroke-miterlimit:10;}
	.st53{fill:#1A8E1C;}
	.st54{fill:#1A93D6;}
	.st55{fill:#B50B0B;}
	.st56{fill:#1AD88F;}
	.st57{fill:#B5DAF4;}
	.st58{fill:#EA7B1F;}
	.st59{fill:#EA81BD;}
	.st60{fill:#87B8D6;}
	.st61{fill:#87C3F4;}
	.st62{fill:#EAC79D;}
	.st63{fill:#EADF11;}
	.st64{fill:#EAE4C5;}
	.st65{fill:#B78094;}
	.st66{fill:#8844D8;}
	.st67{fill:#EBF4F7;}
	.st68{fill:#893015;}
	.st69{fill:#89410B;}
	.st70{fill:#899BA3;}
	.st71{fill:#EDE3B9;}
	.st72{enable-background:new    ;}
	.st73{fill:#50FF9F;}
	.st74{fill:#EEDCF4;}
	.st75{fill:#EFA37D;}
	.st76{fill:#EFA3CC;}
	.st77{fill:#EFC99A;}
	.st78{fill:#54AF79;}
	.st79{fill:#BA503A;}
	.st80{fill:#BA8663;}
	.st81{fill:#8B4FE0;}
	.st82{fill:#58ED9B;}
	.st83{fill:#BC7DFF;}
	.st84{fill:#8D9AA3;}
	.st85{fill:#BCCAD3;}
	.st86{fill:#8DE4FF;}
	.st87{fill:#20B518;}
	.st88{fill:#BF44F2;}
	.st89{fill:#21CEA1;}
	.st90{fill:#BFDAE0;}
	.st91{fill:#F0FBFC;}
	.st92{fill:#F2D9A7;}
	.st93{fill:#F2EAC9;}
	.st94{fill:#24D1AF;}
	.st95{fill:#25931C;}
	.st96{fill:#F4C4B3;}
	.st97{fill:#F4D3A2;}
	.st98{fill:#F4D647;}
	.st99{fill:#F4D7B8;}
	.st100{fill:#F4EC8E;}
	.st101{fill:#5B524D;}
	.st102{fill:#F77819;}
	.st103{fill:#F79AE1;}
	.st104{fill:#5E707A;}
	.st105{fill:#F93585;}
	.st106{fill:#F95D5D;}
	.st107{fill:#F9C19B;}
	.st108{fill:#F9CB58;}
	.st109{fill:#F9D2B2;}
	.st110{fill:#F9F07D;}
	.st111{fill:#F9F1D2;}
	.st112{fill:#F9F4B7;}
	.st113{fill:#F9F9E4;}
	.st114{fill:#5F1DAA;}
	.st115{fill:#5F9AD6;}
	.st116{fill:#C0C0C4;}
	.st117{fill:#91EA57;}
	.st118{fill:#C12727;}
	.st119{fill:#C191A0;}
	.st120{fill:#923BB7;}
	.st121{fill:#93A0A3;}
	.st122{fill:#93F9EA;}
	.st123{fill:#93FF5A;}
	.st124{fill:#C4833D;}
	.st125{fill:#95A2A5;}
	.st126{fill:#965514;}
	.st127{fill:#96562C;}
	.st128{fill:#2AF42F;}
	.st129{fill:#C5D7DD;}
	.st130{fill:#C68510;}
	.st131{fill:#C6A86D;}
	.st132{fill:#C6BB8D;}
	.st133{fill:#2C9DCE;}
	.st134{fill:#FBFCF2;}
	.st135{fill:#FC70B0;}
	.st136{fill:#FCE6C8;}
	.st137{fill:#FCF7E3;}
	.st138{fill:#C90D6B;}
	.st139{fill:#FDFEFF;}
	.st140{fill:#FDFFDC;}
	.st141{fill:#FF1A1A;}
	.st142{fill:#FF5252;}
	.st143{fill:#FF5B00;}
	.st144{fill:#FF6155;}
	.st145{fill:#FF630D;}
	.st146{fill:#FF6666;}
	.st147{fill:#FF7676;}
	.st148{fill:#FF7900;}
	.st149{fill:#FF860D;}
	.st150{fill:#FF8B00;}
	.st151{fill:#FF8F8F;}
	.st152{fill:#FF900B;}
	.st153{fill:#FF908A;}
	.st154{fill:#FF960B;}
	.st155{fill:#FF9C0D;}
	.st156{fill:#FFA9D4;}
	.st157{fill:#FFAA00;}
	.st158{fill:#FFAD40;}
	.st159{fill:#FFAF10;}
	.st160{fill:#FFB000;}
	.st161{fill:#FFBE08;}
	.st162{fill:#FFBF31;}
	.st163{fill:#FFC200;}
	.st164{fill:#FFCAE8;}
	.st165{fill:#FFCCF5;}
	.st166{fill:#FFD00B;}
	.st167{fill:#FFD039;}
	.st168{fill:#FFD400;}
	.st169{fill:#FFD833;}
	.st170{fill:#FFDB80;}
	.st171{fill:#FFDDD2;}
	.st172{fill:#FFE6D4;}
	.st173{fill:#FFE6EB;}
	.st174{fill:#FFE98D;}
	.st175{fill:#FFECD2;}
	.st176{fill:#FFF1D9;}
	.st177{fill:#FFF24D;}
	.st178{fill:#FFF3C2;}
	.st179{fill:#FFF4C7;}
	.st180{fill:#FFF800;}
	.st181{fill:#FFF80D;}
	.st182{fill:#FFF9DE;}
	.st183{fill:#FFFBD7;}
	.st184{fill:#FFFBEB;}
	.st185{fill:#FFFCC0;}
	.st186{fill:#FFFCDC;}
	.st187{fill:#FFFFFA;}
	.st188{fill:#FFFFFF;}
	.st189{fill:#63797F;}
	.st190{fill:#65E529;}
	.st191{fill:#66310E;}
	.st192{fill:#663C17;}
	.st193{fill:#9A5AE5;}
	.st194{fill:#CA30EF;}
	.st195{fill:#6892FC;}
	.st196{fill:#9CFFC4;}
	.st197{fill:#CC4306;}
	.st198{fill:#CC549E;}
	.st199{fill:#9E3256;}
	.st200{fill:#CDFFBB;}
	.st201{fill:#CE86AF;}
	.st202{fill:#CED9DD;}
	
		.st203{fill:none;stroke:#33363A;stroke-width:3;stroke-linecap:round;stroke-linejoin:round;stroke-miterlimit:10;stroke-dasharray:6;}
	.st204{fill:#CFE1E2;}
	.st205{fill:#33363A;}
	.st206{fill:#34C166;}
	.st207{fill:#364B5B;}
	.st208{fill:#3662CE;}
	.st209{fill:#36C6FF;}
	.st210{fill:#6ADB9A;}
	.st211{fill:#6D5C4D;}
	.st212{fill:#6EBDF9;}
	.st213{fill:#0031FF;}
	.st214{fill:#0062FF;}
	.st215{fill:#0068FF;}
	.st216{fill:#0086FF;}
	.st217{fill:#009BE8;}
	.st218{fill:#00AAFF;}
	.st219{fill:#D271FF;}
	.st220{fill:#D363A9;}
	.st221{fill:#D3964C;}
	.st222{fill:#D3DFE2;}
	.st223{fill:#D3E0E2;}
	.st224{fill:#D3EFF4;}
	.st225{fill:#063B66;}
	.st226{fill:#D60909;}
	.st227{fill:#D61D1D;}
	.st228{fill:#D7F0FF;}
	.st229{fill:#09B285;}
	.st230{fill:#D8D593;}
	.st231{fill:#D8E2EA;}
	.st232{fill:#D8E5EA;}
	.st233{fill:#3E5054;}
	.st234{fill:#D988FF;}
	.st235{fill:#D9E7E8;}
	.st236{fill:#702252;}
	.st237{fill:#70D3E0;}
	.st238{fill:#A02FF2;}
	.st239{fill:#A2F255;}
	.st240{fill:#A35616;}
	.st241{fill:#A3CCCC;}
	.st242{fill:#0A6ADD;}
	.st243{fill:#A5145D;}
	.st244{fill:#A57555;}
	.st245{fill:#77D6FC;}
	.st246{fill:#7815CE;}
	.st247{fill:#A7BBC1;}
	.st248{fill:#DBD279;}
	.st249{fill:#0D5C9E;}
	.st250{fill:#A83C11;}
	.st251{fill:#A8633D;}
	.st252{fill:#A8A3E5;}
	.st253{fill:#DCE6EA;}
	.st254{fill:#DCE7EA;}
	.st255{fill:#A962E8;}
	.st256{fill:#DD2466;}
	.st257{fill:#DDC38A;}
	.st258{fill:#DDD2B1;}
	.st259{fill:#DFE7E8;}
	.st260{fill:#42B1E8;}
	.st261{fill:#436377;}
	.st262{fill:#43B530;}
]]>
</style>
<g>
	<g>
		<g>
			<g>
				<g>
					<path class="st150" d="M44.822,72.283c4.518-4.517,6.627-10.515,6.377-16.431c-5.916-0.249-11.913,1.86-16.43,6.376
						c-4.518,4.518-6.627,10.515-6.376,16.431C34.309,78.909,40.306,76.801,44.822,72.283z"/>
				</g>
				<g>
					<path class="st205" d="M29.335,80.179C29.334,80.179,29.334,80.179,29.335,80.179c-0.335,0-0.671-0.007-1.005-0.021
						c-0.778-0.033-1.402-0.657-1.435-1.436c-0.278-6.548,2.206-12.946,6.814-17.555c4.643-4.643,10.958-7.092,17.553-6.814
						c0.779,0.033,1.403,0.657,1.436,1.436c0.277,6.55-2.207,12.948-6.815,17.555C41.476,77.752,35.599,80.179,29.335,80.179z
						 M49.711,57.34c-5.257,0.138-10.168,2.237-13.881,5.949c-3.681,3.682-5.807,8.677-5.949,13.883
						c5.258-0.136,10.168-2.236,13.88-5.949C47.443,67.542,49.568,62.547,49.711,57.34z"/>
				</g>
			</g>
			<g>
				<g>
					<path class="st150" d="M90.177,72.283c-4.517-4.517-6.626-10.515-6.377-16.431c5.917-0.249,11.913,1.86,16.431,6.376
						c4.518,4.518,6.626,10.515,6.376,16.431C100.69,78.909,94.694,76.801,90.177,72.283z"/>
				</g>
				<g>
					<path class="st205" d="M105.666,80.179c-6.265,0-12.142-2.427-16.55-6.835c-4.607-4.606-7.091-11.005-6.815-17.555
						c0.033-0.778,0.657-1.402,1.436-1.436c6.6-0.273,12.91,2.172,17.554,6.814c4.607,4.607,7.091,11.006,6.814,17.555
						c-0.033,0.778-0.657,1.402-1.435,1.436C106.335,80.172,106,80.179,105.666,80.179z M85.288,57.34
						c0.144,5.208,2.269,10.202,5.949,13.883c3.713,3.713,8.624,5.812,13.881,5.949c-0.143-5.207-2.268-10.202-5.948-13.883
						C95.457,59.578,90.545,57.478,85.288,57.34z"/>
				</g>
			</g>
		</g>
		<g>
			<g>
				<g>
					<g>
						<g>
							<g>
								<g>
									<g>
										<g>
											<g>
												<g>
													<g>
														<polygon class="st34" points="67.501,83.196 8.038,94.301 13.249,124.162 121.752,124.162 126.962,94.301 
																													"/>
													</g>
													<g>
														<polygon class="st142" points="67.501,83.196 8.038,94.301 13.249,124.162 121.752,124.162 126.962,94.301 
																													"/>
													</g>
													<g>
														<polygon class="st141" points="67.501,100.411 8.038,94.301 13.249,124.162 121.752,124.162 126.962,94.301 
																													"/>
													</g>
													<g>
														<path class="st205" d="M121.752,125.662H13.249c-0.729,0-1.353-0.524-1.478-1.242L6.561,94.559
															c-0.141-0.81,0.395-1.581,1.202-1.732l59.463-11.104c0.182-0.033,0.369-0.033,0.551,0l59.461,11.104
															c0.808,0.151,1.343,0.923,1.202,1.732l-5.21,29.861C123.104,125.138,122.481,125.662,121.752,125.662z M14.51,122.662
															h105.981l4.738-27.159l-57.729-10.78l-57.73,10.78L14.51,122.662z"/>
													</g>
												</g>
												<g>
													<g>
														<polygon class="st75" points="53.83,59.01 53.7,89.922 67.5,123.479 81.301,89.922 81.172,59.01 														"/>
													</g>
													<g>
														<polygon class="st216" points="76.578,101.405 58.423,101.405 67.244,122.855 67.757,122.855 														"/>
													</g>
													<g>
														<path class="st205" d="M67.757,124.355h-0.513c-0.608,0-1.156-0.367-1.387-0.93l-8.821-21.45
															c-0.19-0.463-0.137-0.989,0.141-1.405s0.746-0.665,1.246-0.665h18.155c0.5,0,0.968,0.249,1.246,0.665
															s0.332,0.942,0.141,1.405l-8.821,21.45C68.913,123.988,68.365,124.355,67.757,124.355z M60.662,102.905l6.839,16.63
															l6.839-16.63H60.662z"/>
													</g>
													<g>
														<polygon class="st107" points="53.83,59.01 53.7,89.922 67.5,92.879 81.301,89.922 81.172,59.01 														"/>
													</g>
													<g>
														<path class="st75" d="M81.172,59.01H53.83l-1.5,17.625l10.447,8.549c1.374,1.124,3.049,1.686,4.723,1.686
															c1.675,0,3.351-0.562,4.724-1.686l10.448-8.547L81.172,59.01z"/>
													</g>
													<g>
														<path class="st205" d="M67.5,124.979L67.5,124.979c-0.608,0-1.156-0.367-1.387-0.93l-13.8-33.557
															c-0.075-0.183-0.114-0.379-0.113-0.576l0.13-30.912c0.003-0.826,0.674-1.494,1.5-1.494h27.342
															c0.826,0,1.497,0.668,1.5,1.494l0.129,30.912c0.001,0.197-0.038,0.394-0.113,0.576l-13.801,33.557
															C68.656,124.611,68.108,124.979,67.5,124.979z M55.202,89.629L67.5,119.535l12.299-29.906L79.678,60.51H55.324
															L55.202,89.629z"/>
													</g>
												</g>
												<g>
													<g>
														<path class="st162" d="M92.818,36.834c0,12.705-11.335,23.004-25.318,23.004c-13.982,0-25.318-10.299-25.318-23.004
															S53.518,10.838,67.5,10.838C81.483,10.838,92.818,24.129,92.818,36.834z"/>
													</g>
													<g>
														<path class="st150" d="M92.818,36.834c0,12.705-11.335,23.004-25.318,23.004c-13.982,0-25.318-10.299-25.318-23.004
															S53.518,16.713,67.5,16.713C81.483,16.713,92.818,24.129,92.818,36.834z"/>
													</g>
													<g>
														<path class="st205" d="M67.5,61.338c-14.788,0-26.818-10.992-26.818-24.504c0-12.979,11.469-27.496,26.818-27.496
															c12.66,0,26.818,11.759,26.818,27.496C94.318,50.346,82.288,61.338,67.5,61.338z M67.5,12.338
															c-11.243,0-23.818,10.476-23.818,24.496c0,11.857,10.685,21.504,23.818,21.504s23.818-9.646,23.818-21.504
															C91.318,22.813,78.743,12.338,67.5,12.338z"/>
													</g>
													<g>
														<g>
															<g>
																<path class="st107" d="M47.489,56.031c-3.907,0-7.073-3.166-7.073-7.072s3.166-7.073,7.073-7.073"/>
															</g>
															<g>
																<path class="st205" d="M47.489,57.531c-4.728,0-8.573-3.846-8.573-8.572c0-4.728,3.846-8.573,8.573-8.573
																	c0.829,0,1.5,0.672,1.5,1.5s-0.671,1.5-1.5,1.5c-3.073,0-5.573,2.5-5.573,5.573c0,3.072,2.5,5.572,5.573,5.572
																	c0.829,0,1.5,0.672,1.5,1.5S48.318,57.531,47.489,57.531z"/>
															</g>
														</g>
														<g>
															<g>
																<path class="st107" d="M87.512,41.886c3.906,0,7.073,3.167,7.073,7.073c0,3.908-3.167,7.072-7.073,7.072"/>
															</g>
															<g>
																<path class="st205" d="M87.512,57.531c-0.829,0-1.5-0.672-1.5-1.5s0.671-1.5,1.5-1.5c3.073,0,5.573-2.5,5.573-5.572
																	c0-3.073-2.5-5.573-5.573-5.573c-0.829,0-1.5-0.672-1.5-1.5s0.671-1.5,1.5-1.5c4.728,0,8.573,3.846,8.573,8.573
																	C96.085,53.686,92.239,57.531,87.512,57.531z"/>
															</g>
														</g>
													</g>
													<g>
														<g>
															<path class="st75" d="M82.169,33.406l-13.362-2.379c-0.864-0.152-1.748-0.152-2.612,0l-13.361,2.379
																c-3.56,0.633-6.152,3.727-6.152,7.344v19.509c0,2.239,1.003,4.356,2.735,5.774l13.361,13.432
																c1.374,1.125,3.049,1.686,4.723,1.686c1.675,0,3.351-0.561,4.724-1.686l13.362-13.432
																c1.731-1.418,2.734-3.535,2.734-5.774V40.75C88.32,37.133,85.728,34.039,82.169,33.406z"/>
														</g>
														<g>
															<path class="st107" d="M82.169,33.406l-13.362,6.475c-0.864-0.152-1.748-0.152-2.612,0l-13.361-6.475
																c-3.56,0.633-6.152,3.727-6.152,7.344v19.509c0,2.239,1.003,4.356,2.735,5.774l13.361,13.432
																c1.374,1.125,3.049,1.686,4.723,1.686c1.675,0,3.351-0.561,4.724-1.686l13.362-13.432
																c1.731-1.418,2.734-3.535,2.734-5.774V40.75C88.32,37.133,85.728,34.039,82.169,33.406z"/>
														</g>
														<g>
															<path class="st75" d="M67.5,81.15c1.675,0,3.351-0.561,4.724-1.686l13.362-13.432
																c1.731-1.418,2.734-3.535,2.734-5.774V40.75c0-3.617-2.593-6.711-6.151-7.344l-13.362-2.379
																c-0.864-0.152-0.441-0.152-1.307,0"/>
														</g>
														<g>
															<path class="st205" d="M67.5,82.65c-2.063,0-4.078-0.719-5.673-2.025c-0.04-0.032-0.077-0.066-0.113-0.103
																l-13.31-13.38c-2.05-1.708-3.224-4.212-3.224-6.884V40.75c0-4.35,3.108-8.06,7.39-8.82l13.361-2.379
																c1.036-0.184,2.104-0.183,3.135-0.001l13.365,2.38c4.281,0.761,7.389,4.471,7.389,8.82v19.509
																c0,2.672-1.173,5.176-3.223,6.884l-13.311,13.38c-0.036,0.036-0.074,0.07-0.113,0.103
																C71.581,81.931,69.565,82.65,67.5,82.65z M63.784,78.35c2.103,1.681,5.334,1.679,7.434,0l13.305-13.374
																c0.036-0.036,0.074-0.07,0.113-0.103c1.388-1.138,2.185-2.819,2.185-4.614V40.75c0-2.894-2.066-5.36-4.914-5.867
																l-13.362-2.379c-0.685-0.119-1.4-0.12-2.089,0.001l-13.359,2.378c-2.848,0.507-4.915,2.974-4.915,5.867v19.509
																c0,1.795,0.796,3.477,2.186,4.613c0.04,0.033,0.077,0.067,0.113,0.104L63.784,78.35z"/>
														</g>
													</g>
												</g>
											</g>
										</g>
									</g>
									<g>
										<g>
											<path class="st205" d="M24.545,125.662c-0.562,0-1.102-0.317-1.358-0.86l-5.333-11.309
												c-0.353-0.749-0.032-1.643,0.717-1.996c0.748-0.354,1.643-0.033,1.997,0.717l5.333,11.309
												c0.353,0.749,0.032,1.643-0.717,1.996C24.977,125.616,24.759,125.662,24.545,125.662z"/>
										</g>
										<g>
											<path class="st205" d="M110.456,125.662c-0.214,0-0.432-0.046-0.639-0.144c-0.75-0.354-1.07-1.247-0.717-1.996
												l5.333-11.309c0.354-0.749,1.248-1.069,1.997-0.717c0.75,0.354,1.07,1.247,0.717,1.996l-5.333,11.309
												C111.558,125.345,111.019,125.662,110.456,125.662z"/>
										</g>
									</g>
								</g>
							</g>
						</g>
					</g>
				</g>
			</g>
			<g>
				<g>
					<path class="st162" d="M67.5,17.532c-11.517,0-20.852,9.335-20.852,20.852h41.703C88.352,26.867,79.016,17.532,67.5,17.532z"/>
				</g>
				<g>
					<path class="st150" d="M67.5,23.503c-9.441,0-17.412,6.274-19.979,14.881h39.959C84.911,29.777,76.94,23.503,67.5,23.503z"/>
				</g>
				<g>
					<path class="st205" d="M88.352,39.884H46.648c-0.829,0-1.5-0.672-1.5-1.5s0.671-1.5,1.5-1.5h41.703c0.829,0,1.5,0.672,1.5,1.5
						S89.18,39.884,88.352,39.884z"/>
				</g>
			</g>
		</g>
		<g>
			<rect x="76.33" y="122.855" class="st142" width="0" height="0"/>
		</g>
	</g>
	<g>
		<g>
			<path class="st212" d="M82.671,113.938c0-6.92,5.612-12.533,12.532-12.533c6.921,0,12.532,5.613,12.532,12.533"/>
		</g>
		<g>
			<path class="st216" d="M82.671,113.938c0-5.299,5.612-9.601,12.532-9.601c6.921,0,12.532,4.302,12.532,9.601"/>
		</g>
		<g>
			<line class="st188" x1="107.735" y1="113.938" x2="82.671" y2="113.938"/>
		</g>
		<g>
			<line class="st253" x1="107.735" y1="113.938" x2="82.671" y2="113.938"/>
		</g>
		<g>
			<path class="st205" d="M107.735,115.438c-0.829,0-1.5-0.672-1.5-1.5c0-6.084-4.949-11.033-11.032-11.033
				s-11.032,4.949-11.032,11.033c0,0.828-0.671,1.5-1.5,1.5s-1.5-0.672-1.5-1.5c0-7.738,6.295-14.033,14.032-14.033
				s14.032,6.295,14.032,14.033C109.235,114.767,108.564,115.438,107.735,115.438z"/>
		</g>
		<g>
			<path class="st205" d="M107.735,115.438H82.671c-0.829,0-1.5-0.672-1.5-1.5s0.671-1.5,1.5-1.5h25.064c0.829,0,1.5,0.672,1.5,1.5
				S108.564,115.438,107.735,115.438z"/>
		</g>
		<g>
			<g>
				<circle class="st188" cx="95.202" cy="113.964" r="4.143"/>
			</g>
			<g>
				<path class="st232" d="M92.272,116.894c-1.617-1.615-1.617-4.24,0-5.858c1.619-1.618,4.243-1.618,5.859,0"/>
			</g>
			<g>
				<path class="st205" d="M95.203,119.608c-1.507,0-2.925-0.588-3.991-1.654c-1.065-1.063-1.652-2.48-1.652-3.988
					s0.586-2.925,1.652-3.991c1.067-1.066,2.484-1.653,3.992-1.653c1.508,0,2.925,0.588,3.99,1.654
					c1.066,1.065,1.653,2.483,1.653,3.992c0,1.508-0.588,2.924-1.655,3.987C98.128,119.021,96.711,119.608,95.203,119.608z
					 M95.203,111.321c-0.706,0-1.371,0.275-1.87,0.774c-0.499,0.499-0.773,1.163-0.773,1.87c0,0.706,0.274,1.368,0.773,1.866
					c1.001,1.002,2.741,1.001,3.738,0.002c0.501-0.5,0.775-1.162,0.776-1.867c0-0.707-0.275-1.371-0.775-1.871
					C96.572,111.597,95.909,111.321,95.203,111.321z"/>
			</g>
		</g>
	</g>
</g>
</svg>
