<?xml version="1.0" encoding="utf-8"?>
<!-- Generator: Adobe Illustrator 16.0.0, SVG Export Plug-In . SVG Version: 6.00 Build 0)  -->
<!DOCTYPE svg PUBLIC "-//W3C//DTD SVG 1.1//EN" "http://www.w3.org/Graphics/SVG/1.1/DTD/svg11.dtd">
<svg version="1.1" id="Layer_1" xmlns="http://www.w3.org/2000/svg" xmlns:xlink="http://www.w3.org/1999/xlink" x="0px" y="0px"
	 width="135px" height="135px" viewBox="0 0 135 135" style="enable-background:new 0 0 135 135;" xml:space="preserve">
<style type="text/css">
<![CDATA[
	.st0{fill:#465652;}
	.st1{fill:#AAB9BA;}
	.st2{fill:#47C67B;}
	.st3{fill:#AAC8D1;}
	.st4{fill:none;stroke:#E83834;stroke-width:6;stroke-linecap:round;stroke-linejoin:round;stroke-miterlimit:10;}
	.st5{fill:#7BC67B;}
	.st6{fill:#7BC7FF;}
	.st7{fill:#7C34C1;}
	.st8{fill:#7C8D96;}
	.st9{fill:#AD2707;}
	.st10{fill:#ADB8BC;}
	.st11{fill:#107510;}
	.st12{fill:#7FE5D8;}
	.st13{fill:#AF4AD1;}
	.st14{fill:#E02B7E;}
	.st15{fill:#E04038;}
	.st16{fill:#AFD7DD;}
	.st17{fill:#E0A010;}
	.st18{fill:#E0D5A4;}
	.st19{fill:#12B2B2;}
	.st20{fill:#12D66B;}
	.st21{fill:#E1A9FF;}
	.st22{fill:#1362A8;}
	.st23{fill:#E2378D;}
	.st24{fill:#E29C37;}
	.st25{fill:#E2B90E;}
	.st26{fill:#E2BF91;}
	.st27{fill:#E2CBAA;}
	.st28{fill:#14A594;}
	.st29{fill:#E4E9ED;}
	.st30{fill:#4A5D60;}
	.st31{fill:#E5B076;}
	.st32{fill:#E5B1C4;}
	.st33{fill:#E5E4C3;}
	.st34{fill:#4B6466;}
	.st35{fill:#E6FF2E;}
	.st36{fill:#18AA67;}
	.st37{fill:#E86207;}
	.st38{fill:#E8A113;}
	.st39{fill:#E8B5A6;}
	.st40{fill:#E8E8ED;}
	.st41{fill:#4E5154;}
	.st42{fill:#E9F1F4;}
	.st43{fill:#4F4B48;}
	.st44{fill:#4F74E8;}
	.st45{fill:#808E93;}
	.st46{fill:#80949B;}
	.st47{fill:#80EDAC;}
	.st48{fill:#B122E0;}
	.st49{fill:#B2C4CC;}
	.st50{fill:#83D839;}
	.st51{fill:#B3C6C6;}
	.st52{fill:none;stroke:#33363A;stroke-width:3;stroke-linecap:round;stroke-linejoin:round;stroke-miterlimit:10;}
	.st53{fill:#1A8E1C;}
	.st54{fill:#1A93D6;}
	.st55{fill:#B50B0B;}
	.st56{fill:#1AD88F;}
	.st57{fill:#B5DAF4;}
	.st58{fill:#EA7B1F;}
	.st59{fill:#EA81BD;}
	.st60{fill:#87B8D6;}
	.st61{fill:#87C3F4;}
	.st62{fill:#EAC79D;}
	.st63{fill:#EADF11;}
	.st64{fill:#EAE4C5;}
	.st65{fill:#B78094;}
	.st66{fill:#8844D8;}
	.st67{fill:#EBF4F7;}
	.st68{fill:#893015;}
	.st69{fill:#89410B;}
	.st70{fill:#899BA3;}
	.st71{fill:#EDE3B9;}
	.st72{enable-background:new    ;}
	.st73{fill:#50FF9F;}
	.st74{fill:#EEDCF4;}
	.st75{fill:#EFA37D;}
	.st76{fill:#EFA3CC;}
	.st77{fill:#EFC99A;}
	.st78{fill:#54AF79;}
	.st79{fill:#BA503A;}
	.st80{fill:#BA8663;}
	.st81{fill:#8B4FE0;}
	.st82{fill:#58ED9B;}
	.st83{fill:#BC7DFF;}
	.st84{fill:#8D9AA3;}
	.st85{fill:#BCCAD3;}
	.st86{fill:#8DE4FF;}
	.st87{fill:#20B518;}
	.st88{fill:#BF44F2;}
	.st89{fill:#21CEA1;}
	.st90{fill:#BFDAE0;}
	.st91{fill:#F0FBFC;}
	.st92{fill:#F2D9A7;}
	.st93{fill:#F2EAC9;}
	.st94{fill:#24D1AF;}
	.st95{fill:#25931C;}
	.st96{fill:#F4C4B3;}
	.st97{fill:#F4D3A2;}
	.st98{fill:#F4D647;}
	.st99{fill:#F4D7B8;}
	.st100{fill:#F4EC8E;}
	.st101{fill:#5B524D;}
	.st102{fill:#F77819;}
	.st103{fill:#F79AE1;}
	.st104{fill:#5E707A;}
	.st105{fill:#F93585;}
	.st106{fill:#F95D5D;}
	.st107{fill:#F9C19B;}
	.st108{fill:#F9CB58;}
	.st109{fill:#F9D2B2;}
	.st110{fill:#F9F07D;}
	.st111{fill:#F9F1D2;}
	.st112{fill:#F9F4B7;}
	.st113{fill:#F9F9E4;}
	.st114{fill:#5F1DAA;}
	.st115{fill:#5F9AD6;}
	.st116{fill:#C0C0C4;}
	.st117{fill:#91EA57;}
	.st118{fill:#C12727;}
	.st119{fill:#C191A0;}
	.st120{fill:#923BB7;}
	.st121{fill:#93A0A3;}
	.st122{fill:#93F9EA;}
	.st123{fill:#93FF5A;}
	.st124{fill:#C4833D;}
	.st125{fill:#95A2A5;}
	.st126{fill:#965514;}
	.st127{fill:#96562C;}
	.st128{fill:#2AF42F;}
	.st129{fill:#C5D7DD;}
	.st130{fill:#C68510;}
	.st131{fill:#C6A86D;}
	.st132{fill:#C6BB8D;}
	.st133{fill:#2C9DCE;}
	.st134{fill:#FBFCF2;}
	.st135{fill:#FC70B0;}
	.st136{fill:#FCE6C8;}
	.st137{fill:#FCF7E3;}
	.st138{fill:#C90D6B;}
	.st139{fill:#FDFEFF;}
	.st140{fill:#FDFFDC;}
	.st141{fill:#FF1A1A;}
	.st142{fill:#FF5252;}
	.st143{fill:#FF5B00;}
	.st144{fill:#FF6155;}
	.st145{fill:#FF630D;}
	.st146{fill:#FF6666;}
	.st147{fill:#FF7676;}
	.st148{fill:#FF7900;}
	.st149{fill:#FF860D;}
	.st150{fill:#FF8B00;}
	.st151{fill:#FF8F8F;}
	.st152{fill:#FF900B;}
	.st153{fill:#FF908A;}
	.st154{fill:#FF960B;}
	.st155{fill:#FF9C0D;}
	.st156{fill:#FFA9D4;}
	.st157{fill:#FFAA00;}
	.st158{fill:#FFAD40;}
	.st159{fill:#FFAF10;}
	.st160{fill:#FFB000;}
	.st161{fill:#FFBE08;}
	.st162{fill:#FFBF31;}
	.st163{fill:#FFC200;}
	.st164{fill:#FFCAE8;}
	.st165{fill:#FFCCF5;}
	.st166{fill:#FFD00B;}
	.st167{fill:#FFD039;}
	.st168{fill:#FFD400;}
	.st169{fill:#FFD833;}
	.st170{fill:#FFDB80;}
	.st171{fill:#FFDDD2;}
	.st172{fill:#FFE6D4;}
	.st173{fill:#FFE6EB;}
	.st174{fill:#FFE98D;}
	.st175{fill:#FFECD2;}
	.st176{fill:#FFF1D9;}
	.st177{fill:#FFF24D;}
	.st178{fill:#FFF3C2;}
	.st179{fill:#FFF4C7;}
	.st180{fill:#FFF800;}
	.st181{fill:#FFF80D;}
	.st182{fill:#FFF9DE;}
	.st183{fill:#FFFBD7;}
	.st184{fill:#FFFBEB;}
	.st185{fill:#FFFCC0;}
	.st186{fill:#FFFCDC;}
	.st187{fill:#FFFFFA;}
	.st188{fill:#FFFFFF;}
	.st189{fill:#63797F;}
	.st190{fill:#65E529;}
	.st191{fill:#66310E;}
	.st192{fill:#663C17;}
	.st193{fill:#9A5AE5;}
	.st194{fill:#CA30EF;}
	.st195{fill:#6892FC;}
	.st196{fill:#9CFFC4;}
	.st197{fill:#CC4306;}
	.st198{fill:#CC549E;}
	.st199{fill:#9E3256;}
	.st200{fill:#CDFFBB;}
	.st201{fill:#CE86AF;}
	.st202{fill:#CED9DD;}
	
		.st203{fill:none;stroke:#33363A;stroke-width:3;stroke-linecap:round;stroke-linejoin:round;stroke-miterlimit:10;stroke-dasharray:6;}
	.st204{fill:#CFE1E2;}
	.st205{fill:#33363A;}
	.st206{fill:#34C166;}
	.st207{fill:#364B5B;}
	.st208{fill:#3662CE;}
	.st209{fill:#36C6FF;}
	.st210{fill:#6ADB9A;}
	.st211{fill:#6D5C4D;}
	.st212{fill:#6EBDF9;}
	.st213{fill:#0031FF;}
	.st214{fill:#0062FF;}
	.st215{fill:#0068FF;}
	.st216{fill:#0086FF;}
	.st217{fill:#009BE8;}
	.st218{fill:#00AAFF;}
	.st219{fill:#D271FF;}
	.st220{fill:#D363A9;}
	.st221{fill:#D3964C;}
	.st222{fill:#D3DFE2;}
	.st223{fill:#D3E0E2;}
	.st224{fill:#D3EFF4;}
	.st225{fill:#063B66;}
	.st226{fill:#D60909;}
	.st227{fill:#D61D1D;}
	.st228{fill:#D7F0FF;}
	.st229{fill:#09B285;}
	.st230{fill:#D8D593;}
	.st231{fill:#D8E2EA;}
	.st232{fill:#D8E5EA;}
	.st233{fill:#3E5054;}
	.st234{fill:#D988FF;}
	.st235{fill:#D9E7E8;}
	.st236{fill:#702252;}
	.st237{fill:#70D3E0;}
	.st238{fill:#A02FF2;}
	.st239{fill:#A2F255;}
	.st240{fill:#A35616;}
	.st241{fill:#A3CCCC;}
	.st242{fill:#0A6ADD;}
	.st243{fill:#A5145D;}
	.st244{fill:#A57555;}
	.st245{fill:#77D6FC;}
	.st246{fill:#7815CE;}
	.st247{fill:#A7BBC1;}
	.st248{fill:#DBD279;}
	.st249{fill:#0D5C9E;}
	.st250{fill:#A83C11;}
	.st251{fill:#A8633D;}
	.st252{fill:#A8A3E5;}
	.st253{fill:#DCE6EA;}
	.st254{fill:#DCE7EA;}
	.st255{fill:#A962E8;}
	.st256{fill:#DD2466;}
	.st257{fill:#DDC38A;}
	.st258{fill:#DDD2B1;}
	.st259{fill:#DFE7E8;}
	.st260{fill:#42B1E8;}
	.st261{fill:#436377;}
	.st262{fill:#43B530;}
]]>
</style>
<g>
	<g>
		<g>
			<g>
				<g>
					<g>
						<path class="st153" d="M86.691,69.38C82.834,75.984,75.688,80.445,67.5,80.445S52.166,75.984,48.309,69.38H15.543
							c5.141,23.962,26.48,41.985,51.957,41.985s46.816-18.023,51.957-41.985H86.691z"/>
					</g>
					<g>
						<path class="st144" d="M67.5,80.445c-8.188,0-15.334-4.461-19.191-11.065H20.182C28.99,86.57,46.889,98.371,67.5,98.371
							s38.51-11.801,47.318-28.991H86.691C82.834,75.984,75.688,80.445,67.5,80.445z"/>
					</g>
					<g>
						<path class="st205" d="M67.5,112.865c-25.589,0-48.058-18.156-53.424-43.171c-0.095-0.443,0.016-0.905,0.3-1.257
							c0.285-0.353,0.714-0.557,1.167-0.557h32.766c0.533,0,1.026,0.283,1.295,0.744C53.322,74.99,60.18,78.945,67.5,78.945
							s14.178-3.955,17.896-10.322c0.269-0.46,0.762-0.744,1.295-0.744h32.766c0.453,0,0.882,0.205,1.167,0.557
							c0.284,0.353,0.395,0.814,0.3,1.257C115.558,94.709,93.089,112.865,67.5,112.865z M17.434,70.88
							c5.744,22.7,26.505,38.985,50.066,38.985s44.322-16.285,50.066-38.985H87.534C83.19,77.727,75.594,81.945,67.5,81.945
							S51.81,77.727,47.466,70.88H17.434z"/>
					</g>
				</g>
				<g>
					<g>
						<path class="st153" d="M48.309,47.327C52.166,40.723,59.312,36.26,67.5,36.26s15.334,4.463,19.191,11.067h32.766
							C114.316,23.365,92.977,5.341,67.5,5.341S20.684,23.365,15.543,47.327H48.309z"/>
					</g>
					<g>
						<path class="st144" d="M67.5,36.26c8.188,0,15.334,4.463,19.191,11.067h28.127C106.01,30.133,88.111,18.335,67.5,18.335
							S28.99,30.133,20.182,47.327h28.127C52.166,40.723,59.312,36.26,67.5,36.26z"/>
					</g>
					<g>
						<path class="st205" d="M119.477,48.827c-0.004,0.001-0.012,0-0.02,0H86.691c-0.533,0-1.026-0.283-1.295-0.744
							C81.677,41.716,74.819,37.76,67.5,37.76s-14.177,3.956-17.896,10.324c-0.269,0.46-0.762,0.744-1.295,0.744H15.543
							c-0.453,0-0.882-0.205-1.167-0.557c-0.284-0.353-0.395-0.814-0.3-1.257C19.443,21.997,41.911,3.841,67.5,3.841
							c25.508,0,47.914,18.042,53.372,42.934c0.067,0.171,0.104,0.357,0.104,0.552C120.977,48.156,120.306,48.827,119.477,48.827z
							 M87.534,45.827h30.032C111.822,23.126,91.062,6.841,67.5,6.841S23.178,23.126,17.434,45.827h30.032
							C51.811,38.979,59.407,34.76,67.5,34.76S83.189,38.979,87.534,45.827z"/>
					</g>
				</g>
			</g>
			<g>
				<g>
					<path class="st153" d="M79.084,58.352c0,6.402-5.186,11.586-11.584,11.586s-11.586-5.184-11.586-11.586
						c0-6.396,5.188-11.586,11.586-11.586S79.084,51.955,79.084,58.352z"/>
				</g>
				<g>
					<path class="st144" d="M55.914,58.352c0-6.396,5.188-11.586,11.586-11.586s11.584,5.189,11.584,11.586"/>
				</g>
				<g>
					<path class="st205" d="M67.5,71.438c-7.216,0-13.086-5.87-13.086-13.086s5.87-13.086,13.086-13.086
						c7.215,0,13.084,5.87,13.084,13.086S74.715,71.438,67.5,71.438z M67.5,48.266c-5.562,0-10.086,4.524-10.086,10.086
						S61.938,68.438,67.5,68.438c5.561,0,10.084-4.524,10.084-10.086S73.061,48.266,67.5,48.266z"/>
				</g>
			</g>
		</g>
		<g>
			<g>
				<g>
					<path class="st205" d="M45.404,59.852H29.035c-0.828,0-1.5-0.671-1.5-1.5s0.672-1.5,1.5-1.5h16.369c0.828,0,1.5,0.671,1.5,1.5
						S46.232,59.852,45.404,59.852z"/>
				</g>
				<g>
					<path class="st205" d="M19.609,59.85c-0.399,0-0.779-0.16-1.06-0.44c-0.28-0.28-0.44-0.66-0.44-1.06
						c0-0.39,0.16-0.78,0.431-1.06c0.569-0.56,1.569-0.56,2.13,0c0.28,0.28,0.439,0.67,0.439,1.06c0,0.4-0.159,0.78-0.439,1.06
						C20.39,59.69,20,59.85,19.609,59.85z"/>
				</g>
				<g>
					<path class="st205" d="M11.02,59.85c-0.399,0-0.779-0.16-1.069-0.44C9.68,59.13,9.52,58.75,9.52,58.35
						c0-0.39,0.16-0.78,0.431-1.06c0.569-0.56,1.569-0.56,2.13,0c0.279,0.28,0.439,0.67,0.439,1.06c0,0.39-0.16,0.78-0.439,1.06
						C11.79,59.69,11.41,59.85,11.02,59.85z"/>
				</g>
			</g>
			<g>
				<g>
					<path class="st205" d="M105.965,59.852H89.598c-0.828,0-1.5-0.671-1.5-1.5s0.672-1.5,1.5-1.5h16.367c0.828,0,1.5,0.671,1.5,1.5
						S106.793,59.852,105.965,59.852z"/>
				</g>
				<g>
					<path class="st205" d="M115.39,59.85c-0.39,0-0.78-0.16-1.06-0.44c-0.28-0.28-0.44-0.66-0.44-1.06c0-0.39,0.16-0.78,0.44-1.06
						c0.56-0.56,1.56-0.56,2.12,0c0.279,0.28,0.439,0.67,0.439,1.06c0,0.4-0.16,0.78-0.439,1.06
						C116.17,59.69,115.79,59.85,115.39,59.85z"/>
				</g>
				<g>
					<path class="st205" d="M123.979,59.85c-0.39,0-0.77-0.16-1.06-0.44c-0.28-0.28-0.44-0.66-0.44-1.06c0-0.39,0.16-0.78,0.44-1.06
						c0.57-0.56,1.57-0.56,2.12,0c0.279,0.28,0.439,0.67,0.439,1.06c0,0.4-0.16,0.78-0.439,1.06
						C124.77,59.69,124.38,59.85,123.979,59.85z"/>
				</g>
			</g>
		</g>
	</g>
	<g>
		<g>
			<path class="st166" d="M87.666,105.429c-0.322-0.996-1.182-1.722-2.217-1.87l-10.701-1.557l-4.785-9.699
				c-0.461-0.936-1.418-1.529-2.463-1.529c-1.047,0-2.002,0.594-2.463,1.529l-4.785,9.699l-10.701,1.557
				c-1.037,0.148-1.895,0.874-2.219,1.87c-0.32,0.994-0.053,2.086,0.695,2.815l7.744,7.545l-1.828,10.658
				c-0.178,1.031,0.246,2.073,1.092,2.689c0.85,0.611,1.969,0.695,2.895,0.205l9.57-5.029l9.57,5.029
				c0.402,0.213,0.84,0.317,1.277,0.317c0.57,0,1.137-0.175,1.615-0.522c0.848-0.616,1.271-1.658,1.094-2.689l-1.83-10.658
				l7.744-7.545C87.721,107.515,87.988,106.423,87.666,105.429z"/>
		</g>
		<g>
			<path class="st161" d="M79.227,115.789l6.254-6.095c-0.01,0-0.02-0.004-0.031-0.006l-10.701-1.557l-4.785-9.698
				c-0.461-0.938-1.418-1.529-2.463-1.529c-1.047,0-2.002,0.592-2.463,1.529l-4.785,9.698l-10.701,1.557
				c-0.012,0.002-0.021,0.006-0.033,0.006l6.254,6.095l-0.9,5.25l0.9,0.879l-1.17,6.816c0.131,0.146,0.271,0.283,0.434,0.402
				c0.85,0.611,1.969,0.695,2.895,0.205l9.57-5.029l9.57,5.029c0.402,0.213,0.84,0.317,1.277,0.317c0.57,0,1.137-0.175,1.615-0.522
				c0.162-0.119,0.305-0.256,0.434-0.402l-1.17-6.816l0.9-0.879L79.227,115.789z"/>
		</g>
		<g>
			<path class="st205" d="M56.651,131.16c-0.898,0-1.76-0.279-2.492-0.805c-1.324-0.965-1.971-2.558-1.694-4.162l1.695-9.879
				l-7.18-6.995c-1.163-1.134-1.575-2.801-1.076-4.35c0.507-1.557,1.822-2.664,3.434-2.895l9.918-1.443l4.437-8.992
				c0.707-1.437,2.202-2.366,3.808-2.366s3.101,0.929,3.809,2.366l4.436,8.991l9.921,1.443c1.587,0.228,2.934,1.363,3.428,2.893
				c0.503,1.55,0.09,3.218-1.076,4.353l-7.178,6.994l1.696,9.88c0.276,1.604-0.371,3.198-1.69,4.157
				c-1.28,0.931-3.066,1.064-4.476,0.317l-8.869-4.661l-8.872,4.663C58.023,130.989,57.339,131.16,56.651,131.16z M67.5,92.273
				c-0.472,0-0.91,0.271-1.117,0.692l-4.786,9.7c-0.218,0.443-0.641,0.75-1.129,0.821l-10.701,1.557
				c-0.475,0.068-0.859,0.394-1.008,0.85c-0.145,0.446-0.021,0.949,0.315,1.277l7.744,7.544c0.354,0.344,0.515,0.841,0.432,1.328
				l-1.828,10.658c-0.082,0.473,0.108,0.941,0.497,1.224c0.372,0.268,0.895,0.312,1.309,0.092l9.574-5.031
				c0.438-0.229,0.959-0.229,1.396,0l9.57,5.029c0.424,0.225,0.94,0.18,1.312-0.091c0.388-0.282,0.578-0.75,0.497-1.221
				l-1.83-10.659c-0.083-0.487,0.078-0.983,0.432-1.328l7.744-7.545c0.343-0.333,0.463-0.823,0.315-1.279
				c-0.147-0.456-0.531-0.78-1.003-0.848l-10.704-1.557c-0.488-0.071-0.911-0.378-1.129-0.821l-4.785-9.699
				C68.41,92.545,67.972,92.273,67.5,92.273z"/>
		</g>
	</g>
</g>
</svg>
