<?xml version="1.0" encoding="utf-8"?>
<!-- Generator: Adobe Illustrator 16.0.0, SVG Export Plug-In . SVG Version: 6.00 Build 0)  -->
<!DOCTYPE svg PUBLIC "-//W3C//DTD SVG 1.1//EN" "http://www.w3.org/Graphics/SVG/1.1/DTD/svg11.dtd">
<svg version="1.1" id="Layer_1" xmlns="http://www.w3.org/2000/svg" xmlns:xlink="http://www.w3.org/1999/xlink" x="0px" y="0px"
	 width="135px" height="135px" viewBox="0 0 135 135" style="enable-background:new 0 0 135 135;" xml:space="preserve">
<style type="text/css">
<![CDATA[
	.st0{fill:#465652;}
	.st1{fill:#AAB9BA;}
	.st2{fill:#47C67B;}
	.st3{fill:#AAC8D1;}
	.st4{fill:none;stroke:#E83834;stroke-width:6;stroke-linecap:round;stroke-linejoin:round;stroke-miterlimit:10;}
	.st5{fill:#7BC67B;}
	.st6{fill:#7BC7FF;}
	.st7{fill:#7C34C1;}
	.st8{fill:#7C8D96;}
	.st9{fill:#AD2707;}
	.st10{fill:#ADB8BC;}
	.st11{fill:#107510;}
	.st12{fill:#7FE5D8;}
	.st13{fill:#AF4AD1;}
	.st14{fill:#E02B7E;}
	.st15{fill:#E04038;}
	.st16{fill:#AFD7DD;}
	.st17{fill:#E0A010;}
	.st18{fill:#E0D5A4;}
	.st19{fill:#12B2B2;}
	.st20{fill:#12D66B;}
	.st21{fill:#E1A9FF;}
	.st22{fill:#1362A8;}
	.st23{fill:#E2378D;}
	.st24{fill:#E29C37;}
	.st25{fill:#E2B90E;}
	.st26{fill:#E2BF91;}
	.st27{fill:#E2CBAA;}
	.st28{fill:#14A594;}
	.st29{fill:#E4E9ED;}
	.st30{fill:#4A5D60;}
	.st31{fill:#E5B076;}
	.st32{fill:#E5B1C4;}
	.st33{fill:#E5E4C3;}
	.st34{fill:#4B6466;}
	.st35{fill:#E6FF2E;}
	.st36{fill:#18AA67;}
	.st37{fill:#E86207;}
	.st38{fill:#E8A113;}
	.st39{fill:#E8B5A6;}
	.st40{fill:#E8E8ED;}
	.st41{fill:#4E5154;}
	.st42{fill:#E9F1F4;}
	.st43{fill:#4F4B48;}
	.st44{fill:#4F74E8;}
	.st45{fill:#808E93;}
	.st46{fill:#80949B;}
	.st47{fill:#80EDAC;}
	.st48{fill:#B122E0;}
	.st49{fill:#B2C4CC;}
	.st50{fill:#83D839;}
	.st51{fill:#B3C6C6;}
	.st52{fill:none;stroke:#33363A;stroke-width:3;stroke-linecap:round;stroke-linejoin:round;stroke-miterlimit:10;}
	.st53{fill:#1A8E1C;}
	.st54{fill:#1A93D6;}
	.st55{fill:#B50B0B;}
	.st56{fill:#1AD88F;}
	.st57{fill:#B5DAF4;}
	.st58{fill:#EA7B1F;}
	.st59{fill:#EA81BD;}
	.st60{fill:#87B8D6;}
	.st61{fill:#87C3F4;}
	.st62{fill:#EAC79D;}
	.st63{fill:#EADF11;}
	.st64{fill:#EAE4C5;}
	.st65{fill:#B78094;}
	.st66{fill:#8844D8;}
	.st67{fill:#EBF4F7;}
	.st68{fill:#893015;}
	.st69{fill:#89410B;}
	.st70{fill:#899BA3;}
	.st71{fill:#EDE3B9;}
	.st72{enable-background:new    ;}
	.st73{fill:#50FF9F;}
	.st74{fill:#EEDCF4;}
	.st75{fill:#EFA37D;}
	.st76{fill:#EFA3CC;}
	.st77{fill:#EFC99A;}
	.st78{fill:#54AF79;}
	.st79{fill:#BA503A;}
	.st80{fill:#BA8663;}
	.st81{fill:#8B4FE0;}
	.st82{fill:#58ED9B;}
	.st83{fill:#BC7DFF;}
	.st84{fill:#8D9AA3;}
	.st85{fill:#BCCAD3;}
	.st86{fill:#8DE4FF;}
	.st87{fill:#20B518;}
	.st88{fill:#BF44F2;}
	.st89{fill:#21CEA1;}
	.st90{fill:#BFDAE0;}
	.st91{fill:#F0FBFC;}
	.st92{fill:#F2D9A7;}
	.st93{fill:#F2EAC9;}
	.st94{fill:#24D1AF;}
	.st95{fill:#25931C;}
	.st96{fill:#F4C4B3;}
	.st97{fill:#F4D3A2;}
	.st98{fill:#F4D647;}
	.st99{fill:#F4D7B8;}
	.st100{fill:#F4EC8E;}
	.st101{fill:#5B524D;}
	.st102{fill:#F77819;}
	.st103{fill:#F79AE1;}
	.st104{fill:#5E707A;}
	.st105{fill:#F93585;}
	.st106{fill:#F95D5D;}
	.st107{fill:#F9C19B;}
	.st108{fill:#F9CB58;}
	.st109{fill:#F9D2B2;}
	.st110{fill:#F9F07D;}
	.st111{fill:#F9F1D2;}
	.st112{fill:#F9F4B7;}
	.st113{fill:#F9F9E4;}
	.st114{fill:#5F1DAA;}
	.st115{fill:#5F9AD6;}
	.st116{fill:#C0C0C4;}
	.st117{fill:#91EA57;}
	.st118{fill:#C12727;}
	.st119{fill:#C191A0;}
	.st120{fill:#923BB7;}
	.st121{fill:#93A0A3;}
	.st122{fill:#93F9EA;}
	.st123{fill:#93FF5A;}
	.st124{fill:#C4833D;}
	.st125{fill:#95A2A5;}
	.st126{fill:#965514;}
	.st127{fill:#96562C;}
	.st128{fill:#2AF42F;}
	.st129{fill:#C5D7DD;}
	.st130{fill:#C68510;}
	.st131{fill:#C6A86D;}
	.st132{fill:#C6BB8D;}
	.st133{fill:#2C9DCE;}
	.st134{fill:#FBFCF2;}
	.st135{fill:#FC70B0;}
	.st136{fill:#FCE6C8;}
	.st137{fill:#FCF7E3;}
	.st138{fill:#C90D6B;}
	.st139{fill:#FDFEFF;}
	.st140{fill:#FDFFDC;}
	.st141{fill:#FF1A1A;}
	.st142{fill:#FF5252;}
	.st143{fill:#FF5B00;}
	.st144{fill:#FF6155;}
	.st145{fill:#FF630D;}
	.st146{fill:#FF6666;}
	.st147{fill:#FF7676;}
	.st148{fill:#FF7900;}
	.st149{fill:#FF860D;}
	.st150{fill:#FF8B00;}
	.st151{fill:#FF8F8F;}
	.st152{fill:#FF900B;}
	.st153{fill:#FF908A;}
	.st154{fill:#FF960B;}
	.st155{fill:#FF9C0D;}
	.st156{fill:#FFA9D4;}
	.st157{fill:#FFAA00;}
	.st158{fill:#FFAD40;}
	.st159{fill:#FFAF10;}
	.st160{fill:#FFB000;}
	.st161{fill:#FFBE08;}
	.st162{fill:#FFBF31;}
	.st163{fill:#FFC200;}
	.st164{fill:#FFCAE8;}
	.st165{fill:#FFCCF5;}
	.st166{fill:#FFD00B;}
	.st167{fill:#FFD039;}
	.st168{fill:#FFD400;}
	.st169{fill:#FFD833;}
	.st170{fill:#FFDB80;}
	.st171{fill:#FFDDD2;}
	.st172{fill:#FFE6D4;}
	.st173{fill:#FFE6EB;}
	.st174{fill:#FFE98D;}
	.st175{fill:#FFECD2;}
	.st176{fill:#FFF1D9;}
	.st177{fill:#FFF24D;}
	.st178{fill:#FFF3C2;}
	.st179{fill:#FFF4C7;}
	.st180{fill:#FFF800;}
	.st181{fill:#FFF80D;}
	.st182{fill:#FFF9DE;}
	.st183{fill:#FFFBD7;}
	.st184{fill:#FFFBEB;}
	.st185{fill:#FFFCC0;}
	.st186{fill:#FFFCDC;}
	.st187{fill:#FFFFFA;}
	.st188{fill:#FFFFFF;}
	.st189{fill:#63797F;}
	.st190{fill:#65E529;}
	.st191{fill:#66310E;}
	.st192{fill:#663C17;}
	.st193{fill:#9A5AE5;}
	.st194{fill:#CA30EF;}
	.st195{fill:#6892FC;}
	.st196{fill:#9CFFC4;}
	.st197{fill:#CC4306;}
	.st198{fill:#CC549E;}
	.st199{fill:#9E3256;}
	.st200{fill:#CDFFBB;}
	.st201{fill:#CE86AF;}
	.st202{fill:#CED9DD;}
	
		.st203{fill:none;stroke:#33363A;stroke-width:3;stroke-linecap:round;stroke-linejoin:round;stroke-miterlimit:10;stroke-dasharray:6;}
	.st204{fill:#CFE1E2;}
	.st205{fill:#33363A;}
	.st206{fill:#34C166;}
	.st207{fill:#364B5B;}
	.st208{fill:#3662CE;}
	.st209{fill:#36C6FF;}
	.st210{fill:#6ADB9A;}
	.st211{fill:#6D5C4D;}
	.st212{fill:#6EBDF9;}
	.st213{fill:#0031FF;}
	.st214{fill:#0062FF;}
	.st215{fill:#0068FF;}
	.st216{fill:#0086FF;}
	.st217{fill:#009BE8;}
	.st218{fill:#00AAFF;}
	.st219{fill:#D271FF;}
	.st220{fill:#D363A9;}
	.st221{fill:#D3964C;}
	.st222{fill:#D3DFE2;}
	.st223{fill:#D3E0E2;}
	.st224{fill:#D3EFF4;}
	.st225{fill:#063B66;}
	.st226{fill:#D60909;}
	.st227{fill:#D61D1D;}
	.st228{fill:#D7F0FF;}
	.st229{fill:#09B285;}
	.st230{fill:#D8D593;}
	.st231{fill:#D8E2EA;}
	.st232{fill:#D8E5EA;}
	.st233{fill:#3E5054;}
	.st234{fill:#D988FF;}
	.st235{fill:#D9E7E8;}
	.st236{fill:#702252;}
	.st237{fill:#70D3E0;}
	.st238{fill:#A02FF2;}
	.st239{fill:#A2F255;}
	.st240{fill:#A35616;}
	.st241{fill:#A3CCCC;}
	.st242{fill:#0A6ADD;}
	.st243{fill:#A5145D;}
	.st244{fill:#A57555;}
	.st245{fill:#77D6FC;}
	.st246{fill:#7815CE;}
	.st247{fill:#A7BBC1;}
	.st248{fill:#DBD279;}
	.st249{fill:#0D5C9E;}
	.st250{fill:#A83C11;}
	.st251{fill:#A8633D;}
	.st252{fill:#A8A3E5;}
	.st253{fill:#DCE6EA;}
	.st254{fill:#DCE7EA;}
	.st255{fill:#A962E8;}
	.st256{fill:#DD2466;}
	.st257{fill:#DDC38A;}
	.st258{fill:#DDD2B1;}
	.st259{fill:#DFE7E8;}
	.st260{fill:#42B1E8;}
	.st261{fill:#436377;}
	.st262{fill:#43B530;}
]]>
</style>
<g>
	<g>
		<g>
			<polygon class="st16" points="121.778,37.164 72.16,129.189 22.543,52.857 19.705,34.139 29.507,19.57 50.434,9.504 
				75.334,6.061 97.586,9.504 115.863,20.1 			"/>
		</g>
		<g>
			<polygon class="st232" points="121.778,37.164 72.16,129.189 22.543,52.857 19.705,34.139 29.507,19.57 50.434,9.504 
				75.334,6.061 97.586,9.504 115.863,20.1 			"/>
		</g>
		<g>
			<polygon class="st91" points="121.778,37.164 76.113,103.012 22.543,52.857 19.705,34.139 29.507,19.57 50.434,9.504 
				75.334,6.061 97.586,9.504 115.863,20.1 			"/>
		</g>
		<g>
			<polygon class="st232" points="121.778,37.164 92.29,79.959 22.543,52.857 19.705,34.139 29.507,19.57 50.434,9.504 
				75.334,6.061 97.586,9.504 115.863,20.1 			"/>
		</g>
		<g>
			<path class="st205" d="M72.16,130.689c-0.507,0-0.98-0.256-1.258-0.683L21.285,53.675c-0.116-0.179-0.193-0.381-0.226-0.593
				l-2.838-18.719c-0.124-0.818,0.439-1.583,1.259-1.708c0.814-0.116,1.583,0.439,1.708,1.259l2.789,18.397l48.062,73.94
				l48.418-89.8c0.394-0.729,1.304-1.002,2.032-0.608c0.729,0.394,1.002,1.303,0.608,2.032L73.48,129.901
				c-0.251,0.466-0.729,0.766-1.259,0.787C72.201,130.689,72.181,130.689,72.16,130.689z"/>
		</g>
		<g>
			<g class="st72">
				<g>
					<g>
						<path class="st91" d="M108.661,12.656c-8.525-4.922-20.307-7.979-33.265-7.973c-16.013,0-30.517,3.75-40.971,9.826
							c-10.477,6.088-16.959,14.508-16.907,23.795c0.064,11.504,8.186,21.926,21.232,29.457
							c13.046,7.533,31.063,12.203,50.911,12.197c1.453-0.002,2.635-0.688,2.63-1.529c-0.003-0.422-0.298-0.803-0.774-1.076
							c-0.477-0.275-1.135-0.445-1.861-0.445c-18.417-0.006-35.078-4.32-47.184-11.309c-12.104-6.988-19.617-16.633-19.676-27.295
							c-0.049-8.457,5.835-16.088,15.375-21.631c9.519-5.531,22.672-8.939,37.23-8.939c11.539,0,21.953,2.709,29.536,7.086
							c7.572,4.371,12.258,10.395,12.296,17.066c0.029,5.26-3.623,10.008-9.553,13.453c-5.928,3.445-14.102,5.568-23.17,5.562
							c-7.134,0-13.572-1.678-18.262-4.385c-4.667-2.693-7.528-6.412-7.551-10.518c-0.03-3.219,2.202-6.115,5.824-8.219
							c3.622-2.105,8.624-3.4,14.17-3.4c4.294,0,8.168,0.996,10.995,2.629s4.562,3.873,4.576,6.361
							c0.011,1.904-1.3,3.613-3.462,4.869c-2.151,1.25-5.099,2.016-8.387,2.016c-2.493-0.008-4.721-0.584-6.371-1.523
							c-1.626-0.951-2.64-2.246-2.648-3.684c0.006-1.07,0.728-2.021,1.942-2.729c1.204-0.699,2.855-1.127,4.701-1.133
							c1.453,0,2.623-0.68,2.618-1.521c-0.002-0.422-0.297-0.801-0.773-1.078c-0.478-0.273-1.136-0.443-1.863-0.443
							c-3.297-0.008-6.291,0.77-8.43,2.014c-2.15,1.25-3.482,2.986-3.473,4.891c0.013,2.279,1.635,4.352,4.215,5.842
							c2.58,1.488,6.164,2.422,10.088,2.414c4.741,0,9.029-1.113,12.117-2.908c3.098-1.801,5.007-4.285,4.992-7.033
							c-0.02-3.316-2.361-6.334-6.131-8.51c-3.77-2.178-8.988-3.537-14.725-3.531c-6.988-0.006-13.33,1.639-17.889,4.301
							c-4.57,2.645-7.39,6.322-7.365,10.377c0.026,4.936,3.496,9.43,9.116,12.676c5.632,3.25,13.415,5.277,21.991,5.283
							c10.511,0,20.034-2.467,26.9-6.455c6.865-3.992,11.116-9.516,11.082-15.617C122.47,24.387,117.176,17.574,108.661,12.656"/>
					</g>
				</g>
			</g>
		</g>
		<g>
			<g class="st72">
				<g>
					<g>
						<path class="st205" d="M84.529,55.459c-8.547-0.006-16.623-1.953-22.741-5.484c-6.334-3.658-9.838-8.618-9.866-13.967
							c-0.027-4.49,2.854-8.64,8.114-11.683c4.971-2.903,11.578-4.503,18.603-4.503c0.025,0,0.052,0,0.077,0
							c5.787,0,11.268,1.325,15.435,3.732c4.415,2.548,6.858,6.028,6.881,9.8c0.018,3.217-2.021,6.178-5.738,8.339
							c-3.452,2.007-8.022,3.111-12.871,3.111c-0.018,0-0.035,0-0.053,0c-4.031,0-7.86-0.928-10.784-2.614
							c-3.188-1.841-4.95-4.374-4.966-7.133c-0.012-2.373,1.525-4.631,4.219-6.196c2.459-1.43,5.701-2.217,9.134-2.217
							c0.931-0.012,1.921,0.22,2.658,0.642c0.971,0.564,1.523,1.428,1.528,2.373c0.004,0.828-0.665,1.503-1.493,1.507
							c-0.002,0-0.005,0-0.007,0c-0.743,0-1.361-0.541-1.479-1.252c-0.014-0.009-0.029-0.019-0.049-0.029
							c-0.268-0.154-0.695-0.254-1.153-0.24c-2.874,0-5.651,0.659-7.631,1.811c-1.739,1.011-2.733,2.318-2.727,3.586
							c0.009,1.625,1.272,3.284,3.465,4.551c2.439,1.407,5.823,2.213,9.29,2.213c0.016,0,0.03,0,0.045,0
							c4.33,0,8.365-0.961,11.366-2.705c2.749-1.599,4.257-3.633,4.246-5.729c-0.016-2.661-1.927-5.225-5.381-7.219
							c-3.718-2.147-8.667-3.33-13.938-3.33c-0.024,0-0.05,0-0.072,0c-6.504,0-12.573,1.454-17.097,4.096
							c-4.293,2.484-6.643,5.705-6.622,9.073c0.022,4.239,2.994,8.282,8.366,11.386c5.67,3.271,13.214,5.076,21.242,5.082
							c9.919,0,19.205-2.221,26.146-6.252c6.694-3.894,10.365-8.976,10.335-14.312c-0.037-6.711-4.69-13.082-13.101-17.94
							c-0.718-0.414-0.963-1.332-0.549-2.049c0.414-0.719,1.332-0.964,2.049-0.549c9.372,5.413,14.557,12.7,14.601,20.521
							c0.036,6.456-4.164,12.466-11.828,16.923C104.791,53.095,94.971,55.459,84.529,55.459z"/>
					</g>
					<g>
						<path class="st52" d="M58.699,36"/>
					</g>
					<g>
						<path class="st52" d="M84.512,50.902"/>
					</g>
					<g>
						<path class="st52" d="M89.656,76.908"/>
					</g>
					<g>
						<path class="st205" d="M89.626,81.459c-19.447,0-37.777-4.402-51.625-12.398c-14.11-8.145-21.917-19.064-21.982-30.747
							c-0.053-9.54,6.217-18.454,17.653-25.101C44.8,6.745,59.617,3.184,75.396,3.184c0.013,0,0.025,0,0.038,0
							c12.781,0,24.846,2.902,33.977,8.174c0.718,0.414,0.963,1.331,0.549,2.049c-0.414,0.719-1.332,0.964-2.049,0.549
							c-8.682-5.012-20.215-7.771-32.477-7.771c-0.013,0-0.024,0-0.037,0c-15.259,0-29.541,3.418-40.218,9.623
							c-10.469,6.083-16.208,14.07-16.161,22.489c0.06,10.573,7.333,20.576,20.482,28.167c13.397,7.736,31.197,11.996,50.123,11.996
							c0.616,0.02,1.016-0.157,1.188-0.27c0.114-0.711,0.729-1.256,1.472-1.26c0.003,0,0.006,0,0.009,0
							c0.824,0,1.495,0.666,1.5,1.491c0.004,0.665-0.274,1.314-0.783,1.827c-0.752,0.757-2.002,1.209-3.345,1.211
							C89.652,81.459,89.638,81.459,89.626,81.459z"/>
					</g>
				</g>
			</g>
		</g>
		<g>
			<g class="st72">
				<g>
					<g>
						<path class="st205" d="M51.421,94.375c-5.521,0-10.743-1.26-14.708-3.549c-4.221-2.436-6.556-5.765-6.576-9.372
							c-0.017-3.024,1.896-5.808,5.386-7.837c0.715-0.415,1.634-0.175,2.051,0.543c0.416,0.716,0.173,1.634-0.543,2.051
							c-2.521,1.466-3.903,3.322-3.894,5.227c0.014,2.497,1.816,4.909,5.076,6.791c3.516,2.029,8.206,3.146,13.208,3.146
							c0.005,0,0.012,0,0.013,0c0.828,0,1.5,0.671,1.5,1.499c0,0.829-0.671,1.501-1.499,1.501
							C51.43,94.375,51.425,94.375,51.421,94.375z"/>
					</g>
				</g>
			</g>
		</g>
		<g>
			<g class="st72">
				<g>
					<g>
						<path class="st205" d="M67.172,120.018c-3.411,0-6.648-0.783-9.116-2.206c-2.725-1.574-4.231-3.754-4.245-6.139
							c-0.012-2.039,1.242-3.895,3.529-5.224c0.716-0.416,1.635-0.173,2.051,0.543c0.416,0.717,0.173,1.635-0.543,2.051
							c-1.3,0.755-2.042,1.707-2.037,2.612c0.007,1.258,1.008,2.554,2.744,3.558c1.989,1.146,4.766,1.805,7.618,1.805
							c0.004,0,0.007,0,0.011,0h0.001c0.828,0,1.499,0.671,1.5,1.499C68.686,119.35,68.032,120.062,67.172,120.018z"/>
					</g>
				</g>
			</g>
		</g>
		<g>
			<g class="st72">
				<g>
					<g>
						<path class="st52" d="M84.064,58.854"/>
					</g>
					<g>
						<path class="st52" d="M65.196,53.043"/>
					</g>
					<g>
						<path class="st52" d="M85.727,64.896"/>
					</g>
				</g>
			</g>
		</g>
		<g>
			<g class="st72">
				<g>
					<g>
						<path class="st205" d="M76.964,103.281c-0.828,0-1.5-0.672-1.5-1.5s0.672-1.5,1.5-1.5c3.847,0,7.434-0.854,10.101-2.402
							c2.413-1.402,3.735-3.176,3.726-4.995c-0.005-0.829,0.663-1.504,1.491-1.509c0.003,0,0.006,0,0.009,0
							c0.824,0,1.495,0.666,1.5,1.491c0.017,2.94-1.837,5.642-5.218,7.606C85.454,102.284,81.332,103.281,76.964,103.281z"/>
					</g>
					<g>
						<path class="st52" d="M76.113,97.482"/>
					</g>
					<g>
						<path class="st52" d="M66.541,94.535"/>
					</g>
					<g>
						<path class="st52" d="M76.957,100.547"/>
					</g>
				</g>
			</g>
		</g>
		<g>
			<circle class="st232" cx="21.489" cy="72.018" r="2.843"/>
		</g>
		<g>
			<circle class="st232" cx="108.446" cy="81.283" r="1.325"/>
		</g>
		<g>
			<circle class="st232" cx="116.791" cy="75.859" r="3.841"/>
		</g>
		<g>
			<circle class="st232" cx="13.236" cy="57.604" r="0.948"/>
		</g>
		<g>
			<circle class="st232" cx="10.566" cy="22.352" r="1.722"/>
		</g>
		<g>
			<circle class="st232" cx="122.354" cy="66.619" r="1.722"/>
		</g>
		<g>
			<circle class="st232" cx="20.022" cy="10.154" r="2.503"/>
		</g>
		<g>
			<path class="st205" d="M92.29,131.816h-29.2c-0.828,0-1.5-0.672-1.5-1.5s0.672-1.5,1.5-1.5h29.2c0.828,0,1.5,0.672,1.5,1.5
				S93.118,131.816,92.29,131.816z"/>
		</g>
		<g>
			<path class="st205" d="M106.33,131.816h-5.484c-0.828,0-1.5-0.672-1.5-1.5s0.672-1.5,1.5-1.5h5.484c0.828,0,1.5,0.672,1.5,1.5
				S107.158,131.816,106.33,131.816z"/>
		</g>
		<g>
			<path class="st205" d="M118.693,131.816h-5.484c-0.828,0-1.5-0.672-1.5-1.5s0.672-1.5,1.5-1.5h5.484c0.828,0,1.5,0.672,1.5,1.5
				S119.521,131.816,118.693,131.816z"/>
		</g>
		<g>
			<g>
				<polygon class="st162" points="103.291,39.904 67.689,39.904 48.071,74.334 64.012,74.334 43.098,116.828 98.06,67.648 
					80.203,67.648 				"/>
			</g>
			<g>
				<polygon class="st169" points="64.012,74.334 75.672,74.334 63.936,98.182 98.06,67.648 91.863,67.648 80.203,67.648 
					103.291,39.904 79.35,39.904 59.732,74.334 				"/>
			</g>
			<g>
				<path class="st205" d="M43.098,118.328c-0.318,0-0.638-0.101-0.906-0.305c-0.572-0.435-0.757-1.213-0.439-1.857l19.85-40.332
					h-13.53c-0.534,0-1.028-0.284-1.297-0.746s-0.271-1.032-0.007-1.496l19.618-34.43c0.268-0.469,0.765-0.758,1.304-0.758h35.602
					c0.582,0,1.111,0.337,1.358,0.863s0.167,1.149-0.205,1.597L83.402,66.148H98.06c0.622,0,1.18,0.384,1.401,0.965
					s0.062,1.238-0.401,1.653l-54.962,49.18C43.814,118.2,43.456,118.328,43.098,118.328z M50.652,72.834h13.359
					c0.519,0,1,0.268,1.273,0.707c0.273,0.44,0.301,0.99,0.072,1.455l-17.502,35.562l46.278-41.41H80.203
					c-0.582,0-1.111-0.337-1.358-0.863s-0.167-1.149,0.205-1.597l21.042-25.284h-31.53L50.652,72.834z"/>
			</g>
		</g>
	</g>
	<g>
		<g>
			<path class="st233" d="M116.443,130.316l9.712-36l-17.56,10.42l-0.001,0.002c0.018,2.514-1.253,4.971-3.566,6.344
				s-5.079,1.309-7.276,0.09l-9.256,5.492c5.47,5.908,14.519,7.422,21.715,3.152c0.068-0.041,0.133-0.084,0.199-0.125l0.068,0.572
				L116.443,130.316z"/>
		</g>
		<g>
			<g>
				<g>
					<g>
						<g>
							<path class="st30" d="M105.028,111.082c-2.313,1.373-5.079,1.309-7.276,0.09l-7.945,4.715
								c5.371,3.379,12.404,3.713,18.227,0.258s8.9-9.789,8.506-16.121l-7.944,4.715
								C108.612,107.252,107.342,109.709,105.028,111.082z"/>
						</g>
					</g>
					<g>
						<g>
							<path class="st233" d="M94.055,104.943c-0.016-2.514,1.254-4.971,3.566-6.344s5.08-1.309,7.277-0.09l9.256-5.494
								c-5.469-5.906-14.52-7.422-21.715-3.148c-7.197,4.27-10.204,12.938-7.64,20.566L94.055,104.943z"/>
						</g>
						<g>
							<path class="st30" d="M97.621,98.6c2.312-1.373,5.08-1.309,7.277-0.09l7.945-4.717c-5.371-3.381-12.404-3.713-18.227-0.258
								c-5.822,3.457-8.9,9.789-8.508,16.121l7.945-4.713C94.039,102.43,95.309,99.973,97.621,98.6z"/>
						</g>
						<g>
							<path class="st205" d="M84.8,111.934c-0.176,0-0.353-0.031-0.522-0.094c-0.425-0.158-0.755-0.499-0.899-0.929
								c-2.828-8.412,0.661-17.805,8.296-22.334c2.921-1.734,6.255-2.651,9.643-2.651c5.286,0,10.366,2.213,13.938,6.07
								c0.308,0.333,0.449,0.786,0.384,1.235c-0.065,0.448-0.329,0.843-0.719,1.074l-9.256,5.494
								c-0.458,0.271-1.027,0.28-1.493,0.021c-1.776-0.985-4.04-0.97-5.784,0.068c-1.76,1.045-2.845,2.978-2.832,5.044
								c0.003,0.533-0.276,1.028-0.734,1.3l-9.255,5.49C85.331,111.862,85.065,111.934,84.8,111.934z M101.316,88.926
								c-2.849,0-5.653,0.771-8.111,2.231c-5.881,3.488-8.84,10.406-7.476,16.98l6.864-4.072c0.265-2.786,1.844-5.32,4.262-6.756
								c2.389-1.419,5.426-1.599,7.974-0.503l6.864-4.075C108.824,90.295,105.135,88.926,101.316,88.926z"/>
						</g>
					</g>
				</g>
			</g>
			<g>
				<g>
					<g>
						<path class="st52" d="M95.084,108.543"/>
					</g>
					<g>
						<path class="st52" d="M90.459,111.289"/>
					</g>
				</g>
			</g>
		</g>
		<g>
			<path class="st205" d="M116.443,131.816c-0.524,0-1.018-0.275-1.29-0.734l-5.496-9.263c-2.59,1.271-5.437,1.937-8.321,1.937
				c-5.287,0-10.368-2.214-13.94-6.073c-0.308-0.332-0.449-0.786-0.384-1.234s0.329-0.843,0.719-1.074l9.256-5.492
				c0.459-0.271,1.026-0.28,1.493-0.021c1.775,0.985,4.037,0.969,5.783-0.068c1.762-1.045,2.847-2.978,2.832-5.043
				c-0.002-0.236,0.053-0.47,0.158-0.682c0.129-0.257,0.33-0.475,0.577-0.621l17.56-10.42c0.526-0.312,1.188-0.274,1.673,0.096
				c0.486,0.369,0.7,0.996,0.541,1.585l-9.712,36c-0.157,0.582-0.647,1.014-1.245,1.096
				C116.578,131.812,116.511,131.816,116.443,131.816z M111.931,119.771l3.99,6.726l7.824-29.006l-13.688,8.124
				c-0.263,2.786-1.843,5.321-4.263,6.758c-2.391,1.419-5.427,1.599-7.973,0.503l-6.864,4.073c2.87,2.438,6.56,3.808,10.379,3.808
				c2.848,0,5.651-0.771,8.109-2.229c0.006-0.004,0.17-0.107,0.177-0.111c0.435-0.269,0.979-0.297,1.439-0.075
				c0.461,0.223,0.777,0.665,0.838,1.174L111.931,119.771z"/>
		</g>
	</g>
	<g>
		<g>
			<g>
				<g>
					<path class="st261" d="M43.48,33.314c-0.246-1.393-0.383-2.82-0.383-4.281c0-13.447,10.902-24.35,24.35-24.35
						c9.697,0,18.068,5.67,21.984,13.875c0.392-0.029,0.785-0.047,1.184-0.047c8.527,0,15.494,6.668,15.975,15.078
						c4.227,1.541,7.25,5.584,7.25,10.346c0,6.088-4.936,11.021-11.024,11.021H46.412c-6.09,0-11.025-4.934-11.025-11.021
						C35.387,38.861,38.817,34.602,43.48,33.314z"/>
				</g>
				<g>
					<path class="st207" d="M67.447,9.197c9.697,0,18.068,5.67,21.984,13.877c0.392-0.031,0.785-0.051,1.184-0.051
						c8.527,0,15.494,6.67,15.975,15.076c3.544,1.295,6.232,4.348,7.012,8.107c-1.048,4.998-5.478,8.75-10.786,8.75H46.412
						c-5.309,0-9.739-3.752-10.787-8.748c0.839-4.053,3.9-7.289,7.855-8.379c-0.246-1.395-0.383-2.82-0.383-4.285
						c0-0.035,0.002-0.072,0.002-0.109c0.129-0.037,0.252-0.084,0.381-0.121c-0.117-0.67-0.209-1.352-0.274-2.039
						C44.354,18.895,54.766,9.197,67.447,9.197z"/>
				</g>
				<g>
					<g>
						<path class="st261" d="M73.629,46.139c1.117-0.324,2.146-0.846,3.055-1.523l9.375,10.34h0.076L73.629,46.139z"/>
					</g>
					<g>
						<path class="st261" d="M68.577,24.992c-7.676,0-13.995,5.783-14.851,13.229c-0.066-0.643-0.102-1.295-0.102-1.955
							c0-8.256,6.693-14.949,14.952-14.949c6.604,0,11.96,5.354,11.96,11.959c0,0.602-0.062,1.188-0.167,1.756
							C79.449,29.34,74.527,24.992,68.577,24.992z"/>
					</g>
				</g>
				<g>
					<path class="st205" d="M102.815,56.457H46.412c-6.906,0-12.525-5.617-12.525-12.521c0-5.159,3.197-9.771,7.922-11.641
						c-0.141-1.097-0.211-2.188-0.211-3.262c0-14.254,11.596-25.85,25.85-25.85c9.571,0,18.446,5.396,22.888,13.831
						c0.093-0.002,0.187-0.003,0.28-0.003c8.948,0,16.41,6.752,17.392,15.539c4.424,2.018,7.333,6.477,7.333,11.385
						C115.34,50.84,109.722,56.457,102.815,56.457z M67.447,6.184c-12.6,0-22.85,10.25-22.85,22.85c0,1.316,0.121,2.669,0.36,4.021
						c0.134,0.762-0.333,1.501-1.078,1.707c-4.117,1.136-6.993,4.909-6.993,9.175c0,5.25,4.273,9.521,9.525,9.521h56.403
						c5.252,0,9.524-4.271,9.524-9.521c0-3.979-2.518-7.57-6.264-8.937c-0.562-0.205-0.95-0.726-0.984-1.323
						c-0.438-7.662-6.796-13.664-14.477-13.664c-0.36,0-0.717,0.017-1.071,0.043c-0.629,0.046-1.199-0.291-1.466-0.85
						C84.303,11.295,76.205,6.184,67.447,6.184z"/>
				</g>
				<g>
					<path class="st205" d="M102.815,56.457H46.412c-6.906,0-12.525-5.617-12.525-12.521c0-6.907,5.619-12.527,12.525-12.527
						c0.828,0,1.5,0.672,1.5,1.5s-0.672,1.5-1.5,1.5c-5.252,0-9.525,4.274-9.525,9.527c0,5.25,4.273,9.521,9.525,9.521h56.403
						c5.252,0,9.524-4.271,9.524-9.521c0-5.253-4.272-9.527-9.524-9.527c-0.828,0-1.5-0.672-1.5-1.5s0.672-1.5,1.5-1.5
						c6.906,0,12.524,5.62,12.524,12.527C115.34,50.84,109.722,56.457,102.815,56.457z"/>
				</g>
				<g>
					<path class="st205" d="M43.277,33.512c-0.746,0-1.394-0.557-1.486-1.316c-0.129-1.039-0.193-2.103-0.193-3.162
						c0-14.254,11.596-25.85,25.85-25.85s25.85,11.596,25.85,25.85c0,0.828-0.672,1.5-1.5,1.5s-1.5-0.672-1.5-1.5
						c0-12.6-10.25-22.85-22.85-22.85s-22.85,10.25-22.85,22.85c0,0.938,0.058,1.878,0.17,2.795
						c0.102,0.822-0.482,1.571-1.305,1.672C43.4,33.508,43.339,33.512,43.277,33.512z"/>
				</g>
			</g>
		</g>
		<g>
			<path class="st205" d="M91.35,56.455H72.314c-11.133,0-20.189-9.057-20.189-20.189c0-9.07,7.381-16.449,16.452-16.449
				c7.422,0,13.46,6.038,13.46,13.459c0,6.104-4.965,11.07-11.068,11.07c-5.048,0-9.155-4.107-9.155-9.156
				c0-0.828,0.672-1.5,1.5-1.5s1.5,0.672,1.5,1.5c0,3.395,2.762,6.156,6.155,6.156c4.449,0,8.068-3.62,8.068-8.07
				c0-5.768-4.692-10.459-10.46-10.459c-7.418,0-13.452,6.033-13.452,13.449c0,9.479,7.711,17.189,17.189,17.189H91.35
				c0.828,0,1.5,0.672,1.5,1.5S92.178,56.455,91.35,56.455z"/>
		</g>
	</g>
</g>
</svg>
