<?xml version="1.0" encoding="utf-8"?>
<!-- Generator: Adobe Illustrator 16.0.0, SVG Export Plug-In . SVG Version: 6.00 Build 0)  -->
<!DOCTYPE svg PUBLIC "-//W3C//DTD SVG 1.1//EN" "http://www.w3.org/Graphics/SVG/1.1/DTD/svg11.dtd">
<svg version="1.1" id="Layer_1" xmlns="http://www.w3.org/2000/svg" xmlns:xlink="http://www.w3.org/1999/xlink" x="0px" y="0px"
	 width="135px" height="135px" viewBox="0 0 135 135" style="enable-background:new 0 0 135 135;" xml:space="preserve">
<style type="text/css">
<![CDATA[
	.st0{fill:#465652;}
	.st1{fill:#AAB9BA;}
	.st2{fill:#47C67B;}
	.st3{fill:#AAC8D1;}
	.st4{fill:none;stroke:#E83834;stroke-width:6;stroke-linecap:round;stroke-linejoin:round;stroke-miterlimit:10;}
	.st5{fill:#7BC67B;}
	.st6{fill:#7BC7FF;}
	.st7{fill:#7C34C1;}
	.st8{fill:#7C8D96;}
	.st9{fill:#AD2707;}
	.st10{fill:#ADB8BC;}
	.st11{fill:#107510;}
	.st12{fill:#7FE5D8;}
	.st13{fill:#AF4AD1;}
	.st14{fill:#E02B7E;}
	.st15{fill:#E04038;}
	.st16{fill:#AFD7DD;}
	.st17{fill:#E0A010;}
	.st18{fill:#E0D5A4;}
	.st19{fill:#12B2B2;}
	.st20{fill:#12D66B;}
	.st21{fill:#E1A9FF;}
	.st22{fill:#1362A8;}
	.st23{fill:#E2378D;}
	.st24{fill:#E29C37;}
	.st25{fill:#E2B90E;}
	.st26{fill:#E2BF91;}
	.st27{fill:#E2CBAA;}
	.st28{fill:#14A594;}
	.st29{fill:#E4E9ED;}
	.st30{fill:#4A5D60;}
	.st31{fill:#E5B076;}
	.st32{fill:#E5B1C4;}
	.st33{fill:#E5E4C3;}
	.st34{fill:#4B6466;}
	.st35{fill:#E6FF2E;}
	.st36{fill:#18AA67;}
	.st37{fill:#E86207;}
	.st38{fill:#E8A113;}
	.st39{fill:#E8B5A6;}
	.st40{fill:#E8E8ED;}
	.st41{fill:#4E5154;}
	.st42{fill:#E9F1F4;}
	.st43{fill:#4F4B48;}
	.st44{fill:#4F74E8;}
	.st45{fill:#808E93;}
	.st46{fill:#80949B;}
	.st47{fill:#80EDAC;}
	.st48{fill:#B122E0;}
	.st49{fill:#B2C4CC;}
	.st50{fill:#83D839;}
	.st51{fill:#B3C6C6;}
	.st52{fill:none;stroke:#33363A;stroke-width:3;stroke-linecap:round;stroke-linejoin:round;stroke-miterlimit:10;}
	.st53{fill:#1A8E1C;}
	.st54{fill:#1A93D6;}
	.st55{fill:#B50B0B;}
	.st56{fill:#1AD88F;}
	.st57{fill:#B5DAF4;}
	.st58{fill:#EA7B1F;}
	.st59{fill:#EA81BD;}
	.st60{fill:#87B8D6;}
	.st61{fill:#87C3F4;}
	.st62{fill:#EAC79D;}
	.st63{fill:#EADF11;}
	.st64{fill:#EAE4C5;}
	.st65{fill:#B78094;}
	.st66{fill:#8844D8;}
	.st67{fill:#EBF4F7;}
	.st68{fill:#893015;}
	.st69{fill:#89410B;}
	.st70{fill:#899BA3;}
	.st71{fill:#EDE3B9;}
	.st72{enable-background:new    ;}
	.st73{fill:#50FF9F;}
	.st74{fill:#EEDCF4;}
	.st75{fill:#EFA37D;}
	.st76{fill:#EFA3CC;}
	.st77{fill:#EFC99A;}
	.st78{fill:#54AF79;}
	.st79{fill:#BA503A;}
	.st80{fill:#BA8663;}
	.st81{fill:#8B4FE0;}
	.st82{fill:#58ED9B;}
	.st83{fill:#BC7DFF;}
	.st84{fill:#8D9AA3;}
	.st85{fill:#BCCAD3;}
	.st86{fill:#8DE4FF;}
	.st87{fill:#20B518;}
	.st88{fill:#BF44F2;}
	.st89{fill:#21CEA1;}
	.st90{fill:#BFDAE0;}
	.st91{fill:#F0FBFC;}
	.st92{fill:#F2D9A7;}
	.st93{fill:#F2EAC9;}
	.st94{fill:#24D1AF;}
	.st95{fill:#25931C;}
	.st96{fill:#F4C4B3;}
	.st97{fill:#F4D3A2;}
	.st98{fill:#F4D647;}
	.st99{fill:#F4D7B8;}
	.st100{fill:#F4EC8E;}
	.st101{fill:#5B524D;}
	.st102{fill:#F77819;}
	.st103{fill:#F79AE1;}
	.st104{fill:#5E707A;}
	.st105{fill:#F93585;}
	.st106{fill:#F95D5D;}
	.st107{fill:#F9C19B;}
	.st108{fill:#F9CB58;}
	.st109{fill:#F9D2B2;}
	.st110{fill:#F9F07D;}
	.st111{fill:#F9F1D2;}
	.st112{fill:#F9F4B7;}
	.st113{fill:#F9F9E4;}
	.st114{fill:#5F1DAA;}
	.st115{fill:#5F9AD6;}
	.st116{fill:#C0C0C4;}
	.st117{fill:#91EA57;}
	.st118{fill:#C12727;}
	.st119{fill:#C191A0;}
	.st120{fill:#923BB7;}
	.st121{fill:#93A0A3;}
	.st122{fill:#93F9EA;}
	.st123{fill:#93FF5A;}
	.st124{fill:#C4833D;}
	.st125{fill:#95A2A5;}
	.st126{fill:#965514;}
	.st127{fill:#96562C;}
	.st128{fill:#2AF42F;}
	.st129{fill:#C5D7DD;}
	.st130{fill:#C68510;}
	.st131{fill:#C6A86D;}
	.st132{fill:#C6BB8D;}
	.st133{fill:#2C9DCE;}
	.st134{fill:#FBFCF2;}
	.st135{fill:#FC70B0;}
	.st136{fill:#FCE6C8;}
	.st137{fill:#FCF7E3;}
	.st138{fill:#C90D6B;}
	.st139{fill:#FDFEFF;}
	.st140{fill:#FDFFDC;}
	.st141{fill:#FF1A1A;}
	.st142{fill:#FF5252;}
	.st143{fill:#FF5B00;}
	.st144{fill:#FF6155;}
	.st145{fill:#FF630D;}
	.st146{fill:#FF6666;}
	.st147{fill:#FF7676;}
	.st148{fill:#FF7900;}
	.st149{fill:#FF860D;}
	.st150{fill:#FF8B00;}
	.st151{fill:#FF8F8F;}
	.st152{fill:#FF900B;}
	.st153{fill:#FF908A;}
	.st154{fill:#FF960B;}
	.st155{fill:#FF9C0D;}
	.st156{fill:#FFA9D4;}
	.st157{fill:#FFAA00;}
	.st158{fill:#FFAD40;}
	.st159{fill:#FFAF10;}
	.st160{fill:#FFB000;}
	.st161{fill:#FFBE08;}
	.st162{fill:#FFBF31;}
	.st163{fill:#FFC200;}
	.st164{fill:#FFCAE8;}
	.st165{fill:#FFCCF5;}
	.st166{fill:#FFD00B;}
	.st167{fill:#FFD039;}
	.st168{fill:#FFD400;}
	.st169{fill:#FFD833;}
	.st170{fill:#FFDB80;}
	.st171{fill:#FFDDD2;}
	.st172{fill:#FFE6D4;}
	.st173{fill:#FFE6EB;}
	.st174{fill:#FFE98D;}
	.st175{fill:#FFECD2;}
	.st176{fill:#FFF1D9;}
	.st177{fill:#FFF24D;}
	.st178{fill:#FFF3C2;}
	.st179{fill:#FFF4C7;}
	.st180{fill:#FFF800;}
	.st181{fill:#FFF80D;}
	.st182{fill:#FFF9DE;}
	.st183{fill:#FFFBD7;}
	.st184{fill:#FFFBEB;}
	.st185{fill:#FFFCC0;}
	.st186{fill:#FFFCDC;}
	.st187{fill:#FFFFFA;}
	.st188{fill:#FFFFFF;}
	.st189{fill:#63797F;}
	.st190{fill:#65E529;}
	.st191{fill:#66310E;}
	.st192{fill:#663C17;}
	.st193{fill:#9A5AE5;}
	.st194{fill:#CA30EF;}
	.st195{fill:#6892FC;}
	.st196{fill:#9CFFC4;}
	.st197{fill:#CC4306;}
	.st198{fill:#CC549E;}
	.st199{fill:#9E3256;}
	.st200{fill:#CDFFBB;}
	.st201{fill:#CE86AF;}
	.st202{fill:#CED9DD;}
	
		.st203{fill:none;stroke:#33363A;stroke-width:3;stroke-linecap:round;stroke-linejoin:round;stroke-miterlimit:10;stroke-dasharray:6;}
	.st204{fill:#CFE1E2;}
	.st205{fill:#33363A;}
	.st206{fill:#34C166;}
	.st207{fill:#364B5B;}
	.st208{fill:#3662CE;}
	.st209{fill:#36C6FF;}
	.st210{fill:#6ADB9A;}
	.st211{fill:#6D5C4D;}
	.st212{fill:#6EBDF9;}
	.st213{fill:#0031FF;}
	.st214{fill:#0062FF;}
	.st215{fill:#0068FF;}
	.st216{fill:#0086FF;}
	.st217{fill:#009BE8;}
	.st218{fill:#00AAFF;}
	.st219{fill:#D271FF;}
	.st220{fill:#D363A9;}
	.st221{fill:#D3964C;}
	.st222{fill:#D3DFE2;}
	.st223{fill:#D3E0E2;}
	.st224{fill:#D3EFF4;}
	.st225{fill:#063B66;}
	.st226{fill:#D60909;}
	.st227{fill:#D61D1D;}
	.st228{fill:#D7F0FF;}
	.st229{fill:#09B285;}
	.st230{fill:#D8D593;}
	.st231{fill:#D8E2EA;}
	.st232{fill:#D8E5EA;}
	.st233{fill:#3E5054;}
	.st234{fill:#D988FF;}
	.st235{fill:#D9E7E8;}
	.st236{fill:#702252;}
	.st237{fill:#70D3E0;}
	.st238{fill:#A02FF2;}
	.st239{fill:#A2F255;}
	.st240{fill:#A35616;}
	.st241{fill:#A3CCCC;}
	.st242{fill:#0A6ADD;}
	.st243{fill:#A5145D;}
	.st244{fill:#A57555;}
	.st245{fill:#77D6FC;}
	.st246{fill:#7815CE;}
	.st247{fill:#A7BBC1;}
	.st248{fill:#DBD279;}
	.st249{fill:#0D5C9E;}
	.st250{fill:#A83C11;}
	.st251{fill:#A8633D;}
	.st252{fill:#A8A3E5;}
	.st253{fill:#DCE6EA;}
	.st254{fill:#DCE7EA;}
	.st255{fill:#A962E8;}
	.st256{fill:#DD2466;}
	.st257{fill:#DDC38A;}
	.st258{fill:#DDD2B1;}
	.st259{fill:#DFE7E8;}
	.st260{fill:#42B1E8;}
	.st261{fill:#436377;}
	.st262{fill:#43B530;}
]]>
</style>
<g>
	<g>
		<g>
			<g>
				<path class="st84" d="M80.837,99.392L66.024,94.01l20.191-7.336c0.004-0.147,0.021-0.288,0.021-0.437s-0.018-0.29-0.021-0.436
					l-20.191-7.336l14.812-5.383c-3.398-3.444-8.115-5.582-13.336-5.582c-10.348,0-18.738,8.389-18.738,18.736
					s8.391,18.737,18.738,18.737C72.722,104.975,77.438,102.835,80.837,99.392z"/>
			</g>
			<g>
				<path class="st104" d="M71.116,80.425l0.148-0.055l-5.24-1.904l12.723-4.623c-1.951-1.029-4.166-1.621-6.525-1.621
					c-7.74,0-14.016,6.276-14.016,14.016c0,7.74,6.275,14.016,14.016,14.016c2.359,0,4.574-0.592,6.525-1.622L66.024,94.01
					l5.24-1.906l-0.148-0.054l15.105-5.486c0.006-0.109,0.016-0.217,0.016-0.326c0-0.11-0.01-0.217-0.016-0.326L71.116,80.425z"/>
			</g>
			<g>
				<path class="st205" d="M67.501,106.475c-11.159,0-20.238-9.079-20.238-20.237c0-11.158,9.079-20.236,20.238-20.236
					c5.452,0,10.568,2.141,14.403,6.028c0.359,0.364,0.508,0.885,0.396,1.384c-0.112,0.498-0.471,0.905-0.95,1.08l-10.933,3.973
					l16.312,5.926c0.579,0.21,0.97,0.753,0.986,1.369l0.008,0.127c0.008,0.115,0.015,0.23,0.015,0.349
					c0,0.118-0.007,0.233-0.015,0.348l-0.008,0.128c-0.016,0.616-0.407,1.16-0.986,1.37L70.417,94.01l10.933,3.972
					c0.479,0.174,0.838,0.582,0.95,1.08c0.112,0.499-0.036,1.02-0.396,1.384C78.067,104.333,72.952,106.475,67.501,106.475z
					 M67.501,69.001c-9.505,0-17.238,7.732-17.238,17.236c0,9.505,7.733,17.237,17.238,17.237c3.829,0,7.463-1.241,10.454-3.534
					l-12.443-4.521c-0.593-0.215-0.987-0.779-0.987-1.41s0.395-1.194,0.987-1.41l17.512-6.362l-17.512-6.362
					c-0.593-0.215-0.987-0.779-0.987-1.41s0.395-1.194,0.987-1.41l12.443-4.522C74.966,70.241,71.331,69.001,67.501,69.001z"/>
			</g>
		</g>
		<g>
			<g>
				<g>
					<path class="st84" d="M37.667,61.917l-14.812-5.383l20.191-7.336c0.004-0.146,0.021-0.287,0.021-0.435
						c0-0.148-0.018-0.29-0.021-0.437l-20.191-7.336l14.812-5.383c-3.398-3.443-8.115-5.583-13.336-5.583
						c-10.348,0-18.736,8.39-18.736,18.738c0,10.348,8.389,18.737,18.736,18.737C29.552,67.501,34.269,65.36,37.667,61.917z"/>
				</g>
				<g>
					<path class="st104" d="M27.948,42.95l0.148-0.055l-5.242-1.904l12.723-4.623c-1.949-1.029-4.166-1.62-6.523-1.62
						c-7.742,0-14.018,6.276-14.018,14.016s6.275,14.015,14.018,14.015c2.357,0,4.574-0.591,6.523-1.621l-12.723-4.623l5.242-1.904
						l-0.148-0.054l15.104-5.487c0.008-0.108,0.016-0.217,0.016-0.325c0-0.11-0.008-0.218-0.016-0.326L27.948,42.95z"/>
				</g>
				<g>
					<path class="st205" d="M24.331,69.001c-11.158,0-20.236-9.079-20.236-20.237c0-11.16,9.078-20.238,20.236-20.238
						c5.451,0,10.566,2.141,14.403,6.029c0.359,0.364,0.508,0.885,0.396,1.383c-0.112,0.499-0.471,0.906-0.95,1.08l-10.933,3.973
						l16.312,5.926c0.579,0.21,0.971,0.753,0.986,1.37l0.008,0.128c0.008,0.115,0.015,0.23,0.015,0.349
						c0,0.118-0.007,0.232-0.015,0.347l-0.008,0.127c-0.016,0.616-0.407,1.159-0.986,1.37l-16.312,5.926l10.933,3.973
						c0.479,0.174,0.838,0.582,0.95,1.08c0.112,0.499-0.036,1.02-0.396,1.384C34.896,66.859,29.781,69.001,24.331,69.001z
						 M24.331,31.525c-9.504,0-17.236,7.733-17.236,17.238c0,9.505,7.732,17.237,17.236,17.237c3.828,0,7.463-1.241,10.454-3.535
						l-12.443-4.522c-0.593-0.215-0.987-0.779-0.987-1.41s0.395-1.194,0.987-1.41l17.511-6.362l-17.511-6.362
						c-0.593-0.215-0.987-0.779-0.987-1.41s0.395-1.194,0.987-1.41l12.443-4.522C31.795,32.767,28.16,31.525,24.331,31.525z"/>
				</g>
			</g>
			<g>
				<g>
					<path class="st84" d="M124.005,61.917l-14.812-5.383l20.191-7.336c0.004-0.146,0.023-0.287,0.023-0.435
						c0-0.148-0.02-0.29-0.023-0.437l-20.191-7.336l14.812-5.383c-3.398-3.443-8.115-5.583-13.336-5.583
						c-10.348,0-18.736,8.39-18.736,18.738c0,10.348,8.389,18.737,18.736,18.737C115.89,67.501,120.606,65.36,124.005,61.917z"/>
				</g>
				<g>
					<path class="st104" d="M114.286,42.95l0.148-0.055l-5.242-1.904l12.723-4.623c-1.949-1.029-4.166-1.62-6.523-1.62
						c-7.742,0-14.016,6.276-14.016,14.016s6.273,14.015,14.016,14.015c2.357,0,4.574-0.591,6.523-1.621l-12.723-4.623l5.242-1.904
						l-0.148-0.054l15.104-5.487c0.008-0.108,0.018-0.217,0.018-0.325c0-0.11-0.01-0.218-0.018-0.326L114.286,42.95z"/>
				</g>
				<g>
					<path class="st205" d="M110.669,69.001c-11.158,0-20.236-9.079-20.236-20.237c0-11.16,9.078-20.238,20.236-20.238
						c5.451,0,10.566,2.141,14.403,6.029c0.359,0.364,0.508,0.885,0.396,1.383c-0.112,0.499-0.471,0.906-0.95,1.08l-10.933,3.973
						l16.312,5.926c0.579,0.21,0.971,0.753,0.986,1.37l0.008,0.121c0.009,0.117,0.017,0.235,0.017,0.355
						c0,0.12-0.008,0.237-0.017,0.354l-0.008,0.121c-0.016,0.616-0.407,1.159-0.986,1.37l-16.312,5.926l10.933,3.973
						c0.479,0.174,0.838,0.582,0.95,1.08c0.112,0.499-0.036,1.02-0.396,1.384C121.234,66.859,116.119,69.001,110.669,69.001z
						 M110.669,31.525c-9.504,0-17.236,7.733-17.236,17.238c0,9.505,7.732,17.237,17.236,17.237c3.828,0,7.463-1.241,10.454-3.535
						l-12.443-4.522c-0.593-0.215-0.987-0.779-0.987-1.41s0.395-1.194,0.987-1.41l17.511-6.362l-17.511-6.362
						c-0.593-0.215-0.987-0.779-0.987-1.41s0.395-1.194,0.987-1.41l12.443-4.522C118.133,32.767,114.498,31.525,110.669,31.525z"/>
				</g>
			</g>
		</g>
	</g>
	<g>
		<g>
			<path class="st205" d="M81.933,51.442h-7.777c-0.828,0-1.5-0.671-1.5-1.5s0.672-1.5,1.5-1.5h7.777c0.828,0,1.5,0.671,1.5,1.5
				S82.761,51.442,81.933,51.442z"/>
		</g>
		<g>
			<path class="st205" d="M67.722,51.442h-0.09c-0.828,0-1.5-0.671-1.5-1.5s0.672-1.5,1.5-1.5s1.545,0.671,1.545,1.5
				S68.55,51.442,67.722,51.442z"/>
		</g>
		<g>
			<path class="st205" d="M62.53,51.442h-0.09c-0.828,0-1.5-0.671-1.5-1.5s0.672-1.5,1.5-1.5s1.545,0.671,1.545,1.5
				S63.358,51.442,62.53,51.442z"/>
		</g>
		<g>
			<path class="st205" d="M57.339,51.442h-0.09c-0.828,0-1.5-0.671-1.5-1.5s0.672-1.5,1.5-1.5s1.545,0.671,1.545,1.5
				S58.167,51.442,57.339,51.442z"/>
		</g>
	</g>
	<g>
		<g>
			<path class="st205" d="M37.933,89.265h-7.777c-0.828,0-1.5-0.671-1.5-1.5s0.672-1.5,1.5-1.5h7.777c0.828,0,1.5,0.671,1.5,1.5
				S38.761,89.265,37.933,89.265z"/>
		</g>
		<g>
			<path class="st205" d="M23.722,89.265h-0.09c-0.828,0-1.5-0.671-1.5-1.5s0.672-1.5,1.5-1.5s1.545,0.671,1.545,1.5
				S24.55,89.265,23.722,89.265z"/>
		</g>
		<g>
			<path class="st205" d="M18.53,89.265h-0.09c-0.828,0-1.5-0.671-1.5-1.5s0.672-1.5,1.5-1.5s1.545,0.671,1.545,1.5
				S19.358,89.265,18.53,89.265z"/>
		</g>
		<g>
			<path class="st205" d="M13.339,89.265h-0.09c-0.828,0-1.5-0.671-1.5-1.5s0.672-1.5,1.5-1.5s1.545,0.671,1.545,1.5
				S14.167,89.265,13.339,89.265z"/>
		</g>
	</g>
</g>
</svg>
