<?xml version="1.0" encoding="utf-8"?>
<!-- Generator: Adobe Illustrator 16.0.0, SVG Export Plug-In . SVG Version: 6.00 Build 0)  -->
<!DOCTYPE svg PUBLIC "-//W3C//DTD SVG 1.1//EN" "http://www.w3.org/Graphics/SVG/1.1/DTD/svg11.dtd">
<svg version="1.1" id="Layer_1" xmlns="http://www.w3.org/2000/svg" xmlns:xlink="http://www.w3.org/1999/xlink" x="0px" y="0px"
	 width="135px" height="135px" viewBox="0 0 135 135" style="enable-background:new 0 0 135 135;" xml:space="preserve">
<style type="text/css">
<![CDATA[
	.st0{fill:#465652;}
	.st1{fill:#AAB9BA;}
	.st2{fill:#47C67B;}
	.st3{fill:#AAC8D1;}
	.st4{fill:none;stroke:#E83834;stroke-width:6;stroke-linecap:round;stroke-linejoin:round;stroke-miterlimit:10;}
	.st5{fill:#7BC67B;}
	.st6{fill:#7BC7FF;}
	.st7{fill:#7C34C1;}
	.st8{fill:#7C8D96;}
	.st9{fill:#AD2707;}
	.st10{fill:#ADB8BC;}
	.st11{fill:#107510;}
	.st12{fill:#7FE5D8;}
	.st13{fill:#AF4AD1;}
	.st14{fill:#E02B7E;}
	.st15{fill:#E04038;}
	.st16{fill:#AFD7DD;}
	.st17{fill:#E0A010;}
	.st18{fill:#E0D5A4;}
	.st19{fill:#12B2B2;}
	.st20{fill:#12D66B;}
	.st21{fill:#E1A9FF;}
	.st22{fill:#1362A8;}
	.st23{fill:#E2378D;}
	.st24{fill:#E29C37;}
	.st25{fill:#E2B90E;}
	.st26{fill:#E2BF91;}
	.st27{fill:#E2CBAA;}
	.st28{fill:#14A594;}
	.st29{fill:#E4E9ED;}
	.st30{fill:#4A5D60;}
	.st31{fill:#E5B076;}
	.st32{fill:#E5B1C4;}
	.st33{fill:#E5E4C3;}
	.st34{fill:#4B6466;}
	.st35{fill:#E6FF2E;}
	.st36{fill:#18AA67;}
	.st37{fill:#E86207;}
	.st38{fill:#E8A113;}
	.st39{fill:#E8B5A6;}
	.st40{fill:#E8E8ED;}
	.st41{fill:#4E5154;}
	.st42{fill:#E9F1F4;}
	.st43{fill:#4F4B48;}
	.st44{fill:#4F74E8;}
	.st45{fill:#808E93;}
	.st46{fill:#80949B;}
	.st47{fill:#80EDAC;}
	.st48{fill:#B122E0;}
	.st49{fill:#B2C4CC;}
	.st50{fill:#83D839;}
	.st51{fill:#B3C6C6;}
	.st52{fill:none;stroke:#33363A;stroke-width:3;stroke-linecap:round;stroke-linejoin:round;stroke-miterlimit:10;}
	.st53{fill:#1A8E1C;}
	.st54{fill:#1A93D6;}
	.st55{fill:#B50B0B;}
	.st56{fill:#1AD88F;}
	.st57{fill:#B5DAF4;}
	.st58{fill:#EA7B1F;}
	.st59{fill:#EA81BD;}
	.st60{fill:#87B8D6;}
	.st61{fill:#87C3F4;}
	.st62{fill:#EAC79D;}
	.st63{fill:#EADF11;}
	.st64{fill:#EAE4C5;}
	.st65{fill:#B78094;}
	.st66{fill:#8844D8;}
	.st67{fill:#EBF4F7;}
	.st68{fill:#893015;}
	.st69{fill:#89410B;}
	.st70{fill:#899BA3;}
	.st71{fill:#EDE3B9;}
	.st72{enable-background:new    ;}
	.st73{fill:#50FF9F;}
	.st74{fill:#EEDCF4;}
	.st75{fill:#EFA37D;}
	.st76{fill:#EFA3CC;}
	.st77{fill:#EFC99A;}
	.st78{fill:#54AF79;}
	.st79{fill:#BA503A;}
	.st80{fill:#BA8663;}
	.st81{fill:#8B4FE0;}
	.st82{fill:#58ED9B;}
	.st83{fill:#BC7DFF;}
	.st84{fill:#8D9AA3;}
	.st85{fill:#BCCAD3;}
	.st86{fill:#8DE4FF;}
	.st87{fill:#20B518;}
	.st88{fill:#BF44F2;}
	.st89{fill:#21CEA1;}
	.st90{fill:#BFDAE0;}
	.st91{fill:#F0FBFC;}
	.st92{fill:#F2D9A7;}
	.st93{fill:#F2EAC9;}
	.st94{fill:#24D1AF;}
	.st95{fill:#25931C;}
	.st96{fill:#F4C4B3;}
	.st97{fill:#F4D3A2;}
	.st98{fill:#F4D647;}
	.st99{fill:#F4D7B8;}
	.st100{fill:#F4EC8E;}
	.st101{fill:#5B524D;}
	.st102{fill:#F77819;}
	.st103{fill:#F79AE1;}
	.st104{fill:#5E707A;}
	.st105{fill:#F93585;}
	.st106{fill:#F95D5D;}
	.st107{fill:#F9C19B;}
	.st108{fill:#F9CB58;}
	.st109{fill:#F9D2B2;}
	.st110{fill:#F9F07D;}
	.st111{fill:#F9F1D2;}
	.st112{fill:#F9F4B7;}
	.st113{fill:#F9F9E4;}
	.st114{fill:#5F1DAA;}
	.st115{fill:#5F9AD6;}
	.st116{fill:#C0C0C4;}
	.st117{fill:#91EA57;}
	.st118{fill:#C12727;}
	.st119{fill:#C191A0;}
	.st120{fill:#923BB7;}
	.st121{fill:#93A0A3;}
	.st122{fill:#93F9EA;}
	.st123{fill:#93FF5A;}
	.st124{fill:#C4833D;}
	.st125{fill:#95A2A5;}
	.st126{fill:#965514;}
	.st127{fill:#96562C;}
	.st128{fill:#2AF42F;}
	.st129{fill:#C5D7DD;}
	.st130{fill:#C68510;}
	.st131{fill:#C6A86D;}
	.st132{fill:#C6BB8D;}
	.st133{fill:#2C9DCE;}
	.st134{fill:#FBFCF2;}
	.st135{fill:#FC70B0;}
	.st136{fill:#FCE6C8;}
	.st137{fill:#FCF7E3;}
	.st138{fill:#C90D6B;}
	.st139{fill:#FDFEFF;}
	.st140{fill:#FDFFDC;}
	.st141{fill:#FF1A1A;}
	.st142{fill:#FF5252;}
	.st143{fill:#FF5B00;}
	.st144{fill:#FF6155;}
	.st145{fill:#FF630D;}
	.st146{fill:#FF6666;}
	.st147{fill:#FF7676;}
	.st148{fill:#FF7900;}
	.st149{fill:#FF860D;}
	.st150{fill:#FF8B00;}
	.st151{fill:#FF8F8F;}
	.st152{fill:#FF900B;}
	.st153{fill:#FF908A;}
	.st154{fill:#FF960B;}
	.st155{fill:#FF9C0D;}
	.st156{fill:#FFA9D4;}
	.st157{fill:#FFAA00;}
	.st158{fill:#FFAD40;}
	.st159{fill:#FFAF10;}
	.st160{fill:#FFB000;}
	.st161{fill:#FFBE08;}
	.st162{fill:#FFBF31;}
	.st163{fill:#FFC200;}
	.st164{fill:#FFCAE8;}
	.st165{fill:#FFCCF5;}
	.st166{fill:#FFD00B;}
	.st167{fill:#FFD039;}
	.st168{fill:#FFD400;}
	.st169{fill:#FFD833;}
	.st170{fill:#FFDB80;}
	.st171{fill:#FFDDD2;}
	.st172{fill:#FFE6D4;}
	.st173{fill:#FFE6EB;}
	.st174{fill:#FFE98D;}
	.st175{fill:#FFECD2;}
	.st176{fill:#FFF1D9;}
	.st177{fill:#FFF24D;}
	.st178{fill:#FFF3C2;}
	.st179{fill:#FFF4C7;}
	.st180{fill:#FFF800;}
	.st181{fill:#FFF80D;}
	.st182{fill:#FFF9DE;}
	.st183{fill:#FFFBD7;}
	.st184{fill:#FFFBEB;}
	.st185{fill:#FFFCC0;}
	.st186{fill:#FFFCDC;}
	.st187{fill:#FFFFFA;}
	.st188{fill:#FFFFFF;}
	.st189{fill:#63797F;}
	.st190{fill:#65E529;}
	.st191{fill:#66310E;}
	.st192{fill:#663C17;}
	.st193{fill:#9A5AE5;}
	.st194{fill:#CA30EF;}
	.st195{fill:#6892FC;}
	.st196{fill:#9CFFC4;}
	.st197{fill:#CC4306;}
	.st198{fill:#CC549E;}
	.st199{fill:#9E3256;}
	.st200{fill:#CDFFBB;}
	.st201{fill:#CE86AF;}
	.st202{fill:#CED9DD;}
	
		.st203{fill:none;stroke:#33363A;stroke-width:3;stroke-linecap:round;stroke-linejoin:round;stroke-miterlimit:10;stroke-dasharray:6;}
	.st204{fill:#CFE1E2;}
	.st205{fill:#33363A;}
	.st206{fill:#34C166;}
	.st207{fill:#364B5B;}
	.st208{fill:#3662CE;}
	.st209{fill:#36C6FF;}
	.st210{fill:#6ADB9A;}
	.st211{fill:#6D5C4D;}
	.st212{fill:#6EBDF9;}
	.st213{fill:#0031FF;}
	.st214{fill:#0062FF;}
	.st215{fill:#0068FF;}
	.st216{fill:#0086FF;}
	.st217{fill:#009BE8;}
	.st218{fill:#00AAFF;}
	.st219{fill:#D271FF;}
	.st220{fill:#D363A9;}
	.st221{fill:#D3964C;}
	.st222{fill:#D3DFE2;}
	.st223{fill:#D3E0E2;}
	.st224{fill:#D3EFF4;}
	.st225{fill:#063B66;}
	.st226{fill:#D60909;}
	.st227{fill:#D61D1D;}
	.st228{fill:#D7F0FF;}
	.st229{fill:#09B285;}
	.st230{fill:#D8D593;}
	.st231{fill:#D8E2EA;}
	.st232{fill:#D8E5EA;}
	.st233{fill:#3E5054;}
	.st234{fill:#D988FF;}
	.st235{fill:#D9E7E8;}
	.st236{fill:#702252;}
	.st237{fill:#70D3E0;}
	.st238{fill:#A02FF2;}
	.st239{fill:#A2F255;}
	.st240{fill:#A35616;}
	.st241{fill:#A3CCCC;}
	.st242{fill:#0A6ADD;}
	.st243{fill:#A5145D;}
	.st244{fill:#A57555;}
	.st245{fill:#77D6FC;}
	.st246{fill:#7815CE;}
	.st247{fill:#A7BBC1;}
	.st248{fill:#DBD279;}
	.st249{fill:#0D5C9E;}
	.st250{fill:#A83C11;}
	.st251{fill:#A8633D;}
	.st252{fill:#A8A3E5;}
	.st253{fill:#DCE6EA;}
	.st254{fill:#DCE7EA;}
	.st255{fill:#A962E8;}
	.st256{fill:#DD2466;}
	.st257{fill:#DDC38A;}
	.st258{fill:#DDD2B1;}
	.st259{fill:#DFE7E8;}
	.st260{fill:#42B1E8;}
	.st261{fill:#436377;}
	.st262{fill:#43B530;}
]]>
</style>
<g>
	<g>
		<g>
			<g>
				<g>
					<path class="st8" d="M78.42,103.271L78.42,103.271l-0.33-9.068c-0.029-0.189-0.059-0.381-0.086-0.572l5.664-4.602
						c2.006-1.627,3.17-4.072,3.17-6.658V60.586c0-0.186-0.018-0.369-0.029-0.553v-0.004c-0.01-0.125-0.01-0.254-0.021-0.379
						c0.033-0.422,0.051-9.803,0.051-10.217c0-10.059-9.051-18.242-20.178-18.242s-20.178,8.184-20.178,18.242
						c0,0.414,0.023,9.795,0.053,10.217c-0.012,0.125-0.012,0.254-0.022,0.379v0.004c-0.012,0.184-0.03,0.367-0.03,0.553v21.785
						l-0.002,20.9c-15.742,4.711-39.189,6.811-39.189,17.816v9.096h108.188v-8.768C115.479,112.568,94.963,108.221,78.42,103.271z"
						/>
				</g>
				<g>
					<path class="st70" d="M12.633,118.037h97.502c2.953,0,5.344-0.523,5.344,2.127v10.02H7.291v-7.35
						C7.291,120.184,9.682,118.037,12.633,118.037z"/>
				</g>
				<g>
					<path class="st205" d="M115.479,131.684c-0.829,0-1.5-0.672-1.5-1.5v-8.768c0-6.445-15.234-10.774-28.675-14.594
						c-2.472-0.702-4.934-1.401-7.314-2.113c-0.616-0.185-1.045-0.74-1.069-1.383l-0.327-8.984l-0.075-0.499
						c-0.075-0.521,0.13-1.044,0.539-1.376l5.664-4.602c1.663-1.349,2.616-3.351,2.616-5.494V60.586
						c0-0.104-0.009-0.206-0.016-0.309l-0.028-0.487c-0.008-0.085-0.008-0.172-0.002-0.258c0.027-0.561,0.046-9.327,0.046-10.099
						c0-9.231-8.379-16.742-18.678-16.742s-18.678,7.511-18.678,16.742c0,0.703,0.024,9.57,0.05,10.129
						c0.003,0.069,0.002,0.158-0.004,0.228l-0.007,0.124c-0.004,0.082-0.008,0.163-0.015,0.244l-0.002-0.001l-0.007,0.134
						c-0.007,0.098-0.016,0.196-0.016,0.295l-0.002,42.686c0,0.663-0.435,1.247-1.07,1.438c-3.739,1.118-7.961,2.104-12.044,3.058
						c-12.82,2.993-26.076,6.089-26.076,13.321v9.096c0,0.828-0.671,1.5-1.5,1.5s-1.5-0.672-1.5-1.5v-9.096
						c0-9.613,14.435-12.983,28.394-16.243c3.649-0.852,7.411-1.73,10.796-2.697l0.002-41.562c0-0.173,0.011-0.345,0.024-0.516
						l0.018-0.288c0.003-0.057,0.005-0.113,0.009-0.169c-0.033-1.309-0.051-10.089-0.051-10.18c0-10.886,9.725-19.742,21.678-19.742
						s21.678,8.856,21.678,19.742c0,0.092-0.012,8.823-0.049,10.181c0.004,0.06,0.007,0.12,0.009,0.18l0.006,0.118
						c0.003,0.039,0.004,0.078,0.004,0.117l0.005,0.033c0.013,0.174,0.024,0.348,0.024,0.523v21.785
						c0,3.052-1.358,5.903-3.725,7.823l-5.02,4.078l0.287,7.868c2.044,0.603,4.141,1.198,6.244,1.796
						c15.867,4.51,30.854,8.769,30.854,17.479v8.768C116.979,131.012,116.307,131.684,115.479,131.684z"/>
				</g>
				<g>
					<path class="st52" d="M40.351,130.184"/>
				</g>
				<g>
					<path class="st52" d="M40.351,126.654"/>
				</g>
				<g>
					<path class="st205" d="M75.576,69.621c-0.466,0-0.925-0.216-1.218-0.623c-0.484-0.672-0.333-1.609,0.34-2.094l3.481-2.51
						l-1.917-4.643c-0.316-0.766,0.048-1.643,0.814-1.959c0.764-0.315,1.642,0.048,1.959,0.814l2.369,5.738
						c0.265,0.643,0.054,1.383-0.51,1.789l-4.443,3.203C76.186,69.529,75.879,69.621,75.576,69.621z"/>
				</g>
				<g>
					<path class="st205" d="M71.2,77.835c-3.199,0-5.845-0.58-7.384-1.686c-1.083-0.777-1.432-1.679-1.533-2.298
						c-0.133-0.817,0.421-1.589,1.238-1.723c0.821-0.134,1.589,0.421,1.723,1.238c0.007,0.045,0.084,0.175,0.322,0.346
						c1.359,0.977,5.331,1.539,10.296,0.719c0.818-0.134,1.589,0.419,1.724,1.237c0.135,0.817-0.419,1.589-1.236,1.724
						C74.541,77.689,72.801,77.835,71.2,77.835z"/>
				</g>
			</g>
			<g>
				<g>
					<g>
						<path class="st49" d="M53.301,55.975c0,2.84,2.299,5.139,5.139,5.139h31.359c2.84,0,5.141-2.299,5.141-5.139v-8.396
							c0-2.84-2.301-5.141-5.141-5.141H58.439c-2.84,0-5.139,2.301-5.139,5.141V55.975z"/>
					</g>
					<g>
						<path class="st205" d="M89.799,62.613H58.439c-3.661,0-6.639-2.979-6.639-6.639v-8.396c0-3.662,2.978-6.641,6.639-6.641
							h31.359c3.662,0,6.641,2.979,6.641,6.641v8.396C96.439,59.635,93.46,62.613,89.799,62.613z M58.439,43.938
							c-2.006,0-3.639,1.633-3.639,3.641v8.396c0,2.007,1.632,3.639,3.639,3.639h31.359c2.007,0,3.641-1.632,3.641-3.639v-8.396
							c0-2.008-1.633-3.641-3.641-3.641H58.439z"/>
					</g>
				</g>
				<g>
					<g>
						<path class="st188" d="M63.107,55.975c0,2.84,1.758,5.139,3.928,5.139H91.01c2.172,0,3.93-2.299,3.93-5.139v-8.396
							c0-2.84-1.758-5.141-3.93-5.141H67.035c-2.17,0-3.928,2.301-3.928,5.141V55.975z"/>
					</g>
					<g>
						<path class="st231" d="M67.035,49.248H91.01c2.172,0,3.93,2.301,3.93,5.141v1.586c0,2.84-1.758,5.139-3.93,5.139H67.035
							c-2.17,0-3.928-2.299-3.928-5.139v-1.586C63.107,51.549,64.865,49.248,67.035,49.248z"/>
					</g>
					<g>
						<path class="st205" d="M91.01,62.613H67.035c-2.993,0-5.428-2.979-5.428-6.639v-8.396c0-3.662,2.435-6.641,5.428-6.641H91.01
							c2.994,0,5.43,2.979,5.43,6.641v8.396C96.439,59.635,94.004,62.613,91.01,62.613z M67.035,43.938
							c-1.316,0-2.428,1.667-2.428,3.641v8.396c0,1.973,1.112,3.639,2.428,3.639H91.01c1.317,0,2.43-1.666,2.43-3.639v-8.396
							c0-1.974-1.113-3.641-2.43-3.641H67.035z"/>
					</g>
				</g>
			</g>
			<g>
				<path class="st205" d="M74.425,98.111c-0.437,0-0.869-0.189-1.166-0.555c-0.522-0.644-0.424-1.588,0.219-2.11l5.666-4.6
					c0.643-0.522,1.587-0.424,2.11,0.22c0.522,0.644,0.424,1.588-0.219,2.11l-5.666,4.6C75.091,98.002,74.757,98.111,74.425,98.111z
					"/>
			</g>
			<g>
				<path class="st205" d="M46.483,68.594c-0.437,0-0.869-0.189-1.166-0.555c-0.522-0.643-0.424-1.588,0.219-2.109l8.473-6.881
					c0.644-0.525,1.587-0.425,2.11,0.219c0.522,0.643,0.424,1.588-0.219,2.109l-8.473,6.881
					C47.15,68.484,46.815,68.594,46.483,68.594z"/>
			</g>
		</g>
		<g>
			<g>
				<g>
					<path class="st52" d="M75.824,108.582"/>
				</g>
				<g>
					<path class="st205" d="M81.605,58.199c-0.829,0-1.5-0.672-1.5-1.5c0-29.823-2.649-48.233-4.611-50.42
						c-0.668-0.15-1.168-0.749-1.168-1.463c0-0.828,0.671-1.5,1.5-1.5c1.809,0,3.88,1.277,5.579,16.531
						c1.097,9.849,1.701,22.937,1.701,36.852C83.105,57.527,82.434,58.199,81.605,58.199z"/>
				</g>
				<g>
					<g>
						<path class="st205" d="M71.164,27.652c-0.041,0-0.082-0.002-0.123-0.005c-0.826-0.067-1.441-0.791-1.374-1.617
							c0.084-1.031,0.172-2.036,0.265-3.009c0.078-0.825,0.814-1.436,1.634-1.353c0.825,0.078,1.43,0.81,1.352,1.634
							c-0.09,0.961-0.178,1.952-0.261,2.972C72.593,27.059,71.937,27.652,71.164,27.652z"/>
					</g>
					<g>
						<path class="st205" d="M72.018,19.262c-0.063,0-0.126-0.004-0.19-0.012c-0.822-0.104-1.404-0.854-1.3-1.676
							c0.255-2.021,0.532-3.854,0.823-5.452c0.148-0.815,0.932-1.354,1.744-1.207c0.815,0.148,1.355,0.929,1.207,1.744
							c-0.281,1.544-0.549,3.324-0.797,5.29C73.408,18.708,72.762,19.262,72.018,19.262z"/>
					</g>
					<g>
						<path class="st205" d="M74.123,8.619c-0.168,0-0.34-0.028-0.508-0.089c-0.779-0.28-1.184-1.14-0.904-1.919
							c0.324-0.901,1.185-3.295,3.115-3.295c0.829,0,1.5,0.672,1.5,1.5c0,0.708-0.49,1.301-1.149,1.459
							c-0.111,0.146-0.342,0.517-0.642,1.352C75.314,8.238,74.738,8.619,74.123,8.619z"/>
					</g>
				</g>
				<g>
					<path class="st203" d="M71.162,87.246"/>
				</g>
				<g>
					<path class="st203" d="M75.824,108.582"/>
				</g>
				<g>
					<path class="st205" d="M11.724,58.201c-0.829,0-1.5-0.672-1.5-1.5c0-1.552,0-3.678,22.679-5.584
						c12.647-1.062,28.692-1.697,42.921-1.697c13.915,0,27.002,0.604,36.852,1.7c15.253,1.698,16.532,3.77,16.533,5.578
						c0,0.828-0.671,1.5-1.499,1.501c0,0,0,0-0.001,0c-0.714,0-1.312-0.499-1.463-1.168c-2.184-1.962-20.595-4.611-50.422-4.611
						c-30.356,0-59.42,2.623-62.699,4.816C12.91,57.801,12.363,58.201,11.724,58.201z"/>
				</g>
				<g>
					<g>
						<path class="st205" d="M106.372,62.863c-0.773,0-1.429-0.594-1.494-1.378c-0.067-0.825,0.547-1.55,1.373-1.617
							c1.02-0.083,2.01-0.17,2.971-0.261c0.82-0.081,1.557,0.527,1.635,1.352c0.079,0.824-0.527,1.557-1.352,1.635
							c-0.973,0.093-1.977,0.18-3.009,0.265C106.454,62.861,106.413,62.863,106.372,62.863z"/>
					</g>
					<g>
						<path class="st205" d="M114.762,62.011c-0.745,0-1.391-0.555-1.486-1.312c-0.104-0.822,0.479-1.572,1.301-1.676
							c1.96-0.247,3.74-0.516,5.289-0.798c0.812-0.146,1.597,0.392,1.745,1.206c0.149,0.815-0.392,1.597-1.207,1.745
							c-1.603,0.292-3.437,0.569-5.452,0.823C114.888,62.007,114.825,62.011,114.762,62.011z"/>
					</g>
					<g>
						<path class="st205" d="M125.407,59.903c-0.615,0-1.191-0.381-1.412-0.992c-0.28-0.779,0.125-1.639,0.904-1.919
							c0.834-0.3,1.204-0.53,1.351-0.642c0.157-0.66,0.75-1.15,1.458-1.151c0,0,0.001,0,0.001,0c0.828,0,1.5,0.671,1.5,1.499
							c0.001,1.932-2.393,2.792-3.294,3.116C125.747,59.875,125.576,59.903,125.407,59.903z"/>
					</g>
				</g>
				<g>
					<path class="st205" d="M41.169,62.526c-0.042,0-0.083-0.002-0.125-0.005c-1.932-0.16-3.953-0.332-5.994-0.513
						c-0.825-0.073-1.435-0.802-1.362-1.627c0.073-0.824,0.803-1.436,1.626-1.361c2.035,0.181,4.051,0.351,5.977,0.511
						c0.826,0.068,1.439,0.794,1.371,1.619C42.598,61.934,41.942,62.526,41.169,62.526z M29.204,61.454
						c-0.05,0-0.101-0.002-0.151-0.008c-2.081-0.208-4.107-0.425-6-0.65c-0.822-0.098-1.41-0.845-1.312-1.667
						s0.848-1.412,1.667-1.312c1.875,0.224,3.882,0.438,5.944,0.645c0.824,0.082,1.426,0.817,1.343,1.642
						C30.617,60.877,29.965,61.454,29.204,61.454z M17.28,59.982c-0.082,0-0.164-0.007-0.248-0.021
						c-4.611-0.765-6.806-1.447-6.809-3.259c-0.001-0.828,0.669-1.501,1.498-1.502c0.001,0,0.002,0,0.002,0
						c0.553,0,1.037,0.3,1.297,0.745c0.366,0.17,1.454,0.551,4.503,1.057c0.817,0.136,1.37,0.908,1.234,1.725
						C18.636,59.462,18,59.982,17.28,59.982z"/>
				</g>
			</g>
		</g>
	</g>
	<g>
		<g>
			<circle class="st151" cx="80.018" cy="50.92" r="12.311"/>
		</g>
		<g>
			<path class="st141" d="M92.328,50.92c0,5.209-5.512,9.43-12.311,9.43c-6.797,0-12.311-4.221-12.311-9.43
				c0-5.203,5.514-9.43,12.311-9.43C86.816,41.49,92.328,45.717,92.328,50.92z"/>
		</g>
		<g>
			<path class="st188" d="M67.707,50.92c0,6.799,5.514,12.311,12.311,12.311c6.799,0,12.311-5.512,12.311-12.311H67.707z"/>
		</g>
		<g>
			<path class="st253" d="M80.018,60.35c6.799,0,12.311-4.221,12.311-9.43H67.707C67.707,56.129,73.221,60.35,80.018,60.35z"/>
		</g>
		<g>
			<path class="st205" d="M80.018,64.73c-7.615,0-13.811-6.195-13.811-13.811s6.195-13.811,13.811-13.811
				s13.811,6.195,13.811,13.811S87.633,64.73,80.018,64.73z M80.018,40.109c-5.961,0-10.811,4.85-10.811,10.811
				s4.85,10.811,10.811,10.811s10.811-4.85,10.811-10.811S85.979,40.109,80.018,40.109z"/>
		</g>
		<g>
			<path class="st205" d="M92.328,52.42H67.707c-0.829,0-1.5-0.672-1.5-1.5s0.671-1.5,1.5-1.5h24.621c0.829,0,1.5,0.672,1.5,1.5
				S93.157,52.42,92.328,52.42z"/>
		</g>
		<g>
			<g>
				<path class="st247" d="M86.734,49.453c1.59,1.59,1.59,4.166,0,5.754c-1.59,1.592-4.166,1.592-5.756,0
					c-1.59-1.588-1.59-4.164,0-5.754S85.145,47.863,86.734,49.453z"/>
			</g>
			<g>
				<circle class="st188" cx="83.856" cy="50.946" r="4.07"/>
			</g>
			<g>
				<path class="st232" d="M80.979,53.824c-1.59-1.588-1.59-4.168,0-5.756c1.59-1.59,4.166-1.59,5.756,0"/>
			</g>
			<g>
				<path class="st205" d="M83.856,56.517c-1.488,0-2.886-0.579-3.938-1.632c-1.052-1.051-1.632-2.449-1.632-3.938
					s0.58-2.888,1.632-3.939c1.052-1.052,2.45-1.631,3.938-1.631s2.886,0.579,3.938,1.632c1.052,1.051,1.632,2.449,1.632,3.938
					s-0.58,2.888-1.632,3.939C86.743,55.938,85.344,56.517,83.856,56.517z M83.856,48.376c-0.687,0-1.332,0.268-1.817,0.753
					s-0.753,1.131-0.753,1.817s0.267,1.332,0.752,1.816c0.973,0.973,2.664,0.972,3.635,0.001c0.486-0.485,0.753-1.131,0.753-1.817
					s-0.267-1.332-0.752-1.816C85.188,48.644,84.543,48.376,83.856,48.376z"/>
			</g>
		</g>
	</g>
</g>
</svg>
