<?xml version="1.0" encoding="utf-8"?>
<!-- Generator: Adobe Illustrator 16.0.0, SVG Export Plug-In . SVG Version: 6.00 Build 0)  -->
<!DOCTYPE svg PUBLIC "-//W3C//DTD SVG 1.1//EN" "http://www.w3.org/Graphics/SVG/1.1/DTD/svg11.dtd">
<svg version="1.1" id="Layer_1" xmlns="http://www.w3.org/2000/svg" xmlns:xlink="http://www.w3.org/1999/xlink" x="0px" y="0px"
	 width="135px" height="135px" viewBox="0 0 135 135" style="enable-background:new 0 0 135 135;" xml:space="preserve">
<style type="text/css">
<![CDATA[
	.st0{fill:#465652;}
	.st1{fill:#AAB9BA;}
	.st2{fill:#47C67B;}
	.st3{fill:#AAC8D1;}
	.st4{fill:none;stroke:#E83834;stroke-width:6;stroke-linecap:round;stroke-linejoin:round;stroke-miterlimit:10;}
	.st5{fill:#7BC67B;}
	.st6{fill:#7BC7FF;}
	.st7{fill:#7C34C1;}
	.st8{fill:#7C8D96;}
	.st9{fill:#AD2707;}
	.st10{fill:#ADB8BC;}
	.st11{fill:#107510;}
	.st12{fill:#7FE5D8;}
	.st13{fill:#AF4AD1;}
	.st14{fill:#E02B7E;}
	.st15{fill:#E04038;}
	.st16{fill:#AFD7DD;}
	.st17{fill:#E0A010;}
	.st18{fill:#E0D5A4;}
	.st19{fill:#12B2B2;}
	.st20{fill:#12D66B;}
	.st21{fill:#E1A9FF;}
	.st22{fill:#1362A8;}
	.st23{fill:#E2378D;}
	.st24{fill:#E29C37;}
	.st25{fill:#E2B90E;}
	.st26{fill:#E2BF91;}
	.st27{fill:#E2CBAA;}
	.st28{fill:#14A594;}
	.st29{fill:#E4E9ED;}
	.st30{fill:#4A5D60;}
	.st31{fill:#E5B076;}
	.st32{fill:#E5B1C4;}
	.st33{fill:#E5E4C3;}
	.st34{fill:#4B6466;}
	.st35{fill:#E6FF2E;}
	.st36{fill:#18AA67;}
	.st37{fill:#E86207;}
	.st38{fill:#E8A113;}
	.st39{fill:#E8B5A6;}
	.st40{fill:#E8E8ED;}
	.st41{fill:#4E5154;}
	.st42{fill:#E9F1F4;}
	.st43{fill:#4F4B48;}
	.st44{fill:#4F74E8;}
	.st45{fill:#808E93;}
	.st46{fill:#80949B;}
	.st47{fill:#80EDAC;}
	.st48{fill:#B122E0;}
	.st49{fill:#B2C4CC;}
	.st50{fill:#83D839;}
	.st51{fill:#B3C6C6;}
	.st52{fill:none;stroke:#33363A;stroke-width:3;stroke-linecap:round;stroke-linejoin:round;stroke-miterlimit:10;}
	.st53{fill:#1A8E1C;}
	.st54{fill:#1A93D6;}
	.st55{fill:#B50B0B;}
	.st56{fill:#1AD88F;}
	.st57{fill:#B5DAF4;}
	.st58{fill:#EA7B1F;}
	.st59{fill:#EA81BD;}
	.st60{fill:#87B8D6;}
	.st61{fill:#87C3F4;}
	.st62{fill:#EAC79D;}
	.st63{fill:#EADF11;}
	.st64{fill:#EAE4C5;}
	.st65{fill:#B78094;}
	.st66{fill:#8844D8;}
	.st67{fill:#EBF4F7;}
	.st68{fill:#893015;}
	.st69{fill:#89410B;}
	.st70{fill:#899BA3;}
	.st71{fill:#EDE3B9;}
	.st72{enable-background:new    ;}
	.st73{fill:#50FF9F;}
	.st74{fill:#EEDCF4;}
	.st75{fill:#EFA37D;}
	.st76{fill:#EFA3CC;}
	.st77{fill:#EFC99A;}
	.st78{fill:#54AF79;}
	.st79{fill:#BA503A;}
	.st80{fill:#BA8663;}
	.st81{fill:#8B4FE0;}
	.st82{fill:#58ED9B;}
	.st83{fill:#BC7DFF;}
	.st84{fill:#8D9AA3;}
	.st85{fill:#BCCAD3;}
	.st86{fill:#8DE4FF;}
	.st87{fill:#20B518;}
	.st88{fill:#BF44F2;}
	.st89{fill:#21CEA1;}
	.st90{fill:#BFDAE0;}
	.st91{fill:#F0FBFC;}
	.st92{fill:#F2D9A7;}
	.st93{fill:#F2EAC9;}
	.st94{fill:#24D1AF;}
	.st95{fill:#25931C;}
	.st96{fill:#F4C4B3;}
	.st97{fill:#F4D3A2;}
	.st98{fill:#F4D647;}
	.st99{fill:#F4D7B8;}
	.st100{fill:#F4EC8E;}
	.st101{fill:#5B524D;}
	.st102{fill:#F77819;}
	.st103{fill:#F79AE1;}
	.st104{fill:#5E707A;}
	.st105{fill:#F93585;}
	.st106{fill:#F95D5D;}
	.st107{fill:#F9C19B;}
	.st108{fill:#F9CB58;}
	.st109{fill:#F9D2B2;}
	.st110{fill:#F9F07D;}
	.st111{fill:#F9F1D2;}
	.st112{fill:#F9F4B7;}
	.st113{fill:#F9F9E4;}
	.st114{fill:#5F1DAA;}
	.st115{fill:#5F9AD6;}
	.st116{fill:#C0C0C4;}
	.st117{fill:#91EA57;}
	.st118{fill:#C12727;}
	.st119{fill:#C191A0;}
	.st120{fill:#923BB7;}
	.st121{fill:#93A0A3;}
	.st122{fill:#93F9EA;}
	.st123{fill:#93FF5A;}
	.st124{fill:#C4833D;}
	.st125{fill:#95A2A5;}
	.st126{fill:#965514;}
	.st127{fill:#96562C;}
	.st128{fill:#2AF42F;}
	.st129{fill:#C5D7DD;}
	.st130{fill:#C68510;}
	.st131{fill:#C6A86D;}
	.st132{fill:#C6BB8D;}
	.st133{fill:#2C9DCE;}
	.st134{fill:#FBFCF2;}
	.st135{fill:#FC70B0;}
	.st136{fill:#FCE6C8;}
	.st137{fill:#FCF7E3;}
	.st138{fill:#C90D6B;}
	.st139{fill:#FDFEFF;}
	.st140{fill:#FDFFDC;}
	.st141{fill:#FF1A1A;}
	.st142{fill:#FF5252;}
	.st143{fill:#FF5B00;}
	.st144{fill:#FF6155;}
	.st145{fill:#FF630D;}
	.st146{fill:#FF6666;}
	.st147{fill:#FF7676;}
	.st148{fill:#FF7900;}
	.st149{fill:#FF860D;}
	.st150{fill:#FF8B00;}
	.st151{fill:#FF8F8F;}
	.st152{fill:#FF900B;}
	.st153{fill:#FF908A;}
	.st154{fill:#FF960B;}
	.st155{fill:#FF9C0D;}
	.st156{fill:#FFA9D4;}
	.st157{fill:#FFAA00;}
	.st158{fill:#FFAD40;}
	.st159{fill:#FFAF10;}
	.st160{fill:#FFB000;}
	.st161{fill:#FFBE08;}
	.st162{fill:#FFBF31;}
	.st163{fill:#FFC200;}
	.st164{fill:#FFCAE8;}
	.st165{fill:#FFCCF5;}
	.st166{fill:#FFD00B;}
	.st167{fill:#FFD039;}
	.st168{fill:#FFD400;}
	.st169{fill:#FFD833;}
	.st170{fill:#FFDB80;}
	.st171{fill:#FFDDD2;}
	.st172{fill:#FFE6D4;}
	.st173{fill:#FFE6EB;}
	.st174{fill:#FFE98D;}
	.st175{fill:#FFECD2;}
	.st176{fill:#FFF1D9;}
	.st177{fill:#FFF24D;}
	.st178{fill:#FFF3C2;}
	.st179{fill:#FFF4C7;}
	.st180{fill:#FFF800;}
	.st181{fill:#FFF80D;}
	.st182{fill:#FFF9DE;}
	.st183{fill:#FFFBD7;}
	.st184{fill:#FFFBEB;}
	.st185{fill:#FFFCC0;}
	.st186{fill:#FFFCDC;}
	.st187{fill:#FFFFFA;}
	.st188{fill:#FFFFFF;}
	.st189{fill:#63797F;}
	.st190{fill:#65E529;}
	.st191{fill:#66310E;}
	.st192{fill:#663C17;}
	.st193{fill:#9A5AE5;}
	.st194{fill:#CA30EF;}
	.st195{fill:#6892FC;}
	.st196{fill:#9CFFC4;}
	.st197{fill:#CC4306;}
	.st198{fill:#CC549E;}
	.st199{fill:#9E3256;}
	.st200{fill:#CDFFBB;}
	.st201{fill:#CE86AF;}
	.st202{fill:#CED9DD;}
	
		.st203{fill:none;stroke:#33363A;stroke-width:3;stroke-linecap:round;stroke-linejoin:round;stroke-miterlimit:10;stroke-dasharray:6;}
	.st204{fill:#CFE1E2;}
	.st205{fill:#33363A;}
	.st206{fill:#34C166;}
	.st207{fill:#364B5B;}
	.st208{fill:#3662CE;}
	.st209{fill:#36C6FF;}
	.st210{fill:#6ADB9A;}
	.st211{fill:#6D5C4D;}
	.st212{fill:#6EBDF9;}
	.st213{fill:#0031FF;}
	.st214{fill:#0062FF;}
	.st215{fill:#0068FF;}
	.st216{fill:#0086FF;}
	.st217{fill:#009BE8;}
	.st218{fill:#00AAFF;}
	.st219{fill:#D271FF;}
	.st220{fill:#D363A9;}
	.st221{fill:#D3964C;}
	.st222{fill:#D3DFE2;}
	.st223{fill:#D3E0E2;}
	.st224{fill:#D3EFF4;}
	.st225{fill:#063B66;}
	.st226{fill:#D60909;}
	.st227{fill:#D61D1D;}
	.st228{fill:#D7F0FF;}
	.st229{fill:#09B285;}
	.st230{fill:#D8D593;}
	.st231{fill:#D8E2EA;}
	.st232{fill:#D8E5EA;}
	.st233{fill:#3E5054;}
	.st234{fill:#D988FF;}
	.st235{fill:#D9E7E8;}
	.st236{fill:#702252;}
	.st237{fill:#70D3E0;}
	.st238{fill:#A02FF2;}
	.st239{fill:#A2F255;}
	.st240{fill:#A35616;}
	.st241{fill:#A3CCCC;}
	.st242{fill:#0A6ADD;}
	.st243{fill:#A5145D;}
	.st244{fill:#A57555;}
	.st245{fill:#77D6FC;}
	.st246{fill:#7815CE;}
	.st247{fill:#A7BBC1;}
	.st248{fill:#DBD279;}
	.st249{fill:#0D5C9E;}
	.st250{fill:#A83C11;}
	.st251{fill:#A8633D;}
	.st252{fill:#A8A3E5;}
	.st253{fill:#DCE6EA;}
	.st254{fill:#DCE7EA;}
	.st255{fill:#A962E8;}
	.st256{fill:#DD2466;}
	.st257{fill:#DDC38A;}
	.st258{fill:#DDD2B1;}
	.st259{fill:#DFE7E8;}
	.st260{fill:#42B1E8;}
	.st261{fill:#436377;}
	.st262{fill:#43B530;}
]]>
</style>
<g>
	<g>
		<polygon class="st16" points="122.818,37.164 73.201,129.189 23.583,52.857 20.746,34.139 30.547,19.57 51.474,9.504 
			76.375,6.061 98.625,9.504 116.904,20.1 		"/>
	</g>
	<g>
		<polygon class="st232" points="122.818,37.164 73.201,129.189 23.583,52.857 20.746,34.139 30.547,19.57 51.474,9.504 
			76.375,6.061 98.625,9.504 116.904,20.1 		"/>
	</g>
	<g>
		<polygon class="st91" points="122.818,37.164 77.154,103.012 23.583,52.857 20.746,34.139 30.547,19.57 51.474,9.504 
			76.375,6.061 98.625,9.504 116.904,20.1 		"/>
	</g>
	<g>
		<polygon class="st232" points="122.818,37.164 93.33,79.959 23.583,52.857 20.746,34.139 30.547,19.57 51.474,9.504 76.375,6.061 
			98.625,9.504 116.904,20.1 		"/>
	</g>
	<g>
		<path class="st205" d="M73.201,130.689c-0.507,0-0.98-0.256-1.258-0.683L22.325,53.675c-0.116-0.179-0.193-0.381-0.226-0.593
			l-2.837-18.719c-0.124-0.819,0.439-1.584,1.259-1.708c0.815-0.113,1.583,0.438,1.708,1.259l2.788,18.397l48.063,73.94l48.417-89.8
			c0.394-0.729,1.303-1.002,2.032-0.608s1.002,1.303,0.608,2.032l-49.617,92.025c-0.251,0.466-0.729,0.766-1.259,0.787
			C73.242,130.689,73.222,130.689,73.201,130.689z"/>
	</g>
	<g>
		<g class="st72">
			<g>
				<g>
					<path class="st91" d="M109.701,12.656c-8.525-4.922-20.307-7.979-33.266-7.973c-16.012,0-30.516,3.75-40.971,9.826
						c-10.476,6.088-16.959,14.508-16.906,23.795c0.064,11.504,8.186,21.926,21.232,29.457c13.046,7.533,31.064,12.203,50.91,12.197
						c1.455-0.002,2.637-0.688,2.631-1.529c-0.002-0.422-0.297-0.803-0.773-1.076c-0.477-0.275-1.135-0.445-1.861-0.445
						c-18.418-0.006-35.079-4.32-47.184-11.309c-12.105-6.988-19.617-16.633-19.678-27.295c-0.048-8.457,5.836-16.088,15.377-21.631
						c9.518-5.531,22.67-8.939,37.229-8.939c11.541,0,21.955,2.709,29.537,7.086c7.572,4.371,12.258,10.395,12.295,17.066
						c0.031,5.26-3.621,10.008-9.551,13.453s-14.102,5.568-23.17,5.562c-7.135,0-13.572-1.678-18.263-4.385
						c-4.667-2.693-7.528-6.412-7.551-10.518c-0.03-3.219,2.202-6.115,5.823-8.219c3.623-2.105,8.625-3.4,14.172-3.4
						c4.293,0,8.168,0.996,10.994,2.629s4.562,3.873,4.576,6.361c0.012,1.904-1.299,3.613-3.461,4.869
						c-2.152,1.25-5.1,2.016-8.387,2.016c-2.494-0.008-4.723-0.584-6.371-1.523c-1.627-0.951-2.641-2.246-2.648-3.684
						c0.006-1.07,0.727-2.021,1.941-2.729c1.203-0.699,2.855-1.127,4.701-1.133c1.453,0,2.623-0.68,2.619-1.521
						c-0.002-0.422-0.297-0.801-0.773-1.078c-0.479-0.273-1.137-0.443-1.863-0.443c-3.299-0.008-6.291,0.77-8.43,2.014
						c-2.152,1.25-3.484,2.986-3.474,4.891c0.013,2.279,1.636,4.352,4.216,5.842c2.58,1.488,6.164,2.422,10.088,2.414
						c4.74,0,9.029-1.113,12.115-2.908c3.1-1.801,5.008-4.285,4.992-7.033c-0.018-3.316-2.361-6.334-6.131-8.51
						c-3.768-2.178-8.986-3.537-14.723-3.531c-6.988-0.006-13.331,1.639-17.89,4.301c-4.569,2.645-7.39,6.322-7.366,10.377
						c0.027,4.936,3.497,9.43,9.117,12.676c5.633,3.25,13.416,5.277,21.992,5.283c10.51,0,20.033-2.467,26.9-6.455
						c6.863-3.992,11.115-9.516,11.082-15.617C123.51,24.387,118.217,17.574,109.701,12.656"/>
				</g>
			</g>
		</g>
	</g>
	<g>
		<g class="st72">
			<g>
				<g>
					<path class="st205" d="M85.57,55.459c-8.547-0.006-16.623-1.953-22.742-5.484c-6.333-3.658-9.838-8.618-9.867-13.966
						c-0.026-4.491,2.856-8.641,8.115-11.684c4.971-2.903,11.578-4.503,18.604-4.503c0.025,0,0.052,0,0.077,0
						c5.788,0,11.268,1.325,15.434,3.732c4.416,2.55,6.86,6.03,6.88,9.801c0.019,3.216-2.02,6.178-5.738,8.338
						c-3.462,2.013-8.074,3.105-12.922,3.111c-4.031,0-7.86-0.928-10.784-2.614c-3.188-1.842-4.951-4.375-4.967-7.133
						c-0.014-2.373,1.524-4.631,4.221-6.196c2.458-1.43,5.7-2.217,9.133-2.217c0.018,0,0.035,0,0.054,0
						c0.954,0,1.88,0.228,2.604,0.641c0.972,0.565,1.525,1.429,1.529,2.374c0.004,0.828-0.665,1.503-1.493,1.507
						c-0.002,0-0.005,0-0.007,0c-0.743,0-1.361-0.541-1.479-1.252c-0.014-0.009-0.029-0.019-0.049-0.029
						c-0.268-0.154-0.681-0.254-1.153-0.24c-2.874,0-5.651,0.659-7.631,1.811c-1.741,1.011-2.734,2.317-2.728,3.585
						c0.009,1.626,1.272,3.284,3.466,4.552c2.439,1.407,5.823,2.213,9.29,2.213c0.016,0,0.03,0,0.045,0
						c4.33,0,8.365-0.961,11.364-2.705c2.75-1.598,4.258-3.632,4.246-5.728c-0.014-2.661-1.925-5.225-5.381-7.22
						c-3.717-2.147-8.664-3.33-13.936-3.33c-0.023,0-0.049,0-0.072,0c-6.504,0-12.574,1.454-17.098,4.096
						c-4.292,2.484-6.643,5.705-6.623,9.073c0.023,4.239,2.995,8.282,8.367,11.386c5.671,3.271,13.215,5.076,21.243,5.082
						c9.918,0,19.204-2.221,26.146-6.252c6.693-3.894,10.364-8.977,10.335-14.312c-0.038-6.711-4.691-13.082-13.102-17.939
						c-0.718-0.414-0.963-1.332-0.549-2.049c0.414-0.719,1.332-0.964,2.049-0.549c9.371,5.412,14.557,12.699,14.602,20.521
						c0.035,6.456-4.165,12.466-11.828,16.923C105.831,53.095,96.011,55.459,85.57,55.459z"/>
				</g>
				<g>
					<path class="st52" d="M59.739,36"/>
				</g>
				<g>
					<path class="st52" d="M85.553,50.902"/>
				</g>
				<g>
					<path class="st205" d="M90.665,81.459c-19.446,0-37.776-4.402-51.624-12.398c-14.11-8.145-21.917-19.064-21.982-30.747
						c-0.054-9.539,6.215-18.454,17.652-25.101C45.84,6.745,60.657,3.184,76.436,3.184c0.013,0,0.025,0,0.038,0
						c12.781,0,24.847,2.902,33.978,8.174c0.718,0.414,0.963,1.331,0.549,2.049c-0.414,0.719-1.332,0.964-2.049,0.549
						c-8.69-5.017-20.248-7.761-32.515-7.771c-15.258,0-29.54,3.418-40.218,9.623c-10.469,6.084-16.208,14.071-16.16,22.489
						c0.06,10.573,7.333,20.576,20.482,28.167c13.397,7.736,31.197,11.996,50.122,11.996c0.154,0.001,0.298-0.009,0.427-0.025
						c-0.126-0.017-0.259-0.025-0.393-0.025c-0.828,0-1.5-0.672-1.5-1.5s0.672-1.5,1.5-1.5c0.963,0,1.891,0.229,2.612,0.646
						c0.962,0.552,1.518,1.416,1.522,2.368c0.005,0.662-0.273,1.312-0.782,1.824c-0.751,0.757-2.002,1.21-3.347,1.212
						C90.691,81.459,90.677,81.459,90.665,81.459z"/>
				</g>
			</g>
		</g>
	</g>
	<g>
		<g class="st72">
			<g>
				<g>
					<path class="st205" d="M52.461,94.375c-5.521,0-10.743-1.26-14.708-3.549c-4.221-2.436-6.556-5.765-6.576-9.372
						c-0.018-3.024,1.896-5.807,5.386-7.837c0.715-0.415,1.635-0.175,2.051,0.543c0.416,0.716,0.173,1.634-0.543,2.051
						c-2.521,1.467-3.904,3.322-3.894,5.226c0.014,2.498,1.816,4.91,5.076,6.792c3.516,2.029,8.206,3.146,13.208,3.146
						c0.005,0,0.013,0,0.013,0c0.828,0,1.5,0.671,1.5,1.499c0,0.829-0.671,1.501-1.499,1.501
						C52.47,94.375,52.465,94.375,52.461,94.375z"/>
				</g>
			</g>
		</g>
	</g>
	<g>
		<g class="st72">
			<g>
				<g>
					<path class="st205" d="M68.212,120.018c-3.411,0-6.648-0.783-9.116-2.206c-2.725-1.573-4.231-3.754-4.245-6.139
						c-0.012-2.039,1.241-3.895,3.528-5.224c0.716-0.416,1.635-0.173,2.051,0.543s0.173,1.635-0.543,2.051
						c-1.299,0.755-2.041,1.707-2.036,2.612c0.007,1.258,1.008,2.555,2.744,3.558c1.989,1.146,4.766,1.805,7.618,1.805
						c0.004,0,0.007,0,0.011,0h0.001c0.828,0,1.499,0.671,1.5,1.499s-0.671,1.5-1.499,1.501
						C68.221,120.018,68.217,120.018,68.212,120.018z"/>
				</g>
			</g>
		</g>
	</g>
	<g>
		<g class="st72">
			<g>
				<g>
					<path class="st205" d="M86.781,68.828c-0.828,0-1.5-0.672-1.5-1.5s0.672-1.5,1.5-1.5c7.837,0,15.168-1.751,20.641-4.932
						c5.226-3.037,8.092-6.985,8.07-11.117c-0.004-0.828,0.664-1.504,1.492-1.508c0.003,0,0.005,0,0.008,0
						c0.825,0,1.496,0.666,1.5,1.492c0.027,5.252-3.368,10.127-9.562,13.727C103.005,66.933,95.14,68.828,86.781,68.828z"/>
				</g>
				<g>
					<path class="st52" d="M85.105,58.854"/>
				</g>
				<g>
					<path class="st52" d="M66.236,53.043"/>
				</g>
				<g>
					<path class="st52" d="M86.768,64.896"/>
				</g>
			</g>
		</g>
	</g>
	<g>
		<g class="st72">
			<g>
				<g>
					<path class="st205" d="M78.004,103.281c-0.828,0-1.5-0.672-1.5-1.5s0.672-1.5,1.5-1.5c3.847,0,7.435-0.854,10.103-2.402
						c2.411-1.401,3.733-3.176,3.724-4.995c-0.005-0.829,0.663-1.504,1.491-1.509c0.003,0,0.006,0,0.009,0
						c0.824,0,1.495,0.666,1.5,1.491c0.017,2.94-1.837,5.642-5.217,7.606C86.494,102.284,82.371,103.281,78.004,103.281z"/>
				</g>
				<g>
					<path class="st52" d="M77.154,97.482"/>
				</g>
				<g>
					<path class="st52" d="M67.581,94.535"/>
				</g>
				<g>
					<path class="st52" d="M77.996,100.547"/>
				</g>
			</g>
		</g>
	</g>
	<g>
		<circle class="st232" cx="22.529" cy="72.018" r="2.843"/>
	</g>
	<g>
		<circle class="st232" cx="109.486" cy="81.283" r="1.324"/>
	</g>
	<g>
		<circle class="st232" cx="117.831" cy="75.859" r="3.841"/>
	</g>
	<g>
		<circle class="st232" cx="14.275" cy="57.604" r="0.947"/>
	</g>
	<g>
		<circle class="st232" cx="11.606" cy="22.352" r="1.722"/>
	</g>
	<g>
		<circle class="st232" cx="123.394" cy="66.619" r="1.722"/>
	</g>
	<g>
		<circle class="st232" cx="21.062" cy="10.154" r="2.504"/>
	</g>
	<g>
		<g>
			<path class="st117" d="M22.508,45.887c6.179,4.293,13.772,4.992,20.332,2.57c-0.016-6.994-3.321-13.867-9.5-18.16
				c-6.177-4.293-13.772-4.994-20.332-2.57C13.024,34.721,16.33,41.594,22.508,45.887z"/>
		</g>
		<g>
			<path class="st206" d="M13.008,27.727c0.017,6.994,3.322,13.867,9.5,18.16c6.179,4.293,13.772,4.992,20.332,2.57"/>
		</g>
		<g>
			<path class="st205" d="M35.107,51.34C35.107,51.34,35.107,51.34,35.107,51.34c-4.828,0-9.481-1.46-13.455-4.222
				c-6.334-4.4-10.126-11.648-10.145-19.388c-0.002-0.63,0.39-1.192,0.98-1.411c2.651-0.979,5.429-1.477,8.253-1.477
				c4.827,0,9.48,1.46,13.455,4.223c6.334,4.401,10.126,11.649,10.144,19.389c0.001,0.629-0.39,1.192-0.98,1.41
				C40.707,50.844,37.931,51.34,35.107,51.34z M14.538,28.789c0.342,6.354,3.588,12.227,8.826,15.866
				c3.469,2.41,7.529,3.685,11.742,3.685c0.001,0,0.001,0,0.001,0c2.111,0,4.193-0.317,6.203-0.945
				c-0.342-6.354-3.589-12.227-8.826-15.866c-3.47-2.411-7.53-3.686-11.743-3.686C18.629,27.843,16.547,28.161,14.538,28.789z"/>
		</g>
		<g>
			<path class="st205" d="M45.005,51.461c-0.296,0-0.594-0.087-0.854-0.269L13.887,30.165c-0.681-0.473-0.849-1.407-0.376-2.087
				c0.472-0.682,1.407-0.85,2.087-0.376l30.264,21.027c0.681,0.473,0.849,1.407,0.376,2.087
				C45.946,51.236,45.479,51.461,45.005,51.461z"/>
		</g>
	</g>
	<g>
		<g>
			<path class="st117" d="M68.901,19.088c-2.675,6.541-1.769,13.645,1.79,19.166c6.41-1.441,12.037-5.873,14.713-12.412
				c2.678-6.541,1.771-13.646-1.787-19.168C77.207,8.115,71.578,12.549,68.901,19.088z"/>
		</g>
		<g>
			<path class="st206" d="M83.617,6.674c-6.41,1.441-12.039,5.875-14.716,12.414c-2.675,6.541-1.769,13.645,1.79,19.166"/>
		</g>
		<g>
			<path class="st205" d="M70.691,39.754c-0.502,0-0.98-0.253-1.261-0.688c-3.953-6.134-4.67-13.814-1.918-20.546
				C70.27,11.787,76.166,6.812,83.288,5.21c0.61-0.137,1.248,0.122,1.59,0.651c3.954,6.136,4.67,13.817,1.914,20.549
				c-2.754,6.731-8.65,11.706-15.771,13.308C70.911,39.742,70.801,39.754,70.691,39.754z M82.91,8.4
				c-5.699,1.615-10.371,5.759-12.62,11.256c-2.248,5.495-1.821,11.724,1.108,16.871c5.698-1.615,10.369-5.758,12.617-11.254
				C86.266,19.778,85.841,13.549,82.91,8.4z"/>
		</g>
		<g>
			<path class="st205" d="M69.753,42.047c-0.188,0-0.381-0.035-0.567-0.111c-0.767-0.314-1.134-1.19-0.82-1.957L81.475,7.941
				c0.314-0.765,1.185-1.136,1.957-0.82c0.767,0.314,1.134,1.19,0.82,1.957L71.143,41.115
				C70.904,41.695,70.345,42.047,69.753,42.047z"/>
		</g>
	</g>
	<g>
		<g>
			<path class="st117" d="M92.291,67.908c-6.598,4.584-14.707,5.332-21.713,2.744c0.018-7.469,3.547-14.809,10.145-19.393
				c6.598-4.586,14.709-5.332,21.715-2.744C102.418,55.984,98.889,63.324,92.291,67.908z"/>
		</g>
		<g>
			<path class="st206" d="M102.438,48.516c-0.02,7.469-3.549,14.809-10.146,19.393s-14.707,5.332-21.713,2.744"/>
		</g>
		<g>
			<path class="st205" d="M78.837,73.63c-3.004,0-5.957-0.528-8.778-1.57c-0.591-0.218-0.982-0.781-0.98-1.411
				c0.02-8.231,4.053-15.94,10.789-20.62c4.226-2.938,9.174-4.491,14.309-4.491c3.005,0,5.959,0.529,8.781,1.571
				c0.591,0.218,0.982,0.782,0.98,1.411c-0.021,8.232-4.056,15.941-10.791,20.62C88.919,72.077,83.971,73.63,78.837,73.63z
				 M72.106,69.591c2.179,0.69,4.438,1.039,6.73,1.039c4.52,0,8.875-1.367,12.599-3.953c5.64-3.919,9.128-10.251,9.474-17.1
				c-2.18-0.69-4.44-1.04-6.733-1.04c-4.52,0-8.876,1.367-12.597,3.954C75.938,56.41,72.45,62.743,72.106,69.591z"/>
		</g>
		<g>
			<path class="st205" d="M68.266,73.76c-0.475,0-0.941-0.225-1.232-0.645c-0.473-0.68-0.305-1.614,0.376-2.087L99.73,48.571
				c0.68-0.473,1.614-0.306,2.087,0.376c0.473,0.68,0.305,1.614-0.376,2.087L69.12,73.491C68.859,73.673,68.562,73.76,68.266,73.76z
				"/>
		</g>
	</g>
	<g>
		<g>
			<path class="st117" d="M78.342,102.824c-2.037,7.771-7.717,13.609-14.724,16.193c-4.839-5.689-6.925-13.562-4.888-21.334
				s7.719-13.609,14.725-16.193C78.295,87.18,80.381,95.053,78.342,102.824z"/>
		</g>
		<g>
			<path class="st206" d="M73.455,81.49c4.84,5.689,6.926,13.562,4.887,21.334c-2.037,7.771-7.717,13.609-14.724,16.193"/>
		</g>
		<g>
			<path class="st205" d="M63.618,120.518c-0.432,0-0.852-0.187-1.143-0.528c-5.333-6.271-7.276-14.752-5.196-22.686
				c2.08-7.935,7.933-14.372,15.656-17.221c0.592-0.217,1.254-0.044,1.662,0.436c5.335,6.271,7.276,14.752,5.195,22.687
				c-2.08,7.935-7.933,14.372-15.656,17.22C63.968,120.487,63.792,120.518,63.618,120.518z M72.983,83.29
				c-6.312,2.678-11.061,8.131-12.802,14.773c-1.742,6.645-0.279,13.725,3.908,19.154c6.312-2.677,11.06-8.13,12.801-14.773
				C78.634,95.8,77.172,88.72,72.983,83.29z"/>
		</g>
		<g>
			<path class="st205" d="M62.904,123.242c-0.126,0-0.254-0.016-0.382-0.049c-0.801-0.21-1.28-1.03-1.07-1.832l9.981-38.07
				c0.21-0.802,1.03-1.277,1.832-1.07c0.801,0.21,1.28,1.03,1.07,1.832l-9.981,38.07C64.178,122.797,63.569,123.242,62.904,123.242z
				"/>
		</g>
	</g>
	<g>
		<path class="st205" d="M93.33,131.816h-29.2c-0.828,0-1.5-0.672-1.5-1.5s0.672-1.5,1.5-1.5h29.2c0.828,0,1.5,0.672,1.5,1.5
			S94.158,131.816,93.33,131.816z"/>
	</g>
	<g>
		<path class="st205" d="M107.369,131.816h-5.482c-0.828,0-1.5-0.672-1.5-1.5s0.672-1.5,1.5-1.5h5.482c0.828,0,1.5,0.672,1.5,1.5
			S108.197,131.816,107.369,131.816z"/>
	</g>
	<g>
		<path class="st205" d="M119.734,131.816h-5.484c-0.828,0-1.5-0.672-1.5-1.5s0.672-1.5,1.5-1.5h5.484c0.828,0,1.5,0.672,1.5,1.5
			S120.562,131.816,119.734,131.816z"/>
	</g>
</g>
</svg>
