<?xml version="1.0" encoding="utf-8"?>
<!-- Generator: Adobe Illustrator 16.0.0, SVG Export Plug-In . SVG Version: 6.00 Build 0)  -->
<!DOCTYPE svg PUBLIC "-//W3C//DTD SVG 1.1//EN" "http://www.w3.org/Graphics/SVG/1.1/DTD/svg11.dtd">
<svg version="1.1" id="Layer_1" xmlns="http://www.w3.org/2000/svg" xmlns:xlink="http://www.w3.org/1999/xlink" x="0px" y="0px"
	 width="135px" height="135px" viewBox="0 0 135 135" style="enable-background:new 0 0 135 135;" xml:space="preserve">
<style type="text/css">
<![CDATA[
	.st0{fill:#465652;}
	.st1{fill:#AAB9BA;}
	.st2{fill:#47C67B;}
	.st3{fill:#AAC8D1;}
	.st4{fill:none;stroke:#E83834;stroke-width:6;stroke-linecap:round;stroke-linejoin:round;stroke-miterlimit:10;}
	.st5{fill:#7BC67B;}
	.st6{fill:#7BC7FF;}
	.st7{fill:#7C34C1;}
	.st8{fill:#7C8D96;}
	.st9{fill:#AD2707;}
	.st10{fill:#ADB8BC;}
	.st11{fill:#107510;}
	.st12{fill:#7FE5D8;}
	.st13{fill:#AF4AD1;}
	.st14{fill:#E02B7E;}
	.st15{fill:#E04038;}
	.st16{fill:#AFD7DD;}
	.st17{fill:#E0A010;}
	.st18{fill:#E0D5A4;}
	.st19{fill:#12B2B2;}
	.st20{fill:#12D66B;}
	.st21{fill:#E1A9FF;}
	.st22{fill:#1362A8;}
	.st23{fill:#E2378D;}
	.st24{fill:#E29C37;}
	.st25{fill:#E2B90E;}
	.st26{fill:#E2BF91;}
	.st27{fill:#E2CBAA;}
	.st28{fill:#14A594;}
	.st29{fill:#E4E9ED;}
	.st30{fill:#4A5D60;}
	.st31{fill:#E5B076;}
	.st32{fill:#E5B1C4;}
	.st33{fill:#E5E4C3;}
	.st34{fill:#4B6466;}
	.st35{fill:#E6FF2E;}
	.st36{fill:#18AA67;}
	.st37{fill:#E86207;}
	.st38{fill:#E8A113;}
	.st39{fill:#E8B5A6;}
	.st40{fill:#E8E8ED;}
	.st41{fill:#4E5154;}
	.st42{fill:#E9F1F4;}
	.st43{fill:#4F4B48;}
	.st44{fill:#4F74E8;}
	.st45{fill:#808E93;}
	.st46{fill:#80949B;}
	.st47{fill:#80EDAC;}
	.st48{fill:#B122E0;}
	.st49{fill:#B2C4CC;}
	.st50{fill:#83D839;}
	.st51{fill:#B3C6C6;}
	.st52{fill:none;stroke:#33363A;stroke-width:3;stroke-linecap:round;stroke-linejoin:round;stroke-miterlimit:10;}
	.st53{fill:#1A8E1C;}
	.st54{fill:#1A93D6;}
	.st55{fill:#B50B0B;}
	.st56{fill:#1AD88F;}
	.st57{fill:#B5DAF4;}
	.st58{fill:#EA7B1F;}
	.st59{fill:#EA81BD;}
	.st60{fill:#87B8D6;}
	.st61{fill:#87C3F4;}
	.st62{fill:#EAC79D;}
	.st63{fill:#EADF11;}
	.st64{fill:#EAE4C5;}
	.st65{fill:#B78094;}
	.st66{fill:#8844D8;}
	.st67{fill:#EBF4F7;}
	.st68{fill:#893015;}
	.st69{fill:#89410B;}
	.st70{fill:#899BA3;}
	.st71{fill:#EDE3B9;}
	.st72{enable-background:new    ;}
	.st73{fill:#50FF9F;}
	.st74{fill:#EEDCF4;}
	.st75{fill:#EFA37D;}
	.st76{fill:#EFA3CC;}
	.st77{fill:#EFC99A;}
	.st78{fill:#54AF79;}
	.st79{fill:#BA503A;}
	.st80{fill:#BA8663;}
	.st81{fill:#8B4FE0;}
	.st82{fill:#58ED9B;}
	.st83{fill:#BC7DFF;}
	.st84{fill:#8D9AA3;}
	.st85{fill:#BCCAD3;}
	.st86{fill:#8DE4FF;}
	.st87{fill:#20B518;}
	.st88{fill:#BF44F2;}
	.st89{fill:#21CEA1;}
	.st90{fill:#BFDAE0;}
	.st91{fill:#F0FBFC;}
	.st92{fill:#F2D9A7;}
	.st93{fill:#F2EAC9;}
	.st94{fill:#24D1AF;}
	.st95{fill:#25931C;}
	.st96{fill:#F4C4B3;}
	.st97{fill:#F4D3A2;}
	.st98{fill:#F4D647;}
	.st99{fill:#F4D7B8;}
	.st100{fill:#F4EC8E;}
	.st101{fill:#5B524D;}
	.st102{fill:#F77819;}
	.st103{fill:#F79AE1;}
	.st104{fill:#5E707A;}
	.st105{fill:#F93585;}
	.st106{fill:#F95D5D;}
	.st107{fill:#F9C19B;}
	.st108{fill:#F9CB58;}
	.st109{fill:#F9D2B2;}
	.st110{fill:#F9F07D;}
	.st111{fill:#F9F1D2;}
	.st112{fill:#F9F4B7;}
	.st113{fill:#F9F9E4;}
	.st114{fill:#5F1DAA;}
	.st115{fill:#5F9AD6;}
	.st116{fill:#C0C0C4;}
	.st117{fill:#91EA57;}
	.st118{fill:#C12727;}
	.st119{fill:#C191A0;}
	.st120{fill:#923BB7;}
	.st121{fill:#93A0A3;}
	.st122{fill:#93F9EA;}
	.st123{fill:#93FF5A;}
	.st124{fill:#C4833D;}
	.st125{fill:#95A2A5;}
	.st126{fill:#965514;}
	.st127{fill:#96562C;}
	.st128{fill:#2AF42F;}
	.st129{fill:#C5D7DD;}
	.st130{fill:#C68510;}
	.st131{fill:#C6A86D;}
	.st132{fill:#C6BB8D;}
	.st133{fill:#2C9DCE;}
	.st134{fill:#FBFCF2;}
	.st135{fill:#FC70B0;}
	.st136{fill:#FCE6C8;}
	.st137{fill:#FCF7E3;}
	.st138{fill:#C90D6B;}
	.st139{fill:#FDFEFF;}
	.st140{fill:#FDFFDC;}
	.st141{fill:#FF1A1A;}
	.st142{fill:#FF5252;}
	.st143{fill:#FF5B00;}
	.st144{fill:#FF6155;}
	.st145{fill:#FF630D;}
	.st146{fill:#FF6666;}
	.st147{fill:#FF7676;}
	.st148{fill:#FF7900;}
	.st149{fill:#FF860D;}
	.st150{fill:#FF8B00;}
	.st151{fill:#FF8F8F;}
	.st152{fill:#FF900B;}
	.st153{fill:#FF908A;}
	.st154{fill:#FF960B;}
	.st155{fill:#FF9C0D;}
	.st156{fill:#FFA9D4;}
	.st157{fill:#FFAA00;}
	.st158{fill:#FFAD40;}
	.st159{fill:#FFAF10;}
	.st160{fill:#FFB000;}
	.st161{fill:#FFBE08;}
	.st162{fill:#FFBF31;}
	.st163{fill:#FFC200;}
	.st164{fill:#FFCAE8;}
	.st165{fill:#FFCCF5;}
	.st166{fill:#FFD00B;}
	.st167{fill:#FFD039;}
	.st168{fill:#FFD400;}
	.st169{fill:#FFD833;}
	.st170{fill:#FFDB80;}
	.st171{fill:#FFDDD2;}
	.st172{fill:#FFE6D4;}
	.st173{fill:#FFE6EB;}
	.st174{fill:#FFE98D;}
	.st175{fill:#FFECD2;}
	.st176{fill:#FFF1D9;}
	.st177{fill:#FFF24D;}
	.st178{fill:#FFF3C2;}
	.st179{fill:#FFF4C7;}
	.st180{fill:#FFF800;}
	.st181{fill:#FFF80D;}
	.st182{fill:#FFF9DE;}
	.st183{fill:#FFFBD7;}
	.st184{fill:#FFFBEB;}
	.st185{fill:#FFFCC0;}
	.st186{fill:#FFFCDC;}
	.st187{fill:#FFFFFA;}
	.st188{fill:#FFFFFF;}
	.st189{fill:#63797F;}
	.st190{fill:#65E529;}
	.st191{fill:#66310E;}
	.st192{fill:#663C17;}
	.st193{fill:#9A5AE5;}
	.st194{fill:#CA30EF;}
	.st195{fill:#6892FC;}
	.st196{fill:#9CFFC4;}
	.st197{fill:#CC4306;}
	.st198{fill:#CC549E;}
	.st199{fill:#9E3256;}
	.st200{fill:#CDFFBB;}
	.st201{fill:#CE86AF;}
	.st202{fill:#CED9DD;}
	
		.st203{fill:none;stroke:#33363A;stroke-width:3;stroke-linecap:round;stroke-linejoin:round;stroke-miterlimit:10;stroke-dasharray:6;}
	.st204{fill:#CFE1E2;}
	.st205{fill:#33363A;}
	.st206{fill:#34C166;}
	.st207{fill:#364B5B;}
	.st208{fill:#3662CE;}
	.st209{fill:#36C6FF;}
	.st210{fill:#6ADB9A;}
	.st211{fill:#6D5C4D;}
	.st212{fill:#6EBDF9;}
	.st213{fill:#0031FF;}
	.st214{fill:#0062FF;}
	.st215{fill:#0068FF;}
	.st216{fill:#0086FF;}
	.st217{fill:#009BE8;}
	.st218{fill:#00AAFF;}
	.st219{fill:#D271FF;}
	.st220{fill:#D363A9;}
	.st221{fill:#D3964C;}
	.st222{fill:#D3DFE2;}
	.st223{fill:#D3E0E2;}
	.st224{fill:#D3EFF4;}
	.st225{fill:#063B66;}
	.st226{fill:#D60909;}
	.st227{fill:#D61D1D;}
	.st228{fill:#D7F0FF;}
	.st229{fill:#09B285;}
	.st230{fill:#D8D593;}
	.st231{fill:#D8E2EA;}
	.st232{fill:#D8E5EA;}
	.st233{fill:#3E5054;}
	.st234{fill:#D988FF;}
	.st235{fill:#D9E7E8;}
	.st236{fill:#702252;}
	.st237{fill:#70D3E0;}
	.st238{fill:#A02FF2;}
	.st239{fill:#A2F255;}
	.st240{fill:#A35616;}
	.st241{fill:#A3CCCC;}
	.st242{fill:#0A6ADD;}
	.st243{fill:#A5145D;}
	.st244{fill:#A57555;}
	.st245{fill:#77D6FC;}
	.st246{fill:#7815CE;}
	.st247{fill:#A7BBC1;}
	.st248{fill:#DBD279;}
	.st249{fill:#0D5C9E;}
	.st250{fill:#A83C11;}
	.st251{fill:#A8633D;}
	.st252{fill:#A8A3E5;}
	.st253{fill:#DCE6EA;}
	.st254{fill:#DCE7EA;}
	.st255{fill:#A962E8;}
	.st256{fill:#DD2466;}
	.st257{fill:#DDC38A;}
	.st258{fill:#DDD2B1;}
	.st259{fill:#DFE7E8;}
	.st260{fill:#42B1E8;}
	.st261{fill:#436377;}
	.st262{fill:#43B530;}
]]>
</style>
<g>
	<g>
		<polygon class="st177" points="99.137,74.161 129.551,54.595 94.693,61.572 103.096,42.597 88.537,53.931 95.354,5.489 
			67.5,54.825 39.648,5.489 46.463,53.931 31.906,42.597 40.307,61.572 5.449,54.595 35.865,74.161 5.449,93.729 42.195,86.376 
			31.906,109.612 58.445,91.192 59.789,92.87 67.5,111.769 67.5,111.67 67.502,111.769 75.213,92.87 76.557,91.192 103.096,109.612 
			92.807,86.376 129.551,93.729 		"/>
	</g>
	<g>
		<polygon class="st166" points="58.445,91.192 59.789,92.87 67.5,111.769 67.5,111.67 67.502,111.769 75.213,92.87 76.557,91.192 
			97.1,105.45 92.807,95.754 97.363,96.667 92.807,86.376 108.395,89.495 99.137,83.541 106.426,78.852 99.137,74.161 
			108.389,68.209 94.693,70.949 99.25,60.659 94.693,61.572 96.76,56.906 88.537,63.31 90.02,52.776 88.537,53.931 93.596,17.981 
			67.5,64.202 41.406,17.981 46.463,53.931 44.982,52.776 46.463,63.31 38.242,56.906 40.307,61.572 35.75,60.659 40.307,70.949 
			26.611,68.209 35.865,74.161 28.576,78.852 35.865,83.541 26.607,89.495 42.195,86.376 37.639,96.667 42.195,95.754 37.9,105.45 
					"/>
	</g>
	<g>
		<path class="st205" d="M67.503,113.269c-0.091,0-0.183-0.008-0.275-0.025c-0.403-0.075-0.744-0.308-0.963-0.627
			c-0.061-0.085-0.112-0.18-0.153-0.281l-7.629-18.697l-0.332-0.414l-25.389,17.621c-0.551,0.382-1.291,0.354-1.811-0.076
			c-0.519-0.428-0.688-1.148-0.416-1.764l9.117-20.59L5.743,95.199c-0.704,0.142-1.414-0.239-1.685-0.908
			c-0.271-0.668-0.027-1.434,0.579-1.824l28.455-18.306L4.638,55.856c-0.606-0.39-0.85-1.156-0.579-1.825
			c0.271-0.668,0.979-1.051,1.685-0.908l32.021,6.41l-7.229-16.33c-0.278-0.629-0.093-1.366,0.449-1.79
			c0.54-0.424,1.301-0.424,1.845-0.001l11.634,9.058L38.163,5.698c-0.101-0.714,0.321-1.398,1.004-1.629
			c0.68-0.233,1.434,0.055,1.788,0.683L67.5,51.774L94.047,4.752c0.355-0.628,1.108-0.917,1.788-0.683
			c0.683,0.231,1.104,0.916,1.004,1.629l-6.3,44.773l11.635-9.059c0.544-0.423,1.304-0.422,1.845,0.001
			c0.542,0.423,0.728,1.161,0.448,1.79l-7.23,16.329l32.021-6.409c0.708-0.143,1.414,0.24,1.685,0.908
			c0.271,0.668,0.027,1.435-0.579,1.825l-28.453,18.305l28.453,18.306c0.606,0.391,0.85,1.156,0.579,1.824
			c-0.271,0.669-0.978,1.049-1.685,0.908L95.35,88.415l9.026,20.383c0.151,0.234,0.239,0.515,0.239,0.814c0,0.828-0.671,1.5-1.5,1.5
			c-0.004,0-0.012,0-0.02,0c-0.299,0-0.598-0.089-0.855-0.268L76.852,93.224l-0.332,0.414l-7.629,18.697
			C68.657,112.907,68.103,113.269,67.503,113.269z M58.444,89.692c0.441,0,0.877,0.194,1.172,0.562l1.344,1.678
			c0.09,0.112,0.163,0.237,0.218,0.371l6.323,15.497l6.323-15.497c0.055-0.134,0.128-0.259,0.218-0.371l1.344-1.678
			c0.492-0.615,1.376-0.745,2.026-0.295l22.148,15.372l-8.125-18.349c-0.228-0.513-0.149-1.108,0.201-1.546
			c0.35-0.437,0.915-0.644,1.464-0.532l28.976,5.798l-23.751-15.28c-0.429-0.276-0.688-0.752-0.688-1.262s0.26-0.985,0.688-1.262
			l23.749-15.278l-27.087,5.422c-0.548,0.108-1.114-0.095-1.464-0.532c-0.351-0.438-0.429-1.034-0.201-1.546l5.985-13.518
			l-9.849,7.667c-0.482,0.375-1.145,0.421-1.673,0.115c-0.529-0.306-0.819-0.902-0.734-1.507l5.712-40.595L68.807,55.562
			c-0.267,0.471-0.766,0.763-1.307,0.763s-1.04-0.292-1.307-0.763L42.237,13.127l5.711,40.595c0.085,0.605-0.205,1.201-0.734,1.507
			c-0.528,0.306-1.19,0.261-1.673-0.115l-9.848-7.667l5.985,13.518c0.227,0.513,0.148,1.108-0.202,1.546
			c-0.35,0.437-0.916,0.641-1.464,0.532l-27.086-5.422l23.75,15.278c0.429,0.276,0.688,0.752,0.688,1.262s-0.26,0.985-0.688,1.262
			l-23.752,15.28l28.977-5.798c0.547-0.111,1.114,0.096,1.464,0.532c0.351,0.438,0.429,1.033,0.201,1.546l-8.125,18.349L57.59,89.96
			C57.85,89.779,58.148,89.692,58.444,89.692z"/>
	</g>
	<g>
		<g>
			<polygon class="st186" points="71.926,85.508 67.5,129.511 63.076,85.508 67.5,79.665 			"/>
		</g>
		<g>
			<polygon class="st112" points="63.715,91.849 67.5,129.511 71.287,91.849 67.5,86.847 			"/>
		</g>
		<g>
			<path class="st205" d="M67.5,131.011L67.5,131.011c-0.771,0-1.415-0.584-1.492-1.35l-4.424-44.003
				c-0.038-0.377,0.067-0.754,0.296-1.056l4.424-5.843c0.568-0.75,1.825-0.75,2.392,0l4.426,5.843
				c0.229,0.302,0.335,0.679,0.297,1.056l-4.426,44.003C68.915,130.428,68.271,131.011,67.5,131.011z M64.628,85.943l2.872,28.575
				l2.874-28.574L67.5,82.149L64.628,85.943z"/>
		</g>
	</g>
	<g>
		<path class="st205" d="M67.5,82.179c-0.828,0-1.5-0.672-1.5-1.5v-8.957c0-0.828,0.672-1.5,1.5-1.5s1.5,0.672,1.5,1.5v8.957
			C69,81.507,68.328,82.179,67.5,82.179z"/>
	</g>
	<g>
		<path class="st205" d="M67.5,68.109c-0.391,0-0.78-0.16-1.061-0.439C66.16,67.39,66,67.01,66,66.61c0-0.39,0.16-0.78,0.439-1.06
			c0.561-0.56,1.561-0.56,2.12,0c0.28,0.28,0.44,0.67,0.44,1.06s-0.16,0.78-0.44,1.06C68.28,67.95,67.899,68.109,67.5,68.109z"/>
	</g>
	<g>
		<path class="st205" d="M67.5,62.58c-0.391,0-0.78-0.16-1.061-0.44C66.16,61.86,66,61.47,66,61.08c0-0.4,0.16-0.79,0.439-1.06
			c0.561-0.56,1.561-0.56,2.12,0c0.28,0.27,0.44,0.66,0.44,1.06c0,0.39-0.16,0.78-0.44,1.06C68.28,62.42,67.899,62.58,67.5,62.58z"
			/>
	</g>
</g>
</svg>
