<?xml version="1.0" encoding="utf-8"?>
<!-- Generator: Adobe Illustrator 16.0.0, SVG Export Plug-In . SVG Version: 6.00 Build 0)  -->
<!DOCTYPE svg PUBLIC "-//W3C//DTD SVG 1.1//EN" "http://www.w3.org/Graphics/SVG/1.1/DTD/svg11.dtd">
<svg version="1.1" id="Layer_1" xmlns="http://www.w3.org/2000/svg" xmlns:xlink="http://www.w3.org/1999/xlink" x="0px" y="0px"
	 width="135px" height="135px" viewBox="0 0 135 135" style="enable-background:new 0 0 135 135;" xml:space="preserve">
<style type="text/css">
<![CDATA[
	.st0{fill:#465652;}
	.st1{fill:#AAB9BA;}
	.st2{fill:#47C67B;}
	.st3{fill:#AAC8D1;}
	.st4{fill:none;stroke:#E83834;stroke-width:6;stroke-linecap:round;stroke-linejoin:round;stroke-miterlimit:10;}
	.st5{fill:#7BC67B;}
	.st6{fill:#7BC7FF;}
	.st7{fill:#7C34C1;}
	.st8{fill:#7C8D96;}
	.st9{fill:#AD2707;}
	.st10{fill:#ADB8BC;}
	.st11{fill:#107510;}
	.st12{fill:#7FE5D8;}
	.st13{fill:#AF4AD1;}
	.st14{fill:#E02B7E;}
	.st15{fill:#E04038;}
	.st16{fill:#AFD7DD;}
	.st17{fill:#E0A010;}
	.st18{fill:#E0D5A4;}
	.st19{fill:#12B2B2;}
	.st20{fill:#12D66B;}
	.st21{fill:#E1A9FF;}
	.st22{fill:#1362A8;}
	.st23{fill:#E2378D;}
	.st24{fill:#E29C37;}
	.st25{fill:#E2B90E;}
	.st26{fill:#E2BF91;}
	.st27{fill:#E2CBAA;}
	.st28{fill:#14A594;}
	.st29{fill:#E4E9ED;}
	.st30{fill:#4A5D60;}
	.st31{fill:#E5B076;}
	.st32{fill:#E5B1C4;}
	.st33{fill:#E5E4C3;}
	.st34{fill:#4B6466;}
	.st35{fill:#E6FF2E;}
	.st36{fill:#18AA67;}
	.st37{fill:#E86207;}
	.st38{fill:#E8A113;}
	.st39{fill:#E8B5A6;}
	.st40{fill:#E8E8ED;}
	.st41{fill:#4E5154;}
	.st42{fill:#E9F1F4;}
	.st43{fill:#4F4B48;}
	.st44{fill:#4F74E8;}
	.st45{fill:#808E93;}
	.st46{fill:#80949B;}
	.st47{fill:#80EDAC;}
	.st48{fill:#B122E0;}
	.st49{fill:#B2C4CC;}
	.st50{fill:#83D839;}
	.st51{fill:#B3C6C6;}
	.st52{fill:none;stroke:#33363A;stroke-width:3;stroke-linecap:round;stroke-linejoin:round;stroke-miterlimit:10;}
	.st53{fill:#1A8E1C;}
	.st54{fill:#1A93D6;}
	.st55{fill:#B50B0B;}
	.st56{fill:#1AD88F;}
	.st57{fill:#B5DAF4;}
	.st58{fill:#EA7B1F;}
	.st59{fill:#EA81BD;}
	.st60{fill:#87B8D6;}
	.st61{fill:#87C3F4;}
	.st62{fill:#EAC79D;}
	.st63{fill:#EADF11;}
	.st64{fill:#EAE4C5;}
	.st65{fill:#B78094;}
	.st66{fill:#8844D8;}
	.st67{fill:#EBF4F7;}
	.st68{fill:#893015;}
	.st69{fill:#89410B;}
	.st70{fill:#899BA3;}
	.st71{fill:#EDE3B9;}
	.st72{enable-background:new    ;}
	.st73{fill:#50FF9F;}
	.st74{fill:#EEDCF4;}
	.st75{fill:#EFA37D;}
	.st76{fill:#EFA3CC;}
	.st77{fill:#EFC99A;}
	.st78{fill:#54AF79;}
	.st79{fill:#BA503A;}
	.st80{fill:#BA8663;}
	.st81{fill:#8B4FE0;}
	.st82{fill:#58ED9B;}
	.st83{fill:#BC7DFF;}
	.st84{fill:#8D9AA3;}
	.st85{fill:#BCCAD3;}
	.st86{fill:#8DE4FF;}
	.st87{fill:#20B518;}
	.st88{fill:#BF44F2;}
	.st89{fill:#21CEA1;}
	.st90{fill:#BFDAE0;}
	.st91{fill:#F0FBFC;}
	.st92{fill:#F2D9A7;}
	.st93{fill:#F2EAC9;}
	.st94{fill:#24D1AF;}
	.st95{fill:#25931C;}
	.st96{fill:#F4C4B3;}
	.st97{fill:#F4D3A2;}
	.st98{fill:#F4D647;}
	.st99{fill:#F4D7B8;}
	.st100{fill:#F4EC8E;}
	.st101{fill:#5B524D;}
	.st102{fill:#F77819;}
	.st103{fill:#F79AE1;}
	.st104{fill:#5E707A;}
	.st105{fill:#F93585;}
	.st106{fill:#F95D5D;}
	.st107{fill:#F9C19B;}
	.st108{fill:#F9CB58;}
	.st109{fill:#F9D2B2;}
	.st110{fill:#F9F07D;}
	.st111{fill:#F9F1D2;}
	.st112{fill:#F9F4B7;}
	.st113{fill:#F9F9E4;}
	.st114{fill:#5F1DAA;}
	.st115{fill:#5F9AD6;}
	.st116{fill:#C0C0C4;}
	.st117{fill:#91EA57;}
	.st118{fill:#C12727;}
	.st119{fill:#C191A0;}
	.st120{fill:#923BB7;}
	.st121{fill:#93A0A3;}
	.st122{fill:#93F9EA;}
	.st123{fill:#93FF5A;}
	.st124{fill:#C4833D;}
	.st125{fill:#95A2A5;}
	.st126{fill:#965514;}
	.st127{fill:#96562C;}
	.st128{fill:#2AF42F;}
	.st129{fill:#C5D7DD;}
	.st130{fill:#C68510;}
	.st131{fill:#C6A86D;}
	.st132{fill:#C6BB8D;}
	.st133{fill:#2C9DCE;}
	.st134{fill:#FBFCF2;}
	.st135{fill:#FC70B0;}
	.st136{fill:#FCE6C8;}
	.st137{fill:#FCF7E3;}
	.st138{fill:#C90D6B;}
	.st139{fill:#FDFEFF;}
	.st140{fill:#FDFFDC;}
	.st141{fill:#FF1A1A;}
	.st142{fill:#FF5252;}
	.st143{fill:#FF5B00;}
	.st144{fill:#FF6155;}
	.st145{fill:#FF630D;}
	.st146{fill:#FF6666;}
	.st147{fill:#FF7676;}
	.st148{fill:#FF7900;}
	.st149{fill:#FF860D;}
	.st150{fill:#FF8B00;}
	.st151{fill:#FF8F8F;}
	.st152{fill:#FF900B;}
	.st153{fill:#FF908A;}
	.st154{fill:#FF960B;}
	.st155{fill:#FF9C0D;}
	.st156{fill:#FFA9D4;}
	.st157{fill:#FFAA00;}
	.st158{fill:#FFAD40;}
	.st159{fill:#FFAF10;}
	.st160{fill:#FFB000;}
	.st161{fill:#FFBE08;}
	.st162{fill:#FFBF31;}
	.st163{fill:#FFC200;}
	.st164{fill:#FFCAE8;}
	.st165{fill:#FFCCF5;}
	.st166{fill:#FFD00B;}
	.st167{fill:#FFD039;}
	.st168{fill:#FFD400;}
	.st169{fill:#FFD833;}
	.st170{fill:#FFDB80;}
	.st171{fill:#FFDDD2;}
	.st172{fill:#FFE6D4;}
	.st173{fill:#FFE6EB;}
	.st174{fill:#FFE98D;}
	.st175{fill:#FFECD2;}
	.st176{fill:#FFF1D9;}
	.st177{fill:#FFF24D;}
	.st178{fill:#FFF3C2;}
	.st179{fill:#FFF4C7;}
	.st180{fill:#FFF800;}
	.st181{fill:#FFF80D;}
	.st182{fill:#FFF9DE;}
	.st183{fill:#FFFBD7;}
	.st184{fill:#FFFBEB;}
	.st185{fill:#FFFCC0;}
	.st186{fill:#FFFCDC;}
	.st187{fill:#FFFFFA;}
	.st188{fill:#FFFFFF;}
	.st189{fill:#63797F;}
	.st190{fill:#65E529;}
	.st191{fill:#66310E;}
	.st192{fill:#663C17;}
	.st193{fill:#9A5AE5;}
	.st194{fill:#CA30EF;}
	.st195{fill:#6892FC;}
	.st196{fill:#9CFFC4;}
	.st197{fill:#CC4306;}
	.st198{fill:#CC549E;}
	.st199{fill:#9E3256;}
	.st200{fill:#CDFFBB;}
	.st201{fill:#CE86AF;}
	.st202{fill:#CED9DD;}
	
		.st203{fill:none;stroke:#33363A;stroke-width:3;stroke-linecap:round;stroke-linejoin:round;stroke-miterlimit:10;stroke-dasharray:6;}
	.st204{fill:#CFE1E2;}
	.st205{fill:#33363A;}
	.st206{fill:#34C166;}
	.st207{fill:#364B5B;}
	.st208{fill:#3662CE;}
	.st209{fill:#36C6FF;}
	.st210{fill:#6ADB9A;}
	.st211{fill:#6D5C4D;}
	.st212{fill:#6EBDF9;}
	.st213{fill:#0031FF;}
	.st214{fill:#0062FF;}
	.st215{fill:#0068FF;}
	.st216{fill:#0086FF;}
	.st217{fill:#009BE8;}
	.st218{fill:#00AAFF;}
	.st219{fill:#D271FF;}
	.st220{fill:#D363A9;}
	.st221{fill:#D3964C;}
	.st222{fill:#D3DFE2;}
	.st223{fill:#D3E0E2;}
	.st224{fill:#D3EFF4;}
	.st225{fill:#063B66;}
	.st226{fill:#D60909;}
	.st227{fill:#D61D1D;}
	.st228{fill:#D7F0FF;}
	.st229{fill:#09B285;}
	.st230{fill:#D8D593;}
	.st231{fill:#D8E2EA;}
	.st232{fill:#D8E5EA;}
	.st233{fill:#3E5054;}
	.st234{fill:#D988FF;}
	.st235{fill:#D9E7E8;}
	.st236{fill:#702252;}
	.st237{fill:#70D3E0;}
	.st238{fill:#A02FF2;}
	.st239{fill:#A2F255;}
	.st240{fill:#A35616;}
	.st241{fill:#A3CCCC;}
	.st242{fill:#0A6ADD;}
	.st243{fill:#A5145D;}
	.st244{fill:#A57555;}
	.st245{fill:#77D6FC;}
	.st246{fill:#7815CE;}
	.st247{fill:#A7BBC1;}
	.st248{fill:#DBD279;}
	.st249{fill:#0D5C9E;}
	.st250{fill:#A83C11;}
	.st251{fill:#A8633D;}
	.st252{fill:#A8A3E5;}
	.st253{fill:#DCE6EA;}
	.st254{fill:#DCE7EA;}
	.st255{fill:#A962E8;}
	.st256{fill:#DD2466;}
	.st257{fill:#DDC38A;}
	.st258{fill:#DDD2B1;}
	.st259{fill:#DFE7E8;}
	.st260{fill:#42B1E8;}
	.st261{fill:#436377;}
	.st262{fill:#43B530;}
]]>
</style>
<g>
	<g>
		<g>
			<g>
				<g>
					<path class="st208" d="M123.506,13.693c7.048,9.68,8.524,22.881,2.655,34.246c-5.867,11.371-17.48,17.811-29.457,17.678
						c-7.047-9.684-8.523-22.881-2.654-34.25C99.917,20,111.529,13.559,123.506,13.693z"/>
				</g>
				<g>
					<path class="st195" d="M96.704,65.617c-7.047-9.684-8.523-22.881-2.654-34.25C99.917,20,111.529,13.559,123.506,13.693"/>
				</g>
				<g>
					<path class="st205" d="M97.067,67.119l-0.38-0.002c-0.474-0.005-0.917-0.234-1.196-0.617
						c-7.674-10.545-8.736-24.271-2.774-35.821c5.886-11.403,17.543-18.487,30.421-18.487l0.385,0.002
						c0.474,0.006,0.917,0.234,1.196,0.617c7.676,10.543,8.739,24.268,2.775,35.817C121.608,60.033,109.95,67.119,97.067,67.119z
						 M122.731,15.194c-11.589,0.146-22.042,6.579-27.349,16.861c-5.323,10.311-4.506,22.525,2.096,32.061
						c11.592-0.148,22.044-6.582,27.35-16.864C130.153,36.94,129.336,24.728,122.731,15.194z"/>
				</g>
			</g>
			<g>
				<g>
					<path class="st76" d="M118.354,25.811c4.336,5.957,5.246,14.082,1.633,21.078c-3.61,6.998-10.758,10.965-18.131,10.881
						c-4.336-5.959-5.246-14.084-1.633-21.08C103.834,29.691,110.981,25.727,118.354,25.811z"/>
				</g>
				<g>
					<path class="st201" d="M101.856,57.77c-4.336-5.959-5.246-14.084-1.633-21.08c3.61-6.998,10.758-10.963,18.131-10.879"/>
				</g>
				<g>
					<path class="st205" d="M102.086,59.271l-0.246-0.001c-0.475-0.006-0.918-0.234-1.196-0.617
						c-4.853-6.669-5.524-15.349-1.753-22.651c3.721-7.212,11.091-11.691,19.234-11.691l0.246,0.001
						c0.475,0.006,0.917,0.234,1.196,0.617c4.853,6.668,5.524,15.346,1.753,22.649C117.599,54.79,110.229,59.271,102.086,59.271z
						 M117.577,27.317c-6.798,0.194-12.9,4.012-16.021,10.06c-3.132,6.063-2.705,13.23,1.077,18.886
						c6.797-0.195,12.899-4.013,16.021-10.062C121.786,40.138,121.359,32.972,117.577,27.317z"/>
				</g>
			</g>
		</g>
		<g>
			<g>
				<g>
					<path class="st208" d="M11.493,13.693c-7.047,9.68-8.523,22.881-2.655,34.246c5.867,11.371,17.48,17.811,29.458,17.678
						c7.047-9.684,8.522-22.881,2.654-34.25C35.082,20,23.471,13.559,11.493,13.693z"/>
				</g>
				<g>
					<path class="st195" d="M38.296,65.617c7.047-9.684,8.522-22.881,2.654-34.25C35.082,20,23.471,13.559,11.493,13.693"/>
				</g>
				<g>
					<path class="st205" d="M37.933,67.119c-12.884,0-24.543-7.086-30.428-18.492C1.542,37.078,2.605,23.354,10.28,12.811
						c0.279-0.383,0.723-0.611,1.196-0.617l0.385-0.002c12.878,0,24.535,7.084,30.422,18.487
						c5.962,11.551,4.898,25.276-2.774,35.821c-0.279,0.383-0.723,0.612-1.196,0.617L37.933,67.119z M12.268,15.194
						c-6.604,9.533-7.421,21.746-2.097,32.057c5.306,10.283,15.759,16.717,27.351,16.865c6.601-9.534,7.418-21.749,2.096-32.061
						C34.31,21.773,23.856,15.341,12.268,15.194z"/>
				</g>
			</g>
			<g>
				<g>
					<path class="st76" d="M16.646,25.811c-4.338,5.957-5.246,14.082-1.633,21.078c3.609,6.998,10.758,10.965,18.129,10.881
						c4.338-5.959,5.246-14.084,1.635-21.08C31.165,29.691,24.018,25.727,16.646,25.811z"/>
				</g>
				<g>
					<path class="st201" d="M33.142,57.77c4.338-5.959,5.246-14.084,1.635-21.08c-3.611-6.998-10.759-10.963-18.131-10.879"/>
				</g>
				<g>
					<path class="st205" d="M32.912,59.271c-8.143,0-15.513-4.481-19.232-11.694c-3.772-7.304-3.101-15.982,1.753-22.648
						c0.279-0.383,0.723-0.611,1.195-0.617l0.247-0.001c8.143,0,15.513,4.479,19.234,11.692c3.771,7.305,3.098,15.983-1.755,22.65
						c-0.279,0.383-0.723,0.611-1.195,0.617L32.912,59.271z M17.423,27.317c-3.783,5.652-4.21,12.818-1.077,18.883
						c3.12,6.05,9.223,9.867,16.019,10.062c3.782-5.653,4.21-12.82,1.079-18.885C30.322,31.329,24.22,27.512,17.423,27.317z"/>
				</g>
			</g>
		</g>
	</g>
	<g>
		<g>
			<g>
				<g>
					<g>
						<g>
							<path class="st195" d="M116.709,83.867c0,20.676-22.032,37.441-49.209,37.441c-27.178,0-49.209-16.766-49.209-37.441
								c0-20.68,22.031-45.459,49.209-45.459C94.677,38.408,116.709,63.188,116.709,83.867z"/>
						</g>
						<g>
							<path class="st44" d="M116.709,83.867c0,20.676-22.032,37.441-49.209,37.441c-27.178,0-49.209-16.766-49.209-37.441
								c0-20.68,22.031-34.928,49.209-34.928C94.677,48.939,116.709,63.188,116.709,83.867z"/>
						</g>
						<g>
							<path class="st208" d="M116.709,83.867c0,20.676-22.032,37.441-49.209,37.441c-27.178,0-49.209-16.766-49.209-37.441
								c0-20.682,6.261,18.34,49.209,18.34S116.709,63.186,116.709,83.867z"/>
						</g>
						<g>
							<path class="st205" d="M67.5,122.809c-27.961,0-50.709-17.469-50.709-38.941c0-21.27,22.619-46.959,50.709-46.959
								c13.041,0,25.772,5.472,35.849,15.406c9.305,9.174,14.86,20.97,14.86,31.553C118.209,105.34,95.461,122.809,67.5,122.809z
								 M67.5,39.908c-26.428,0-47.709,24.048-47.709,43.959c0,19.818,21.402,35.941,47.709,35.941s47.709-16.123,47.709-35.941
								C115.209,63.956,93.928,39.908,67.5,39.908z"/>
						</g>
					</g>
				</g>
			</g>
		</g>
		<g>
			<path class="st195" d="M77.312,69.186c0,2.066-4.393,0.906-9.812,0.906s-9.812,1.16-9.812-0.906c0-2.064,4.393-3.74,9.812-3.74
				S77.312,67.121,77.312,69.186z"/>
		</g>
	</g>
	<g>
		<path class="st205" d="M94.819,100.275c0,5.844-4.738,10.582-10.582,10.582H52.673c-5.844,0-10.582-4.738-10.582-10.582V81.758
			c0-5.844,4.738-10.582,10.582-10.582h31.564c5.844,0,10.582,4.738,10.582,10.582V100.275z"/>
	</g>
	<g>
		<path class="st236" d="M52.673,89.842c-5.818,0-10.537,4.699-10.578,10.508c0.041,5.809,4.76,10.508,10.578,10.508h31.564
			c5.818,0,10.537-4.699,10.578-10.508c-0.041-5.809-4.76-10.508-10.578-10.508H52.673z"/>
	</g>
	<g>
		<path class="st205" d="M84.237,112.357H52.673c-6.662,0-12.082-5.42-12.082-12.082V81.758c0-6.662,5.42-12.082,12.082-12.082
			h31.564c6.662,0,12.082,5.42,12.082,12.082v18.518C96.319,106.938,90.899,112.357,84.237,112.357z M52.673,72.676
			c-5.008,0-9.082,4.074-9.082,9.082v18.518c0,5.008,4.074,9.082,9.082,9.082h31.564c5.008,0,9.082-4.074,9.082-9.082V81.758
			c0-5.008-4.074-9.082-9.082-9.082H52.673z"/>
	</g>
	<g>
		<g>
			<g>
				<polyline class="st188" points="64.454,72.945 59.27,84.279 54.085,72.945 				"/>
			</g>
			<g>
				<path class="st205" d="M59.27,85.779c-0.587,0-1.12-0.343-1.364-0.876l-5.185-11.334c-0.345-0.753-0.013-1.644,0.74-1.988
					c0.752-0.346,1.645-0.013,1.988,0.74l3.82,8.353l3.82-8.353c0.345-0.753,1.236-1.086,1.988-0.74
					c0.753,0.345,1.085,1.235,0.74,1.988l-5.185,11.334C60.39,85.437,59.856,85.779,59.27,85.779z"/>
			</g>
		</g>
		<g>
			<g>
				<polyline class="st188" points="82.825,72.945 77.641,84.279 72.456,72.945 				"/>
			</g>
			<g>
				<path class="st205" d="M77.641,85.779c-0.587,0-1.12-0.343-1.364-0.876l-5.185-11.334c-0.345-0.753-0.013-1.644,0.74-1.988
					c0.754-0.346,1.644-0.013,1.988,0.74l3.82,8.353l3.82-8.353c0.345-0.753,1.235-1.086,1.988-0.74
					c0.753,0.345,1.085,1.235,0.74,1.988l-5.185,11.334C78.761,85.437,78.228,85.779,77.641,85.779z"/>
			</g>
		</g>
	</g>
	<g>
		<g>
			<g>
				<polyline class="st188" points="77.548,108.793 82.733,97.459 87.919,108.793 				"/>
			</g>
			<g>
				<path class="st205" d="M87.92,110.293c-0.569,0-1.113-0.325-1.365-0.876l-3.821-8.353l-3.821,8.353
					c-0.345,0.753-1.234,1.085-1.988,0.74c-0.753-0.345-1.085-1.235-0.74-1.988l5.186-11.334c0.244-0.534,0.777-0.876,1.364-0.876
					s1.12,0.342,1.364,0.876l5.186,11.334c0.345,0.753,0.013,1.644-0.74,1.988C88.341,110.249,88.129,110.293,87.92,110.293z"/>
			</g>
		</g>
		<g>
			<g>
				<polyline class="st188" points="48.991,108.793 54.177,97.459 59.362,108.793 				"/>
			</g>
			<g>
				<path class="st205" d="M59.363,110.293c-0.569,0-1.113-0.325-1.365-0.876l-3.821-8.353l-3.821,8.353
					c-0.345,0.753-1.236,1.085-1.988,0.74c-0.753-0.345-1.085-1.235-0.74-1.988l5.186-11.334c0.244-0.534,0.777-0.876,1.364-0.876
					s1.12,0.342,1.364,0.876l5.186,11.334c0.345,0.753,0.013,1.644-0.74,1.988C59.784,110.249,59.572,110.293,59.363,110.293z"/>
			</g>
		</g>
	</g>
</g>
</svg>
